%TF.GenerationSoftware,KiCad,Pcbnew,(6.0.1)*%
%TF.CreationDate,2022-11-04T14:47:35-07:00*%
%TF.ProjectId,TxRev3a,54785265-7633-4612-9e6b-696361645f70,rev?*%
%TF.SameCoordinates,Original*%
%TF.FileFunction,Legend,Top*%
%TF.FilePolarity,Positive*%
%FSLAX46Y46*%
G04 Gerber Fmt 4.6, Leading zero omitted, Abs format (unit mm)*
G04 Created by KiCad (PCBNEW (6.0.1)) date 2022-11-04 14:47:35*
%MOMM*%
%LPD*%
G01*
G04 APERTURE LIST*
%ADD10C,0.300000*%
%ADD11C,0.150000*%
%ADD12C,0.254000*%
%ADD13C,0.120000*%
%ADD14C,0.200000*%
%ADD15C,0.100000*%
G04 APERTURE END LIST*
D10*
X200028071Y-69305571D02*
X200028071Y-69019857D01*
X200099500Y-68877000D01*
X200242357Y-68734142D01*
X200528071Y-68662714D01*
X201028071Y-68662714D01*
X201313785Y-68734142D01*
X201456642Y-68877000D01*
X201528071Y-69019857D01*
X201528071Y-69305571D01*
X201456642Y-69448428D01*
X201313785Y-69591285D01*
X201028071Y-69662714D01*
X200528071Y-69662714D01*
X200242357Y-69591285D01*
X200099500Y-69448428D01*
X200028071Y-69305571D01*
X200528071Y-68019857D02*
X201528071Y-68019857D01*
X200670928Y-68019857D02*
X200599500Y-67948428D01*
X200528071Y-67805571D01*
X200528071Y-67591285D01*
X200599500Y-67448428D01*
X200742357Y-67377000D01*
X201528071Y-67377000D01*
X201528071Y-66019857D02*
X200028071Y-66019857D01*
X201456642Y-66019857D02*
X201528071Y-66162714D01*
X201528071Y-66448428D01*
X201456642Y-66591285D01*
X201385214Y-66662714D01*
X201242357Y-66734142D01*
X200813785Y-66734142D01*
X200670928Y-66662714D01*
X200599500Y-66591285D01*
X200528071Y-66448428D01*
X200528071Y-66162714D01*
X200599500Y-66019857D01*
X201528071Y-64662714D02*
X200742357Y-64662714D01*
X200599500Y-64734142D01*
X200528071Y-64877000D01*
X200528071Y-65162714D01*
X200599500Y-65305571D01*
X201456642Y-64662714D02*
X201528071Y-64805571D01*
X201528071Y-65162714D01*
X201456642Y-65305571D01*
X201313785Y-65377000D01*
X201170928Y-65377000D01*
X201028071Y-65305571D01*
X200956642Y-65162714D01*
X200956642Y-64805571D01*
X200885214Y-64662714D01*
X201385214Y-61948428D02*
X201456642Y-62019857D01*
X201528071Y-62234142D01*
X201528071Y-62377000D01*
X201456642Y-62591285D01*
X201313785Y-62734142D01*
X201170928Y-62805571D01*
X200885214Y-62877000D01*
X200670928Y-62877000D01*
X200385214Y-62805571D01*
X200242357Y-62734142D01*
X200099500Y-62591285D01*
X200028071Y-62377000D01*
X200028071Y-62234142D01*
X200099500Y-62019857D01*
X200170928Y-61948428D01*
X201528071Y-61091285D02*
X201456642Y-61234142D01*
X201385214Y-61305571D01*
X201242357Y-61377000D01*
X200813785Y-61377000D01*
X200670928Y-61305571D01*
X200599500Y-61234142D01*
X200528071Y-61091285D01*
X200528071Y-60877000D01*
X200599500Y-60734142D01*
X200670928Y-60662714D01*
X200813785Y-60591285D01*
X201242357Y-60591285D01*
X201385214Y-60662714D01*
X201456642Y-60734142D01*
X201528071Y-60877000D01*
X201528071Y-61091285D01*
X201528071Y-59948428D02*
X200528071Y-59948428D01*
X200813785Y-59948428D02*
X200670928Y-59877000D01*
X200599500Y-59805571D01*
X200528071Y-59662714D01*
X200528071Y-59519857D01*
X200528071Y-59019857D02*
X202028071Y-59019857D01*
X200599500Y-59019857D02*
X200528071Y-58877000D01*
X200528071Y-58591285D01*
X200599500Y-58448428D01*
X200670928Y-58377000D01*
X200813785Y-58305571D01*
X201242357Y-58305571D01*
X201385214Y-58377000D01*
X201456642Y-58448428D01*
X201528071Y-58591285D01*
X201528071Y-58877000D01*
X201456642Y-59019857D01*
X201385214Y-57662714D02*
X201456642Y-57591285D01*
X201528071Y-57662714D01*
X201456642Y-57734142D01*
X201385214Y-57662714D01*
X201528071Y-57662714D01*
X202443071Y-71269857D02*
X203943071Y-70912714D01*
X202871642Y-70627000D01*
X203943071Y-70341285D01*
X202443071Y-69984142D01*
X203943071Y-69412714D02*
X202443071Y-69412714D01*
X202443071Y-68841285D01*
X202514500Y-68698428D01*
X202585928Y-68627000D01*
X202728785Y-68555571D01*
X202943071Y-68555571D01*
X203085928Y-68627000D01*
X203157357Y-68698428D01*
X203228785Y-68841285D01*
X203228785Y-69412714D01*
X202443071Y-68127000D02*
X202443071Y-67269857D01*
X203943071Y-67698428D02*
X202443071Y-67698428D01*
X202443071Y-65841285D02*
X202443071Y-64984142D01*
X203943071Y-65412714D02*
X202443071Y-65412714D01*
X203943071Y-64627000D02*
X202943071Y-63841285D01*
X202943071Y-64627000D02*
X203943071Y-63841285D01*
X203943071Y-61269857D02*
X203228785Y-61769857D01*
X203943071Y-62127000D02*
X202443071Y-62127000D01*
X202443071Y-61555571D01*
X202514500Y-61412714D01*
X202585928Y-61341285D01*
X202728785Y-61269857D01*
X202943071Y-61269857D01*
X203085928Y-61341285D01*
X203157357Y-61412714D01*
X203228785Y-61555571D01*
X203228785Y-62127000D01*
X203871642Y-60055571D02*
X203943071Y-60198428D01*
X203943071Y-60484142D01*
X203871642Y-60627000D01*
X203728785Y-60698428D01*
X203157357Y-60698428D01*
X203014500Y-60627000D01*
X202943071Y-60484142D01*
X202943071Y-60198428D01*
X203014500Y-60055571D01*
X203157357Y-59984142D01*
X203300214Y-59984142D01*
X203443071Y-60698428D01*
X202943071Y-59484142D02*
X203943071Y-59127000D01*
X202943071Y-58769857D01*
X202443071Y-58341285D02*
X202443071Y-57412714D01*
X203014500Y-57912714D01*
X203014500Y-57698428D01*
X203085928Y-57555571D01*
X203157357Y-57484142D01*
X203300214Y-57412714D01*
X203657357Y-57412714D01*
X203800214Y-57484142D01*
X203871642Y-57555571D01*
X203943071Y-57698428D01*
X203943071Y-58127000D01*
X203871642Y-58269857D01*
X203800214Y-58341285D01*
X203943071Y-56127000D02*
X203157357Y-56127000D01*
X203014500Y-56198428D01*
X202943071Y-56341285D01*
X202943071Y-56627000D01*
X203014500Y-56769857D01*
X203871642Y-56127000D02*
X203943071Y-56269857D01*
X203943071Y-56627000D01*
X203871642Y-56769857D01*
X203728785Y-56841285D01*
X203585928Y-56841285D01*
X203443071Y-56769857D01*
X203371642Y-56627000D01*
X203371642Y-56269857D01*
X203300214Y-56127000D01*
D11*
%TO.C,R0*%
X157872133Y-50287180D02*
X157538800Y-49810990D01*
X157300704Y-50287180D02*
X157300704Y-49287180D01*
X157681657Y-49287180D01*
X157776895Y-49334800D01*
X157824514Y-49382419D01*
X157872133Y-49477657D01*
X157872133Y-49620514D01*
X157824514Y-49715752D01*
X157776895Y-49763371D01*
X157681657Y-49810990D01*
X157300704Y-49810990D01*
X158491180Y-49287180D02*
X158586419Y-49287180D01*
X158681657Y-49334800D01*
X158729276Y-49382419D01*
X158776895Y-49477657D01*
X158824514Y-49668133D01*
X158824514Y-49906228D01*
X158776895Y-50096704D01*
X158729276Y-50191942D01*
X158681657Y-50239561D01*
X158586419Y-50287180D01*
X158491180Y-50287180D01*
X158395942Y-50239561D01*
X158348323Y-50191942D01*
X158300704Y-50096704D01*
X158253085Y-49906228D01*
X158253085Y-49668133D01*
X158300704Y-49477657D01*
X158348323Y-49382419D01*
X158395942Y-49334800D01*
X158491180Y-49287180D01*
%TO.C,C14*%
X135958342Y-110389942D02*
X135910723Y-110437561D01*
X135767866Y-110485180D01*
X135672628Y-110485180D01*
X135529771Y-110437561D01*
X135434533Y-110342323D01*
X135386914Y-110247085D01*
X135339295Y-110056609D01*
X135339295Y-109913752D01*
X135386914Y-109723276D01*
X135434533Y-109628038D01*
X135529771Y-109532800D01*
X135672628Y-109485180D01*
X135767866Y-109485180D01*
X135910723Y-109532800D01*
X135958342Y-109580419D01*
X136910723Y-110485180D02*
X136339295Y-110485180D01*
X136625009Y-110485180D02*
X136625009Y-109485180D01*
X136529771Y-109628038D01*
X136434533Y-109723276D01*
X136339295Y-109770895D01*
X137767866Y-109818514D02*
X137767866Y-110485180D01*
X137529771Y-109437561D02*
X137291676Y-110151847D01*
X137910723Y-110151847D01*
%TO.C,C4*%
X201128333Y-97526142D02*
X201080714Y-97573761D01*
X200937857Y-97621380D01*
X200842619Y-97621380D01*
X200699761Y-97573761D01*
X200604523Y-97478523D01*
X200556904Y-97383285D01*
X200509285Y-97192809D01*
X200509285Y-97049952D01*
X200556904Y-96859476D01*
X200604523Y-96764238D01*
X200699761Y-96669000D01*
X200842619Y-96621380D01*
X200937857Y-96621380D01*
X201080714Y-96669000D01*
X201128333Y-96716619D01*
X201985476Y-96954714D02*
X201985476Y-97621380D01*
X201747380Y-96573761D02*
X201509285Y-97288047D01*
X202128333Y-97288047D01*
%TO.C,C5*%
X201128333Y-105146142D02*
X201080714Y-105193761D01*
X200937857Y-105241380D01*
X200842619Y-105241380D01*
X200699761Y-105193761D01*
X200604523Y-105098523D01*
X200556904Y-105003285D01*
X200509285Y-104812809D01*
X200509285Y-104669952D01*
X200556904Y-104479476D01*
X200604523Y-104384238D01*
X200699761Y-104289000D01*
X200842619Y-104241380D01*
X200937857Y-104241380D01*
X201080714Y-104289000D01*
X201128333Y-104336619D01*
X202033095Y-104241380D02*
X201556904Y-104241380D01*
X201509285Y-104717571D01*
X201556904Y-104669952D01*
X201652142Y-104622333D01*
X201890238Y-104622333D01*
X201985476Y-104669952D01*
X202033095Y-104717571D01*
X202080714Y-104812809D01*
X202080714Y-105050904D01*
X202033095Y-105146142D01*
X201985476Y-105193761D01*
X201890238Y-105241380D01*
X201652142Y-105241380D01*
X201556904Y-105193761D01*
X201509285Y-105146142D01*
%TO.C,C6*%
X201128333Y-112766142D02*
X201080714Y-112813761D01*
X200937857Y-112861380D01*
X200842619Y-112861380D01*
X200699761Y-112813761D01*
X200604523Y-112718523D01*
X200556904Y-112623285D01*
X200509285Y-112432809D01*
X200509285Y-112289952D01*
X200556904Y-112099476D01*
X200604523Y-112004238D01*
X200699761Y-111909000D01*
X200842619Y-111861380D01*
X200937857Y-111861380D01*
X201080714Y-111909000D01*
X201128333Y-111956619D01*
X201985476Y-111861380D02*
X201795000Y-111861380D01*
X201699761Y-111909000D01*
X201652142Y-111956619D01*
X201556904Y-112099476D01*
X201509285Y-112289952D01*
X201509285Y-112670904D01*
X201556904Y-112766142D01*
X201604523Y-112813761D01*
X201699761Y-112861380D01*
X201890238Y-112861380D01*
X201985476Y-112813761D01*
X202033095Y-112766142D01*
X202080714Y-112670904D01*
X202080714Y-112432809D01*
X202033095Y-112337571D01*
X201985476Y-112289952D01*
X201890238Y-112242333D01*
X201699761Y-112242333D01*
X201604523Y-112289952D01*
X201556904Y-112337571D01*
X201509285Y-112432809D01*
%TO.C,C7*%
X204684333Y-118213142D02*
X204636714Y-118260761D01*
X204493857Y-118308380D01*
X204398619Y-118308380D01*
X204255761Y-118260761D01*
X204160523Y-118165523D01*
X204112904Y-118070285D01*
X204065285Y-117879809D01*
X204065285Y-117736952D01*
X204112904Y-117546476D01*
X204160523Y-117451238D01*
X204255761Y-117356000D01*
X204398619Y-117308380D01*
X204493857Y-117308380D01*
X204636714Y-117356000D01*
X204684333Y-117403619D01*
X205017666Y-117308380D02*
X205684333Y-117308380D01*
X205255761Y-118308380D01*
%TO.C,C52*%
X197477142Y-54132142D02*
X197429523Y-54179761D01*
X197286666Y-54227380D01*
X197191428Y-54227380D01*
X197048571Y-54179761D01*
X196953333Y-54084523D01*
X196905714Y-53989285D01*
X196858095Y-53798809D01*
X196858095Y-53655952D01*
X196905714Y-53465476D01*
X196953333Y-53370238D01*
X197048571Y-53275000D01*
X197191428Y-53227380D01*
X197286666Y-53227380D01*
X197429523Y-53275000D01*
X197477142Y-53322619D01*
X198381904Y-53227380D02*
X197905714Y-53227380D01*
X197858095Y-53703571D01*
X197905714Y-53655952D01*
X198000952Y-53608333D01*
X198239047Y-53608333D01*
X198334285Y-53655952D01*
X198381904Y-53703571D01*
X198429523Y-53798809D01*
X198429523Y-54036904D01*
X198381904Y-54132142D01*
X198334285Y-54179761D01*
X198239047Y-54227380D01*
X198000952Y-54227380D01*
X197905714Y-54179761D01*
X197858095Y-54132142D01*
X198810476Y-53322619D02*
X198858095Y-53275000D01*
X198953333Y-53227380D01*
X199191428Y-53227380D01*
X199286666Y-53275000D01*
X199334285Y-53322619D01*
X199381904Y-53417857D01*
X199381904Y-53513095D01*
X199334285Y-53655952D01*
X198762857Y-54227380D01*
X199381904Y-54227380D01*
%TO.C,D1*%
X168933904Y-63952380D02*
X168933904Y-62952380D01*
X169172000Y-62952380D01*
X169314857Y-63000000D01*
X169410095Y-63095238D01*
X169457714Y-63190476D01*
X169505333Y-63380952D01*
X169505333Y-63523809D01*
X169457714Y-63714285D01*
X169410095Y-63809523D01*
X169314857Y-63904761D01*
X169172000Y-63952380D01*
X168933904Y-63952380D01*
X170457714Y-63952380D02*
X169886285Y-63952380D01*
X170172000Y-63952380D02*
X170172000Y-62952380D01*
X170076761Y-63095238D01*
X169981523Y-63190476D01*
X169886285Y-63238095D01*
%TO.C,D2*%
X172743904Y-76811380D02*
X172743904Y-75811380D01*
X172982000Y-75811380D01*
X173124857Y-75859000D01*
X173220095Y-75954238D01*
X173267714Y-76049476D01*
X173315333Y-76239952D01*
X173315333Y-76382809D01*
X173267714Y-76573285D01*
X173220095Y-76668523D01*
X173124857Y-76763761D01*
X172982000Y-76811380D01*
X172743904Y-76811380D01*
X173696285Y-75906619D02*
X173743904Y-75859000D01*
X173839142Y-75811380D01*
X174077238Y-75811380D01*
X174172476Y-75859000D01*
X174220095Y-75906619D01*
X174267714Y-76001857D01*
X174267714Y-76097095D01*
X174220095Y-76239952D01*
X173648666Y-76811380D01*
X174267714Y-76811380D01*
%TO.C,D3*%
X162351980Y-62663295D02*
X161351980Y-62663295D01*
X161351980Y-62425200D01*
X161399600Y-62282342D01*
X161494838Y-62187104D01*
X161590076Y-62139485D01*
X161780552Y-62091866D01*
X161923409Y-62091866D01*
X162113885Y-62139485D01*
X162209123Y-62187104D01*
X162304361Y-62282342D01*
X162351980Y-62425200D01*
X162351980Y-62663295D01*
X161351980Y-61758533D02*
X161351980Y-61139485D01*
X161732933Y-61472819D01*
X161732933Y-61329961D01*
X161780552Y-61234723D01*
X161828171Y-61187104D01*
X161923409Y-61139485D01*
X162161504Y-61139485D01*
X162256742Y-61187104D01*
X162304361Y-61234723D01*
X162351980Y-61329961D01*
X162351980Y-61615676D01*
X162304361Y-61710914D01*
X162256742Y-61758533D01*
%TO.C,D4*%
X169641904Y-106402380D02*
X169641904Y-105402380D01*
X169880000Y-105402380D01*
X170022857Y-105450000D01*
X170118095Y-105545238D01*
X170165714Y-105640476D01*
X170213333Y-105830952D01*
X170213333Y-105973809D01*
X170165714Y-106164285D01*
X170118095Y-106259523D01*
X170022857Y-106354761D01*
X169880000Y-106402380D01*
X169641904Y-106402380D01*
X171070476Y-105735714D02*
X171070476Y-106402380D01*
X170832380Y-105354761D02*
X170594285Y-106069047D01*
X171213333Y-106069047D01*
%TO.C,D5*%
X172616904Y-90781380D02*
X172616904Y-89781380D01*
X172855000Y-89781380D01*
X172997857Y-89829000D01*
X173093095Y-89924238D01*
X173140714Y-90019476D01*
X173188333Y-90209952D01*
X173188333Y-90352809D01*
X173140714Y-90543285D01*
X173093095Y-90638523D01*
X172997857Y-90733761D01*
X172855000Y-90781380D01*
X172616904Y-90781380D01*
X174093095Y-89781380D02*
X173616904Y-89781380D01*
X173569285Y-90257571D01*
X173616904Y-90209952D01*
X173712142Y-90162333D01*
X173950238Y-90162333D01*
X174045476Y-90209952D01*
X174093095Y-90257571D01*
X174140714Y-90352809D01*
X174140714Y-90590904D01*
X174093095Y-90686142D01*
X174045476Y-90733761D01*
X173950238Y-90781380D01*
X173712142Y-90781380D01*
X173616904Y-90733761D01*
X173569285Y-90686142D01*
%TO.C,D6*%
X160377380Y-90908095D02*
X159377380Y-90908095D01*
X159377380Y-90670000D01*
X159425000Y-90527142D01*
X159520238Y-90431904D01*
X159615476Y-90384285D01*
X159805952Y-90336666D01*
X159948809Y-90336666D01*
X160139285Y-90384285D01*
X160234523Y-90431904D01*
X160329761Y-90527142D01*
X160377380Y-90670000D01*
X160377380Y-90908095D01*
X159377380Y-89479523D02*
X159377380Y-89670000D01*
X159425000Y-89765238D01*
X159472619Y-89812857D01*
X159615476Y-89908095D01*
X159805952Y-89955714D01*
X160186904Y-89955714D01*
X160282142Y-89908095D01*
X160329761Y-89860476D01*
X160377380Y-89765238D01*
X160377380Y-89574761D01*
X160329761Y-89479523D01*
X160282142Y-89431904D01*
X160186904Y-89384285D01*
X159948809Y-89384285D01*
X159853571Y-89431904D01*
X159805952Y-89479523D01*
X159758333Y-89574761D01*
X159758333Y-89765238D01*
X159805952Y-89860476D01*
X159853571Y-89908095D01*
X159948809Y-89955714D01*
%TO.C,U4*%
X143408495Y-118578380D02*
X143408495Y-119387904D01*
X143456114Y-119483142D01*
X143503733Y-119530761D01*
X143598971Y-119578380D01*
X143789447Y-119578380D01*
X143884685Y-119530761D01*
X143932304Y-119483142D01*
X143979923Y-119387904D01*
X143979923Y-118578380D01*
X144884685Y-118911714D02*
X144884685Y-119578380D01*
X144646590Y-118530761D02*
X144408495Y-119245047D01*
X145027542Y-119245047D01*
%TO.C,U7*%
X147320095Y-67270380D02*
X147320095Y-68079904D01*
X147367714Y-68175142D01*
X147415333Y-68222761D01*
X147510571Y-68270380D01*
X147701047Y-68270380D01*
X147796285Y-68222761D01*
X147843904Y-68175142D01*
X147891523Y-68079904D01*
X147891523Y-67270380D01*
X148272476Y-67270380D02*
X148939142Y-67270380D01*
X148510571Y-68270380D01*
%TO.C,C9*%
X165593733Y-99264742D02*
X165546114Y-99312361D01*
X165403257Y-99359980D01*
X165308019Y-99359980D01*
X165165161Y-99312361D01*
X165069923Y-99217123D01*
X165022304Y-99121885D01*
X164974685Y-98931409D01*
X164974685Y-98788552D01*
X165022304Y-98598076D01*
X165069923Y-98502838D01*
X165165161Y-98407600D01*
X165308019Y-98359980D01*
X165403257Y-98359980D01*
X165546114Y-98407600D01*
X165593733Y-98455219D01*
X166069923Y-99359980D02*
X166260400Y-99359980D01*
X166355638Y-99312361D01*
X166403257Y-99264742D01*
X166498495Y-99121885D01*
X166546114Y-98931409D01*
X166546114Y-98550457D01*
X166498495Y-98455219D01*
X166450876Y-98407600D01*
X166355638Y-98359980D01*
X166165161Y-98359980D01*
X166069923Y-98407600D01*
X166022304Y-98455219D01*
X165974685Y-98550457D01*
X165974685Y-98788552D01*
X166022304Y-98883790D01*
X166069923Y-98931409D01*
X166165161Y-98979028D01*
X166355638Y-98979028D01*
X166450876Y-98931409D01*
X166498495Y-98883790D01*
X166546114Y-98788552D01*
%TO.C,R2*%
X173188333Y-80971380D02*
X172855000Y-80495190D01*
X172616904Y-80971380D02*
X172616904Y-79971380D01*
X172997857Y-79971380D01*
X173093095Y-80019000D01*
X173140714Y-80066619D01*
X173188333Y-80161857D01*
X173188333Y-80304714D01*
X173140714Y-80399952D01*
X173093095Y-80447571D01*
X172997857Y-80495190D01*
X172616904Y-80495190D01*
X173569285Y-80066619D02*
X173616904Y-80019000D01*
X173712142Y-79971380D01*
X173950238Y-79971380D01*
X174045476Y-80019000D01*
X174093095Y-80066619D01*
X174140714Y-80161857D01*
X174140714Y-80257095D01*
X174093095Y-80399952D01*
X173521666Y-80971380D01*
X174140714Y-80971380D01*
D12*
%TO.C,L2*%
X168571333Y-54549523D02*
X167966571Y-54549523D01*
X167966571Y-53279523D01*
X168934190Y-53400476D02*
X168994666Y-53340000D01*
X169115619Y-53279523D01*
X169418000Y-53279523D01*
X169538952Y-53340000D01*
X169599428Y-53400476D01*
X169659904Y-53521428D01*
X169659904Y-53642380D01*
X169599428Y-53823809D01*
X168873714Y-54549523D01*
X169659904Y-54549523D01*
D11*
%TO.C,SW1*%
X163131666Y-126678761D02*
X163274523Y-126726380D01*
X163512619Y-126726380D01*
X163607857Y-126678761D01*
X163655476Y-126631142D01*
X163703095Y-126535904D01*
X163703095Y-126440666D01*
X163655476Y-126345428D01*
X163607857Y-126297809D01*
X163512619Y-126250190D01*
X163322142Y-126202571D01*
X163226904Y-126154952D01*
X163179285Y-126107333D01*
X163131666Y-126012095D01*
X163131666Y-125916857D01*
X163179285Y-125821619D01*
X163226904Y-125774000D01*
X163322142Y-125726380D01*
X163560238Y-125726380D01*
X163703095Y-125774000D01*
X164036428Y-125726380D02*
X164274523Y-126726380D01*
X164465000Y-126012095D01*
X164655476Y-126726380D01*
X164893571Y-125726380D01*
X165798333Y-126726380D02*
X165226904Y-126726380D01*
X165512619Y-126726380D02*
X165512619Y-125726380D01*
X165417380Y-125869238D01*
X165322142Y-125964476D01*
X165226904Y-126012095D01*
%TO.C,R13*%
X134358142Y-102432389D02*
X134024809Y-101956199D01*
X133786714Y-102432389D02*
X133786714Y-101432389D01*
X134167666Y-101432389D01*
X134262904Y-101480009D01*
X134310523Y-101527628D01*
X134358142Y-101622866D01*
X134358142Y-101765723D01*
X134310523Y-101860961D01*
X134262904Y-101908580D01*
X134167666Y-101956199D01*
X133786714Y-101956199D01*
X135310523Y-102432389D02*
X134739095Y-102432389D01*
X135024809Y-102432389D02*
X135024809Y-101432389D01*
X134929571Y-101575247D01*
X134834333Y-101670485D01*
X134739095Y-101718104D01*
X135643857Y-101432389D02*
X136262904Y-101432389D01*
X135929571Y-101813342D01*
X136072428Y-101813342D01*
X136167666Y-101860961D01*
X136215285Y-101908580D01*
X136262904Y-102003818D01*
X136262904Y-102241913D01*
X136215285Y-102337151D01*
X136167666Y-102384770D01*
X136072428Y-102432389D01*
X135786714Y-102432389D01*
X135691476Y-102384770D01*
X135643857Y-102337151D01*
%TO.C,C12*%
X133857142Y-81857142D02*
X133809523Y-81904761D01*
X133666666Y-81952380D01*
X133571428Y-81952380D01*
X133428571Y-81904761D01*
X133333333Y-81809523D01*
X133285714Y-81714285D01*
X133238095Y-81523809D01*
X133238095Y-81380952D01*
X133285714Y-81190476D01*
X133333333Y-81095238D01*
X133428571Y-81000000D01*
X133571428Y-80952380D01*
X133666666Y-80952380D01*
X133809523Y-81000000D01*
X133857142Y-81047619D01*
X134809523Y-81952380D02*
X134238095Y-81952380D01*
X134523809Y-81952380D02*
X134523809Y-80952380D01*
X134428571Y-81095238D01*
X134333333Y-81190476D01*
X134238095Y-81238095D01*
X135190476Y-81047619D02*
X135238095Y-81000000D01*
X135333333Y-80952380D01*
X135571428Y-80952380D01*
X135666666Y-81000000D01*
X135714285Y-81047619D01*
X135761904Y-81142857D01*
X135761904Y-81238095D01*
X135714285Y-81380952D01*
X135142857Y-81952380D01*
X135761904Y-81952380D01*
%TO.C,R5*%
X178378380Y-70016666D02*
X177902190Y-70350000D01*
X178378380Y-70588095D02*
X177378380Y-70588095D01*
X177378380Y-70207142D01*
X177426000Y-70111904D01*
X177473619Y-70064285D01*
X177568857Y-70016666D01*
X177711714Y-70016666D01*
X177806952Y-70064285D01*
X177854571Y-70111904D01*
X177902190Y-70207142D01*
X177902190Y-70588095D01*
X177378380Y-69111904D02*
X177378380Y-69588095D01*
X177854571Y-69635714D01*
X177806952Y-69588095D01*
X177759333Y-69492857D01*
X177759333Y-69254761D01*
X177806952Y-69159523D01*
X177854571Y-69111904D01*
X177949809Y-69064285D01*
X178187904Y-69064285D01*
X178283142Y-69111904D01*
X178330761Y-69159523D01*
X178378380Y-69254761D01*
X178378380Y-69492857D01*
X178330761Y-69588095D01*
X178283142Y-69635714D01*
%TO.C,C8*%
X168157142Y-110504266D02*
X168204761Y-110551885D01*
X168252380Y-110694742D01*
X168252380Y-110789980D01*
X168204761Y-110932838D01*
X168109523Y-111028076D01*
X168014285Y-111075695D01*
X167823809Y-111123314D01*
X167680952Y-111123314D01*
X167490476Y-111075695D01*
X167395238Y-111028076D01*
X167300000Y-110932838D01*
X167252380Y-110789980D01*
X167252380Y-110694742D01*
X167300000Y-110551885D01*
X167347619Y-110504266D01*
X167680952Y-109932838D02*
X167633333Y-110028076D01*
X167585714Y-110075695D01*
X167490476Y-110123314D01*
X167442857Y-110123314D01*
X167347619Y-110075695D01*
X167300000Y-110028076D01*
X167252380Y-109932838D01*
X167252380Y-109742361D01*
X167300000Y-109647123D01*
X167347619Y-109599504D01*
X167442857Y-109551885D01*
X167490476Y-109551885D01*
X167585714Y-109599504D01*
X167633333Y-109647123D01*
X167680952Y-109742361D01*
X167680952Y-109932838D01*
X167728571Y-110028076D01*
X167776190Y-110075695D01*
X167871428Y-110123314D01*
X168061904Y-110123314D01*
X168157142Y-110075695D01*
X168204761Y-110028076D01*
X168252380Y-109932838D01*
X168252380Y-109742361D01*
X168204761Y-109647123D01*
X168157142Y-109599504D01*
X168061904Y-109551885D01*
X167871428Y-109551885D01*
X167776190Y-109599504D01*
X167728571Y-109647123D01*
X167680952Y-109742361D01*
%TO.C,TP2*%
X200795095Y-120483380D02*
X201366523Y-120483380D01*
X201080809Y-121483380D02*
X201080809Y-120483380D01*
X201699857Y-121483380D02*
X201699857Y-120483380D01*
X202080809Y-120483380D01*
X202176047Y-120531000D01*
X202223666Y-120578619D01*
X202271285Y-120673857D01*
X202271285Y-120816714D01*
X202223666Y-120911952D01*
X202176047Y-120959571D01*
X202080809Y-121007190D01*
X201699857Y-121007190D01*
X202652238Y-120578619D02*
X202699857Y-120531000D01*
X202795095Y-120483380D01*
X203033190Y-120483380D01*
X203128428Y-120531000D01*
X203176047Y-120578619D01*
X203223666Y-120673857D01*
X203223666Y-120769095D01*
X203176047Y-120911952D01*
X202604619Y-121483380D01*
X203223666Y-121483380D01*
%TO.C,C13*%
X154662142Y-60967858D02*
X154709761Y-61015477D01*
X154757380Y-61158334D01*
X154757380Y-61253572D01*
X154709761Y-61396429D01*
X154614523Y-61491667D01*
X154519285Y-61539286D01*
X154328809Y-61586905D01*
X154185952Y-61586905D01*
X153995476Y-61539286D01*
X153900238Y-61491667D01*
X153805000Y-61396429D01*
X153757380Y-61253572D01*
X153757380Y-61158334D01*
X153805000Y-61015477D01*
X153852619Y-60967858D01*
X154757380Y-60015477D02*
X154757380Y-60586905D01*
X154757380Y-60301191D02*
X153757380Y-60301191D01*
X153900238Y-60396429D01*
X153995476Y-60491667D01*
X154043095Y-60586905D01*
X153757380Y-59682143D02*
X153757380Y-59063096D01*
X154138333Y-59396429D01*
X154138333Y-59253572D01*
X154185952Y-59158334D01*
X154233571Y-59110715D01*
X154328809Y-59063096D01*
X154566904Y-59063096D01*
X154662142Y-59110715D01*
X154709761Y-59158334D01*
X154757380Y-59253572D01*
X154757380Y-59539286D01*
X154709761Y-59634524D01*
X154662142Y-59682143D01*
D12*
%TO.C,D8*%
X129547626Y-99146513D02*
X129547626Y-97876513D01*
X129850007Y-97876513D01*
X130031435Y-97936990D01*
X130152387Y-98057942D01*
X130212864Y-98178894D01*
X130273340Y-98420799D01*
X130273340Y-98602228D01*
X130212864Y-98844132D01*
X130152387Y-98965085D01*
X130031435Y-99086037D01*
X129850007Y-99146513D01*
X129547626Y-99146513D01*
X130999054Y-98420799D02*
X130878102Y-98360323D01*
X130817626Y-98299847D01*
X130757149Y-98178894D01*
X130757149Y-98118418D01*
X130817626Y-97997466D01*
X130878102Y-97936990D01*
X130999054Y-97876513D01*
X131240959Y-97876513D01*
X131361911Y-97936990D01*
X131422387Y-97997466D01*
X131482864Y-98118418D01*
X131482864Y-98178894D01*
X131422387Y-98299847D01*
X131361911Y-98360323D01*
X131240959Y-98420799D01*
X130999054Y-98420799D01*
X130878102Y-98481275D01*
X130817626Y-98541751D01*
X130757149Y-98662704D01*
X130757149Y-98904609D01*
X130817626Y-99025561D01*
X130878102Y-99086037D01*
X130999054Y-99146513D01*
X131240959Y-99146513D01*
X131361911Y-99086037D01*
X131422387Y-99025561D01*
X131482864Y-98904609D01*
X131482864Y-98662704D01*
X131422387Y-98541751D01*
X131361911Y-98481275D01*
X131240959Y-98420799D01*
D11*
%TO.C,C3*%
X168258742Y-79719466D02*
X168306361Y-79767085D01*
X168353980Y-79909942D01*
X168353980Y-80005180D01*
X168306361Y-80148038D01*
X168211123Y-80243276D01*
X168115885Y-80290895D01*
X167925409Y-80338514D01*
X167782552Y-80338514D01*
X167592076Y-80290895D01*
X167496838Y-80243276D01*
X167401600Y-80148038D01*
X167353980Y-80005180D01*
X167353980Y-79909942D01*
X167401600Y-79767085D01*
X167449219Y-79719466D01*
X167353980Y-79386133D02*
X167353980Y-78767085D01*
X167734933Y-79100419D01*
X167734933Y-78957561D01*
X167782552Y-78862323D01*
X167830171Y-78814704D01*
X167925409Y-78767085D01*
X168163504Y-78767085D01*
X168258742Y-78814704D01*
X168306361Y-78862323D01*
X168353980Y-78957561D01*
X168353980Y-79243276D01*
X168306361Y-79338514D01*
X168258742Y-79386133D01*
%TO.C,R1*%
X172934333Y-65858380D02*
X172601000Y-65382190D01*
X172362904Y-65858380D02*
X172362904Y-64858380D01*
X172743857Y-64858380D01*
X172839095Y-64906000D01*
X172886714Y-64953619D01*
X172934333Y-65048857D01*
X172934333Y-65191714D01*
X172886714Y-65286952D01*
X172839095Y-65334571D01*
X172743857Y-65382190D01*
X172362904Y-65382190D01*
X173886714Y-65858380D02*
X173315285Y-65858380D01*
X173601000Y-65858380D02*
X173601000Y-64858380D01*
X173505761Y-65001238D01*
X173410523Y-65096476D01*
X173315285Y-65144095D01*
%TO.C,H1*%
X203809695Y-53639980D02*
X203809695Y-52639980D01*
X203809695Y-53116171D02*
X204381123Y-53116171D01*
X204381123Y-53639980D02*
X204381123Y-52639980D01*
X205381123Y-53639980D02*
X204809695Y-53639980D01*
X205095409Y-53639980D02*
X205095409Y-52639980D01*
X205000171Y-52782838D01*
X204904933Y-52878076D01*
X204809695Y-52925695D01*
%TO.C,F1*%
X148663066Y-49407771D02*
X148329733Y-49407771D01*
X148329733Y-49931580D02*
X148329733Y-48931580D01*
X148805923Y-48931580D01*
X149710685Y-49931580D02*
X149139257Y-49931580D01*
X149424971Y-49931580D02*
X149424971Y-48931580D01*
X149329733Y-49074438D01*
X149234495Y-49169676D01*
X149139257Y-49217295D01*
%TO.C,C1*%
X166038142Y-71921666D02*
X166085761Y-71969285D01*
X166133380Y-72112142D01*
X166133380Y-72207380D01*
X166085761Y-72350238D01*
X165990523Y-72445476D01*
X165895285Y-72493095D01*
X165704809Y-72540714D01*
X165561952Y-72540714D01*
X165371476Y-72493095D01*
X165276238Y-72445476D01*
X165181000Y-72350238D01*
X165133380Y-72207380D01*
X165133380Y-72112142D01*
X165181000Y-71969285D01*
X165228619Y-71921666D01*
X166133380Y-70969285D02*
X166133380Y-71540714D01*
X166133380Y-71255000D02*
X165133380Y-71255000D01*
X165276238Y-71350238D01*
X165371476Y-71445476D01*
X165419095Y-71540714D01*
%TO.C,R7*%
X177743380Y-100496666D02*
X177267190Y-100830000D01*
X177743380Y-101068095D02*
X176743380Y-101068095D01*
X176743380Y-100687142D01*
X176791000Y-100591904D01*
X176838619Y-100544285D01*
X176933857Y-100496666D01*
X177076714Y-100496666D01*
X177171952Y-100544285D01*
X177219571Y-100591904D01*
X177267190Y-100687142D01*
X177267190Y-101068095D01*
X176743380Y-100163333D02*
X176743380Y-99496666D01*
X177743380Y-99925238D01*
%TO.C,C17*%
X132894342Y-117076457D02*
X132941961Y-117124076D01*
X132989580Y-117266933D01*
X132989580Y-117362171D01*
X132941961Y-117505028D01*
X132846723Y-117600266D01*
X132751485Y-117647885D01*
X132561009Y-117695504D01*
X132418152Y-117695504D01*
X132227676Y-117647885D01*
X132132438Y-117600266D01*
X132037200Y-117505028D01*
X131989580Y-117362171D01*
X131989580Y-117266933D01*
X132037200Y-117124076D01*
X132084819Y-117076457D01*
X132989580Y-116124076D02*
X132989580Y-116695504D01*
X132989580Y-116409790D02*
X131989580Y-116409790D01*
X132132438Y-116505028D01*
X132227676Y-116600266D01*
X132275295Y-116695504D01*
X131989580Y-115790742D02*
X131989580Y-115124076D01*
X132989580Y-115552647D01*
%TO.C,C18*%
X140107942Y-122308857D02*
X140155561Y-122356476D01*
X140203180Y-122499333D01*
X140203180Y-122594571D01*
X140155561Y-122737428D01*
X140060323Y-122832666D01*
X139965085Y-122880285D01*
X139774609Y-122927904D01*
X139631752Y-122927904D01*
X139441276Y-122880285D01*
X139346038Y-122832666D01*
X139250800Y-122737428D01*
X139203180Y-122594571D01*
X139203180Y-122499333D01*
X139250800Y-122356476D01*
X139298419Y-122308857D01*
X140203180Y-121356476D02*
X140203180Y-121927904D01*
X140203180Y-121642190D02*
X139203180Y-121642190D01*
X139346038Y-121737428D01*
X139441276Y-121832666D01*
X139488895Y-121927904D01*
X139631752Y-120785047D02*
X139584133Y-120880285D01*
X139536514Y-120927904D01*
X139441276Y-120975523D01*
X139393657Y-120975523D01*
X139298419Y-120927904D01*
X139250800Y-120880285D01*
X139203180Y-120785047D01*
X139203180Y-120594571D01*
X139250800Y-120499333D01*
X139298419Y-120451714D01*
X139393657Y-120404095D01*
X139441276Y-120404095D01*
X139536514Y-120451714D01*
X139584133Y-120499333D01*
X139631752Y-120594571D01*
X139631752Y-120785047D01*
X139679371Y-120880285D01*
X139726990Y-120927904D01*
X139822228Y-120975523D01*
X140012704Y-120975523D01*
X140107942Y-120927904D01*
X140155561Y-120880285D01*
X140203180Y-120785047D01*
X140203180Y-120594571D01*
X140155561Y-120499333D01*
X140107942Y-120451714D01*
X140012704Y-120404095D01*
X139822228Y-120404095D01*
X139726990Y-120451714D01*
X139679371Y-120499333D01*
X139631752Y-120594571D01*
%TO.C,U2*%
X143246095Y-114661380D02*
X143246095Y-115470904D01*
X143293714Y-115566142D01*
X143341333Y-115613761D01*
X143436571Y-115661380D01*
X143627047Y-115661380D01*
X143722285Y-115613761D01*
X143769904Y-115566142D01*
X143817523Y-115470904D01*
X143817523Y-114661380D01*
X144246095Y-114756619D02*
X144293714Y-114709000D01*
X144388952Y-114661380D01*
X144627047Y-114661380D01*
X144722285Y-114709000D01*
X144769904Y-114756619D01*
X144817523Y-114851857D01*
X144817523Y-114947095D01*
X144769904Y-115089952D01*
X144198476Y-115661380D01*
X144817523Y-115661380D01*
%TO.C,Q3*%
X186721761Y-93719619D02*
X186626523Y-93672000D01*
X186531285Y-93576761D01*
X186388428Y-93433904D01*
X186293190Y-93386285D01*
X186197952Y-93386285D01*
X186245571Y-93624380D02*
X186150333Y-93576761D01*
X186055095Y-93481523D01*
X186007476Y-93291047D01*
X186007476Y-92957714D01*
X186055095Y-92767238D01*
X186150333Y-92672000D01*
X186245571Y-92624380D01*
X186436047Y-92624380D01*
X186531285Y-92672000D01*
X186626523Y-92767238D01*
X186674142Y-92957714D01*
X186674142Y-93291047D01*
X186626523Y-93481523D01*
X186531285Y-93576761D01*
X186436047Y-93624380D01*
X186245571Y-93624380D01*
X187007476Y-92624380D02*
X187626523Y-92624380D01*
X187293190Y-93005333D01*
X187436047Y-93005333D01*
X187531285Y-93052952D01*
X187578904Y-93100571D01*
X187626523Y-93195809D01*
X187626523Y-93433904D01*
X187578904Y-93529142D01*
X187531285Y-93576761D01*
X187436047Y-93624380D01*
X187150333Y-93624380D01*
X187055095Y-93576761D01*
X187007476Y-93529142D01*
%TO.C,U1*%
X157924095Y-84083380D02*
X157924095Y-84892904D01*
X157971714Y-84988142D01*
X158019333Y-85035761D01*
X158114571Y-85083380D01*
X158305047Y-85083380D01*
X158400285Y-85035761D01*
X158447904Y-84988142D01*
X158495523Y-84892904D01*
X158495523Y-84083380D01*
X159495523Y-85083380D02*
X158924095Y-85083380D01*
X159209809Y-85083380D02*
X159209809Y-84083380D01*
X159114571Y-84226238D01*
X159019333Y-84321476D01*
X158924095Y-84369095D01*
%TO.C,Q1*%
X186836761Y-63258619D02*
X186741523Y-63211000D01*
X186646285Y-63115761D01*
X186503428Y-62972904D01*
X186408190Y-62925285D01*
X186312952Y-62925285D01*
X186360571Y-63163380D02*
X186265333Y-63115761D01*
X186170095Y-63020523D01*
X186122476Y-62830047D01*
X186122476Y-62496714D01*
X186170095Y-62306238D01*
X186265333Y-62211000D01*
X186360571Y-62163380D01*
X186551047Y-62163380D01*
X186646285Y-62211000D01*
X186741523Y-62306238D01*
X186789142Y-62496714D01*
X186789142Y-62830047D01*
X186741523Y-63020523D01*
X186646285Y-63115761D01*
X186551047Y-63163380D01*
X186360571Y-63163380D01*
X187741523Y-63163380D02*
X187170095Y-63163380D01*
X187455809Y-63163380D02*
X187455809Y-62163380D01*
X187360571Y-62306238D01*
X187265333Y-62401476D01*
X187170095Y-62449095D01*
%TO.C,J2*%
X205954380Y-84915333D02*
X206668666Y-84915333D01*
X206811523Y-84962952D01*
X206906761Y-85058190D01*
X206954380Y-85201047D01*
X206954380Y-85296285D01*
X206049619Y-84486761D02*
X206002000Y-84439142D01*
X205954380Y-84343904D01*
X205954380Y-84105809D01*
X206002000Y-84010571D01*
X206049619Y-83962952D01*
X206144857Y-83915333D01*
X206240095Y-83915333D01*
X206382952Y-83962952D01*
X206954380Y-84534380D01*
X206954380Y-83915333D01*
%TO.C,Q4*%
X186733761Y-108978619D02*
X186638523Y-108931000D01*
X186543285Y-108835761D01*
X186400428Y-108692904D01*
X186305190Y-108645285D01*
X186209952Y-108645285D01*
X186257571Y-108883380D02*
X186162333Y-108835761D01*
X186067095Y-108740523D01*
X186019476Y-108550047D01*
X186019476Y-108216714D01*
X186067095Y-108026238D01*
X186162333Y-107931000D01*
X186257571Y-107883380D01*
X186448047Y-107883380D01*
X186543285Y-107931000D01*
X186638523Y-108026238D01*
X186686142Y-108216714D01*
X186686142Y-108550047D01*
X186638523Y-108740523D01*
X186543285Y-108835761D01*
X186448047Y-108883380D01*
X186257571Y-108883380D01*
X187543285Y-108216714D02*
X187543285Y-108883380D01*
X187305190Y-107835761D02*
X187067095Y-108550047D01*
X187686142Y-108550047D01*
%TO.C,J3*%
X135596380Y-107978533D02*
X136310666Y-107978533D01*
X136453523Y-108026152D01*
X136548761Y-108121390D01*
X136596380Y-108264247D01*
X136596380Y-108359485D01*
X135596380Y-107597580D02*
X135596380Y-106978533D01*
X135977333Y-107311866D01*
X135977333Y-107169009D01*
X136024952Y-107073771D01*
X136072571Y-107026152D01*
X136167809Y-106978533D01*
X136405904Y-106978533D01*
X136501142Y-107026152D01*
X136548761Y-107073771D01*
X136596380Y-107169009D01*
X136596380Y-107454723D01*
X136548761Y-107549961D01*
X136501142Y-107597580D01*
%TO.C,R9*%
X151217333Y-114878380D02*
X150884000Y-114402190D01*
X150645904Y-114878380D02*
X150645904Y-113878380D01*
X151026857Y-113878380D01*
X151122095Y-113926000D01*
X151169714Y-113973619D01*
X151217333Y-114068857D01*
X151217333Y-114211714D01*
X151169714Y-114306952D01*
X151122095Y-114354571D01*
X151026857Y-114402190D01*
X150645904Y-114402190D01*
X151693523Y-114878380D02*
X151884000Y-114878380D01*
X151979238Y-114830761D01*
X152026857Y-114783142D01*
X152122095Y-114640285D01*
X152169714Y-114449809D01*
X152169714Y-114068857D01*
X152122095Y-113973619D01*
X152074476Y-113926000D01*
X151979238Y-113878380D01*
X151788761Y-113878380D01*
X151693523Y-113926000D01*
X151645904Y-113973619D01*
X151598285Y-114068857D01*
X151598285Y-114306952D01*
X151645904Y-114402190D01*
X151693523Y-114449809D01*
X151788761Y-114497428D01*
X151979238Y-114497428D01*
X152074476Y-114449809D01*
X152122095Y-114402190D01*
X152169714Y-114306952D01*
%TO.C,H2*%
X204063695Y-121000780D02*
X204063695Y-120000780D01*
X204063695Y-120476971D02*
X204635123Y-120476971D01*
X204635123Y-121000780D02*
X204635123Y-120000780D01*
X205063695Y-120096019D02*
X205111314Y-120048400D01*
X205206552Y-120000780D01*
X205444647Y-120000780D01*
X205539885Y-120048400D01*
X205587504Y-120096019D01*
X205635123Y-120191257D01*
X205635123Y-120286495D01*
X205587504Y-120429352D01*
X205016076Y-121000780D01*
X205635123Y-121000780D01*
%TO.C,Q2*%
X187017773Y-78333620D02*
X186922535Y-78286001D01*
X186827297Y-78190762D01*
X186684440Y-78047905D01*
X186589202Y-78000286D01*
X186493964Y-78000286D01*
X186541583Y-78238381D02*
X186446345Y-78190762D01*
X186351107Y-78095524D01*
X186303488Y-77905048D01*
X186303488Y-77571715D01*
X186351107Y-77381239D01*
X186446345Y-77286001D01*
X186541583Y-77238381D01*
X186732059Y-77238381D01*
X186827297Y-77286001D01*
X186922535Y-77381239D01*
X186970154Y-77571715D01*
X186970154Y-77905048D01*
X186922535Y-78095524D01*
X186827297Y-78190762D01*
X186732059Y-78238381D01*
X186541583Y-78238381D01*
X187351107Y-77333620D02*
X187398726Y-77286001D01*
X187493964Y-77238381D01*
X187732059Y-77238381D01*
X187827297Y-77286001D01*
X187874916Y-77333620D01*
X187922535Y-77428858D01*
X187922535Y-77524096D01*
X187874916Y-77666953D01*
X187303488Y-78238381D01*
X187922535Y-78238381D01*
%TO.C,R10*%
X140304780Y-118217921D02*
X139828590Y-118551254D01*
X140304780Y-118789349D02*
X139304780Y-118789349D01*
X139304780Y-118408397D01*
X139352400Y-118313159D01*
X139400019Y-118265540D01*
X139495257Y-118217921D01*
X139638114Y-118217921D01*
X139733352Y-118265540D01*
X139780971Y-118313159D01*
X139828590Y-118408397D01*
X139828590Y-118789349D01*
X140304780Y-117265540D02*
X140304780Y-117836968D01*
X140304780Y-117551254D02*
X139304780Y-117551254D01*
X139447638Y-117646492D01*
X139542876Y-117741730D01*
X139590495Y-117836968D01*
X139304780Y-116646492D02*
X139304780Y-116551254D01*
X139352400Y-116456016D01*
X139400019Y-116408397D01*
X139495257Y-116360778D01*
X139685733Y-116313159D01*
X139923828Y-116313159D01*
X140114304Y-116360778D01*
X140209542Y-116408397D01*
X140257161Y-116456016D01*
X140304780Y-116551254D01*
X140304780Y-116646492D01*
X140257161Y-116741730D01*
X140209542Y-116789349D01*
X140114304Y-116836968D01*
X139923828Y-116884587D01*
X139685733Y-116884587D01*
X139495257Y-116836968D01*
X139400019Y-116789349D01*
X139352400Y-116741730D01*
X139304780Y-116646492D01*
%TO.C,H3*%
X133654895Y-126588780D02*
X133654895Y-125588780D01*
X133654895Y-126064971D02*
X134226323Y-126064971D01*
X134226323Y-126588780D02*
X134226323Y-125588780D01*
X134607276Y-125588780D02*
X135226323Y-125588780D01*
X134892990Y-125969733D01*
X135035847Y-125969733D01*
X135131085Y-126017352D01*
X135178704Y-126064971D01*
X135226323Y-126160209D01*
X135226323Y-126398304D01*
X135178704Y-126493542D01*
X135131085Y-126541161D01*
X135035847Y-126588780D01*
X134750133Y-126588780D01*
X134654895Y-126541161D01*
X134607276Y-126493542D01*
D12*
%TO.C,J4*%
X135212658Y-56327522D02*
X135212658Y-57234665D01*
X135152182Y-57416094D01*
X135031230Y-57537046D01*
X134849801Y-57597522D01*
X134728849Y-57597522D01*
X136361706Y-56750856D02*
X136361706Y-57597522D01*
X136059325Y-56267046D02*
X135756944Y-57174189D01*
X136543134Y-57174189D01*
D11*
%TO.C,C50*%
X145133147Y-91991142D02*
X145085528Y-92038761D01*
X144942671Y-92086380D01*
X144847433Y-92086380D01*
X144704576Y-92038761D01*
X144609338Y-91943523D01*
X144561719Y-91848285D01*
X144514100Y-91657809D01*
X144514100Y-91514952D01*
X144561719Y-91324476D01*
X144609338Y-91229238D01*
X144704576Y-91134000D01*
X144847433Y-91086380D01*
X144942671Y-91086380D01*
X145085528Y-91134000D01*
X145133147Y-91181619D01*
X146037909Y-91086380D02*
X145561719Y-91086380D01*
X145514100Y-91562571D01*
X145561719Y-91514952D01*
X145656957Y-91467333D01*
X145895052Y-91467333D01*
X145990290Y-91514952D01*
X146037909Y-91562571D01*
X146085528Y-91657809D01*
X146085528Y-91895904D01*
X146037909Y-91991142D01*
X145990290Y-92038761D01*
X145895052Y-92086380D01*
X145656957Y-92086380D01*
X145561719Y-92038761D01*
X145514100Y-91991142D01*
X146704576Y-91086380D02*
X146799814Y-91086380D01*
X146895052Y-91134000D01*
X146942671Y-91181619D01*
X146990290Y-91276857D01*
X147037909Y-91467333D01*
X147037909Y-91705428D01*
X146990290Y-91895904D01*
X146942671Y-91991142D01*
X146895052Y-92038761D01*
X146799814Y-92086380D01*
X146704576Y-92086380D01*
X146609338Y-92038761D01*
X146561719Y-91991142D01*
X146514100Y-91895904D01*
X146466481Y-91705428D01*
X146466481Y-91467333D01*
X146514100Y-91276857D01*
X146561719Y-91181619D01*
X146609338Y-91134000D01*
X146704576Y-91086380D01*
%TO.C,R6*%
X178251380Y-85383666D02*
X177775190Y-85717000D01*
X178251380Y-85955095D02*
X177251380Y-85955095D01*
X177251380Y-85574142D01*
X177299000Y-85478904D01*
X177346619Y-85431285D01*
X177441857Y-85383666D01*
X177584714Y-85383666D01*
X177679952Y-85431285D01*
X177727571Y-85478904D01*
X177775190Y-85574142D01*
X177775190Y-85955095D01*
X177251380Y-84526523D02*
X177251380Y-84717000D01*
X177299000Y-84812238D01*
X177346619Y-84859857D01*
X177489476Y-84955095D01*
X177679952Y-85002714D01*
X178060904Y-85002714D01*
X178156142Y-84955095D01*
X178203761Y-84907476D01*
X178251380Y-84812238D01*
X178251380Y-84621761D01*
X178203761Y-84526523D01*
X178156142Y-84478904D01*
X178060904Y-84431285D01*
X177822809Y-84431285D01*
X177727571Y-84478904D01*
X177679952Y-84526523D01*
X177632333Y-84621761D01*
X177632333Y-84812238D01*
X177679952Y-84907476D01*
X177727571Y-84955095D01*
X177822809Y-85002714D01*
%TO.C,TP1*%
X127738095Y-115452380D02*
X128309523Y-115452380D01*
X128023809Y-116452380D02*
X128023809Y-115452380D01*
X128642857Y-116452380D02*
X128642857Y-115452380D01*
X129023809Y-115452380D01*
X129119047Y-115500000D01*
X129166666Y-115547619D01*
X129214285Y-115642857D01*
X129214285Y-115785714D01*
X129166666Y-115880952D01*
X129119047Y-115928571D01*
X129023809Y-115976190D01*
X128642857Y-115976190D01*
X130166666Y-116452380D02*
X129595238Y-116452380D01*
X129880952Y-116452380D02*
X129880952Y-115452380D01*
X129785714Y-115595238D01*
X129690476Y-115690476D01*
X129595238Y-115738095D01*
%TO.C,C2*%
X161856142Y-55606287D02*
X161903761Y-55653906D01*
X161951380Y-55796763D01*
X161951380Y-55892001D01*
X161903761Y-56034859D01*
X161808523Y-56130097D01*
X161713285Y-56177716D01*
X161522809Y-56225335D01*
X161379952Y-56225335D01*
X161189476Y-56177716D01*
X161094238Y-56130097D01*
X160999000Y-56034859D01*
X160951380Y-55892001D01*
X160951380Y-55796763D01*
X160999000Y-55653906D01*
X161046619Y-55606287D01*
X161046619Y-55225335D02*
X160999000Y-55177716D01*
X160951380Y-55082478D01*
X160951380Y-54844382D01*
X160999000Y-54749144D01*
X161046619Y-54701525D01*
X161141857Y-54653906D01*
X161237095Y-54653906D01*
X161379952Y-54701525D01*
X161951380Y-55272954D01*
X161951380Y-54653906D01*
%TO.C,C10*%
X174811942Y-72220057D02*
X174859561Y-72267676D01*
X174907180Y-72410533D01*
X174907180Y-72505771D01*
X174859561Y-72648628D01*
X174764323Y-72743866D01*
X174669085Y-72791485D01*
X174478609Y-72839104D01*
X174335752Y-72839104D01*
X174145276Y-72791485D01*
X174050038Y-72743866D01*
X173954800Y-72648628D01*
X173907180Y-72505771D01*
X173907180Y-72410533D01*
X173954800Y-72267676D01*
X174002419Y-72220057D01*
X174907180Y-71267676D02*
X174907180Y-71839104D01*
X174907180Y-71553390D02*
X173907180Y-71553390D01*
X174050038Y-71648628D01*
X174145276Y-71743866D01*
X174192895Y-71839104D01*
X173907180Y-70648628D02*
X173907180Y-70553390D01*
X173954800Y-70458152D01*
X174002419Y-70410533D01*
X174097657Y-70362914D01*
X174288133Y-70315295D01*
X174526228Y-70315295D01*
X174716704Y-70362914D01*
X174811942Y-70410533D01*
X174859561Y-70458152D01*
X174907180Y-70553390D01*
X174907180Y-70648628D01*
X174859561Y-70743866D01*
X174811942Y-70791485D01*
X174716704Y-70839104D01*
X174526228Y-70886723D01*
X174288133Y-70886723D01*
X174097657Y-70839104D01*
X174002419Y-70791485D01*
X173954800Y-70743866D01*
X173907180Y-70648628D01*
%TO.C,C11*%
X172889942Y-104192342D02*
X172842323Y-104239961D01*
X172699466Y-104287580D01*
X172604228Y-104287580D01*
X172461371Y-104239961D01*
X172366133Y-104144723D01*
X172318514Y-104049485D01*
X172270895Y-103859009D01*
X172270895Y-103716152D01*
X172318514Y-103525676D01*
X172366133Y-103430438D01*
X172461371Y-103335200D01*
X172604228Y-103287580D01*
X172699466Y-103287580D01*
X172842323Y-103335200D01*
X172889942Y-103382819D01*
X173842323Y-104287580D02*
X173270895Y-104287580D01*
X173556609Y-104287580D02*
X173556609Y-103287580D01*
X173461371Y-103430438D01*
X173366133Y-103525676D01*
X173270895Y-103573295D01*
X174794704Y-104287580D02*
X174223276Y-104287580D01*
X174508990Y-104287580D02*
X174508990Y-103287580D01*
X174413752Y-103430438D01*
X174318514Y-103525676D01*
X174223276Y-103573295D01*
%TO.C,C51*%
X141444742Y-81934342D02*
X141397123Y-81981961D01*
X141254266Y-82029580D01*
X141159028Y-82029580D01*
X141016171Y-81981961D01*
X140920933Y-81886723D01*
X140873314Y-81791485D01*
X140825695Y-81601009D01*
X140825695Y-81458152D01*
X140873314Y-81267676D01*
X140920933Y-81172438D01*
X141016171Y-81077200D01*
X141159028Y-81029580D01*
X141254266Y-81029580D01*
X141397123Y-81077200D01*
X141444742Y-81124819D01*
X142349504Y-81029580D02*
X141873314Y-81029580D01*
X141825695Y-81505771D01*
X141873314Y-81458152D01*
X141968552Y-81410533D01*
X142206647Y-81410533D01*
X142301885Y-81458152D01*
X142349504Y-81505771D01*
X142397123Y-81601009D01*
X142397123Y-81839104D01*
X142349504Y-81934342D01*
X142301885Y-81981961D01*
X142206647Y-82029580D01*
X141968552Y-82029580D01*
X141873314Y-81981961D01*
X141825695Y-81934342D01*
X143349504Y-82029580D02*
X142778076Y-82029580D01*
X143063790Y-82029580D02*
X143063790Y-81029580D01*
X142968552Y-81172438D01*
X142873314Y-81267676D01*
X142778076Y-81315295D01*
%TO.C,R4*%
X173188333Y-96338380D02*
X172855000Y-95862190D01*
X172616904Y-96338380D02*
X172616904Y-95338380D01*
X172997857Y-95338380D01*
X173093095Y-95386000D01*
X173140714Y-95433619D01*
X173188333Y-95528857D01*
X173188333Y-95671714D01*
X173140714Y-95766952D01*
X173093095Y-95814571D01*
X172997857Y-95862190D01*
X172616904Y-95862190D01*
X174045476Y-95671714D02*
X174045476Y-96338380D01*
X173807380Y-95290761D02*
X173569285Y-96005047D01*
X174188333Y-96005047D01*
%TO.C,H4*%
X156870495Y-48051980D02*
X156870495Y-47051980D01*
X156870495Y-47528171D02*
X157441923Y-47528171D01*
X157441923Y-48051980D02*
X157441923Y-47051980D01*
X158346685Y-47385314D02*
X158346685Y-48051980D01*
X158108590Y-47004361D02*
X157870495Y-47718647D01*
X158489542Y-47718647D01*
%TO.C,U3*%
X157978095Y-114690380D02*
X157978095Y-115499904D01*
X158025714Y-115595142D01*
X158073333Y-115642761D01*
X158168571Y-115690380D01*
X158359047Y-115690380D01*
X158454285Y-115642761D01*
X158501904Y-115595142D01*
X158549523Y-115499904D01*
X158549523Y-114690380D01*
X158930476Y-114690380D02*
X159549523Y-114690380D01*
X159216190Y-115071333D01*
X159359047Y-115071333D01*
X159454285Y-115118952D01*
X159501904Y-115166571D01*
X159549523Y-115261809D01*
X159549523Y-115499904D01*
X159501904Y-115595142D01*
X159454285Y-115642761D01*
X159359047Y-115690380D01*
X159073333Y-115690380D01*
X158978095Y-115642761D01*
X158930476Y-115595142D01*
%TO.C,J5*%
X153971666Y-125599380D02*
X153971666Y-126313666D01*
X153924047Y-126456523D01*
X153828809Y-126551761D01*
X153685952Y-126599380D01*
X153590714Y-126599380D01*
X154924047Y-125599380D02*
X154447857Y-125599380D01*
X154400238Y-126075571D01*
X154447857Y-126027952D01*
X154543095Y-125980333D01*
X154781190Y-125980333D01*
X154876428Y-126027952D01*
X154924047Y-126075571D01*
X154971666Y-126170809D01*
X154971666Y-126408904D01*
X154924047Y-126504142D01*
X154876428Y-126551761D01*
X154781190Y-126599380D01*
X154543095Y-126599380D01*
X154447857Y-126551761D01*
X154400238Y-126504142D01*
%TO.C,C16*%
X166342142Y-84603142D02*
X166294523Y-84650761D01*
X166151666Y-84698380D01*
X166056428Y-84698380D01*
X165913571Y-84650761D01*
X165818333Y-84555523D01*
X165770714Y-84460285D01*
X165723095Y-84269809D01*
X165723095Y-84126952D01*
X165770714Y-83936476D01*
X165818333Y-83841238D01*
X165913571Y-83746000D01*
X166056428Y-83698380D01*
X166151666Y-83698380D01*
X166294523Y-83746000D01*
X166342142Y-83793619D01*
X167294523Y-84698380D02*
X166723095Y-84698380D01*
X167008809Y-84698380D02*
X167008809Y-83698380D01*
X166913571Y-83841238D01*
X166818333Y-83936476D01*
X166723095Y-83984095D01*
X168151666Y-83698380D02*
X167961190Y-83698380D01*
X167865952Y-83746000D01*
X167818333Y-83793619D01*
X167723095Y-83936476D01*
X167675476Y-84126952D01*
X167675476Y-84507904D01*
X167723095Y-84603142D01*
X167770714Y-84650761D01*
X167865952Y-84698380D01*
X168056428Y-84698380D01*
X168151666Y-84650761D01*
X168199285Y-84603142D01*
X168246904Y-84507904D01*
X168246904Y-84269809D01*
X168199285Y-84174571D01*
X168151666Y-84126952D01*
X168056428Y-84079333D01*
X167865952Y-84079333D01*
X167770714Y-84126952D01*
X167723095Y-84174571D01*
X167675476Y-84269809D01*
D12*
%TO.C,D7*%
X129491619Y-95316523D02*
X129491619Y-94046523D01*
X129794000Y-94046523D01*
X129975428Y-94107000D01*
X130096380Y-94227952D01*
X130156857Y-94348904D01*
X130217333Y-94590809D01*
X130217333Y-94772238D01*
X130156857Y-95014142D01*
X130096380Y-95135095D01*
X129975428Y-95256047D01*
X129794000Y-95316523D01*
X129491619Y-95316523D01*
X130640666Y-94046523D02*
X131487333Y-94046523D01*
X130943047Y-95316523D01*
D11*
%TO.C,R8*%
X177562380Y-113808166D02*
X177086190Y-114141500D01*
X177562380Y-114379595D02*
X176562380Y-114379595D01*
X176562380Y-113998642D01*
X176610000Y-113903404D01*
X176657619Y-113855785D01*
X176752857Y-113808166D01*
X176895714Y-113808166D01*
X176990952Y-113855785D01*
X177038571Y-113903404D01*
X177086190Y-113998642D01*
X177086190Y-114379595D01*
X176990952Y-113236738D02*
X176943333Y-113331976D01*
X176895714Y-113379595D01*
X176800476Y-113427214D01*
X176752857Y-113427214D01*
X176657619Y-113379595D01*
X176610000Y-113331976D01*
X176562380Y-113236738D01*
X176562380Y-113046261D01*
X176610000Y-112951023D01*
X176657619Y-112903404D01*
X176752857Y-112855785D01*
X176800476Y-112855785D01*
X176895714Y-112903404D01*
X176943333Y-112951023D01*
X176990952Y-113046261D01*
X176990952Y-113236738D01*
X177038571Y-113331976D01*
X177086190Y-113379595D01*
X177181428Y-113427214D01*
X177371904Y-113427214D01*
X177467142Y-113379595D01*
X177514761Y-113331976D01*
X177562380Y-113236738D01*
X177562380Y-113046261D01*
X177514761Y-112951023D01*
X177467142Y-112903404D01*
X177371904Y-112855785D01*
X177181428Y-112855785D01*
X177086190Y-112903404D01*
X177038571Y-112951023D01*
X176990952Y-113046261D01*
%TO.C,R12*%
X134387142Y-98627380D02*
X134053809Y-98151190D01*
X133815714Y-98627380D02*
X133815714Y-97627380D01*
X134196666Y-97627380D01*
X134291904Y-97675000D01*
X134339523Y-97722619D01*
X134387142Y-97817857D01*
X134387142Y-97960714D01*
X134339523Y-98055952D01*
X134291904Y-98103571D01*
X134196666Y-98151190D01*
X133815714Y-98151190D01*
X135339523Y-98627380D02*
X134768095Y-98627380D01*
X135053809Y-98627380D02*
X135053809Y-97627380D01*
X134958571Y-97770238D01*
X134863333Y-97865476D01*
X134768095Y-97913095D01*
X135720476Y-97722619D02*
X135768095Y-97675000D01*
X135863333Y-97627380D01*
X136101428Y-97627380D01*
X136196666Y-97675000D01*
X136244285Y-97722619D01*
X136291904Y-97817857D01*
X136291904Y-97913095D01*
X136244285Y-98055952D01*
X135672857Y-98627380D01*
X136291904Y-98627380D01*
%TO.C,R3*%
X169959333Y-114751380D02*
X169626000Y-114275190D01*
X169387904Y-114751380D02*
X169387904Y-113751380D01*
X169768857Y-113751380D01*
X169864095Y-113799000D01*
X169911714Y-113846619D01*
X169959333Y-113941857D01*
X169959333Y-114084714D01*
X169911714Y-114179952D01*
X169864095Y-114227571D01*
X169768857Y-114275190D01*
X169387904Y-114275190D01*
X170292666Y-113751380D02*
X170911714Y-113751380D01*
X170578380Y-114132333D01*
X170721238Y-114132333D01*
X170816476Y-114179952D01*
X170864095Y-114227571D01*
X170911714Y-114322809D01*
X170911714Y-114560904D01*
X170864095Y-114656142D01*
X170816476Y-114703761D01*
X170721238Y-114751380D01*
X170435523Y-114751380D01*
X170340285Y-114703761D01*
X170292666Y-114656142D01*
D13*
%TO.C,R0*%
X159117420Y-51767200D02*
X159398580Y-51767200D01*
X159117420Y-50747200D02*
X159398580Y-50747200D01*
%TO.C,C14*%
X137488600Y-112986452D02*
X137488600Y-112463948D01*
X136018600Y-112986452D02*
X136018600Y-112463948D01*
%TO.C,C4*%
X202006252Y-96229000D02*
X200583748Y-96229000D01*
X202006252Y-93509000D02*
X200583748Y-93509000D01*
%TO.C,C5*%
X202006252Y-101129000D02*
X200583748Y-101129000D01*
X202006252Y-103849000D02*
X200583748Y-103849000D01*
%TO.C,C6*%
X202006252Y-111469000D02*
X200583748Y-111469000D01*
X202006252Y-108749000D02*
X200583748Y-108749000D01*
%TO.C,C7*%
X202133252Y-119216000D02*
X200710748Y-119216000D01*
X202133252Y-116496000D02*
X200710748Y-116496000D01*
%TO.C,C52*%
X192563785Y-55542000D02*
X192563785Y-60133000D01*
X192043785Y-55542000D02*
X192043785Y-60334000D01*
X190763785Y-47575000D02*
X190763785Y-60629000D01*
X195483785Y-50548000D02*
X195483785Y-57656000D01*
X195923785Y-51344000D02*
X195923785Y-56860000D01*
X190843785Y-47586000D02*
X190843785Y-60618000D01*
X194203785Y-49091000D02*
X194203785Y-59113000D01*
X192923785Y-48240000D02*
X192923785Y-52662000D01*
X192763785Y-55542000D02*
X192763785Y-60042000D01*
X195083785Y-49994000D02*
X195083785Y-58210000D01*
X194443785Y-49305000D02*
X194443785Y-58899000D01*
X191123785Y-55542000D02*
X191123785Y-60573000D01*
X192003785Y-47857000D02*
X192003785Y-52662000D01*
X192523785Y-55542000D02*
X192523785Y-60151000D01*
X194643785Y-49500000D02*
X194643785Y-58704000D01*
X195843785Y-51179000D02*
X195843785Y-57025000D01*
X190082785Y-47523000D02*
X190082785Y-60681000D01*
X194123785Y-49024000D02*
X194123785Y-59180000D01*
X193403785Y-48510000D02*
X193403785Y-52662000D01*
X191403785Y-47689000D02*
X191403785Y-52662000D01*
X192883785Y-48220000D02*
X192883785Y-52662000D01*
X194923785Y-49803000D02*
X194923785Y-58401000D01*
X195643785Y-50809000D02*
X195643785Y-57395000D01*
X191763785Y-55542000D02*
X191763785Y-60422000D01*
X193563785Y-48612000D02*
X193563785Y-52662000D01*
X190482785Y-47545000D02*
X190482785Y-60659000D01*
X194163785Y-49058000D02*
X194163785Y-59146000D01*
X192723785Y-55542000D02*
X192723785Y-60061000D01*
X191443785Y-55542000D02*
X191443785Y-60506000D01*
X191523785Y-47718000D02*
X191523785Y-52662000D01*
X195003785Y-49897000D02*
X195003785Y-58307000D01*
X193723785Y-55542000D02*
X193723785Y-59483000D01*
X190402785Y-47539000D02*
X190402785Y-60665000D01*
X191323785Y-55542000D02*
X191323785Y-60533000D01*
X189962785Y-47522000D02*
X189962785Y-60682000D01*
X192243785Y-47941000D02*
X192243785Y-52662000D01*
X196043785Y-51618000D02*
X196043785Y-56586000D01*
X192203785Y-47927000D02*
X192203785Y-52662000D01*
X194403785Y-49268000D02*
X194403785Y-58936000D01*
X192043785Y-47870000D02*
X192043785Y-52662000D01*
X195203785Y-50148000D02*
X195203785Y-58056000D01*
X192283785Y-47956000D02*
X192283785Y-52662000D01*
X192123785Y-55542000D02*
X192123785Y-60306000D01*
X193923785Y-48867000D02*
X193923785Y-59337000D01*
X190723785Y-47570000D02*
X190723785Y-60634000D01*
X194803785Y-49668000D02*
X194803785Y-58536000D01*
X193763785Y-48749000D02*
X193763785Y-52662000D01*
X194483785Y-49342000D02*
X194483785Y-58862000D01*
X192963785Y-55542000D02*
X192963785Y-59943000D01*
X190002785Y-47522000D02*
X190002785Y-60682000D01*
X193523785Y-48586000D02*
X193523785Y-52662000D01*
X190322785Y-47534000D02*
X190322785Y-60670000D01*
X191563785Y-47728000D02*
X191563785Y-52662000D01*
X191803785Y-55542000D02*
X191803785Y-60410000D01*
X193003785Y-48282000D02*
X193003785Y-52662000D01*
X190963785Y-47604000D02*
X190963785Y-60600000D01*
X192723785Y-48143000D02*
X192723785Y-52662000D01*
X193123785Y-48346000D02*
X193123785Y-52662000D01*
X194363785Y-49231000D02*
X194363785Y-58973000D01*
X195563785Y-50675000D02*
X195563785Y-57529000D01*
X192763785Y-48162000D02*
X192763785Y-52662000D01*
X192803785Y-48181000D02*
X192803785Y-52662000D01*
X192363785Y-55542000D02*
X192363785Y-60216000D01*
X193603785Y-55542000D02*
X193603785Y-59565000D01*
X191483785Y-55542000D02*
X191483785Y-60496000D01*
X191643785Y-55542000D02*
X191643785Y-60455000D01*
X192963785Y-48261000D02*
X192963785Y-52662000D01*
X192283785Y-55542000D02*
X192283785Y-60248000D01*
X193363785Y-48485000D02*
X193363785Y-52662000D01*
X196163785Y-51931000D02*
X196163785Y-56273000D01*
X190442785Y-47542000D02*
X190442785Y-60662000D01*
X193163785Y-48369000D02*
X193163785Y-52662000D01*
X193083785Y-55542000D02*
X193083785Y-59880000D01*
X195723785Y-50950000D02*
X195723785Y-57254000D01*
X193123785Y-55542000D02*
X193123785Y-59858000D01*
X191283785Y-47663000D02*
X191283785Y-52662000D01*
X189922785Y-47522000D02*
X189922785Y-60682000D01*
X196363785Y-52608000D02*
X196363785Y-55596000D01*
X193843785Y-55542000D02*
X193843785Y-59397000D01*
X191683785Y-55542000D02*
X191683785Y-60444000D01*
X194323785Y-49195000D02*
X194323785Y-59009000D01*
X190162785Y-47526000D02*
X190162785Y-60678000D01*
X191963785Y-47844000D02*
X191963785Y-52662000D01*
X191803785Y-47794000D02*
X191803785Y-52662000D01*
X191923785Y-47831000D02*
X191923785Y-52662000D01*
X194003785Y-48928000D02*
X194003785Y-59276000D01*
X196403785Y-52787000D02*
X196403785Y-55417000D01*
X192203785Y-55542000D02*
X192203785Y-60277000D01*
X192243785Y-55542000D02*
X192243785Y-60263000D01*
X191403785Y-55542000D02*
X191403785Y-60515000D01*
X190923785Y-47597000D02*
X190923785Y-60607000D01*
X195683785Y-50879000D02*
X195683785Y-57325000D01*
X190122785Y-47525000D02*
X190122785Y-60679000D01*
X193883785Y-48837000D02*
X193883785Y-59367000D01*
X193643785Y-55542000D02*
X193643785Y-59538000D01*
X193243785Y-48414000D02*
X193243785Y-52662000D01*
X191603785Y-47738000D02*
X191603785Y-52662000D01*
X193323785Y-48461000D02*
X193323785Y-52662000D01*
X193563785Y-55542000D02*
X193563785Y-59592000D01*
X192843785Y-55542000D02*
X192843785Y-60004000D01*
X195043785Y-49945000D02*
X195043785Y-58259000D01*
X191163785Y-47639000D02*
X191163785Y-52662000D01*
X195123785Y-50045000D02*
X195123785Y-58159000D01*
X193203785Y-55542000D02*
X193203785Y-59813000D01*
X196083785Y-51717000D02*
X196083785Y-56487000D01*
X192923785Y-55542000D02*
X192923785Y-59964000D01*
X196243785Y-52171000D02*
X196243785Y-56033000D01*
X191923785Y-55542000D02*
X191923785Y-60373000D01*
X191203785Y-47646000D02*
X191203785Y-52662000D01*
X191843785Y-55542000D02*
X191843785Y-60398000D01*
X191003785Y-47610000D02*
X191003785Y-52662000D01*
X191123785Y-47631000D02*
X191123785Y-52662000D01*
X193243785Y-55542000D02*
X193243785Y-59790000D01*
X192363785Y-47988000D02*
X192363785Y-52662000D01*
X193483785Y-48560000D02*
X193483785Y-52662000D01*
X190683785Y-47565000D02*
X190683785Y-60639000D01*
X193443785Y-55542000D02*
X193443785Y-59669000D01*
X193723785Y-48721000D02*
X193723785Y-52662000D01*
X192523785Y-48053000D02*
X192523785Y-52662000D01*
X191603785Y-55542000D02*
X191603785Y-60466000D01*
X195603785Y-50741000D02*
X195603785Y-57463000D01*
X192163785Y-55542000D02*
X192163785Y-60292000D01*
X190602785Y-47557000D02*
X190602785Y-60647000D01*
X193843785Y-48807000D02*
X193843785Y-52662000D01*
X193363785Y-55542000D02*
X193363785Y-59719000D01*
X193043785Y-48303000D02*
X193043785Y-52662000D01*
X193283785Y-55542000D02*
X193283785Y-59766000D01*
X196483785Y-53252000D02*
X196483785Y-54952000D01*
X196523785Y-53627000D02*
X196523785Y-54577000D01*
X194243785Y-49125000D02*
X194243785Y-59079000D01*
X192123785Y-47898000D02*
X192123785Y-52662000D01*
X193603785Y-48639000D02*
X193603785Y-52662000D01*
X190643785Y-47561000D02*
X190643785Y-60643000D01*
X193403785Y-55542000D02*
X193403785Y-59694000D01*
X191363785Y-55542000D02*
X191363785Y-60524000D01*
X194603785Y-49459000D02*
X194603785Y-58745000D01*
X190242785Y-47529000D02*
X190242785Y-60675000D01*
X182838216Y-50387000D02*
X184138216Y-50387000D01*
X191443785Y-47698000D02*
X191443785Y-52662000D01*
X193523785Y-55542000D02*
X193523785Y-59618000D01*
X192443785Y-48020000D02*
X192443785Y-52662000D01*
X191043785Y-55542000D02*
X191043785Y-60587000D01*
X191563785Y-55542000D02*
X191563785Y-60476000D01*
X194843785Y-49712000D02*
X194843785Y-58492000D01*
X196323785Y-52449000D02*
X196323785Y-55755000D01*
X193803785Y-48778000D02*
X193803785Y-52662000D01*
X191163785Y-55542000D02*
X191163785Y-60565000D01*
X194043785Y-48960000D02*
X194043785Y-59244000D01*
X190562785Y-47553000D02*
X190562785Y-60651000D01*
X191683785Y-47760000D02*
X191683785Y-52662000D01*
X194763785Y-49625000D02*
X194763785Y-58579000D01*
X195283785Y-50256000D02*
X195283785Y-57948000D01*
X196003785Y-51523000D02*
X196003785Y-56681000D01*
X191843785Y-47806000D02*
X191843785Y-52662000D01*
X193003785Y-55542000D02*
X193003785Y-59922000D01*
X193683785Y-48693000D02*
X193683785Y-52662000D01*
X192323785Y-47972000D02*
X192323785Y-52662000D01*
X192403785Y-55542000D02*
X192403785Y-60200000D01*
X191243785Y-55542000D02*
X191243785Y-60550000D01*
X192683785Y-48124000D02*
X192683785Y-52662000D01*
X190362785Y-47536000D02*
X190362785Y-60668000D01*
X196443785Y-52995000D02*
X196443785Y-55209000D01*
X192083785Y-47884000D02*
X192083785Y-52662000D01*
X190522785Y-47549000D02*
X190522785Y-60655000D01*
X192683785Y-55542000D02*
X192683785Y-60080000D01*
X193043785Y-55542000D02*
X193043785Y-59901000D01*
X192563785Y-48071000D02*
X192563785Y-52662000D01*
X192843785Y-48200000D02*
X192843785Y-52662000D01*
X191763785Y-47782000D02*
X191763785Y-52662000D01*
X192883785Y-55542000D02*
X192883785Y-59984000D01*
X195403785Y-50427000D02*
X195403785Y-57777000D01*
X193283785Y-48438000D02*
X193283785Y-52662000D01*
X192483785Y-48037000D02*
X192483785Y-52662000D01*
X192643785Y-48106000D02*
X192643785Y-52662000D01*
X194963785Y-49849000D02*
X194963785Y-58355000D01*
X193763785Y-55542000D02*
X193763785Y-59455000D01*
X194563785Y-49420000D02*
X194563785Y-58784000D01*
X191643785Y-47749000D02*
X191643785Y-52662000D01*
X193963785Y-48897000D02*
X193963785Y-59307000D01*
X191243785Y-47654000D02*
X191243785Y-52662000D01*
X193683785Y-55542000D02*
X193683785Y-59511000D01*
X193443785Y-48535000D02*
X193443785Y-52662000D01*
X192443785Y-55542000D02*
X192443785Y-60184000D01*
X195803785Y-51100000D02*
X195803785Y-57104000D01*
X193803785Y-55542000D02*
X193803785Y-59426000D01*
X195323785Y-50312000D02*
X195323785Y-57892000D01*
X190282785Y-47531000D02*
X190282785Y-60673000D01*
X194723785Y-49583000D02*
X194723785Y-58621000D01*
X193083785Y-48324000D02*
X193083785Y-52662000D01*
X191723785Y-55542000D02*
X191723785Y-60433000D01*
X196203785Y-52047000D02*
X196203785Y-56157000D01*
X191083785Y-55542000D02*
X191083785Y-60580000D01*
X192603785Y-48088000D02*
X192603785Y-52662000D01*
X190202785Y-47527000D02*
X190202785Y-60677000D01*
X195883785Y-51260000D02*
X195883785Y-56944000D01*
X194683785Y-49541000D02*
X194683785Y-58663000D01*
X196123785Y-51821000D02*
X196123785Y-56383000D01*
X193643785Y-48666000D02*
X193643785Y-52662000D01*
X192603785Y-55542000D02*
X192603785Y-60116000D01*
X194523785Y-49381000D02*
X194523785Y-58823000D01*
X191203785Y-55542000D02*
X191203785Y-60558000D01*
X192083785Y-55542000D02*
X192083785Y-60320000D01*
X191483785Y-47708000D02*
X191483785Y-52662000D01*
X191283785Y-55542000D02*
X191283785Y-60541000D01*
X195963785Y-51432000D02*
X195963785Y-56772000D01*
X192403785Y-48004000D02*
X192403785Y-52662000D01*
X190883785Y-47591000D02*
X190883785Y-60613000D01*
X193203785Y-48391000D02*
X193203785Y-52662000D01*
X190042785Y-47523000D02*
X190042785Y-60681000D01*
X191523785Y-55542000D02*
X191523785Y-60486000D01*
X192323785Y-55542000D02*
X192323785Y-60232000D01*
X191083785Y-47624000D02*
X191083785Y-52662000D01*
X191323785Y-47671000D02*
X191323785Y-52662000D01*
X191363785Y-47680000D02*
X191363785Y-52662000D01*
X192483785Y-55542000D02*
X192483785Y-60167000D01*
X192803785Y-55542000D02*
X192803785Y-60023000D01*
X195363785Y-50369000D02*
X195363785Y-57835000D01*
X192163785Y-47912000D02*
X192163785Y-52662000D01*
X190803785Y-47580000D02*
X190803785Y-60624000D01*
X194883785Y-49757000D02*
X194883785Y-58447000D01*
X183488216Y-49737000D02*
X183488216Y-51037000D01*
X192003785Y-55542000D02*
X192003785Y-60347000D01*
X193163785Y-55542000D02*
X193163785Y-59835000D01*
X195443785Y-50487000D02*
X195443785Y-57717000D01*
X196283785Y-52304000D02*
X196283785Y-55900000D01*
X195523785Y-50611000D02*
X195523785Y-57593000D01*
X191963785Y-55542000D02*
X191963785Y-60360000D01*
X195763785Y-51024000D02*
X195763785Y-57180000D01*
X191723785Y-47771000D02*
X191723785Y-52662000D01*
X191883785Y-47818000D02*
X191883785Y-52662000D01*
X194083785Y-48992000D02*
X194083785Y-59212000D01*
X194283785Y-49160000D02*
X194283785Y-59044000D01*
X191043785Y-47617000D02*
X191043785Y-52662000D01*
X191003785Y-55542000D02*
X191003785Y-60594000D01*
X195243785Y-50202000D02*
X195243785Y-58002000D01*
X191883785Y-55542000D02*
X191883785Y-60386000D01*
X192643785Y-55542000D02*
X192643785Y-60098000D01*
X193483785Y-55542000D02*
X193483785Y-59644000D01*
X193323785Y-55542000D02*
X193323785Y-59743000D01*
X195163785Y-50096000D02*
X195163785Y-58108000D01*
X196542785Y-54102000D02*
G75*
G03*
X196542785Y-54102000I-6620000J0D01*
G01*
%TO.C,D1*%
X170978000Y-62500000D02*
X174878000Y-62500000D01*
X170978000Y-64500000D02*
X174878000Y-64500000D01*
X170978000Y-62500000D02*
X170978000Y-64500000D01*
%TO.C,D2*%
X171232000Y-77359000D02*
X171232000Y-79359000D01*
X171232000Y-79359000D02*
X175132000Y-79359000D01*
X171232000Y-77359000D02*
X175132000Y-77359000D01*
%TO.C,D3*%
X160766000Y-63972000D02*
X160766000Y-60072000D01*
X158766000Y-63972000D02*
X158766000Y-60072000D01*
X158766000Y-63972000D02*
X160766000Y-63972000D01*
%TO.C,D4*%
X168130000Y-106950000D02*
X168130000Y-108950000D01*
X168130000Y-108950000D02*
X172030000Y-108950000D01*
X168130000Y-106950000D02*
X172030000Y-106950000D01*
%TO.C,D5*%
X171105000Y-91329000D02*
X171105000Y-93329000D01*
X171105000Y-93329000D02*
X175005000Y-93329000D01*
X171105000Y-91329000D02*
X175005000Y-91329000D01*
%TO.C,D6*%
X160925000Y-92420000D02*
X162925000Y-92420000D01*
X160925000Y-92420000D02*
X160925000Y-88520000D01*
X162925000Y-92420000D02*
X162925000Y-88520000D01*
%TO.C,U4*%
X144145000Y-120145500D02*
X146095000Y-120145500D01*
X144145000Y-125265500D02*
X146095000Y-125265500D01*
X144145000Y-120145500D02*
X140695000Y-120145500D01*
X144145000Y-125265500D02*
X142195000Y-125265500D01*
%TO.C,U7*%
X135099000Y-68619000D02*
X129974000Y-68619000D01*
X135099000Y-77209000D02*
X135099000Y-75399000D01*
X135099000Y-66809000D02*
X135099000Y-68619000D01*
X135099000Y-75399000D02*
X133999000Y-75399000D01*
X136599000Y-66809000D02*
X135099000Y-66809000D01*
X136599000Y-77209000D02*
X135099000Y-77209000D01*
%TO.C,C9*%
X167435000Y-102311888D02*
X166061000Y-102311888D01*
X167435000Y-103631888D02*
X167156000Y-103631888D01*
X170976000Y-102030888D02*
X169515000Y-102030888D01*
X167435000Y-103191888D02*
X166611000Y-103191888D01*
X167435000Y-103311888D02*
X166732000Y-103311888D01*
X169950000Y-98586113D02*
X169950000Y-99086113D01*
X170128000Y-103391888D02*
X169515000Y-103391888D01*
X167435000Y-102591888D02*
X166185000Y-102591888D01*
X167435000Y-102911888D02*
X166380000Y-102911888D01*
X170785000Y-102551888D02*
X169515000Y-102551888D01*
X169726000Y-103671888D02*
X169515000Y-103671888D01*
X167435000Y-102871888D02*
X166353000Y-102871888D01*
X170995000Y-101950888D02*
X169515000Y-101950888D01*
X171003000Y-101910888D02*
X169515000Y-101910888D01*
X167435000Y-102351888D02*
X166077000Y-102351888D01*
X167435000Y-103551888D02*
X167032000Y-103551888D01*
X167435000Y-103511888D02*
X166975000Y-103511888D01*
X170260000Y-103271888D02*
X169515000Y-103271888D01*
X168759000Y-103991888D02*
X168191000Y-103991888D01*
X167435000Y-101710888D02*
X165914000Y-101710888D01*
X167435000Y-103591888D02*
X167092000Y-103591888D01*
X170597000Y-102871888D02*
X169515000Y-102871888D01*
X167435000Y-102791888D02*
X166300000Y-102791888D01*
X167435000Y-103111888D02*
X166538000Y-103111888D01*
X167435000Y-103351888D02*
X166776000Y-103351888D01*
X170412000Y-103111888D02*
X169515000Y-103111888D01*
X171025000Y-101790888D02*
X169515000Y-101790888D01*
X169486000Y-103791888D02*
X167464000Y-103791888D01*
X167435000Y-101910888D02*
X165947000Y-101910888D01*
X167435000Y-102030888D02*
X165974000Y-102030888D01*
X169918000Y-103551888D02*
X169515000Y-103551888D01*
X167435000Y-102551888D02*
X166165000Y-102551888D01*
X169858000Y-103591888D02*
X169515000Y-103591888D01*
X170743000Y-102631888D02*
X169515000Y-102631888D01*
X167435000Y-103431888D02*
X166870000Y-103431888D01*
X170966000Y-102070888D02*
X169515000Y-102070888D01*
X169573000Y-103751888D02*
X167377000Y-103751888D01*
X170823000Y-102471888D02*
X169515000Y-102471888D01*
X167435000Y-103391888D02*
X166822000Y-103391888D01*
X167435000Y-102151888D02*
X166007000Y-102151888D01*
X171048000Y-101590888D02*
X165902000Y-101590888D01*
X167435000Y-103071888D02*
X166504000Y-103071888D01*
X170080000Y-103431888D02*
X169515000Y-103431888D01*
X170699000Y-102711888D02*
X169515000Y-102711888D01*
X170804000Y-102511888D02*
X169515000Y-102511888D01*
X167435000Y-102391888D02*
X166093000Y-102391888D01*
X167435000Y-101790888D02*
X165925000Y-101790888D01*
X170479000Y-103031888D02*
X169515000Y-103031888D01*
X167435000Y-101870888D02*
X165939000Y-101870888D01*
X167435000Y-103151888D02*
X166574000Y-103151888D01*
X167435000Y-101830888D02*
X165932000Y-101830888D01*
X167435000Y-103671888D02*
X167224000Y-103671888D01*
X171031000Y-101750888D02*
X169515000Y-101750888D01*
X170943000Y-102151888D02*
X169515000Y-102151888D01*
X167435000Y-102951888D02*
X166410000Y-102951888D01*
X167435000Y-102631888D02*
X166207000Y-102631888D01*
X167435000Y-102271888D02*
X166047000Y-102271888D01*
X171036000Y-101710888D02*
X169515000Y-101710888D01*
X170675000Y-102751888D02*
X169515000Y-102751888D01*
X167435000Y-102751888D02*
X166275000Y-102751888D01*
X167435000Y-102471888D02*
X166127000Y-102471888D01*
X171055000Y-101390888D02*
X165895000Y-101390888D01*
X170446000Y-103071888D02*
X169515000Y-103071888D01*
X167435000Y-101750888D02*
X165919000Y-101750888D01*
X167435000Y-102070888D02*
X165984000Y-102070888D01*
X171044000Y-101630888D02*
X169515000Y-101630888D01*
X170889000Y-102311888D02*
X169515000Y-102311888D01*
X168993000Y-103951888D02*
X167957000Y-103951888D01*
X167435000Y-102231888D02*
X166033000Y-102231888D01*
X169653000Y-103711888D02*
X167297000Y-103711888D01*
X167435000Y-101990888D02*
X165964000Y-101990888D01*
X170986000Y-101990888D02*
X169515000Y-101990888D01*
X171040000Y-101670888D02*
X169515000Y-101670888D01*
X170510000Y-102991888D02*
X169515000Y-102991888D01*
X170873000Y-102351888D02*
X169515000Y-102351888D01*
X170200000Y-98836113D02*
X169700000Y-98836113D01*
X167435000Y-102831888D02*
X166326000Y-102831888D01*
X170339000Y-103191888D02*
X169515000Y-103191888D01*
X167435000Y-102711888D02*
X166251000Y-102711888D01*
X170903000Y-102271888D02*
X169515000Y-102271888D01*
X167435000Y-102431888D02*
X166110000Y-102431888D01*
X170917000Y-102231888D02*
X169515000Y-102231888D01*
X167435000Y-103471888D02*
X166921000Y-103471888D01*
X171018000Y-101830888D02*
X169515000Y-101830888D01*
X171054000Y-101470888D02*
X165896000Y-101470888D01*
X169152000Y-103911888D02*
X167798000Y-103911888D01*
X170570000Y-102911888D02*
X169515000Y-102911888D01*
X167435000Y-101670888D02*
X165910000Y-101670888D01*
X167435000Y-102671888D02*
X166228000Y-102671888D01*
X171011000Y-101870888D02*
X169515000Y-101870888D01*
X167435000Y-102191888D02*
X166020000Y-102191888D01*
X169794000Y-103631888D02*
X169515000Y-103631888D01*
X167435000Y-101950888D02*
X165955000Y-101950888D01*
X169975000Y-103511888D02*
X169515000Y-103511888D01*
X170955000Y-102111888D02*
X169515000Y-102111888D01*
X171051000Y-101550888D02*
X165899000Y-101550888D01*
X169280000Y-103871888D02*
X167670000Y-103871888D01*
X170174000Y-103351888D02*
X169515000Y-103351888D01*
X171053000Y-101510888D02*
X165897000Y-101510888D01*
X171055000Y-101430888D02*
X165895000Y-101430888D01*
X169390000Y-103831888D02*
X167560000Y-103831888D01*
X167435000Y-102511888D02*
X166146000Y-102511888D01*
X170624000Y-102831888D02*
X169515000Y-102831888D01*
X170857000Y-102391888D02*
X169515000Y-102391888D01*
X170765000Y-102591888D02*
X169515000Y-102591888D01*
X167435000Y-103031888D02*
X166471000Y-103031888D01*
X170930000Y-102191888D02*
X169515000Y-102191888D01*
X170301000Y-103231888D02*
X169515000Y-103231888D01*
X170376000Y-103151888D02*
X169515000Y-103151888D01*
X167435000Y-102111888D02*
X165995000Y-102111888D01*
X170540000Y-102951888D02*
X169515000Y-102951888D01*
X167435000Y-103271888D02*
X166690000Y-103271888D01*
X170650000Y-102791888D02*
X169515000Y-102791888D01*
X170029000Y-103471888D02*
X169515000Y-103471888D01*
X167435000Y-102991888D02*
X166440000Y-102991888D01*
X170722000Y-102671888D02*
X169515000Y-102671888D01*
X170218000Y-103311888D02*
X169515000Y-103311888D01*
X167435000Y-101630888D02*
X165906000Y-101630888D01*
X167435000Y-103231888D02*
X166649000Y-103231888D01*
X170840000Y-102431888D02*
X169515000Y-102431888D01*
X171095000Y-101390888D02*
G75*
G03*
X171095000Y-101390888I-2620000J0D01*
G01*
%TO.C,R2*%
X173127936Y-82904000D02*
X173582064Y-82904000D01*
X173127936Y-81434000D02*
X173582064Y-81434000D01*
D14*
%TO.C,L2*%
X162783000Y-59975000D02*
X174783000Y-59975000D01*
X174783000Y-47975000D02*
X162783000Y-47975000D01*
D13*
%TO.C,SW1*%
X166535000Y-125184000D02*
X166535000Y-124584000D01*
X162395000Y-124584000D02*
X162395000Y-125184000D01*
X163445000Y-119164000D02*
X163445000Y-120164000D01*
X161815000Y-125184000D02*
X167115000Y-125184000D01*
X165485000Y-119164000D02*
X165485000Y-120164000D01*
X164935000Y-124584000D02*
X164935000Y-125184000D01*
X161815000Y-119164000D02*
X161815000Y-125184000D01*
X163195000Y-120164000D02*
X163195000Y-119164000D01*
X165485000Y-120694000D02*
X163445000Y-120694000D01*
X165735000Y-120164000D02*
X163195000Y-120164000D01*
X163445000Y-120694000D02*
X163195000Y-120164000D01*
X166535000Y-124584000D02*
X164935000Y-124584000D01*
X165735000Y-119164000D02*
X165735000Y-120164000D01*
X163995000Y-125184000D02*
X163995000Y-124584000D01*
X167115000Y-119164000D02*
X161815000Y-119164000D01*
X167115000Y-125184000D02*
X167115000Y-119164000D01*
X167405000Y-124154000D02*
X167405000Y-120154000D01*
X163995000Y-124584000D02*
X162395000Y-124584000D01*
X165735000Y-120164000D02*
X165485000Y-120694000D01*
%TO.C,R13*%
X135228064Y-99595000D02*
X134773936Y-99595000D01*
X135228064Y-101065000D02*
X134773936Y-101065000D01*
%TO.C,C12*%
X140007323Y-86695000D02*
X140007323Y-88819000D01*
X135326323Y-82687000D02*
X135326323Y-92827000D01*
X137127323Y-83136000D02*
X137127323Y-86516000D01*
X136847323Y-88998000D02*
X136847323Y-92495000D01*
X136607323Y-88998000D02*
X136607323Y-92581000D01*
X138287323Y-83865000D02*
X138287323Y-86516000D01*
X139247323Y-84927000D02*
X139247323Y-90587000D01*
X137007323Y-88998000D02*
X137007323Y-92431000D01*
X138527323Y-88998000D02*
X138527323Y-91436000D01*
X136447323Y-82883000D02*
X136447323Y-86516000D01*
X139727323Y-85813000D02*
X139727323Y-89701000D01*
X137047323Y-88998000D02*
X137047323Y-92414000D01*
X138967323Y-84551000D02*
X138967323Y-90963000D01*
X136287323Y-88998000D02*
X136287323Y-92675000D01*
X135286323Y-82684000D02*
X135286323Y-92830000D01*
X139127323Y-84757000D02*
X139127323Y-90757000D01*
X139327323Y-85048000D02*
X139327323Y-90466000D01*
X138167323Y-83768000D02*
X138167323Y-86516000D01*
X135006323Y-82677000D02*
X135006323Y-92837000D01*
X136887323Y-88998000D02*
X136887323Y-92480000D01*
X137727323Y-83459000D02*
X137727323Y-86516000D01*
X137447323Y-88998000D02*
X137447323Y-92219000D01*
X139087323Y-84703000D02*
X139087323Y-90811000D01*
X139047323Y-84651000D02*
X139047323Y-90863000D01*
X136967323Y-88998000D02*
X136967323Y-92447000D01*
X137807323Y-83510000D02*
X137807323Y-86516000D01*
X136887323Y-83034000D02*
X136887323Y-86516000D01*
X137887323Y-83563000D02*
X137887323Y-86516000D01*
X135807323Y-82739000D02*
X135807323Y-92775000D01*
X135606323Y-82712000D02*
X135606323Y-92802000D01*
X138687323Y-84237000D02*
X138687323Y-86516000D01*
X136287323Y-82839000D02*
X136287323Y-86516000D01*
X137287323Y-88998000D02*
X137287323Y-92302000D01*
X137687323Y-88998000D02*
X137687323Y-92080000D01*
X137007323Y-83083000D02*
X137007323Y-86516000D01*
X136567323Y-88998000D02*
X136567323Y-92594000D01*
X138727323Y-88998000D02*
X138727323Y-91235000D01*
X136767323Y-82989000D02*
X136767323Y-86516000D01*
X137327323Y-88998000D02*
X137327323Y-92282000D01*
X135767323Y-82733000D02*
X135767323Y-92781000D01*
X139287323Y-84987000D02*
X139287323Y-90527000D01*
X137287323Y-83212000D02*
X137287323Y-86516000D01*
X138607323Y-84156000D02*
X138607323Y-86516000D01*
X136567323Y-82920000D02*
X136567323Y-86516000D01*
X138927323Y-84503000D02*
X138927323Y-91011000D01*
X137247323Y-83193000D02*
X137247323Y-86516000D01*
X138287323Y-88998000D02*
X138287323Y-91649000D01*
X137727323Y-88998000D02*
X137727323Y-92055000D01*
X139767323Y-85911000D02*
X139767323Y-89603000D01*
X138047323Y-88998000D02*
X138047323Y-91837000D01*
X138247323Y-88998000D02*
X138247323Y-91682000D01*
X138087323Y-83707000D02*
X138087323Y-86516000D01*
X135126323Y-82678000D02*
X135126323Y-92836000D01*
X136207323Y-82819000D02*
X136207323Y-92695000D01*
X137047323Y-83100000D02*
X137047323Y-86516000D01*
X137167323Y-88998000D02*
X137167323Y-92360000D01*
X139167323Y-84812000D02*
X139167323Y-90702000D01*
X137927323Y-88998000D02*
X137927323Y-91923000D01*
X135727323Y-82727000D02*
X135727323Y-92787000D01*
X135847323Y-82746000D02*
X135847323Y-92768000D01*
X135486323Y-82699000D02*
X135486323Y-92815000D01*
X137167323Y-83154000D02*
X137167323Y-86516000D01*
X137327323Y-83232000D02*
X137327323Y-86516000D01*
X138847323Y-84410000D02*
X138847323Y-91104000D01*
X139007323Y-84601000D02*
X139007323Y-90913000D01*
X137567323Y-88998000D02*
X137567323Y-92152000D01*
X130026677Y-84382000D02*
X130026677Y-85382000D01*
X135206323Y-82680000D02*
X135206323Y-92834000D01*
X138367323Y-83933000D02*
X138367323Y-86516000D01*
X137847323Y-88998000D02*
X137847323Y-91978000D01*
X129526677Y-84882000D02*
X130526677Y-84882000D01*
X135967323Y-82767000D02*
X135967323Y-92747000D01*
X136647323Y-82946000D02*
X136647323Y-86516000D01*
X136727323Y-82974000D02*
X136727323Y-86516000D01*
X140047323Y-86895000D02*
X140047323Y-88619000D01*
X136007323Y-82775000D02*
X136007323Y-92739000D01*
X139407323Y-85178000D02*
X139407323Y-90336000D01*
X137967323Y-83619000D02*
X137967323Y-86516000D01*
X136167323Y-82810000D02*
X136167323Y-92704000D01*
X139367323Y-85112000D02*
X139367323Y-90402000D01*
X138167323Y-88998000D02*
X138167323Y-91746000D01*
X137247323Y-88998000D02*
X137247323Y-92321000D01*
X138047323Y-83677000D02*
X138047323Y-86516000D01*
X138567323Y-84117000D02*
X138567323Y-86516000D01*
X137527323Y-88998000D02*
X137527323Y-92174000D01*
X137847323Y-83536000D02*
X137847323Y-86516000D01*
X138887323Y-84456000D02*
X138887323Y-91058000D01*
X136327323Y-82850000D02*
X136327323Y-86516000D01*
X136447323Y-88998000D02*
X136447323Y-92631000D01*
X137567323Y-83362000D02*
X137567323Y-86516000D01*
X138647323Y-88998000D02*
X138647323Y-91318000D01*
X138127323Y-83737000D02*
X138127323Y-86516000D01*
X136087323Y-82792000D02*
X136087323Y-92722000D01*
X138447323Y-88998000D02*
X138447323Y-91510000D01*
X137207323Y-83173000D02*
X137207323Y-86516000D01*
X137207323Y-88998000D02*
X137207323Y-92341000D01*
X137767323Y-83484000D02*
X137767323Y-86516000D01*
X139647323Y-85632000D02*
X139647323Y-89882000D01*
X137807323Y-88998000D02*
X137807323Y-92004000D01*
X136687323Y-88998000D02*
X136687323Y-92554000D01*
X138807323Y-84365000D02*
X138807323Y-91149000D01*
X138247323Y-83832000D02*
X138247323Y-86516000D01*
X136727323Y-88998000D02*
X136727323Y-92540000D01*
X137647323Y-88998000D02*
X137647323Y-92104000D01*
X139487323Y-85318000D02*
X139487323Y-90196000D01*
X139927323Y-86379000D02*
X139927323Y-89135000D01*
X136327323Y-88998000D02*
X136327323Y-92664000D01*
X138687323Y-88998000D02*
X138687323Y-91277000D01*
X135927323Y-82760000D02*
X135927323Y-92754000D01*
X137887323Y-88998000D02*
X137887323Y-91951000D01*
X139687323Y-85720000D02*
X139687323Y-89794000D01*
X135646323Y-82717000D02*
X135646323Y-92797000D01*
X135246323Y-82682000D02*
X135246323Y-92832000D01*
X136407323Y-82872000D02*
X136407323Y-86516000D01*
X139447323Y-85247000D02*
X139447323Y-90267000D01*
X137407323Y-83274000D02*
X137407323Y-86516000D01*
X136967323Y-83067000D02*
X136967323Y-86516000D01*
X138447323Y-84004000D02*
X138447323Y-86516000D01*
X138527323Y-84078000D02*
X138527323Y-86516000D01*
X136527323Y-82907000D02*
X136527323Y-86516000D01*
X136807323Y-88998000D02*
X136807323Y-92511000D01*
X135166323Y-82679000D02*
X135166323Y-92835000D01*
X136247323Y-82829000D02*
X136247323Y-92685000D01*
X138207323Y-83800000D02*
X138207323Y-86516000D01*
X135086323Y-82677000D02*
X135086323Y-92837000D01*
X136647323Y-88998000D02*
X136647323Y-92568000D01*
X136527323Y-88998000D02*
X136527323Y-92607000D01*
X137087323Y-88998000D02*
X137087323Y-92396000D01*
X137087323Y-83118000D02*
X137087323Y-86516000D01*
X139887323Y-86247000D02*
X139887323Y-89267000D01*
X136847323Y-83019000D02*
X136847323Y-86516000D01*
X138567323Y-88998000D02*
X138567323Y-91397000D01*
X139967323Y-86527000D02*
X139967323Y-88987000D01*
X136927323Y-88998000D02*
X136927323Y-92464000D01*
X137487323Y-83317000D02*
X137487323Y-86516000D01*
X137447323Y-83295000D02*
X137447323Y-86516000D01*
X138207323Y-88998000D02*
X138207323Y-91714000D01*
X140087323Y-87158000D02*
X140087323Y-88356000D01*
X136047323Y-82783000D02*
X136047323Y-92731000D01*
X136687323Y-82960000D02*
X136687323Y-86516000D01*
X138487323Y-84041000D02*
X138487323Y-86516000D01*
X135686323Y-82722000D02*
X135686323Y-92792000D01*
X138767323Y-84321000D02*
X138767323Y-91193000D01*
X135887323Y-82753000D02*
X135887323Y-92761000D01*
X139567323Y-85468000D02*
X139567323Y-90046000D01*
X136807323Y-83003000D02*
X136807323Y-86516000D01*
X137647323Y-83410000D02*
X137647323Y-86516000D01*
X138367323Y-88998000D02*
X138367323Y-91581000D01*
X138007323Y-88998000D02*
X138007323Y-91867000D01*
X136607323Y-82933000D02*
X136607323Y-86516000D01*
X137127323Y-88998000D02*
X137127323Y-92378000D01*
X137487323Y-88998000D02*
X137487323Y-92197000D01*
X137967323Y-88998000D02*
X137967323Y-91895000D01*
X137767323Y-88998000D02*
X137767323Y-92030000D01*
X139207323Y-84868000D02*
X139207323Y-90646000D01*
X137687323Y-83434000D02*
X137687323Y-86516000D01*
X137607323Y-88998000D02*
X137607323Y-92128000D01*
X135446323Y-82695000D02*
X135446323Y-92819000D01*
X139847323Y-86127000D02*
X139847323Y-89387000D01*
X137927323Y-83591000D02*
X137927323Y-86516000D01*
X136487323Y-82895000D02*
X136487323Y-86516000D01*
X138647323Y-84196000D02*
X138647323Y-86516000D01*
X138007323Y-83647000D02*
X138007323Y-86516000D01*
X138087323Y-88998000D02*
X138087323Y-91807000D01*
X139607323Y-85548000D02*
X139607323Y-89966000D01*
X135366323Y-82689000D02*
X135366323Y-92825000D01*
X135406323Y-82692000D02*
X135406323Y-92822000D01*
X138407323Y-88998000D02*
X138407323Y-91546000D01*
X138127323Y-88998000D02*
X138127323Y-91777000D01*
X135046323Y-82677000D02*
X135046323Y-92837000D01*
X138407323Y-83968000D02*
X138407323Y-86516000D01*
X135526323Y-82703000D02*
X135526323Y-92811000D01*
X137367323Y-88998000D02*
X137367323Y-92261000D01*
X136367323Y-88998000D02*
X136367323Y-92654000D01*
X138607323Y-88998000D02*
X138607323Y-91358000D01*
X137407323Y-88998000D02*
X137407323Y-92240000D01*
X136927323Y-83050000D02*
X136927323Y-86516000D01*
X136367323Y-82860000D02*
X136367323Y-86516000D01*
X138327323Y-88998000D02*
X138327323Y-91615000D01*
X137367323Y-83253000D02*
X137367323Y-86516000D01*
X136767323Y-88998000D02*
X136767323Y-92525000D01*
X137527323Y-83340000D02*
X137527323Y-86516000D01*
X138727323Y-84279000D02*
X138727323Y-86516000D01*
X136407323Y-88998000D02*
X136407323Y-92642000D01*
X136127323Y-82801000D02*
X136127323Y-92713000D01*
X139807323Y-86015000D02*
X139807323Y-89499000D01*
X136487323Y-88998000D02*
X136487323Y-92619000D01*
X138327323Y-83899000D02*
X138327323Y-86516000D01*
X137607323Y-83386000D02*
X137607323Y-86516000D01*
X135566323Y-82707000D02*
X135566323Y-92807000D01*
X138487323Y-88998000D02*
X138487323Y-91473000D01*
X139527323Y-85392000D02*
X139527323Y-90122000D01*
X140126323Y-87757000D02*
G75*
G03*
X140126323Y-87757000I-5120000J0D01*
G01*
%TO.C,R5*%
X175541000Y-69622936D02*
X175541000Y-70077064D01*
X177011000Y-69622936D02*
X177011000Y-70077064D01*
%TO.C,C8*%
X166880000Y-110191333D02*
X166880000Y-110483867D01*
X165860000Y-110191333D02*
X165860000Y-110483867D01*
%TO.C,TP2*%
X197552000Y-123377000D02*
X200212000Y-123377000D01*
X198882000Y-120717000D02*
X200212000Y-120717000D01*
X200212000Y-123257000D02*
X200212000Y-123377000D01*
X197552000Y-123257000D02*
X197552000Y-123377000D01*
X200212000Y-120717000D02*
X200212000Y-122047000D01*
%TO.C,C13*%
X153217000Y-60305621D02*
X146757000Y-60305621D01*
X152124000Y-62706621D02*
X147850000Y-62706621D01*
X151152000Y-63306621D02*
X148822000Y-63306621D01*
X151821000Y-62946621D02*
X148153000Y-62946621D01*
X148947000Y-61386621D02*
X146954000Y-61386621D01*
X152594000Y-62186621D02*
X151027000Y-62186621D01*
X152957000Y-61546621D02*
X151027000Y-61546621D01*
X148947000Y-61906621D02*
X147197000Y-61906621D01*
X148947000Y-60825621D02*
X146805000Y-60825621D01*
X152821000Y-61826621D02*
X151027000Y-61826621D01*
X153034000Y-61346621D02*
X151027000Y-61346621D01*
X148947000Y-62346621D02*
X147503000Y-62346621D01*
X150927000Y-63386621D02*
X149047000Y-63386621D01*
X153205000Y-60545621D02*
X151027000Y-60545621D01*
X152565000Y-62226621D02*
X151027000Y-62226621D01*
X148947000Y-61186621D02*
X146889000Y-61186621D01*
X152863000Y-61746621D02*
X151027000Y-61746621D01*
X152079000Y-62746621D02*
X147895000Y-62746621D01*
X151249000Y-63266621D02*
X148725000Y-63266621D01*
X153202000Y-60585621D02*
X151027000Y-60585621D01*
X148947000Y-60905621D02*
X146820000Y-60905621D01*
X148947000Y-61826621D02*
X147153000Y-61826621D01*
X152973000Y-61506621D02*
X151027000Y-61506621D01*
X148947000Y-60585621D02*
X146772000Y-60585621D01*
X152753000Y-61946621D02*
X151027000Y-61946621D01*
X153217000Y-60345621D02*
X146757000Y-60345621D01*
X152252000Y-62586621D02*
X147722000Y-62586621D01*
X148947000Y-62266621D02*
X147439000Y-62266621D01*
X151637000Y-63066621D02*
X148337000Y-63066621D01*
X153154000Y-60905621D02*
X151027000Y-60905621D01*
X148947000Y-60545621D02*
X146769000Y-60545621D01*
X148947000Y-61586621D02*
X147035000Y-61586621D01*
X152651000Y-62106621D02*
X151027000Y-62106621D01*
X152883000Y-61706621D02*
X151027000Y-61706621D01*
X152921000Y-61626621D02*
X151027000Y-61626621D01*
X152292000Y-62546621D02*
X151027000Y-62546621D01*
X148947000Y-61546621D02*
X147017000Y-61546621D01*
X153137000Y-60986621D02*
X151027000Y-60986621D01*
X152169000Y-62666621D02*
X147805000Y-62666621D01*
X148947000Y-62426621D02*
X147571000Y-62426621D01*
X153005000Y-61426621D02*
X151027000Y-61426621D01*
X148947000Y-61946621D02*
X147221000Y-61946621D01*
X148947000Y-61786621D02*
X147131000Y-61786621D01*
X152989000Y-61466621D02*
X151027000Y-61466621D01*
X152939000Y-61586621D02*
X151027000Y-61586621D01*
X148947000Y-61746621D02*
X147111000Y-61746621D01*
X150620000Y-63466621D02*
X149354000Y-63466621D01*
X150789000Y-63426621D02*
X149185000Y-63426621D01*
X153073000Y-61226621D02*
X151027000Y-61226621D01*
X153198000Y-60625621D02*
X151027000Y-60625621D01*
X151982000Y-62826621D02*
X147992000Y-62826621D01*
X148947000Y-61466621D02*
X146985000Y-61466621D01*
X153176000Y-60785621D02*
X151027000Y-60785621D01*
X152330000Y-62506621D02*
X151027000Y-62506621D01*
X148947000Y-61026621D02*
X146846000Y-61026621D01*
X151337000Y-63226621D02*
X148637000Y-63226621D01*
X152031000Y-62786621D02*
X147943000Y-62786621D01*
X153118000Y-61066621D02*
X151027000Y-61066621D01*
X148947000Y-62186621D02*
X147380000Y-62186621D01*
X148947000Y-60665621D02*
X146781000Y-60665621D01*
X148947000Y-62386621D02*
X147537000Y-62386621D01*
X150389000Y-63506621D02*
X149585000Y-63506621D01*
X152777000Y-61906621D02*
X151027000Y-61906621D01*
X153215000Y-60385621D02*
X146759000Y-60385621D01*
X153188000Y-60705621D02*
X151027000Y-60705621D01*
X148947000Y-60625621D02*
X146776000Y-60625621D01*
X151877000Y-62906621D02*
X148097000Y-62906621D01*
X148947000Y-61666621D02*
X147071000Y-61666621D01*
X153097000Y-61146621D02*
X151027000Y-61146621D01*
X152141000Y-57080380D02*
X151511000Y-57080380D01*
X148947000Y-61866621D02*
X147175000Y-61866621D01*
X153217000Y-60265621D02*
X146757000Y-60265621D01*
X152729000Y-61986621D02*
X151027000Y-61986621D01*
X153048000Y-61306621D02*
X151027000Y-61306621D01*
X151568000Y-63106621D02*
X148406000Y-63106621D01*
X153211000Y-60465621D02*
X146763000Y-60465621D01*
X153020000Y-61386621D02*
X151027000Y-61386621D01*
X152403000Y-62426621D02*
X151027000Y-62426621D01*
X148947000Y-62106621D02*
X147323000Y-62106621D01*
X148947000Y-62546621D02*
X147682000Y-62546621D01*
X152535000Y-62266621D02*
X151027000Y-62266621D01*
X148947000Y-60945621D02*
X146828000Y-60945621D01*
X152677000Y-62066621D02*
X151027000Y-62066621D01*
X148947000Y-61626621D02*
X147053000Y-61626621D01*
X148947000Y-62506621D02*
X147644000Y-62506621D01*
X153214000Y-60425621D02*
X146760000Y-60425621D01*
X148947000Y-61986621D02*
X147245000Y-61986621D01*
X151419000Y-63186621D02*
X148555000Y-63186621D01*
X151496000Y-63146621D02*
X148478000Y-63146621D01*
X148947000Y-61266621D02*
X146913000Y-61266621D01*
X148947000Y-60986621D02*
X146837000Y-60986621D01*
X148947000Y-62306621D02*
X147471000Y-62306621D01*
X151701000Y-63026621D02*
X148273000Y-63026621D01*
X152211000Y-62626621D02*
X147763000Y-62626621D01*
X148947000Y-61706621D02*
X147091000Y-61706621D01*
X152799000Y-61866621D02*
X151027000Y-61866621D01*
X148947000Y-61426621D02*
X146969000Y-61426621D01*
X152367000Y-62466621D02*
X151027000Y-62466621D01*
X151826000Y-56765380D02*
X151826000Y-57395380D01*
X152623000Y-62146621D02*
X151027000Y-62146621D01*
X148947000Y-62466621D02*
X147607000Y-62466621D01*
X152903000Y-61666621D02*
X151027000Y-61666621D01*
X148947000Y-61506621D02*
X147001000Y-61506621D01*
X153162000Y-60865621D02*
X151027000Y-60865621D01*
X153193000Y-60665621D02*
X151027000Y-60665621D01*
X153146000Y-60945621D02*
X151027000Y-60945621D01*
X148947000Y-62026621D02*
X147271000Y-62026621D01*
X148947000Y-60505621D02*
X146765000Y-60505621D01*
X152437000Y-62386621D02*
X151027000Y-62386621D01*
X148947000Y-61226621D02*
X146901000Y-61226621D01*
X148947000Y-61146621D02*
X146877000Y-61146621D01*
X148947000Y-60865621D02*
X146812000Y-60865621D01*
X148947000Y-61346621D02*
X146940000Y-61346621D01*
X148947000Y-61066621D02*
X146856000Y-61066621D01*
X151763000Y-62986621D02*
X148211000Y-62986621D01*
X153128000Y-61026621D02*
X151027000Y-61026621D01*
X153108000Y-61106621D02*
X151027000Y-61106621D01*
X152703000Y-62026621D02*
X151027000Y-62026621D01*
X148947000Y-60745621D02*
X146792000Y-60745621D01*
X153085000Y-61186621D02*
X151027000Y-61186621D01*
X152843000Y-61786621D02*
X151027000Y-61786621D01*
X151046000Y-63346621D02*
X148928000Y-63346621D01*
X152471000Y-62346621D02*
X151027000Y-62346621D01*
X153182000Y-60745621D02*
X151027000Y-60745621D01*
X148947000Y-62226621D02*
X147409000Y-62226621D01*
X148947000Y-62066621D02*
X147297000Y-62066621D01*
X153209000Y-60505621D02*
X151027000Y-60505621D01*
X152503000Y-62306621D02*
X151027000Y-62306621D01*
X148947000Y-61306621D02*
X146926000Y-61306621D01*
X151931000Y-62866621D02*
X148043000Y-62866621D01*
X148947000Y-61106621D02*
X146866000Y-61106621D01*
X153169000Y-60825621D02*
X151027000Y-60825621D01*
X148947000Y-60705621D02*
X146786000Y-60705621D01*
X148947000Y-60785621D02*
X146798000Y-60785621D01*
X153061000Y-61266621D02*
X151027000Y-61266621D01*
X148947000Y-62146621D02*
X147351000Y-62146621D01*
X153257000Y-60265621D02*
G75*
G03*
X153257000Y-60265621I-3270000J0D01*
G01*
D14*
%TO.C,D8*%
X129556000Y-100955000D02*
X131556000Y-100955000D01*
X131556000Y-99705000D02*
X129081000Y-99705000D01*
D13*
%TO.C,C3*%
X166981600Y-79406533D02*
X166981600Y-79699067D01*
X165961600Y-79406533D02*
X165961600Y-79699067D01*
%TO.C,R1*%
X172873936Y-66321000D02*
X173328064Y-66321000D01*
X172873936Y-67791000D02*
X173328064Y-67791000D01*
%TO.C,F1*%
X148445136Y-50753600D02*
X149649264Y-50753600D01*
X148445136Y-52573600D02*
X149649264Y-52573600D01*
%TO.C,C1*%
X167308000Y-75314888D02*
X165868000Y-75314888D01*
X170828000Y-75314888D02*
X169388000Y-75314888D01*
X170616000Y-75834888D02*
X169388000Y-75834888D01*
X167308000Y-76394888D02*
X166484000Y-76394888D01*
X170928000Y-74593888D02*
X165768000Y-74593888D01*
X170921000Y-74793888D02*
X165775000Y-74793888D01*
X169823000Y-71789113D02*
X169823000Y-72289113D01*
X167308000Y-75514888D02*
X165934000Y-75514888D01*
X167308000Y-75714888D02*
X166019000Y-75714888D01*
X167308000Y-76634888D02*
X166743000Y-76634888D01*
X167308000Y-75914888D02*
X166124000Y-75914888D01*
X170790000Y-75434888D02*
X169388000Y-75434888D01*
X167308000Y-75354888D02*
X165880000Y-75354888D01*
X170497000Y-76034888D02*
X169388000Y-76034888D01*
X167308000Y-76874888D02*
X167097000Y-76874888D01*
X167308000Y-76714888D02*
X166848000Y-76714888D01*
X167308000Y-76594888D02*
X166695000Y-76594888D01*
X167308000Y-76034888D02*
X166199000Y-76034888D01*
X167308000Y-76434888D02*
X166522000Y-76434888D01*
X170638000Y-75794888D02*
X169388000Y-75794888D01*
X167308000Y-76354888D02*
X166447000Y-76354888D01*
X167308000Y-76834888D02*
X167029000Y-76834888D01*
X167308000Y-75113888D02*
X165820000Y-75113888D01*
X170523000Y-75994888D02*
X169388000Y-75994888D01*
X167308000Y-76314888D02*
X166411000Y-76314888D01*
X170572000Y-75914888D02*
X169388000Y-75914888D01*
X169263000Y-77034888D02*
X167433000Y-77034888D01*
X170352000Y-76234888D02*
X169388000Y-76234888D01*
X170849000Y-75233888D02*
X169388000Y-75233888D01*
X167308000Y-75273888D02*
X165857000Y-75273888D01*
X170047000Y-76554888D02*
X169388000Y-76554888D01*
X167308000Y-75474888D02*
X165920000Y-75474888D01*
X169848000Y-76714888D02*
X169388000Y-76714888D01*
X170001000Y-76594888D02*
X169388000Y-76594888D01*
X169526000Y-76914888D02*
X167170000Y-76914888D01*
X170677000Y-75714888D02*
X169388000Y-75714888D01*
X170803000Y-75394888D02*
X169388000Y-75394888D01*
X170595000Y-75874888D02*
X169388000Y-75874888D01*
X167308000Y-74913888D02*
X165787000Y-74913888D01*
X170868000Y-75153888D02*
X169388000Y-75153888D01*
X170928000Y-74633888D02*
X165768000Y-74633888D01*
X167308000Y-75794888D02*
X166058000Y-75794888D01*
X167308000Y-75754888D02*
X166038000Y-75754888D01*
X167308000Y-75193888D02*
X165837000Y-75193888D01*
X167308000Y-75434888D02*
X165906000Y-75434888D01*
X170413000Y-76154888D02*
X169388000Y-76154888D01*
X170470000Y-76074888D02*
X169388000Y-76074888D01*
X167308000Y-76274888D02*
X166377000Y-76274888D01*
X170924000Y-74753888D02*
X165772000Y-74753888D01*
X167308000Y-75874888D02*
X166101000Y-75874888D01*
X167308000Y-75594888D02*
X165966000Y-75594888D01*
X167308000Y-76554888D02*
X166649000Y-76554888D01*
X167308000Y-76794888D02*
X166965000Y-76794888D01*
X170909000Y-74913888D02*
X169388000Y-74913888D01*
X167308000Y-75554888D02*
X165950000Y-75554888D01*
X167308000Y-74873888D02*
X165783000Y-74873888D01*
X167308000Y-76234888D02*
X166344000Y-76234888D01*
X167308000Y-75994888D02*
X166173000Y-75994888D01*
X170816000Y-75354888D02*
X169388000Y-75354888D01*
X167308000Y-75634888D02*
X165983000Y-75634888D01*
X170713000Y-75634888D02*
X169388000Y-75634888D01*
X167308000Y-76754888D02*
X166905000Y-76754888D01*
X170174000Y-76434888D02*
X169388000Y-76434888D01*
X167308000Y-75394888D02*
X165893000Y-75394888D01*
X170073000Y-72039113D02*
X169573000Y-72039113D01*
X170383000Y-76194888D02*
X169388000Y-76194888D01*
X169667000Y-76834888D02*
X169388000Y-76834888D01*
X170876000Y-75113888D02*
X169388000Y-75113888D01*
X170730000Y-75594888D02*
X169388000Y-75594888D01*
X167308000Y-75954888D02*
X166148000Y-75954888D01*
X170891000Y-75033888D02*
X169388000Y-75033888D01*
X170746000Y-75554888D02*
X169388000Y-75554888D01*
X167308000Y-75153888D02*
X165828000Y-75153888D01*
X170285000Y-76314888D02*
X169388000Y-76314888D01*
X169902000Y-76674888D02*
X169388000Y-76674888D01*
X169359000Y-76994888D02*
X167337000Y-76994888D01*
X170904000Y-74953888D02*
X169388000Y-74953888D01*
X167308000Y-76194888D02*
X166313000Y-76194888D01*
X169446000Y-76954888D02*
X167250000Y-76954888D01*
X167308000Y-74833888D02*
X165779000Y-74833888D01*
X168866000Y-77154888D02*
X167830000Y-77154888D01*
X170091000Y-76514888D02*
X169388000Y-76514888D01*
X169953000Y-76634888D02*
X169388000Y-76634888D01*
X167308000Y-76154888D02*
X166283000Y-76154888D01*
X168632000Y-77194888D02*
X168064000Y-77194888D01*
X167308000Y-75033888D02*
X165805000Y-75033888D01*
X170776000Y-75474888D02*
X169388000Y-75474888D01*
X167308000Y-75073888D02*
X165812000Y-75073888D01*
X169153000Y-77074888D02*
X167543000Y-77074888D01*
X167308000Y-76114888D02*
X166253000Y-76114888D01*
X167308000Y-76074888D02*
X166226000Y-76074888D01*
X167308000Y-75674888D02*
X166000000Y-75674888D01*
X167308000Y-76674888D02*
X166794000Y-76674888D01*
X169025000Y-77114888D02*
X167671000Y-77114888D01*
X170762000Y-75514888D02*
X169388000Y-75514888D01*
X170548000Y-75954888D02*
X169388000Y-75954888D01*
X167308000Y-74953888D02*
X165792000Y-74953888D01*
X170913000Y-74873888D02*
X169388000Y-74873888D01*
X170917000Y-74833888D02*
X169388000Y-74833888D01*
X167308000Y-75834888D02*
X166080000Y-75834888D01*
X167308000Y-76514888D02*
X166605000Y-76514888D01*
X170696000Y-75674888D02*
X169388000Y-75674888D01*
X170859000Y-75193888D02*
X169388000Y-75193888D01*
X170658000Y-75754888D02*
X169388000Y-75754888D01*
X170319000Y-76274888D02*
X169388000Y-76274888D01*
X167308000Y-76474888D02*
X166563000Y-76474888D01*
X167308000Y-74993888D02*
X165798000Y-74993888D01*
X170839000Y-75273888D02*
X169388000Y-75273888D01*
X170249000Y-76354888D02*
X169388000Y-76354888D01*
X170212000Y-76394888D02*
X169388000Y-76394888D01*
X169599000Y-76874888D02*
X169388000Y-76874888D01*
X170133000Y-76474888D02*
X169388000Y-76474888D01*
X170926000Y-74713888D02*
X165770000Y-74713888D01*
X169731000Y-76794888D02*
X169388000Y-76794888D01*
X169791000Y-76754888D02*
X169388000Y-76754888D01*
X170898000Y-74993888D02*
X169388000Y-74993888D01*
X170443000Y-76114888D02*
X169388000Y-76114888D01*
X167308000Y-75233888D02*
X165847000Y-75233888D01*
X170884000Y-75073888D02*
X169388000Y-75073888D01*
X170927000Y-74673888D02*
X165769000Y-74673888D01*
X170968000Y-74593888D02*
G75*
G03*
X170968000Y-74593888I-2620000J0D01*
G01*
%TO.C,R7*%
X176376000Y-100102936D02*
X176376000Y-100557064D01*
X174906000Y-100102936D02*
X174906000Y-100557064D01*
%TO.C,C17*%
X134850000Y-119602888D02*
X133666000Y-119602888D01*
X134850000Y-120002888D02*
X133953000Y-120002888D01*
X134850000Y-120282888D02*
X134237000Y-120282888D01*
X134850000Y-120402888D02*
X134390000Y-120402888D01*
X138470000Y-118281888D02*
X133310000Y-118281888D01*
X134850000Y-119322888D02*
X133525000Y-119322888D01*
X137365000Y-115477113D02*
X137365000Y-115977113D01*
X137209000Y-120522888D02*
X136930000Y-120522888D01*
X134850000Y-118881888D02*
X133379000Y-118881888D01*
X137273000Y-120482888D02*
X136930000Y-120482888D01*
X137444000Y-120362888D02*
X136930000Y-120362888D01*
X138012000Y-119762888D02*
X136930000Y-119762888D01*
X134850000Y-119522888D02*
X133622000Y-119522888D01*
X137985000Y-119802888D02*
X136930000Y-119802888D01*
X138358000Y-119042888D02*
X136930000Y-119042888D01*
X134850000Y-119682888D02*
X133715000Y-119682888D01*
X136901000Y-120682888D02*
X134879000Y-120682888D01*
X134850000Y-119082888D02*
X133435000Y-119082888D01*
X137633000Y-120202888D02*
X136930000Y-120202888D01*
X134850000Y-119402888D02*
X133561000Y-119402888D01*
X134850000Y-120242888D02*
X134191000Y-120242888D01*
X136988000Y-120642888D02*
X134792000Y-120642888D01*
X137543000Y-120282888D02*
X136930000Y-120282888D01*
X134850000Y-120042888D02*
X133989000Y-120042888D01*
X134850000Y-118801888D02*
X133362000Y-118801888D01*
X138200000Y-119442888D02*
X136930000Y-119442888D01*
X138455000Y-118561888D02*
X136930000Y-118561888D01*
X138180000Y-119482888D02*
X136930000Y-119482888D01*
X138468000Y-118401888D02*
X133312000Y-118401888D01*
X138470000Y-118321888D02*
X133310000Y-118321888D01*
X136805000Y-120722888D02*
X134975000Y-120722888D01*
X134850000Y-119882888D02*
X133855000Y-119882888D01*
X134850000Y-119202888D02*
X133476000Y-119202888D01*
X134850000Y-120562888D02*
X134639000Y-120562888D01*
X137716000Y-120122888D02*
X136930000Y-120122888D01*
X136408000Y-120842888D02*
X135372000Y-120842888D01*
X134850000Y-120322888D02*
X134285000Y-120322888D01*
X137925000Y-119882888D02*
X136930000Y-119882888D01*
X134850000Y-120482888D02*
X134507000Y-120482888D01*
X138114000Y-119602888D02*
X136930000Y-119602888D01*
X134850000Y-119762888D02*
X133768000Y-119762888D01*
X136567000Y-120802888D02*
X135213000Y-120802888D01*
X134850000Y-119362888D02*
X133542000Y-119362888D01*
X134850000Y-119642888D02*
X133690000Y-119642888D01*
X134850000Y-119122888D02*
X133448000Y-119122888D01*
X137615000Y-115727113D02*
X137115000Y-115727113D01*
X134850000Y-118721888D02*
X133347000Y-118721888D01*
X138158000Y-119522888D02*
X136930000Y-119522888D01*
X137068000Y-120602888D02*
X134712000Y-120602888D01*
X138451000Y-118601888D02*
X136930000Y-118601888D01*
X134850000Y-119922888D02*
X133886000Y-119922888D01*
X134850000Y-120202888D02*
X134147000Y-120202888D01*
X134850000Y-119242888D02*
X133492000Y-119242888D01*
X134850000Y-120442888D02*
X134447000Y-120442888D01*
X138255000Y-119322888D02*
X136930000Y-119322888D01*
X138426000Y-118761888D02*
X136930000Y-118761888D01*
X138401000Y-118881888D02*
X136930000Y-118881888D01*
X137791000Y-120042888D02*
X136930000Y-120042888D01*
X134850000Y-120522888D02*
X134571000Y-120522888D01*
X134850000Y-118761888D02*
X133354000Y-118761888D01*
X138272000Y-119282888D02*
X136930000Y-119282888D01*
X134850000Y-118681888D02*
X133340000Y-118681888D01*
X138318000Y-119162888D02*
X136930000Y-119162888D01*
X134850000Y-119722888D02*
X133741000Y-119722888D01*
X138332000Y-119122888D02*
X136930000Y-119122888D01*
X134850000Y-118521888D02*
X133321000Y-118521888D01*
X138418000Y-118801888D02*
X136930000Y-118801888D01*
X134850000Y-119562888D02*
X133643000Y-119562888D01*
X138469000Y-118361888D02*
X133311000Y-118361888D01*
X138433000Y-118721888D02*
X136930000Y-118721888D01*
X138466000Y-118441888D02*
X133314000Y-118441888D01*
X134850000Y-119282888D02*
X133508000Y-119282888D01*
X137894000Y-119922888D02*
X136930000Y-119922888D01*
X137390000Y-120402888D02*
X136930000Y-120402888D01*
X134850000Y-119002888D02*
X133410000Y-119002888D01*
X134850000Y-118561888D02*
X133325000Y-118561888D01*
X138137000Y-119562888D02*
X136930000Y-119562888D01*
X134850000Y-119842888D02*
X133825000Y-119842888D01*
X134850000Y-120362888D02*
X134336000Y-120362888D01*
X138440000Y-118681888D02*
X136930000Y-118681888D01*
X138463000Y-118481888D02*
X133317000Y-118481888D01*
X138238000Y-119362888D02*
X136930000Y-119362888D01*
X134850000Y-119442888D02*
X133580000Y-119442888D01*
X137333000Y-120442888D02*
X136930000Y-120442888D01*
X138345000Y-119082888D02*
X136930000Y-119082888D01*
X134850000Y-119482888D02*
X133600000Y-119482888D01*
X134850000Y-118601888D02*
X133329000Y-118601888D01*
X134850000Y-119162888D02*
X133462000Y-119162888D01*
X137754000Y-120082888D02*
X136930000Y-120082888D01*
X137495000Y-120322888D02*
X136930000Y-120322888D01*
X136174000Y-120882888D02*
X135606000Y-120882888D01*
X136695000Y-120762888D02*
X135085000Y-120762888D01*
X138446000Y-118641888D02*
X136930000Y-118641888D01*
X138370000Y-119002888D02*
X136930000Y-119002888D01*
X138090000Y-119642888D02*
X136930000Y-119642888D01*
X134850000Y-118961888D02*
X133399000Y-118961888D01*
X138391000Y-118921888D02*
X136930000Y-118921888D01*
X137675000Y-120162888D02*
X136930000Y-120162888D01*
X138304000Y-119202888D02*
X136930000Y-119202888D01*
X138065000Y-119682888D02*
X136930000Y-119682888D01*
X137141000Y-120562888D02*
X136930000Y-120562888D01*
X138381000Y-118961888D02*
X136930000Y-118961888D01*
X137861000Y-119962888D02*
X136930000Y-119962888D01*
X134850000Y-118641888D02*
X133334000Y-118641888D01*
X137827000Y-120002888D02*
X136930000Y-120002888D01*
X138288000Y-119242888D02*
X136930000Y-119242888D01*
X138459000Y-118521888D02*
X136930000Y-118521888D01*
X134850000Y-120122888D02*
X134064000Y-120122888D01*
X134850000Y-119962888D02*
X133919000Y-119962888D01*
X137589000Y-120242888D02*
X136930000Y-120242888D01*
X137955000Y-119842888D02*
X136930000Y-119842888D01*
X134850000Y-118841888D02*
X133370000Y-118841888D01*
X138410000Y-118841888D02*
X136930000Y-118841888D01*
X134850000Y-120082888D02*
X134026000Y-120082888D01*
X134850000Y-120162888D02*
X134105000Y-120162888D01*
X138039000Y-119722888D02*
X136930000Y-119722888D01*
X134850000Y-119042888D02*
X133422000Y-119042888D01*
X134850000Y-118921888D02*
X133389000Y-118921888D01*
X134850000Y-119802888D02*
X133795000Y-119802888D01*
X138219000Y-119402888D02*
X136930000Y-119402888D01*
X138510000Y-118281888D02*
G75*
G03*
X138510000Y-118281888I-2620000J0D01*
G01*
%TO.C,C18*%
X138787600Y-123551733D02*
X138787600Y-123844267D01*
X137767600Y-123551733D02*
X137767600Y-123844267D01*
%TO.C,U2*%
X146658000Y-114209000D02*
X146658000Y-96309000D01*
X145008000Y-114209000D02*
X146658000Y-114209000D01*
X141358000Y-114209000D02*
X143008000Y-114209000D01*
X141358000Y-96309000D02*
X141358000Y-114209000D01*
X146658000Y-96309000D02*
X141358000Y-96309000D01*
X145008000Y-114209000D02*
G75*
G03*
X143008000Y-114209000I-1000000J0D01*
G01*
%TO.C,Q3*%
X185367000Y-94622000D02*
X183867000Y-94622000D01*
X183867000Y-94622000D02*
X183867000Y-96432000D01*
X185367000Y-105022000D02*
X183867000Y-105022000D01*
X183867000Y-96432000D02*
X178742000Y-96432000D01*
X183867000Y-105022000D02*
X183867000Y-103212000D01*
X183867000Y-103212000D02*
X182767000Y-103212000D01*
%TO.C,U1*%
X156036000Y-65731000D02*
X156036000Y-83631000D01*
X159686000Y-83631000D02*
X161336000Y-83631000D01*
X161336000Y-83631000D02*
X161336000Y-65731000D01*
X161336000Y-65731000D02*
X156036000Y-65731000D01*
X156036000Y-83631000D02*
X157686000Y-83631000D01*
X159686000Y-83631000D02*
G75*
G03*
X157686000Y-83631000I-1000000J0D01*
G01*
%TO.C,Q1*%
X183982000Y-65971000D02*
X178857000Y-65971000D01*
X183982000Y-72751000D02*
X182882000Y-72751000D01*
X185482000Y-74561000D02*
X183982000Y-74561000D01*
X185482000Y-64161000D02*
X183982000Y-64161000D01*
X183982000Y-64161000D02*
X183982000Y-65971000D01*
X183982000Y-74561000D02*
X183982000Y-72751000D01*
%TO.C,J2*%
X199164500Y-85512500D02*
X203464500Y-85512500D01*
X203464500Y-81182500D02*
X203814500Y-81182500D01*
X204814500Y-80432500D02*
X204814500Y-83432500D01*
X204814500Y-83432500D02*
X203814500Y-83182500D01*
X203464500Y-85512500D02*
X203464500Y-86262500D01*
X203814500Y-82682500D02*
X203464500Y-82682500D01*
X203464500Y-87762500D02*
X203464500Y-88512500D01*
X198304500Y-89662500D02*
X205774500Y-89662500D01*
X203814500Y-83182500D02*
X203814500Y-82682500D01*
X203814500Y-86262500D02*
X203814500Y-85762500D01*
X198304500Y-79282500D02*
X198304500Y-89662500D01*
X206164500Y-78892500D02*
X206164500Y-80892500D01*
X199164500Y-83432500D02*
X199164500Y-82682500D01*
X203464500Y-82682500D02*
X203464500Y-83432500D01*
X199164500Y-81182500D02*
X199164500Y-80432500D01*
X203464500Y-83432500D02*
X199164500Y-83432500D01*
X203814500Y-87762500D02*
X203464500Y-87762500D01*
X205774500Y-79282500D02*
X198304500Y-79282500D01*
X204914500Y-78892500D02*
X206164500Y-78892500D01*
X203814500Y-80682500D02*
X204814500Y-80432500D01*
X203464500Y-88512500D02*
X199164500Y-88512500D01*
X199164500Y-80432500D02*
X203464500Y-80432500D01*
X205774500Y-89662500D02*
X205774500Y-79282500D01*
X203464500Y-86262500D02*
X203814500Y-86262500D01*
X203814500Y-81182500D02*
X203814500Y-80682500D01*
X203814500Y-88262500D02*
X203814500Y-87762500D01*
X203814500Y-85762500D02*
X204814500Y-85512500D01*
X199164500Y-88512500D02*
X199164500Y-87762500D01*
X204814500Y-85512500D02*
X204814500Y-88512500D01*
X199164500Y-86262500D02*
X199164500Y-85512500D01*
X203464500Y-80432500D02*
X203464500Y-81182500D01*
X204814500Y-88512500D02*
X203814500Y-88262500D01*
X199164656Y-82682147D02*
G75*
G03*
X199164500Y-81182500I-1700162J749647D01*
G01*
X199164656Y-87762147D02*
G75*
G03*
X199164500Y-86262500I-1700162J749647D01*
G01*
%TO.C,Q4*%
X183879000Y-111691000D02*
X178754000Y-111691000D01*
X183879000Y-118471000D02*
X182779000Y-118471000D01*
X183879000Y-120281000D02*
X183879000Y-118471000D01*
X185379000Y-120281000D02*
X183879000Y-120281000D01*
X183879000Y-109881000D02*
X183879000Y-111691000D01*
X185379000Y-109881000D02*
X183879000Y-109881000D01*
%TO.C,J3*%
X128943000Y-107442000D02*
X129943000Y-107442000D01*
X128943000Y-106062000D02*
X128943000Y-113902000D01*
X134363000Y-111722000D02*
X134363000Y-113322000D01*
X134963000Y-109182000D02*
X134363000Y-109182000D01*
X134363000Y-110782000D02*
X134963000Y-110782000D01*
X134963000Y-111722000D02*
X134363000Y-111722000D01*
X134963000Y-113902000D02*
X134963000Y-106062000D01*
X134963000Y-106642000D02*
X134363000Y-106642000D01*
X129943000Y-107442000D02*
X130473000Y-107692000D01*
X134363000Y-106642000D02*
X134363000Y-108242000D01*
X134363000Y-109182000D02*
X134363000Y-110782000D01*
X133933000Y-105772000D02*
X129933000Y-105772000D01*
X134363000Y-108242000D02*
X134963000Y-108242000D01*
X130473000Y-107692000D02*
X130473000Y-112272000D01*
X129943000Y-112522000D02*
X128943000Y-112522000D01*
X129943000Y-107442000D02*
X129943000Y-112522000D01*
X134363000Y-113322000D02*
X134963000Y-113322000D01*
X130473000Y-112272000D02*
X129943000Y-112522000D01*
X128943000Y-113902000D02*
X134963000Y-113902000D01*
X134963000Y-106062000D02*
X128943000Y-106062000D01*
X128943000Y-107692000D02*
X129943000Y-107692000D01*
X128943000Y-112272000D02*
X129943000Y-112272000D01*
%TO.C,R9*%
X151611064Y-113511000D02*
X151156936Y-113511000D01*
X151611064Y-112041000D02*
X151156936Y-112041000D01*
%TO.C,Q2*%
X185663012Y-79236001D02*
X184163012Y-79236001D01*
X184163012Y-87826001D02*
X183063012Y-87826001D01*
X184163012Y-79236001D02*
X184163012Y-81046001D01*
X184163012Y-89636001D02*
X184163012Y-87826001D01*
X184163012Y-81046001D02*
X179038012Y-81046001D01*
X185663012Y-89636001D02*
X184163012Y-89636001D01*
%TO.C,R10*%
X142416200Y-117120936D02*
X142416200Y-117575064D01*
X140946200Y-117120936D02*
X140946200Y-117575064D01*
D15*
%TO.C,J4*%
X128285992Y-61722999D02*
X128285992Y-61822999D01*
D14*
X133160992Y-50322999D02*
X133160992Y-50322999D01*
D15*
X140835992Y-52822999D02*
X142985992Y-52822999D01*
X142985992Y-52822999D02*
X142985992Y-61822999D01*
D14*
X133360992Y-50322999D02*
X133360992Y-50322999D01*
D15*
X131885992Y-52822999D02*
X128285992Y-52822999D01*
X142985992Y-61822999D02*
X140835992Y-61822999D01*
X128285992Y-61822999D02*
X131885992Y-61822999D01*
X128285992Y-52822999D02*
X128285992Y-61722999D01*
D14*
X133160992Y-50322999D02*
G75*
G03*
X133360992Y-50322999I100000J0D01*
G01*
X133360992Y-50322999D02*
G75*
G03*
X133160992Y-50322999I-100000J0D01*
G01*
D13*
%TO.C,C50*%
X144975005Y-86844000D02*
X144975005Y-85429000D01*
X144735005Y-86844000D02*
X144735005Y-85519000D01*
X143175005Y-88168000D02*
X143175005Y-87600000D01*
X144495005Y-90131000D02*
X144495005Y-88924000D01*
X143615005Y-86844000D02*
X143615005Y-86441000D01*
X145216005Y-86844000D02*
X145216005Y-85364000D01*
X144855005Y-86844000D02*
X144855005Y-85470000D01*
X145015005Y-90352000D02*
X145015005Y-88924000D01*
X144775005Y-86844000D02*
X144775005Y-85502000D01*
X144055005Y-89821000D02*
X144055005Y-88924000D01*
X144215005Y-89949000D02*
X144215005Y-88924000D01*
X148330780Y-89609000D02*
X148330780Y-89109000D01*
X143935005Y-89710000D02*
X143935005Y-88924000D01*
X144575005Y-86844000D02*
X144575005Y-85594000D01*
X145696005Y-90463000D02*
X145696005Y-85305000D01*
X145015005Y-86844000D02*
X145015005Y-85416000D01*
X145776005Y-90464000D02*
X145776005Y-85304000D01*
X143335005Y-88799000D02*
X143335005Y-86969000D01*
X143695005Y-89438000D02*
X143695005Y-88924000D01*
X144175005Y-89919000D02*
X144175005Y-88924000D01*
X144695005Y-90232000D02*
X144695005Y-88924000D01*
X145456005Y-90445000D02*
X145456005Y-88924000D01*
X143255005Y-88561000D02*
X143255005Y-87207000D01*
X144895005Y-90312000D02*
X144895005Y-88924000D01*
X144135005Y-89888000D02*
X144135005Y-88924000D01*
X144175005Y-86844000D02*
X144175005Y-85849000D01*
X145656005Y-90462000D02*
X145656005Y-85306000D01*
X144015005Y-89785000D02*
X144015005Y-88924000D01*
X144895005Y-86844000D02*
X144895005Y-85456000D01*
X143935005Y-86844000D02*
X143935005Y-86058000D01*
X143495005Y-86844000D02*
X143495005Y-86633000D01*
X144935005Y-86844000D02*
X144935005Y-85442000D01*
X144815005Y-90282000D02*
X144815005Y-88924000D01*
X145296005Y-90420000D02*
X145296005Y-88924000D01*
X144735005Y-90249000D02*
X144735005Y-88924000D01*
X145616005Y-90460000D02*
X145616005Y-85308000D01*
X145736005Y-90464000D02*
X145736005Y-85304000D01*
X143215005Y-88402000D02*
X143215005Y-87366000D01*
X145136005Y-90385000D02*
X145136005Y-88924000D01*
X143975005Y-89748000D02*
X143975005Y-88924000D01*
X143295005Y-88689000D02*
X143295005Y-87079000D01*
X144375005Y-86844000D02*
X144375005Y-85709000D01*
X145576005Y-90457000D02*
X145576005Y-85311000D01*
X144415005Y-86844000D02*
X144415005Y-85684000D01*
X145336005Y-86844000D02*
X145336005Y-85341000D01*
X143535005Y-86844000D02*
X143535005Y-86565000D01*
X143495005Y-89135000D02*
X143495005Y-88924000D01*
X144695005Y-86844000D02*
X144695005Y-85536000D01*
X144615005Y-86844000D02*
X144615005Y-85574000D01*
X145176005Y-90395000D02*
X145176005Y-88924000D01*
X143655005Y-86844000D02*
X143655005Y-86384000D01*
X144055005Y-86844000D02*
X144055005Y-85947000D01*
X144335005Y-90033000D02*
X144335005Y-88924000D01*
X144295005Y-86844000D02*
X144295005Y-85762000D01*
X144215005Y-86844000D02*
X144215005Y-85819000D01*
X143655005Y-89384000D02*
X143655005Y-88924000D01*
X144015005Y-86844000D02*
X144015005Y-85983000D01*
X144455005Y-90108000D02*
X144455005Y-88924000D01*
X144455005Y-86844000D02*
X144455005Y-85660000D01*
X144135005Y-86844000D02*
X144135005Y-85880000D01*
X144615005Y-90194000D02*
X144615005Y-88924000D01*
X144255005Y-86844000D02*
X144255005Y-85789000D01*
X143815005Y-86844000D02*
X143815005Y-86185000D01*
X145536005Y-86844000D02*
X145536005Y-85315000D01*
X143775005Y-86844000D02*
X143775005Y-86231000D01*
X144535005Y-86844000D02*
X144535005Y-85616000D01*
X144415005Y-90084000D02*
X144415005Y-88924000D01*
X143975005Y-86844000D02*
X143975005Y-86020000D01*
X143415005Y-88982000D02*
X143415005Y-86786000D01*
X144575005Y-90174000D02*
X144575005Y-88924000D01*
X144255005Y-89979000D02*
X144255005Y-88924000D01*
X145096005Y-90375000D02*
X145096005Y-88924000D01*
X144295005Y-90006000D02*
X144295005Y-88924000D01*
X143575005Y-86844000D02*
X143575005Y-86501000D01*
X144975005Y-90339000D02*
X144975005Y-88924000D01*
X145296005Y-86844000D02*
X145296005Y-85348000D01*
X143455005Y-89062000D02*
X143455005Y-86706000D01*
X145376005Y-86844000D02*
X145376005Y-85334000D01*
X143535005Y-89203000D02*
X143535005Y-88924000D01*
X143895005Y-89669000D02*
X143895005Y-88924000D01*
X144495005Y-86844000D02*
X144495005Y-85637000D01*
X145456005Y-86844000D02*
X145456005Y-85323000D01*
X144655005Y-90213000D02*
X144655005Y-88924000D01*
X143735005Y-86844000D02*
X143735005Y-86279000D01*
X144095005Y-86844000D02*
X144095005Y-85913000D01*
X145216005Y-90404000D02*
X145216005Y-88924000D01*
X145055005Y-86844000D02*
X145055005Y-85404000D01*
X145416005Y-90440000D02*
X145416005Y-88924000D01*
X148580780Y-89359000D02*
X148080780Y-89359000D01*
X143895005Y-86844000D02*
X143895005Y-86099000D01*
X145136005Y-86844000D02*
X145136005Y-85383000D01*
X144535005Y-90152000D02*
X144535005Y-88924000D01*
X145376005Y-90434000D02*
X145376005Y-88924000D01*
X144935005Y-90326000D02*
X144935005Y-88924000D01*
X145416005Y-86844000D02*
X145416005Y-85328000D01*
X143735005Y-89489000D02*
X143735005Y-88924000D01*
X143815005Y-89583000D02*
X143815005Y-88924000D01*
X144375005Y-90059000D02*
X144375005Y-88924000D01*
X144815005Y-86844000D02*
X144815005Y-85486000D01*
X143855005Y-89627000D02*
X143855005Y-88924000D01*
X143615005Y-89327000D02*
X143615005Y-88924000D01*
X145256005Y-86844000D02*
X145256005Y-85356000D01*
X144655005Y-86844000D02*
X144655005Y-85555000D01*
X143695005Y-86844000D02*
X143695005Y-86330000D01*
X145096005Y-86844000D02*
X145096005Y-85393000D01*
X143855005Y-86844000D02*
X143855005Y-86141000D01*
X145256005Y-90412000D02*
X145256005Y-88924000D01*
X145496005Y-86844000D02*
X145496005Y-85319000D01*
X143775005Y-89537000D02*
X143775005Y-88924000D01*
X143575005Y-89267000D02*
X143575005Y-88924000D01*
X144855005Y-90298000D02*
X144855005Y-88924000D01*
X145496005Y-90449000D02*
X145496005Y-88924000D01*
X145176005Y-86844000D02*
X145176005Y-85373000D01*
X143375005Y-88895000D02*
X143375005Y-86873000D01*
X144335005Y-86844000D02*
X144335005Y-85735000D01*
X144775005Y-90266000D02*
X144775005Y-88924000D01*
X145055005Y-90364000D02*
X145055005Y-88924000D01*
X145536005Y-90453000D02*
X145536005Y-88924000D01*
X144095005Y-89855000D02*
X144095005Y-88924000D01*
X145336005Y-90427000D02*
X145336005Y-88924000D01*
X148396005Y-87884000D02*
G75*
G03*
X148396005Y-87884000I-2620000J0D01*
G01*
%TO.C,R6*%
X175414000Y-84989936D02*
X175414000Y-85444064D01*
X176884000Y-84989936D02*
X176884000Y-85444064D01*
%TO.C,TP1*%
X130830000Y-119710000D02*
X130830000Y-119830000D01*
X128170000Y-119830000D02*
X130830000Y-119830000D01*
X130830000Y-117170000D02*
X130830000Y-118500000D01*
X129500000Y-117170000D02*
X130830000Y-117170000D01*
X128170000Y-119710000D02*
X128170000Y-119830000D01*
%TO.C,C2*%
X160117000Y-56600621D02*
X158139000Y-56600621D01*
X160173000Y-56440621D02*
X158139000Y-56440621D01*
X156059000Y-56200621D02*
X153958000Y-56200621D01*
X158680000Y-58280621D02*
X155518000Y-58280621D01*
X156059000Y-55799621D02*
X153888000Y-55799621D01*
X156059000Y-57480621D02*
X154583000Y-57480621D01*
X158361000Y-58440621D02*
X155837000Y-58440621D01*
X156059000Y-56800621D02*
X154165000Y-56800621D01*
X160220000Y-56280621D02*
X158139000Y-56280621D01*
X156059000Y-56400621D02*
X154013000Y-56400621D01*
X159323000Y-57800621D02*
X154875000Y-57800621D01*
X160015000Y-56840621D02*
X158139000Y-56840621D01*
X159815000Y-57200621D02*
X158139000Y-57200621D01*
X159995000Y-56880621D02*
X158139000Y-56880621D01*
X156059000Y-56520621D02*
X154052000Y-56520621D01*
X159735000Y-57320621D02*
X158139000Y-57320621D01*
X160288000Y-55959621D02*
X158139000Y-55959621D01*
X160321000Y-55679621D02*
X158139000Y-55679621D01*
X160146000Y-56520621D02*
X158139000Y-56520621D01*
X156059000Y-56880621D02*
X154203000Y-56880621D01*
X160249000Y-56160621D02*
X158139000Y-56160621D01*
X156059000Y-56960621D02*
X154243000Y-56960621D01*
X159647000Y-57440621D02*
X158139000Y-57440621D01*
X160033000Y-56800621D02*
X158139000Y-56800621D01*
X159841000Y-57160621D02*
X158139000Y-57160621D01*
X160327000Y-55559621D02*
X153871000Y-55559621D01*
X158449000Y-58400621D02*
X155749000Y-58400621D01*
X156059000Y-56160621D02*
X153949000Y-56160621D01*
X156059000Y-57560621D02*
X154649000Y-57560621D01*
X156059000Y-56760621D02*
X154147000Y-56760621D01*
X159143000Y-57960621D02*
X155055000Y-57960621D01*
X160323000Y-55639621D02*
X153875000Y-55639621D01*
X159253000Y-52254380D02*
X158623000Y-52254380D01*
X156059000Y-57720621D02*
X154794000Y-57720621D01*
X156059000Y-57360621D02*
X154492000Y-57360621D01*
X159933000Y-57000621D02*
X158139000Y-57000621D01*
X160132000Y-56560621D02*
X158139000Y-56560621D01*
X159442000Y-57680621D02*
X158139000Y-57680621D01*
X156059000Y-55879621D02*
X153898000Y-55879621D01*
X160230000Y-56240621D02*
X158139000Y-56240621D01*
X157501000Y-58680621D02*
X156697000Y-58680621D01*
X159236000Y-57880621D02*
X154962000Y-57880621D01*
X159911000Y-57040621D02*
X158139000Y-57040621D01*
X158989000Y-58080621D02*
X155209000Y-58080621D01*
X159094000Y-58000621D02*
X155104000Y-58000621D01*
X159281000Y-57840621D02*
X154917000Y-57840621D01*
X160240000Y-56200621D02*
X158139000Y-56200621D01*
X156059000Y-57440621D02*
X154551000Y-57440621D01*
X156059000Y-56480621D02*
X154038000Y-56480621D01*
X158264000Y-58480621D02*
X155934000Y-58480621D01*
X160160000Y-56480621D02*
X158139000Y-56480621D01*
X159404000Y-57720621D02*
X158139000Y-57720621D01*
X156059000Y-57680621D02*
X154756000Y-57680621D01*
X157901000Y-58600621D02*
X156297000Y-58600621D01*
X159515000Y-57600621D02*
X158139000Y-57600621D01*
X156059000Y-56680621D02*
X154113000Y-56680621D01*
X160085000Y-56680621D02*
X158139000Y-56680621D01*
X159706000Y-57360621D02*
X158139000Y-57360621D01*
X160051000Y-56760621D02*
X158139000Y-56760621D01*
X160197000Y-56360621D02*
X158139000Y-56360621D01*
X158749000Y-58240621D02*
X155449000Y-58240621D01*
X156059000Y-56079621D02*
X153932000Y-56079621D01*
X156059000Y-55999621D02*
X153917000Y-55999621D01*
X159364000Y-57760621D02*
X154834000Y-57760621D01*
X156059000Y-56360621D02*
X154001000Y-56360621D01*
X158875000Y-58160621D02*
X155323000Y-58160621D01*
X156059000Y-55959621D02*
X153910000Y-55959621D01*
X159955000Y-56960621D02*
X158139000Y-56960621D01*
X160300000Y-55879621D02*
X158139000Y-55879621D01*
X156059000Y-57640621D02*
X154719000Y-57640621D01*
X158938000Y-51939380D02*
X158938000Y-52569380D01*
X156059000Y-55919621D02*
X153904000Y-55919621D01*
X156059000Y-57400621D02*
X154521000Y-57400621D01*
X159889000Y-57080621D02*
X158139000Y-57080621D01*
X158813000Y-58200621D02*
X155385000Y-58200621D01*
X156059000Y-56920621D02*
X154223000Y-56920621D01*
X159975000Y-56920621D02*
X158139000Y-56920621D01*
X156059000Y-56240621D02*
X153968000Y-56240621D01*
X156059000Y-55719621D02*
X153881000Y-55719621D01*
X160305000Y-55839621D02*
X158139000Y-55839621D01*
X160329000Y-55519621D02*
X153869000Y-55519621D01*
X160294000Y-55919621D02*
X158139000Y-55919621D01*
X160281000Y-55999621D02*
X158139000Y-55999621D01*
X159789000Y-57240621D02*
X158139000Y-57240621D01*
X160329000Y-55439621D02*
X153869000Y-55439621D01*
X159191000Y-57920621D02*
X155007000Y-57920621D01*
X160185000Y-56400621D02*
X158139000Y-56400621D01*
X160274000Y-56039621D02*
X158139000Y-56039621D01*
X160310000Y-55799621D02*
X158139000Y-55799621D01*
X159479000Y-57640621D02*
X158139000Y-57640621D01*
X156059000Y-57040621D02*
X154287000Y-57040621D01*
X159615000Y-57480621D02*
X158139000Y-57480621D01*
X156059000Y-56640621D02*
X154097000Y-56640621D01*
X159549000Y-57560621D02*
X158139000Y-57560621D01*
X156059000Y-56440621D02*
X154025000Y-56440621D01*
X156059000Y-55759621D02*
X153884000Y-55759621D01*
X160329000Y-55479621D02*
X153869000Y-55479621D01*
X160266000Y-56079621D02*
X158139000Y-56079621D01*
X156059000Y-57520621D02*
X154615000Y-57520621D01*
X158158000Y-58520621D02*
X156040000Y-58520621D01*
X156059000Y-57600621D02*
X154683000Y-57600621D01*
X159043000Y-58040621D02*
X155155000Y-58040621D01*
X160317000Y-55719621D02*
X158139000Y-55719621D01*
X156059000Y-56119621D02*
X153940000Y-56119621D01*
X158608000Y-58320621D02*
X155590000Y-58320621D01*
X160258000Y-56119621D02*
X158139000Y-56119621D01*
X156059000Y-57240621D02*
X154409000Y-57240621D01*
X159677000Y-57400621D02*
X158139000Y-57400621D01*
X160069000Y-56720621D02*
X158139000Y-56720621D01*
X156059000Y-57280621D02*
X154435000Y-57280621D01*
X156059000Y-56560621D02*
X154066000Y-56560621D01*
X156059000Y-56600621D02*
X154081000Y-56600621D01*
X159763000Y-57280621D02*
X158139000Y-57280621D01*
X156059000Y-56840621D02*
X154183000Y-56840621D01*
X156059000Y-55679621D02*
X153877000Y-55679621D01*
X159865000Y-57120621D02*
X158139000Y-57120621D01*
X156059000Y-57080621D02*
X154309000Y-57080621D01*
X156059000Y-56320621D02*
X153989000Y-56320621D01*
X160326000Y-55599621D02*
X153872000Y-55599621D01*
X160209000Y-56320621D02*
X158139000Y-56320621D01*
X156059000Y-57200621D02*
X154383000Y-57200621D01*
X156059000Y-56280621D02*
X153978000Y-56280621D01*
X160101000Y-56640621D02*
X158139000Y-56640621D01*
X156059000Y-57000621D02*
X154265000Y-57000621D01*
X158933000Y-58120621D02*
X155265000Y-58120621D01*
X158039000Y-58560621D02*
X156159000Y-58560621D01*
X156059000Y-55839621D02*
X153893000Y-55839621D01*
X158531000Y-58360621D02*
X155667000Y-58360621D01*
X156059000Y-57120621D02*
X154333000Y-57120621D01*
X156059000Y-56039621D02*
X153924000Y-56039621D01*
X157732000Y-58640621D02*
X156466000Y-58640621D01*
X156059000Y-57320621D02*
X154463000Y-57320621D01*
X159583000Y-57520621D02*
X158139000Y-57520621D01*
X156059000Y-57160621D02*
X154357000Y-57160621D01*
X160314000Y-55759621D02*
X158139000Y-55759621D01*
X156059000Y-56720621D02*
X154129000Y-56720621D01*
X160369000Y-55439621D02*
G75*
G03*
X160369000Y-55439621I-3270000J0D01*
G01*
%TO.C,C10*%
X173534800Y-71430933D02*
X173534800Y-71723467D01*
X172514800Y-71430933D02*
X172514800Y-71723467D01*
%TO.C,C11*%
X173687200Y-100844133D02*
X173687200Y-101136667D01*
X172667200Y-100844133D02*
X172667200Y-101136667D01*
%TO.C,C51*%
X141941333Y-82497200D02*
X142233867Y-82497200D01*
X141941333Y-83517200D02*
X142233867Y-83517200D01*
%TO.C,R4*%
X173127936Y-98271000D02*
X173582064Y-98271000D01*
X173127936Y-96801000D02*
X173582064Y-96801000D01*
%TO.C,U3*%
X159740000Y-114238000D02*
X161390000Y-114238000D01*
X156090000Y-96338000D02*
X156090000Y-114238000D01*
X161390000Y-96338000D02*
X156090000Y-96338000D01*
X156090000Y-114238000D02*
X157740000Y-114238000D01*
X161390000Y-114238000D02*
X161390000Y-96338000D01*
X159740000Y-114238000D02*
G75*
G03*
X157740000Y-114238000I-1000000J0D01*
G01*
%TO.C,J5*%
X157645000Y-125057000D02*
X157645000Y-124457000D01*
X158515000Y-124027000D02*
X158515000Y-120027000D01*
X150385000Y-119037000D02*
X150385000Y-125057000D01*
X156595000Y-120567000D02*
X152015000Y-120567000D01*
X150965000Y-124457000D02*
X150965000Y-125057000D01*
X152015000Y-120567000D02*
X151765000Y-120037000D01*
X156045000Y-124457000D02*
X156045000Y-125057000D01*
X157645000Y-124457000D02*
X156045000Y-124457000D01*
X156845000Y-120037000D02*
X156595000Y-120567000D01*
X155105000Y-124457000D02*
X153505000Y-124457000D01*
X152015000Y-119037000D02*
X152015000Y-120037000D01*
X151765000Y-120037000D02*
X151765000Y-119037000D01*
X156845000Y-120037000D02*
X151765000Y-120037000D01*
X156845000Y-119037000D02*
X156845000Y-120037000D01*
X155105000Y-125057000D02*
X155105000Y-124457000D01*
X153505000Y-124457000D02*
X153505000Y-125057000D01*
X156595000Y-119037000D02*
X156595000Y-120037000D01*
X152565000Y-124457000D02*
X150965000Y-124457000D01*
X158225000Y-119037000D02*
X150385000Y-119037000D01*
X158225000Y-125057000D02*
X158225000Y-119037000D01*
X152565000Y-125057000D02*
X152565000Y-124457000D01*
X150385000Y-125057000D02*
X158225000Y-125057000D01*
%TO.C,C16*%
X169186000Y-89686000D02*
X169186000Y-91026000D01*
X169746000Y-86932000D02*
X169746000Y-90360000D01*
X168186000Y-85644000D02*
X168186000Y-87606000D01*
X168306000Y-85694000D02*
X168306000Y-87606000D01*
X167986000Y-85572000D02*
X167986000Y-87606000D01*
X167625000Y-85479000D02*
X167625000Y-87606000D01*
X168906000Y-86039000D02*
X168906000Y-87606000D01*
X168386000Y-89686000D02*
X168386000Y-91562000D01*
X169786000Y-86996000D02*
X169786000Y-90296000D01*
X167786000Y-85515000D02*
X167786000Y-87606000D01*
X169066000Y-86162000D02*
X169066000Y-87606000D01*
X168826000Y-85982000D02*
X168826000Y-87606000D01*
X167585000Y-89686000D02*
X167585000Y-91821000D01*
X168866000Y-89686000D02*
X168866000Y-91282000D01*
X168666000Y-89686000D02*
X168666000Y-91412000D01*
X167065000Y-85416000D02*
X167065000Y-91876000D01*
X169346000Y-86422000D02*
X169346000Y-90870000D01*
X167505000Y-85457000D02*
X167505000Y-87606000D01*
X168706000Y-89686000D02*
X168706000Y-91388000D01*
X169026000Y-86130000D02*
X169026000Y-87606000D01*
X168946000Y-86068000D02*
X168946000Y-87606000D01*
X168146000Y-89686000D02*
X168146000Y-91664000D01*
X167826000Y-85525000D02*
X167826000Y-87606000D01*
X169586000Y-86702000D02*
X169586000Y-90590000D01*
X167385000Y-85440000D02*
X167385000Y-87606000D01*
X169426000Y-86509000D02*
X169426000Y-90783000D01*
X168306000Y-89686000D02*
X168306000Y-91598000D01*
X168426000Y-85750000D02*
X168426000Y-87606000D01*
X167545000Y-85464000D02*
X167545000Y-87606000D01*
X168466000Y-85770000D02*
X168466000Y-87606000D01*
X167706000Y-89686000D02*
X167706000Y-91796000D01*
X170066000Y-87587000D02*
X170066000Y-89705000D01*
X167185000Y-85422000D02*
X167185000Y-91870000D01*
X168346000Y-85712000D02*
X168346000Y-87606000D01*
X167305000Y-85431000D02*
X167305000Y-87606000D01*
X167665000Y-85487000D02*
X167665000Y-87606000D01*
X169466000Y-86554000D02*
X169466000Y-90738000D01*
X168466000Y-89686000D02*
X168466000Y-91522000D01*
X167145000Y-85419000D02*
X167145000Y-91873000D01*
X167385000Y-89686000D02*
X167385000Y-91852000D01*
X170146000Y-87844000D02*
X170146000Y-89448000D01*
X167345000Y-89686000D02*
X167345000Y-91857000D01*
X167665000Y-89686000D02*
X167665000Y-91805000D01*
X168026000Y-85585000D02*
X168026000Y-87606000D01*
X168506000Y-85790000D02*
X168506000Y-87606000D01*
X169146000Y-89686000D02*
X169146000Y-91062000D01*
X168946000Y-89686000D02*
X168946000Y-91224000D01*
X163484759Y-86807000D02*
X164114759Y-86807000D01*
X169626000Y-86756000D02*
X169626000Y-90536000D01*
X170026000Y-87481000D02*
X170026000Y-89811000D01*
X167465000Y-89686000D02*
X167465000Y-91841000D01*
X169866000Y-87137000D02*
X169866000Y-90155000D01*
X169946000Y-87296000D02*
X169946000Y-89996000D01*
X168266000Y-85676000D02*
X168266000Y-87606000D01*
X168546000Y-85812000D02*
X168546000Y-87606000D01*
X169066000Y-89686000D02*
X169066000Y-91130000D01*
X167225000Y-85424000D02*
X167225000Y-87606000D01*
X170186000Y-88013000D02*
X170186000Y-89279000D01*
X167305000Y-89686000D02*
X167305000Y-91861000D01*
X167265000Y-89686000D02*
X167265000Y-91864000D01*
X168746000Y-89686000D02*
X168746000Y-91362000D01*
X169106000Y-86196000D02*
X169106000Y-87606000D01*
X167866000Y-89686000D02*
X167866000Y-91756000D01*
X168906000Y-89686000D02*
X168906000Y-91253000D01*
X169706000Y-86870000D02*
X169706000Y-90422000D01*
X168106000Y-85613000D02*
X168106000Y-87606000D01*
X168426000Y-89686000D02*
X168426000Y-91542000D01*
X169306000Y-86381000D02*
X169306000Y-90911000D01*
X168786000Y-85956000D02*
X168786000Y-87606000D01*
X169906000Y-87214000D02*
X169906000Y-90078000D01*
X168506000Y-89686000D02*
X168506000Y-91502000D01*
X167986000Y-89686000D02*
X167986000Y-91720000D01*
X167946000Y-85560000D02*
X167946000Y-87606000D01*
X168586000Y-85834000D02*
X168586000Y-87606000D01*
X169506000Y-86602000D02*
X169506000Y-90690000D01*
X168066000Y-89686000D02*
X168066000Y-91693000D01*
X169186000Y-86266000D02*
X169186000Y-87606000D01*
X168786000Y-89686000D02*
X168786000Y-91336000D01*
X168226000Y-85660000D02*
X168226000Y-87606000D01*
X168386000Y-85730000D02*
X168386000Y-87606000D01*
X168746000Y-85930000D02*
X168746000Y-87606000D01*
X168106000Y-89686000D02*
X168106000Y-91679000D01*
X168066000Y-85599000D02*
X168066000Y-87606000D01*
X167625000Y-89686000D02*
X167625000Y-91813000D01*
X167866000Y-85536000D02*
X167866000Y-87606000D01*
X170106000Y-87706000D02*
X170106000Y-89586000D01*
X167505000Y-89686000D02*
X167505000Y-91835000D01*
X170226000Y-88244000D02*
X170226000Y-89048000D01*
X167225000Y-89686000D02*
X167225000Y-91868000D01*
X168266000Y-89686000D02*
X168266000Y-91616000D01*
X169106000Y-89686000D02*
X169106000Y-91096000D01*
X163799759Y-86492000D02*
X163799759Y-87122000D01*
X167025000Y-85416000D02*
X167025000Y-91876000D01*
X167585000Y-85471000D02*
X167585000Y-87606000D01*
X167786000Y-89686000D02*
X167786000Y-91777000D01*
X167906000Y-85548000D02*
X167906000Y-87606000D01*
X167826000Y-89686000D02*
X167826000Y-91767000D01*
X169826000Y-87065000D02*
X169826000Y-90227000D01*
X169546000Y-86651000D02*
X169546000Y-90641000D01*
X167545000Y-89686000D02*
X167545000Y-91828000D01*
X168546000Y-89686000D02*
X168546000Y-91480000D01*
X169226000Y-89686000D02*
X169226000Y-90989000D01*
X168146000Y-85628000D02*
X168146000Y-87606000D01*
X168226000Y-89686000D02*
X168226000Y-91632000D01*
X168826000Y-89686000D02*
X168826000Y-91310000D01*
X167906000Y-89686000D02*
X167906000Y-91744000D01*
X169226000Y-86303000D02*
X169226000Y-87606000D01*
X169026000Y-89686000D02*
X169026000Y-91162000D01*
X167465000Y-85451000D02*
X167465000Y-87606000D01*
X168346000Y-89686000D02*
X168346000Y-91580000D01*
X166985000Y-85416000D02*
X166985000Y-91876000D01*
X167425000Y-85445000D02*
X167425000Y-87606000D01*
X169146000Y-86230000D02*
X169146000Y-87606000D01*
X167746000Y-85505000D02*
X167746000Y-87606000D01*
X168626000Y-89686000D02*
X168626000Y-91436000D01*
X169266000Y-86341000D02*
X169266000Y-87606000D01*
X168026000Y-89686000D02*
X168026000Y-91707000D01*
X168626000Y-85856000D02*
X168626000Y-87606000D01*
X167425000Y-89686000D02*
X167425000Y-91847000D01*
X167345000Y-85435000D02*
X167345000Y-87606000D01*
X169986000Y-87384000D02*
X169986000Y-89908000D01*
X169386000Y-86464000D02*
X169386000Y-90828000D01*
X168866000Y-86010000D02*
X168866000Y-87606000D01*
X168666000Y-85880000D02*
X168666000Y-87606000D01*
X168986000Y-86098000D02*
X168986000Y-87606000D01*
X168586000Y-89686000D02*
X168586000Y-91458000D01*
X167265000Y-85428000D02*
X167265000Y-87606000D01*
X167105000Y-85418000D02*
X167105000Y-91874000D01*
X168186000Y-89686000D02*
X168186000Y-91648000D01*
X167746000Y-89686000D02*
X167746000Y-91787000D01*
X167706000Y-85496000D02*
X167706000Y-87606000D01*
X169266000Y-89686000D02*
X169266000Y-90951000D01*
X168706000Y-85904000D02*
X168706000Y-87606000D01*
X169666000Y-86812000D02*
X169666000Y-90480000D01*
X168986000Y-89686000D02*
X168986000Y-91194000D01*
X167946000Y-89686000D02*
X167946000Y-91732000D01*
X170255000Y-88646000D02*
G75*
G03*
X170255000Y-88646000I-3270000J0D01*
G01*
D14*
%TO.C,D7*%
X131500000Y-95875000D02*
X129025000Y-95875000D01*
X129500000Y-97125000D02*
X131500000Y-97125000D01*
D13*
%TO.C,R8*%
X174725000Y-113414436D02*
X174725000Y-113868564D01*
X176195000Y-113414436D02*
X176195000Y-113868564D01*
%TO.C,R12*%
X135257064Y-97260000D02*
X134802936Y-97260000D01*
X135257064Y-95790000D02*
X134802936Y-95790000D01*
%TO.C,R3*%
X170353064Y-111914000D02*
X169898936Y-111914000D01*
X170353064Y-113384000D02*
X169898936Y-113384000D01*
%TD*%
M02*
