%TF.GenerationSoftware,KiCad,Pcbnew,(6.0.1)*%
%TF.CreationDate,2022-11-04T14:47:35-07:00*%
%TF.ProjectId,TxRev3a,54785265-7633-4612-9e6b-696361645f70,rev?*%
%TF.SameCoordinates,Original*%
%TF.FileFunction,Copper,L4,Bot*%
%TF.FilePolarity,Positive*%
%FSLAX46Y46*%
G04 Gerber Fmt 4.6, Leading zero omitted, Abs format (unit mm)*
G04 Created by KiCad (PCBNEW (6.0.1)) date 2022-11-04 14:47:35*
%MOMM*%
%LPD*%
G01*
G04 APERTURE LIST*
G04 Aperture macros list*
%AMRoundRect*
0 Rectangle with rounded corners*
0 $1 Rounding radius*
0 $2 $3 $4 $5 $6 $7 $8 $9 X,Y pos of 4 corners*
0 Add a 4 corners polygon primitive as box body*
4,1,4,$2,$3,$4,$5,$6,$7,$8,$9,$2,$3,0*
0 Add four circle primitives for the rounded corners*
1,1,$1+$1,$2,$3*
1,1,$1+$1,$4,$5*
1,1,$1+$1,$6,$7*
1,1,$1+$1,$8,$9*
0 Add four rect primitives between the rounded corners*
20,1,$1+$1,$2,$3,$4,$5,0*
20,1,$1+$1,$4,$5,$6,$7,0*
20,1,$1+$1,$6,$7,$8,$9,0*
20,1,$1+$1,$8,$9,$2,$3,0*%
G04 Aperture macros list end*
%TA.AperFunction,ComponentPad*%
%ADD10R,2.400000X2.400000*%
%TD*%
%TA.AperFunction,ComponentPad*%
%ADD11C,2.400000*%
%TD*%
%TA.AperFunction,ComponentPad*%
%ADD12R,1.600000X1.600000*%
%TD*%
%TA.AperFunction,ComponentPad*%
%ADD13C,1.600000*%
%TD*%
%TA.AperFunction,ComponentPad*%
%ADD14RoundRect,0.250000X0.620000X0.845000X-0.620000X0.845000X-0.620000X-0.845000X0.620000X-0.845000X0*%
%TD*%
%TA.AperFunction,ComponentPad*%
%ADD15O,1.740000X2.190000*%
%TD*%
%TA.AperFunction,ComponentPad*%
%ADD16R,2.000000X2.000000*%
%TD*%
%TA.AperFunction,ComponentPad*%
%ADD17C,2.000000*%
%TD*%
%TA.AperFunction,ComponentPad*%
%ADD18O,1.600000X1.600000*%
%TD*%
%TA.AperFunction,ComponentPad*%
%ADD19RoundRect,0.250000X-1.550000X0.650000X-1.550000X-0.650000X1.550000X-0.650000X1.550000X0.650000X0*%
%TD*%
%TA.AperFunction,ComponentPad*%
%ADD20O,3.600000X1.800000*%
%TD*%
%TA.AperFunction,ComponentPad*%
%ADD21RoundRect,0.250000X-0.845000X0.620000X-0.845000X-0.620000X0.845000X-0.620000X0.845000X0.620000X0*%
%TD*%
%TA.AperFunction,ComponentPad*%
%ADD22O,2.190000X1.740000*%
%TD*%
%TA.AperFunction,ComponentPad*%
%ADD23R,1.700000X1.700000*%
%TD*%
%TA.AperFunction,ViaPad*%
%ADD24C,0.800000*%
%TD*%
%TA.AperFunction,ViaPad*%
%ADD25C,2.500000*%
%TD*%
%TA.AperFunction,Conductor*%
%ADD26C,0.508000*%
%TD*%
%TA.AperFunction,Conductor*%
%ADD27C,0.250000*%
%TD*%
%TA.AperFunction,Conductor*%
%ADD28C,1.016000*%
%TD*%
G04 APERTURE END LIST*
D10*
%TO.P,C52,1*%
%TO.N,/+12_FIL*%
X187422785Y-54102000D03*
D11*
%TO.P,C52,2*%
%TO.N,GND*%
X192422785Y-54102000D03*
%TD*%
D12*
%TO.P,C9,1*%
%TO.N,Net-(C11-Pad1)*%
X168475000Y-100140888D03*
D13*
%TO.P,C9,2*%
%TO.N,Net-(C11-Pad2)*%
X168475000Y-102640888D03*
%TD*%
D14*
%TO.P,SW1,1,A*%
%TO.N,GND*%
X165735000Y-122154000D03*
D15*
%TO.P,SW1,2,B*%
%TO.N,Net-(D7-Pad1)*%
X163195000Y-122154000D03*
%TD*%
D16*
%TO.P,C12,1*%
%TO.N,VCCIN*%
X132506323Y-87757000D03*
D17*
%TO.P,C12,2*%
%TO.N,GND*%
X137506323Y-87757000D03*
%TD*%
D12*
%TO.P,C13,1*%
%TO.N,VCCIN*%
X149987000Y-59015621D03*
D13*
%TO.P,C13,2*%
%TO.N,GND*%
X149987000Y-61515625D03*
%TD*%
D12*
%TO.P,C1,1*%
%TO.N,Net-(C1-Pad1)*%
X168348000Y-73343897D03*
D13*
%TO.P,C1,2*%
%TO.N,Net-(C1-Pad2)*%
X168348000Y-75843888D03*
%TD*%
D12*
%TO.P,C17,1*%
%TO.N,+5V*%
X135890000Y-117031897D03*
D13*
%TO.P,C17,2*%
%TO.N,GND*%
X135890000Y-119531888D03*
%TD*%
D12*
%TO.P,U2,1*%
%TO.N,Net-(D7-Pad1)*%
X147818000Y-112879000D03*
D18*
%TO.P,U2,2*%
%TO.N,Net-(U2-Pad2)*%
X147818000Y-110339000D03*
%TO.P,U2,3*%
X147818000Y-107799000D03*
%TO.P,U2,4*%
%TO.N,Net-(U1-Pad11)*%
X147818000Y-105259000D03*
%TO.P,U2,5*%
%TO.N,GND*%
X147818000Y-102719000D03*
%TO.P,U2,6*%
%TO.N,unconnected-(U2-Pad6)*%
X147818000Y-100179000D03*
%TO.P,U2,7,GND*%
%TO.N,GND*%
X147818000Y-97639000D03*
%TO.P,U2,8*%
%TO.N,unconnected-(U2-Pad8)*%
X140198000Y-97639000D03*
%TO.P,U2,9*%
%TO.N,GND*%
X140198000Y-100179000D03*
%TO.P,U2,10*%
%TO.N,Net-(U1-Pad12)*%
X140198000Y-102719000D03*
%TO.P,U2,11*%
%TO.N,Net-(U1-Pad10)*%
X140198000Y-105259000D03*
%TO.P,U2,12*%
X140198000Y-107799000D03*
%TO.P,U2,13*%
%TO.N,Net-(J3-Pad1)*%
X140198000Y-110339000D03*
%TO.P,U2,14,VCC*%
%TO.N,+5V*%
X140198000Y-112879000D03*
%TD*%
D12*
%TO.P,U1,1,LO*%
%TO.N,Net-(D2-Pad1)*%
X162496000Y-82301000D03*
D18*
%TO.P,U1,2,COM*%
%TO.N,GND*%
X162496000Y-79761000D03*
%TO.P,U1,3,VC*%
%TO.N,VCCIN*%
X162496000Y-77221000D03*
%TO.P,U1,4*%
%TO.N,N/C*%
X162496000Y-74681000D03*
%TO.P,U1,5,VS*%
%TO.N,Net-(C1-Pad2)*%
X162496000Y-72141000D03*
%TO.P,U1,6,VB*%
%TO.N,Net-(C1-Pad1)*%
X162496000Y-69601000D03*
%TO.P,U1,7,HO*%
%TO.N,Net-(D1-Pad1)*%
X162496000Y-67061000D03*
%TO.P,U1,8*%
%TO.N,N/C*%
X154876000Y-67061000D03*
%TO.P,U1,9,VDD*%
%TO.N,+5V*%
X154876000Y-69601000D03*
%TO.P,U1,10,HIN*%
%TO.N,Net-(U1-Pad10)*%
X154876000Y-72141000D03*
%TO.P,U1,11,SD*%
%TO.N,Net-(U1-Pad11)*%
X154876000Y-74681000D03*
%TO.P,U1,12,LIN*%
%TO.N,Net-(U1-Pad12)*%
X154876000Y-77221000D03*
%TO.P,U1,13*%
%TO.N,N/C*%
X154876000Y-79761000D03*
%TO.P,U1,14*%
X154876000Y-82301000D03*
%TD*%
D19*
%TO.P,J2,1,Pin_1*%
%TO.N,Net-(C1-Pad2)*%
X201314500Y-81932500D03*
D20*
%TO.P,J2,2,Pin_2*%
%TO.N,Net-(C4-Pad1)*%
X201314500Y-87012500D03*
%TD*%
D21*
%TO.P,J3,1,Pin_1*%
%TO.N,Net-(J3-Pad1)*%
X131933000Y-107442000D03*
D22*
%TO.P,J3,2,Pin_2*%
%TO.N,GND*%
X131933010Y-109982000D03*
%TO.P,J3,3,Pin_3*%
%TO.N,Net-(D7-Pad1)*%
X131933000Y-112522000D03*
%TD*%
D12*
%TO.P,C50,1*%
%TO.N,+5V*%
X147025995Y-87884000D03*
D13*
%TO.P,C50,2*%
%TO.N,GND*%
X144526000Y-87884000D03*
%TD*%
D23*
%TO.P,TP1,1,1*%
%TO.N,Net-(J3-Pad1)*%
X129500000Y-118500000D03*
%TD*%
D12*
%TO.P,C2,1*%
%TO.N,VCCIN*%
X157099000Y-54189621D03*
D13*
%TO.P,C2,2*%
%TO.N,GND*%
X157099000Y-56689625D03*
%TD*%
D12*
%TO.P,U3,1,LO*%
%TO.N,Net-(D4-Pad1)*%
X162550000Y-112908000D03*
D18*
%TO.P,U3,2,COM*%
%TO.N,GND*%
X162550000Y-110368000D03*
%TO.P,U3,3,VC*%
%TO.N,VCCIN*%
X162550000Y-107828000D03*
%TO.P,U3,4*%
%TO.N,N/C*%
X162550000Y-105288000D03*
%TO.P,U3,5,VS*%
%TO.N,Net-(C11-Pad2)*%
X162549992Y-102748004D03*
%TO.P,U3,6,VB*%
%TO.N,Net-(C11-Pad1)*%
X162549992Y-100208004D03*
%TO.P,U3,7,HO*%
%TO.N,Net-(D5-Pad1)*%
X162550000Y-97668000D03*
%TO.P,U3,8*%
%TO.N,N/C*%
X154930000Y-97668000D03*
%TO.P,U3,9,VDD*%
%TO.N,+5V*%
X154929992Y-100208004D03*
%TO.P,U3,10,HIN*%
%TO.N,Net-(U1-Pad12)*%
X154930000Y-102748000D03*
%TO.P,U3,11,SD*%
%TO.N,Net-(U1-Pad11)*%
X154929992Y-105288004D03*
%TO.P,U3,12,LIN*%
%TO.N,Net-(U1-Pad10)*%
X154930000Y-107828000D03*
%TO.P,U3,13*%
%TO.N,N/C*%
X154930000Y-110368000D03*
%TO.P,U3,14*%
X154930000Y-112908000D03*
%TD*%
D14*
%TO.P,J5,1,Pin_1*%
%TO.N,GND*%
X156845000Y-122027010D03*
D15*
%TO.P,J5,2,Pin_2*%
%TO.N,Net-(J5-Pad2)*%
X154305000Y-122027000D03*
%TO.P,J5,3,Pin_3*%
%TO.N,Net-(J5-Pad3)*%
X151765000Y-122027000D03*
%TD*%
D12*
%TO.P,C16,1*%
%TO.N,VCCIN*%
X165735000Y-88646000D03*
D13*
%TO.P,C16,2*%
%TO.N,GND*%
X168235000Y-88646000D03*
%TD*%
D24*
%TO.N,GND*%
X179499997Y-118999991D03*
X179499997Y-114500000D03*
X180975000Y-89662000D03*
D25*
X199237600Y-51612800D03*
D24*
X182499991Y-119999989D03*
X144272000Y-76708000D03*
X139446000Y-67564000D03*
X142875000Y-62611000D03*
X137922000Y-72009000D03*
X180999994Y-115999997D03*
X180999994Y-119999989D03*
X180999994Y-114500000D03*
X182499991Y-115999997D03*
X139573000Y-72009000D03*
X128905000Y-62611000D03*
X135763000Y-62611000D03*
X182372000Y-89662000D03*
X199186800Y-92100400D03*
X131064000Y-63754000D03*
X140970000Y-67564000D03*
X180975000Y-84201000D03*
X179578000Y-85344000D03*
X180999994Y-118999991D03*
X180975000Y-85344000D03*
X135763000Y-63754000D03*
X141224000Y-76708000D03*
X141732000Y-62611000D03*
X145796000Y-76708000D03*
X139573000Y-76708000D03*
X142875000Y-63754000D03*
X142494000Y-67564000D03*
X137033000Y-62611000D03*
X182372000Y-85344000D03*
X130048000Y-62611000D03*
X142748000Y-76708000D03*
X179578000Y-89662000D03*
X145669000Y-67564000D03*
D25*
X160020000Y-48717200D03*
D24*
X137033000Y-63754000D03*
X145669000Y-72009000D03*
X144145000Y-72009000D03*
X179578000Y-84201000D03*
X137922000Y-67564000D03*
X179578000Y-88392000D03*
X182499991Y-118999991D03*
X142494000Y-72009000D03*
X179499997Y-115999997D03*
X130048000Y-63754000D03*
X180975000Y-88392000D03*
X128905000Y-63754000D03*
X141097000Y-72009000D03*
X130556000Y-72009000D03*
X182499991Y-114500000D03*
X182372000Y-88392000D03*
X179499997Y-119999989D03*
X182372000Y-84201000D03*
D25*
X159867600Y-117195600D03*
D24*
X133731000Y-72009000D03*
X141732000Y-63754000D03*
X131064000Y-62611000D03*
X144145000Y-67564000D03*
X137668000Y-76708000D03*
%TO.N,Net-(C11-Pad2)*%
X189992000Y-116205000D03*
X191262000Y-112776000D03*
X189992000Y-113919000D03*
X188722000Y-110490000D03*
X188722000Y-115062000D03*
X188722000Y-119634000D03*
X188722000Y-117348000D03*
X192532000Y-111633000D03*
X193802000Y-112776000D03*
X187452000Y-111633000D03*
X193802000Y-117348000D03*
X193802000Y-119634000D03*
X192532000Y-118491000D03*
X191262000Y-119634000D03*
X192532000Y-113919000D03*
X186182000Y-115062000D03*
X191262000Y-110490000D03*
X186182000Y-117348000D03*
X187452000Y-116205000D03*
X187452000Y-118491000D03*
X193802000Y-110490000D03*
X193802000Y-115062000D03*
X186182000Y-110490000D03*
X186182000Y-112776000D03*
X186182000Y-119634000D03*
X188722000Y-112776000D03*
X191262000Y-115062000D03*
X189992000Y-111633000D03*
X189992000Y-118491000D03*
X191262000Y-117348000D03*
X187452000Y-113919000D03*
X192532000Y-116205000D03*
%TO.N,Net-(C1-Pad2)*%
X191770000Y-82296000D03*
X194310000Y-89154000D03*
X186690000Y-80010000D03*
X189230000Y-89154000D03*
X189230000Y-82296000D03*
X187960000Y-83439000D03*
X193040000Y-85725000D03*
X191770000Y-84582000D03*
X191770000Y-89154000D03*
X187960000Y-88011000D03*
X189230000Y-80010000D03*
X194310000Y-80010000D03*
X193040000Y-81153000D03*
X190500000Y-81153000D03*
X190500000Y-88011000D03*
X187960000Y-85725000D03*
X194310000Y-82296000D03*
X186690000Y-82296000D03*
X191770000Y-80010000D03*
X186690000Y-89154000D03*
X186690000Y-84582000D03*
X191770000Y-86868000D03*
X186690000Y-86868000D03*
X187960000Y-81153000D03*
X189230000Y-86868000D03*
X194310000Y-84582000D03*
X194310000Y-86868000D03*
X193040000Y-88011000D03*
X190500000Y-83439000D03*
X190500000Y-85725000D03*
X189230000Y-84582000D03*
X193040000Y-83439000D03*
%TO.N,/+12_FIL*%
X188976000Y-67056000D03*
X192532000Y-68199000D03*
X193675000Y-67056000D03*
X187071000Y-99822000D03*
X195199000Y-102743000D03*
X190627000Y-93091000D03*
X189103000Y-93091000D03*
X191389000Y-67056000D03*
X190246000Y-65913000D03*
X193675000Y-69342000D03*
X195961000Y-100330000D03*
X187833000Y-70485000D03*
X187071000Y-98171000D03*
X188976000Y-71628000D03*
X189992000Y-104267000D03*
X176657000Y-59563000D03*
X188976000Y-64770000D03*
X193675000Y-71628000D03*
X176657000Y-57658000D03*
X187960000Y-72771000D03*
X191389000Y-69342000D03*
X192532000Y-65913000D03*
X192913000Y-99822000D03*
X186690000Y-67056000D03*
X189992000Y-98171000D03*
X187706000Y-93091000D03*
X190246000Y-68199000D03*
X192913000Y-101346000D03*
X176657000Y-52070000D03*
X189992000Y-99822000D03*
X192913000Y-96647000D03*
X193675000Y-93091000D03*
X189992000Y-101346000D03*
X187071000Y-96647000D03*
X195199000Y-99568000D03*
X195199000Y-95250000D03*
X189865000Y-95250000D03*
X192786000Y-95250000D03*
X186815400Y-73783495D03*
X187833000Y-65913000D03*
X190246000Y-70485000D03*
X187071000Y-101346000D03*
X191382294Y-73783495D03*
X187071000Y-102870000D03*
X189992000Y-96647000D03*
X192532000Y-72771000D03*
X186944000Y-95250000D03*
X192913000Y-102870000D03*
X176657000Y-55753000D03*
X195199000Y-97917000D03*
X186817000Y-71628000D03*
X195199000Y-93091000D03*
X192913000Y-98171000D03*
X188976000Y-69342000D03*
X186690000Y-64770000D03*
X186817000Y-69342000D03*
X193675000Y-73787000D03*
X187071000Y-104267000D03*
X195961000Y-96012000D03*
X187833000Y-68199000D03*
X192913000Y-104267000D03*
X195199000Y-96647000D03*
X195834000Y-101854000D03*
X186182000Y-93091000D03*
X192532000Y-70485000D03*
X176657000Y-53848000D03*
X195961000Y-98806000D03*
X195199000Y-104394000D03*
X192151000Y-93076547D03*
X191389000Y-71628000D03*
X188966526Y-73783495D03*
X195834000Y-103632000D03*
X195199000Y-101092000D03*
X193675000Y-64770000D03*
X190246000Y-72771000D03*
X189992000Y-102870000D03*
X191389000Y-64770000D03*
X195961000Y-97282000D03*
%TD*%
D26*
%TO.N,GND*%
X168234995Y-85500007D02*
X168234995Y-88646000D01*
D27*
X158496000Y-124460000D02*
X164251980Y-124460000D01*
D28*
X137506329Y-78574671D02*
X137506329Y-87757000D01*
D27*
X143711800Y-100179000D02*
X146251800Y-97639000D01*
D28*
X149987000Y-61515625D02*
X149987000Y-78513000D01*
D27*
X146251800Y-97639000D02*
X147818000Y-97639000D01*
X165735000Y-122936000D02*
X164338000Y-124333000D01*
D26*
X162495992Y-79761004D02*
X168234995Y-85500007D01*
D27*
X137568000Y-78513000D02*
X137506323Y-78574677D01*
X140198000Y-100179000D02*
X143711800Y-100179000D01*
X165735000Y-122154000D02*
X165735000Y-122936000D01*
X156845000Y-122027000D02*
X156845000Y-122809000D01*
X156845000Y-122809000D02*
X158496000Y-124460000D01*
D28*
X149987000Y-78513000D02*
X137568000Y-78513000D01*
D27*
%TO.N,Net-(J3-Pad1)*%
X134830000Y-110339000D02*
X131933000Y-107442000D01*
X140198000Y-110339000D02*
X134830000Y-110339000D01*
X129500000Y-109875000D02*
X129500000Y-118500000D01*
X131933000Y-107442000D02*
X129500000Y-109875000D01*
%TO.N,Net-(D7-Pad1)*%
X131933000Y-112832200D02*
X131933000Y-112522000D01*
X147818000Y-112879000D02*
X146143000Y-114554000D01*
X146143000Y-114554000D02*
X133654800Y-114554000D01*
X133654800Y-114554000D02*
X131933000Y-112832200D01*
%TO.N,Net-(U1-Pad10)*%
X140198000Y-107799000D02*
X141322511Y-106674489D01*
X140198000Y-105259000D02*
X140198000Y-107799000D01*
X153776489Y-106674489D02*
X154930000Y-107828000D01*
X141322511Y-106674489D02*
X153776489Y-106674489D01*
%TO.N,Net-(U1-Pad11)*%
X154900988Y-105259000D02*
X154929992Y-105288004D01*
X147818000Y-105259000D02*
X154900988Y-105259000D01*
%TO.N,Net-(U1-Pad12)*%
X153834489Y-103843511D02*
X154930000Y-102748000D01*
X141322511Y-103843511D02*
X153834489Y-103843511D01*
X140198000Y-102719000D02*
X141322511Y-103843511D01*
%TD*%
%TA.AperFunction,Conductor*%
%TO.N,/+12_FIL*%
G36*
X198338436Y-92476002D02*
G01*
X198379434Y-92519000D01*
X198447760Y-92637344D01*
X198575547Y-92779266D01*
X198730048Y-92891518D01*
X198736076Y-92894202D01*
X198736078Y-92894203D01*
X198898481Y-92966509D01*
X198904512Y-92969194D01*
X198997913Y-92989047D01*
X199084856Y-93007528D01*
X199084861Y-93007528D01*
X199091313Y-93008900D01*
X199282287Y-93008900D01*
X199288739Y-93007528D01*
X199288744Y-93007528D01*
X199375687Y-92989047D01*
X199469088Y-92969194D01*
X199475119Y-92966509D01*
X199637522Y-92894203D01*
X199637524Y-92894202D01*
X199643552Y-92891518D01*
X199798053Y-92779266D01*
X199925840Y-92637344D01*
X199994166Y-92519000D01*
X200045549Y-92470007D01*
X200103285Y-92456000D01*
X205687810Y-92456000D01*
X205755931Y-92476002D01*
X205776905Y-92492905D01*
X206170066Y-92886066D01*
X206204092Y-92948378D01*
X206199027Y-93019193D01*
X206156480Y-93076029D01*
X206089960Y-93100840D01*
X206033770Y-93091986D01*
X206031111Y-93090912D01*
X206026918Y-93088844D01*
X205775230Y-93008278D01*
X205543668Y-92970566D01*
X205519009Y-92966550D01*
X205519008Y-92966550D01*
X205514397Y-92965799D01*
X205382274Y-92964070D01*
X205254828Y-92962401D01*
X205254825Y-92962401D01*
X205250151Y-92962340D01*
X204988296Y-92997977D01*
X204734585Y-93071927D01*
X204494591Y-93182565D01*
X204490682Y-93185128D01*
X204277500Y-93324896D01*
X204277495Y-93324900D01*
X204273587Y-93327462D01*
X204076427Y-93503434D01*
X203907443Y-93706615D01*
X203770348Y-93932541D01*
X203768539Y-93936855D01*
X203768538Y-93936857D01*
X203679938Y-94148144D01*
X203668152Y-94176250D01*
X203603102Y-94432388D01*
X203576625Y-94695327D01*
X203578356Y-94731361D01*
X203589304Y-94959291D01*
X203640860Y-95218482D01*
X203642439Y-95222880D01*
X203642441Y-95222887D01*
X203645643Y-95231804D01*
X203730161Y-95467206D01*
X203855245Y-95699998D01*
X204013363Y-95911744D01*
X204016672Y-95915024D01*
X204016677Y-95915030D01*
X204167573Y-96064614D01*
X204201043Y-96097793D01*
X204204805Y-96100551D01*
X204204808Y-96100554D01*
X204322603Y-96186925D01*
X204414161Y-96254058D01*
X204418292Y-96256232D01*
X204418293Y-96256232D01*
X204643901Y-96374930D01*
X204643907Y-96374932D01*
X204648036Y-96377105D01*
X204652443Y-96378644D01*
X204652450Y-96378647D01*
X204893113Y-96462690D01*
X204897529Y-96464232D01*
X204902122Y-96465104D01*
X205053999Y-96493939D01*
X205157160Y-96513525D01*
X205282677Y-96518457D01*
X205416557Y-96523717D01*
X205416562Y-96523717D01*
X205421225Y-96523900D01*
X205523912Y-96512654D01*
X205679270Y-96495640D01*
X205679275Y-96495639D01*
X205683923Y-96495130D01*
X205807138Y-96462690D01*
X205934960Y-96429037D01*
X205934962Y-96429036D01*
X205939483Y-96427846D01*
X205943780Y-96426000D01*
X206177997Y-96325373D01*
X206177999Y-96325372D01*
X206182291Y-96323528D01*
X206291040Y-96256232D01*
X206403040Y-96186925D01*
X206403044Y-96186922D01*
X206407013Y-96184466D01*
X206548588Y-96064614D01*
X206613504Y-96035865D01*
X206683657Y-96046777D01*
X206736775Y-96093884D01*
X206756000Y-96160781D01*
X206756000Y-106246810D01*
X206735998Y-106314931D01*
X206719095Y-106335905D01*
X205776905Y-107278095D01*
X205714593Y-107312121D01*
X205687810Y-107315000D01*
X165533190Y-107315000D01*
X165465069Y-107294998D01*
X165444095Y-107278095D01*
X164501905Y-106335905D01*
X164467879Y-106273593D01*
X164465000Y-106246810D01*
X164465000Y-102640888D01*
X167161502Y-102640888D01*
X167181457Y-102868975D01*
X167240716Y-103090131D01*
X167243039Y-103095112D01*
X167243039Y-103095113D01*
X167335151Y-103292650D01*
X167335154Y-103292655D01*
X167337477Y-103297637D01*
X167468802Y-103485188D01*
X167630700Y-103647086D01*
X167635208Y-103650243D01*
X167635211Y-103650245D01*
X167713389Y-103704986D01*
X167818251Y-103778411D01*
X167823233Y-103780734D01*
X167823238Y-103780737D01*
X168020775Y-103872849D01*
X168025757Y-103875172D01*
X168031065Y-103876594D01*
X168031067Y-103876595D01*
X168241598Y-103933007D01*
X168241600Y-103933007D01*
X168246913Y-103934431D01*
X168475000Y-103954386D01*
X168703087Y-103934431D01*
X168708400Y-103933007D01*
X168708402Y-103933007D01*
X168918933Y-103876595D01*
X168918935Y-103876594D01*
X168924243Y-103875172D01*
X168929225Y-103872849D01*
X169126762Y-103780737D01*
X169126767Y-103780734D01*
X169131749Y-103778411D01*
X169236611Y-103704986D01*
X169314789Y-103650245D01*
X169314792Y-103650243D01*
X169319300Y-103647086D01*
X169481198Y-103485188D01*
X169612523Y-103297637D01*
X169614846Y-103292655D01*
X169614849Y-103292650D01*
X169706961Y-103095113D01*
X169706961Y-103095112D01*
X169709284Y-103090131D01*
X169768543Y-102868975D01*
X169788498Y-102640888D01*
X169768543Y-102412801D01*
X169709284Y-102191645D01*
X169706961Y-102186663D01*
X169614849Y-101989126D01*
X169614846Y-101989121D01*
X169612523Y-101984139D01*
X169481198Y-101796588D01*
X169335498Y-101650888D01*
X169301472Y-101588576D01*
X169306537Y-101517761D01*
X169349084Y-101460925D01*
X169385737Y-101443756D01*
X169385316Y-101442633D01*
X169513297Y-101394655D01*
X169521705Y-101391503D01*
X169638261Y-101304149D01*
X169725615Y-101187593D01*
X169776745Y-101051204D01*
X169783500Y-100989022D01*
X169783500Y-99292754D01*
X169776745Y-99230572D01*
X169725615Y-99094183D01*
X169638261Y-98977627D01*
X169521705Y-98890273D01*
X169385316Y-98839143D01*
X169323134Y-98832388D01*
X167626866Y-98832388D01*
X167564684Y-98839143D01*
X167428295Y-98890273D01*
X167311739Y-98977627D01*
X167224385Y-99094183D01*
X167173255Y-99230572D01*
X167166500Y-99292754D01*
X167166500Y-100989022D01*
X167173255Y-101051204D01*
X167224385Y-101187593D01*
X167311739Y-101304149D01*
X167428295Y-101391503D01*
X167436703Y-101394655D01*
X167564684Y-101442633D01*
X167563954Y-101444579D01*
X167616205Y-101474433D01*
X167649021Y-101537391D01*
X167642591Y-101608095D01*
X167614502Y-101650888D01*
X167468802Y-101796588D01*
X167337477Y-101984139D01*
X167335154Y-101989121D01*
X167335151Y-101989126D01*
X167243039Y-102186663D01*
X167240716Y-102191645D01*
X167181457Y-102412801D01*
X167161502Y-102640888D01*
X164465000Y-102640888D01*
X164465000Y-93524190D01*
X164485002Y-93456069D01*
X164501905Y-93435095D01*
X165444095Y-92492905D01*
X165506407Y-92458879D01*
X165533190Y-92456000D01*
X198270315Y-92456000D01*
X198338436Y-92476002D01*
G37*
%TD.AperFunction*%
%TD*%
%TA.AperFunction,Conductor*%
%TO.N,Net-(C11-Pad2)*%
G36*
X205628931Y-107970002D02*
G01*
X205649905Y-107986905D01*
X206043066Y-108380066D01*
X206077092Y-108442378D01*
X206072027Y-108513193D01*
X206029480Y-108570029D01*
X205962960Y-108594840D01*
X205906770Y-108585986D01*
X205904111Y-108584912D01*
X205899918Y-108582844D01*
X205648230Y-108502278D01*
X205505544Y-108479040D01*
X205392009Y-108460550D01*
X205392008Y-108460550D01*
X205387397Y-108459799D01*
X205255274Y-108458069D01*
X205127828Y-108456401D01*
X205127825Y-108456401D01*
X205123151Y-108456340D01*
X204861296Y-108491977D01*
X204607585Y-108565927D01*
X204367591Y-108676565D01*
X204363682Y-108679128D01*
X204150500Y-108818896D01*
X204150495Y-108818900D01*
X204146587Y-108821462D01*
X203949427Y-108997434D01*
X203780443Y-109200615D01*
X203643348Y-109426541D01*
X203641539Y-109430855D01*
X203641538Y-109430857D01*
X203552938Y-109642144D01*
X203541152Y-109670250D01*
X203476102Y-109926388D01*
X203449625Y-110189327D01*
X203451356Y-110225361D01*
X203462304Y-110453291D01*
X203513860Y-110712482D01*
X203515439Y-110716880D01*
X203515441Y-110716887D01*
X203518643Y-110725804D01*
X203603161Y-110961206D01*
X203728245Y-111193998D01*
X203886363Y-111405744D01*
X203889672Y-111409024D01*
X203889677Y-111409030D01*
X204040573Y-111558614D01*
X204074043Y-111591793D01*
X204077805Y-111594551D01*
X204077808Y-111594554D01*
X204195603Y-111680925D01*
X204287161Y-111748058D01*
X204291292Y-111750232D01*
X204291293Y-111750232D01*
X204516901Y-111868930D01*
X204516907Y-111868932D01*
X204521036Y-111871105D01*
X204525443Y-111872644D01*
X204525450Y-111872647D01*
X204766113Y-111956690D01*
X204770529Y-111958232D01*
X204775122Y-111959104D01*
X204926999Y-111987939D01*
X205030160Y-112007525D01*
X205155677Y-112012457D01*
X205289557Y-112017717D01*
X205289562Y-112017717D01*
X205294225Y-112017900D01*
X205396912Y-112006654D01*
X205552270Y-111989640D01*
X205552275Y-111989639D01*
X205556923Y-111989130D01*
X205680138Y-111956690D01*
X205807960Y-111923037D01*
X205807962Y-111923036D01*
X205812483Y-111921846D01*
X205816780Y-111920000D01*
X206050997Y-111819373D01*
X206050999Y-111819372D01*
X206055291Y-111817528D01*
X206164040Y-111750232D01*
X206276040Y-111680925D01*
X206276044Y-111680922D01*
X206280013Y-111678466D01*
X206421588Y-111558614D01*
X206486504Y-111529865D01*
X206556657Y-111540777D01*
X206609775Y-111587884D01*
X206629000Y-111654781D01*
X206629000Y-124865010D01*
X206608998Y-124933131D01*
X206592095Y-124954105D01*
X205649905Y-125896295D01*
X205587593Y-125930321D01*
X205560810Y-125933200D01*
X205237210Y-125933200D01*
X205169089Y-125913198D01*
X205122596Y-125859542D01*
X205112492Y-125789268D01*
X205141986Y-125724688D01*
X205178745Y-125696690D01*
X205178377Y-125696047D01*
X205218344Y-125673204D01*
X205405298Y-125566351D01*
X205610557Y-125404538D01*
X205789643Y-125214163D01*
X205938624Y-124999409D01*
X205960484Y-124955082D01*
X206052160Y-124769181D01*
X206052161Y-124769178D01*
X206054225Y-124764993D01*
X206133907Y-124516065D01*
X206175921Y-124258093D01*
X206179342Y-123996745D01*
X206144096Y-123737762D01*
X206129673Y-123688277D01*
X206103207Y-123597478D01*
X206070957Y-123486833D01*
X205961532Y-123249472D01*
X205928719Y-123199424D01*
X205820790Y-123034804D01*
X205820786Y-123034799D01*
X205818224Y-123030891D01*
X205644182Y-122835894D01*
X205443230Y-122668763D01*
X205396044Y-122640130D01*
X205223778Y-122535596D01*
X205223774Y-122535594D01*
X205219781Y-122533171D01*
X204978745Y-122432097D01*
X204725417Y-122367759D01*
X204720766Y-122367291D01*
X204720762Y-122367290D01*
X204511471Y-122346216D01*
X204508333Y-122345900D01*
X204352846Y-122345900D01*
X204350521Y-122346073D01*
X204350515Y-122346073D01*
X204163200Y-122359993D01*
X204163196Y-122359994D01*
X204158548Y-122360339D01*
X204154000Y-122361368D01*
X204153994Y-122361369D01*
X203967599Y-122403547D01*
X203903623Y-122418023D01*
X203899271Y-122419715D01*
X203899269Y-122419716D01*
X203664376Y-122511060D01*
X203664373Y-122511061D01*
X203660023Y-122512753D01*
X203433102Y-122642449D01*
X203227843Y-122804262D01*
X203048757Y-122994637D01*
X202943084Y-123146963D01*
X202932227Y-123162614D01*
X202899776Y-123209391D01*
X202897710Y-123213581D01*
X202897708Y-123213584D01*
X202844373Y-123321738D01*
X202784175Y-123443807D01*
X202704493Y-123692735D01*
X202662479Y-123950707D01*
X202659058Y-124212055D01*
X202694304Y-124471038D01*
X202695612Y-124475524D01*
X202695612Y-124475526D01*
X202715298Y-124543064D01*
X202767443Y-124721967D01*
X202876868Y-124959328D01*
X202879431Y-124963237D01*
X203017610Y-125173996D01*
X203017614Y-125174001D01*
X203020176Y-125177909D01*
X203194218Y-125372906D01*
X203395170Y-125540037D01*
X203399173Y-125542466D01*
X203614622Y-125673204D01*
X203614626Y-125673206D01*
X203618619Y-125675629D01*
X203622933Y-125677438D01*
X203655282Y-125691003D01*
X203710368Y-125735791D01*
X203732495Y-125803252D01*
X203714637Y-125871966D01*
X203662465Y-125920117D01*
X203606557Y-125933200D01*
X165533190Y-125933200D01*
X165465069Y-125913198D01*
X165444095Y-125896295D01*
X164668406Y-125120606D01*
X164634380Y-125058294D01*
X164639445Y-124987479D01*
X164678002Y-124936732D01*
X164676897Y-124935556D01*
X164682673Y-124930132D01*
X164689087Y-124925472D01*
X164730628Y-124875258D01*
X164786063Y-124808249D01*
X164786065Y-124808246D01*
X164791113Y-124802144D01*
X164794487Y-124794975D01*
X164794489Y-124794971D01*
X164805174Y-124772264D01*
X164830087Y-124736817D01*
X165772499Y-123794405D01*
X165834811Y-123760379D01*
X165861594Y-123757500D01*
X166405400Y-123757500D01*
X166408646Y-123757163D01*
X166408650Y-123757163D01*
X166504308Y-123747238D01*
X166504312Y-123747237D01*
X166511166Y-123746526D01*
X166517702Y-123744345D01*
X166517704Y-123744345D01*
X166671998Y-123692868D01*
X166678946Y-123690550D01*
X166829348Y-123597478D01*
X166954305Y-123472303D01*
X167047115Y-123321738D01*
X167102797Y-123153861D01*
X167113500Y-123049400D01*
X167113500Y-122039785D01*
X197848549Y-122039785D01*
X197866830Y-122240654D01*
X197868568Y-122246560D01*
X197868569Y-122246564D01*
X197901953Y-122359993D01*
X197923778Y-122434147D01*
X198017224Y-122612893D01*
X198143610Y-122770085D01*
X198298120Y-122899735D01*
X198303509Y-122902698D01*
X198303514Y-122902701D01*
X198451176Y-122983878D01*
X198474870Y-122996904D01*
X198480737Y-122998765D01*
X198480739Y-122998766D01*
X198640358Y-123049400D01*
X198667128Y-123057892D01*
X198824108Y-123075500D01*
X198932750Y-123075500D01*
X199082737Y-123060794D01*
X199275827Y-123002496D01*
X199364872Y-122955150D01*
X199448475Y-122910698D01*
X199448478Y-122910696D01*
X199453917Y-122907804D01*
X199458687Y-122903914D01*
X199458691Y-122903911D01*
X199605448Y-122784219D01*
X199605451Y-122784216D01*
X199610223Y-122780324D01*
X199618694Y-122770085D01*
X199700038Y-122671755D01*
X199738790Y-122624912D01*
X199834723Y-122447488D01*
X199894368Y-122254809D01*
X199915451Y-122054215D01*
X199897170Y-121853346D01*
X199840222Y-121659853D01*
X199746776Y-121481107D01*
X199620390Y-121323915D01*
X199465880Y-121194265D01*
X199460491Y-121191302D01*
X199460486Y-121191299D01*
X199294525Y-121100062D01*
X199294526Y-121100062D01*
X199289130Y-121097096D01*
X199283263Y-121095235D01*
X199283261Y-121095234D01*
X199102742Y-121037970D01*
X199102741Y-121037970D01*
X199096872Y-121036108D01*
X198939892Y-121018500D01*
X198831250Y-121018500D01*
X198681263Y-121033206D01*
X198488173Y-121091504D01*
X198472078Y-121100062D01*
X198315525Y-121183302D01*
X198315522Y-121183304D01*
X198310083Y-121186196D01*
X198305313Y-121190086D01*
X198305309Y-121190089D01*
X198158552Y-121309781D01*
X198158549Y-121309784D01*
X198153777Y-121313676D01*
X198149850Y-121318423D01*
X198149848Y-121318425D01*
X198124807Y-121348695D01*
X198025210Y-121469088D01*
X197929277Y-121646512D01*
X197869632Y-121839191D01*
X197848549Y-122039785D01*
X167113500Y-122039785D01*
X167113500Y-121258600D01*
X167113163Y-121255350D01*
X167103238Y-121159692D01*
X167103237Y-121159688D01*
X167102526Y-121152834D01*
X167081471Y-121089723D01*
X167048868Y-120992002D01*
X167046550Y-120985054D01*
X166953478Y-120834652D01*
X166828303Y-120709695D01*
X166784571Y-120682738D01*
X166683968Y-120620725D01*
X166683966Y-120620724D01*
X166677738Y-120616885D01*
X166517254Y-120563655D01*
X166516389Y-120563368D01*
X166516387Y-120563368D01*
X166509861Y-120561203D01*
X166503025Y-120560503D01*
X166503022Y-120560502D01*
X166457401Y-120555828D01*
X166405400Y-120550500D01*
X165064600Y-120550500D01*
X165061354Y-120550837D01*
X165061350Y-120550837D01*
X164965692Y-120560762D01*
X164965688Y-120560763D01*
X164958834Y-120561474D01*
X164952298Y-120563655D01*
X164952296Y-120563655D01*
X164831764Y-120603868D01*
X164791054Y-120617450D01*
X164674143Y-120689797D01*
X164657303Y-120700218D01*
X164588851Y-120719056D01*
X164521081Y-120697895D01*
X164475510Y-120643454D01*
X164465000Y-120593074D01*
X164465000Y-119999989D01*
X178586493Y-119999989D01*
X178606455Y-120189917D01*
X178665470Y-120371545D01*
X178760957Y-120536933D01*
X178765375Y-120541840D01*
X178765376Y-120541841D01*
X178884322Y-120673944D01*
X178888744Y-120678855D01*
X179043245Y-120791107D01*
X179049273Y-120793791D01*
X179049275Y-120793792D01*
X179211678Y-120866098D01*
X179217709Y-120868783D01*
X179311109Y-120888636D01*
X179398053Y-120907117D01*
X179398058Y-120907117D01*
X179404510Y-120908489D01*
X179595484Y-120908489D01*
X179601936Y-120907117D01*
X179601941Y-120907117D01*
X179688885Y-120888636D01*
X179782285Y-120868783D01*
X179788316Y-120866098D01*
X179950719Y-120793792D01*
X179950721Y-120793791D01*
X179956749Y-120791107D01*
X180111250Y-120678855D01*
X180156360Y-120628755D01*
X180216807Y-120591516D01*
X180287790Y-120592868D01*
X180343630Y-120628754D01*
X180388741Y-120678855D01*
X180543242Y-120791107D01*
X180549270Y-120793791D01*
X180549272Y-120793792D01*
X180711675Y-120866098D01*
X180717706Y-120868783D01*
X180811106Y-120888636D01*
X180898050Y-120907117D01*
X180898055Y-120907117D01*
X180904507Y-120908489D01*
X181095481Y-120908489D01*
X181101933Y-120907117D01*
X181101938Y-120907117D01*
X181188882Y-120888636D01*
X181282282Y-120868783D01*
X181288313Y-120866098D01*
X181450716Y-120793792D01*
X181450718Y-120793791D01*
X181456746Y-120791107D01*
X181611247Y-120678855D01*
X181656357Y-120628755D01*
X181716804Y-120591516D01*
X181787787Y-120592868D01*
X181843627Y-120628754D01*
X181888738Y-120678855D01*
X182043239Y-120791107D01*
X182049267Y-120793791D01*
X182049269Y-120793792D01*
X182211672Y-120866098D01*
X182217703Y-120868783D01*
X182311103Y-120888636D01*
X182398047Y-120907117D01*
X182398052Y-120907117D01*
X182404504Y-120908489D01*
X182595478Y-120908489D01*
X182601930Y-120907117D01*
X182601935Y-120907117D01*
X182688879Y-120888636D01*
X182782279Y-120868783D01*
X182788310Y-120866098D01*
X182950713Y-120793792D01*
X182950715Y-120793791D01*
X182956743Y-120791107D01*
X183111244Y-120678855D01*
X183115666Y-120673944D01*
X183234612Y-120541841D01*
X183234613Y-120541840D01*
X183239031Y-120536933D01*
X183334518Y-120371545D01*
X183393533Y-120189917D01*
X183413495Y-119999989D01*
X183393533Y-119810061D01*
X183334518Y-119628433D01*
X183296733Y-119562988D01*
X183279996Y-119493995D01*
X183296733Y-119436992D01*
X183334518Y-119371547D01*
X183393533Y-119189919D01*
X183413495Y-118999991D01*
X183393533Y-118810063D01*
X183334518Y-118628435D01*
X183239031Y-118463047D01*
X183111244Y-118321125D01*
X182956743Y-118208873D01*
X182950715Y-118206189D01*
X182950713Y-118206188D01*
X182788310Y-118133882D01*
X182788309Y-118133882D01*
X182782279Y-118131197D01*
X182688879Y-118111344D01*
X182601935Y-118092863D01*
X182601930Y-118092863D01*
X182595478Y-118091491D01*
X182404504Y-118091491D01*
X182398052Y-118092863D01*
X182398047Y-118092863D01*
X182311103Y-118111344D01*
X182217703Y-118131197D01*
X182211673Y-118133882D01*
X182211672Y-118133882D01*
X182049269Y-118206188D01*
X182049267Y-118206189D01*
X182043239Y-118208873D01*
X181888738Y-118321125D01*
X181843628Y-118371225D01*
X181783184Y-118408464D01*
X181712200Y-118407112D01*
X181656357Y-118371225D01*
X181656356Y-118371224D01*
X181611247Y-118321125D01*
X181456746Y-118208873D01*
X181450718Y-118206189D01*
X181450716Y-118206188D01*
X181288313Y-118133882D01*
X181288312Y-118133882D01*
X181282282Y-118131197D01*
X181188882Y-118111344D01*
X181101938Y-118092863D01*
X181101933Y-118092863D01*
X181095481Y-118091491D01*
X180904507Y-118091491D01*
X180898055Y-118092863D01*
X180898050Y-118092863D01*
X180811106Y-118111344D01*
X180717706Y-118131197D01*
X180711676Y-118133882D01*
X180711675Y-118133882D01*
X180549272Y-118206188D01*
X180549270Y-118206189D01*
X180543242Y-118208873D01*
X180388741Y-118321125D01*
X180343631Y-118371225D01*
X180283187Y-118408464D01*
X180212203Y-118407112D01*
X180156360Y-118371225D01*
X180156359Y-118371224D01*
X180111250Y-118321125D01*
X179956749Y-118208873D01*
X179950721Y-118206189D01*
X179950719Y-118206188D01*
X179788316Y-118133882D01*
X179788315Y-118133882D01*
X179782285Y-118131197D01*
X179688885Y-118111344D01*
X179601941Y-118092863D01*
X179601936Y-118092863D01*
X179595484Y-118091491D01*
X179404510Y-118091491D01*
X179398058Y-118092863D01*
X179398053Y-118092863D01*
X179311109Y-118111344D01*
X179217709Y-118131197D01*
X179211679Y-118133882D01*
X179211678Y-118133882D01*
X179049275Y-118206188D01*
X179049273Y-118206189D01*
X179043245Y-118208873D01*
X178888744Y-118321125D01*
X178760957Y-118463047D01*
X178665470Y-118628435D01*
X178606455Y-118810063D01*
X178586493Y-118999991D01*
X178606455Y-119189919D01*
X178665470Y-119371547D01*
X178703255Y-119436992D01*
X178719992Y-119505985D01*
X178703255Y-119562988D01*
X178665470Y-119628433D01*
X178606455Y-119810061D01*
X178586493Y-119999989D01*
X164465000Y-119999989D01*
X164465000Y-115999997D01*
X178586493Y-115999997D01*
X178606455Y-116189925D01*
X178665470Y-116371553D01*
X178760957Y-116536941D01*
X178888744Y-116678863D01*
X179043245Y-116791115D01*
X179049273Y-116793799D01*
X179049275Y-116793800D01*
X179211678Y-116866106D01*
X179217709Y-116868791D01*
X179311110Y-116888644D01*
X179398053Y-116907125D01*
X179398058Y-116907125D01*
X179404510Y-116908497D01*
X179595484Y-116908497D01*
X179601936Y-116907125D01*
X179601941Y-116907125D01*
X179688884Y-116888644D01*
X179782285Y-116868791D01*
X179788316Y-116866106D01*
X179950719Y-116793800D01*
X179950721Y-116793799D01*
X179956749Y-116791115D01*
X180111250Y-116678863D01*
X180156360Y-116628763D01*
X180216807Y-116591524D01*
X180287790Y-116592876D01*
X180343630Y-116628762D01*
X180388741Y-116678863D01*
X180543242Y-116791115D01*
X180549270Y-116793799D01*
X180549272Y-116793800D01*
X180711675Y-116866106D01*
X180717706Y-116868791D01*
X180811107Y-116888644D01*
X180898050Y-116907125D01*
X180898055Y-116907125D01*
X180904507Y-116908497D01*
X181095481Y-116908497D01*
X181101933Y-116907125D01*
X181101938Y-116907125D01*
X181188881Y-116888644D01*
X181282282Y-116868791D01*
X181288313Y-116866106D01*
X181450716Y-116793800D01*
X181450718Y-116793799D01*
X181456746Y-116791115D01*
X181611247Y-116678863D01*
X181656357Y-116628763D01*
X181716804Y-116591524D01*
X181787787Y-116592876D01*
X181843627Y-116628762D01*
X181888738Y-116678863D01*
X182043239Y-116791115D01*
X182049267Y-116793799D01*
X182049269Y-116793800D01*
X182211672Y-116866106D01*
X182217703Y-116868791D01*
X182311104Y-116888644D01*
X182398047Y-116907125D01*
X182398052Y-116907125D01*
X182404504Y-116908497D01*
X182595478Y-116908497D01*
X182601930Y-116907125D01*
X182601935Y-116907125D01*
X182688878Y-116888644D01*
X182782279Y-116868791D01*
X182788310Y-116866106D01*
X182950713Y-116793800D01*
X182950715Y-116793799D01*
X182956743Y-116791115D01*
X183111244Y-116678863D01*
X183239031Y-116536941D01*
X183334518Y-116371553D01*
X183393533Y-116189925D01*
X183413495Y-115999997D01*
X183393533Y-115810069D01*
X183334518Y-115628441D01*
X183239031Y-115463053D01*
X183123107Y-115334307D01*
X183092392Y-115270302D01*
X183101156Y-115199848D01*
X183123109Y-115165689D01*
X183234612Y-115041852D01*
X183234613Y-115041851D01*
X183239031Y-115036944D01*
X183334518Y-114871556D01*
X183393533Y-114689928D01*
X183400405Y-114624550D01*
X183412805Y-114506565D01*
X183413495Y-114500000D01*
X183406580Y-114434204D01*
X183394223Y-114316635D01*
X183394223Y-114316633D01*
X183393533Y-114310072D01*
X183334518Y-114128444D01*
X183239031Y-113963056D01*
X183225079Y-113947560D01*
X183180209Y-113897727D01*
X195778825Y-113897727D01*
X195780556Y-113933761D01*
X195791504Y-114161691D01*
X195792417Y-114166281D01*
X195821019Y-114310072D01*
X195843060Y-114420882D01*
X195844639Y-114425280D01*
X195844641Y-114425287D01*
X195916184Y-114624550D01*
X195932361Y-114669606D01*
X196057445Y-114902398D01*
X196215563Y-115114144D01*
X196218872Y-115117424D01*
X196218877Y-115117430D01*
X196321474Y-115219135D01*
X196403243Y-115300193D01*
X196407005Y-115302951D01*
X196407008Y-115302954D01*
X196524803Y-115389325D01*
X196616361Y-115456458D01*
X196620492Y-115458632D01*
X196620493Y-115458632D01*
X196846101Y-115577330D01*
X196846107Y-115577332D01*
X196850236Y-115579505D01*
X196854643Y-115581044D01*
X196854650Y-115581047D01*
X197008364Y-115634726D01*
X197099729Y-115666632D01*
X197104322Y-115667504D01*
X197256199Y-115696339D01*
X197359360Y-115715925D01*
X197484877Y-115720857D01*
X197618757Y-115726117D01*
X197618762Y-115726117D01*
X197623425Y-115726300D01*
X197726112Y-115715054D01*
X197881470Y-115698040D01*
X197881475Y-115698039D01*
X197886123Y-115697530D01*
X198009338Y-115665090D01*
X198137160Y-115631437D01*
X198137162Y-115631436D01*
X198141683Y-115630246D01*
X198159205Y-115622718D01*
X198380197Y-115527773D01*
X198380199Y-115527772D01*
X198384491Y-115525928D01*
X198494019Y-115458150D01*
X198605240Y-115389325D01*
X198605244Y-115389322D01*
X198609213Y-115386866D01*
X198627682Y-115371231D01*
X198807345Y-115219135D01*
X198807346Y-115219134D01*
X198810911Y-115216116D01*
X198843578Y-115178866D01*
X198982074Y-115020943D01*
X198982078Y-115020938D01*
X198985156Y-115017428D01*
X199128119Y-114795167D01*
X199236659Y-114554217D01*
X199308392Y-114299870D01*
X199330928Y-114122721D01*
X199341344Y-114040844D01*
X199341344Y-114040840D01*
X199341742Y-114037714D01*
X199344186Y-113944400D01*
X199331640Y-113775580D01*
X199324947Y-113685510D01*
X199324946Y-113685506D01*
X199324601Y-113680858D01*
X199266278Y-113423105D01*
X199250754Y-113383185D01*
X199172190Y-113181158D01*
X199172189Y-113181156D01*
X199170497Y-113176805D01*
X199149037Y-113139257D01*
X199041681Y-112951425D01*
X199039362Y-112947367D01*
X198875755Y-112739832D01*
X198683269Y-112558760D01*
X198641613Y-112529862D01*
X198469976Y-112410792D01*
X198469973Y-112410790D01*
X198466134Y-112408127D01*
X198461944Y-112406061D01*
X198461941Y-112406059D01*
X198233306Y-112293309D01*
X198233303Y-112293308D01*
X198229118Y-112291244D01*
X198182396Y-112276288D01*
X197981875Y-112212101D01*
X197981877Y-112212101D01*
X197977430Y-112210678D01*
X197834744Y-112187440D01*
X197721209Y-112168950D01*
X197721208Y-112168950D01*
X197716597Y-112168199D01*
X197584474Y-112166470D01*
X197457028Y-112164801D01*
X197457025Y-112164801D01*
X197452351Y-112164740D01*
X197190496Y-112200377D01*
X196936785Y-112274327D01*
X196696791Y-112384965D01*
X196692882Y-112387528D01*
X196479700Y-112527296D01*
X196479695Y-112527300D01*
X196475787Y-112529862D01*
X196278627Y-112705834D01*
X196109643Y-112909015D01*
X195972548Y-113134941D01*
X195970739Y-113139255D01*
X195970738Y-113139257D01*
X195882138Y-113350544D01*
X195870352Y-113378650D01*
X195805302Y-113634788D01*
X195778825Y-113897727D01*
X183180209Y-113897727D01*
X183115666Y-113826045D01*
X183115662Y-113826041D01*
X183111244Y-113821134D01*
X182956743Y-113708882D01*
X182950715Y-113706198D01*
X182950713Y-113706197D01*
X182788310Y-113633891D01*
X182788309Y-113633891D01*
X182782279Y-113631206D01*
X182688878Y-113611353D01*
X182601935Y-113592872D01*
X182601930Y-113592872D01*
X182595478Y-113591500D01*
X182404504Y-113591500D01*
X182398052Y-113592872D01*
X182398047Y-113592872D01*
X182311103Y-113611353D01*
X182217703Y-113631206D01*
X182211673Y-113633891D01*
X182211672Y-113633891D01*
X182049269Y-113706197D01*
X182049267Y-113706198D01*
X182043239Y-113708882D01*
X181888738Y-113821134D01*
X181843628Y-113871234D01*
X181783184Y-113908473D01*
X181712200Y-113907121D01*
X181656357Y-113871234D01*
X181656356Y-113871233D01*
X181611247Y-113821134D01*
X181456746Y-113708882D01*
X181450718Y-113706198D01*
X181450716Y-113706197D01*
X181288313Y-113633891D01*
X181288312Y-113633891D01*
X181282282Y-113631206D01*
X181188881Y-113611353D01*
X181101938Y-113592872D01*
X181101933Y-113592872D01*
X181095481Y-113591500D01*
X180904507Y-113591500D01*
X180898055Y-113592872D01*
X180898050Y-113592872D01*
X180811106Y-113611353D01*
X180717706Y-113631206D01*
X180711676Y-113633891D01*
X180711675Y-113633891D01*
X180549272Y-113706197D01*
X180549270Y-113706198D01*
X180543242Y-113708882D01*
X180388741Y-113821134D01*
X180343631Y-113871234D01*
X180283187Y-113908473D01*
X180212203Y-113907121D01*
X180156360Y-113871234D01*
X180156359Y-113871233D01*
X180111250Y-113821134D01*
X179956749Y-113708882D01*
X179950721Y-113706198D01*
X179950719Y-113706197D01*
X179788316Y-113633891D01*
X179788315Y-113633891D01*
X179782285Y-113631206D01*
X179688884Y-113611353D01*
X179601941Y-113592872D01*
X179601936Y-113592872D01*
X179595484Y-113591500D01*
X179404510Y-113591500D01*
X179398058Y-113592872D01*
X179398053Y-113592872D01*
X179311109Y-113611353D01*
X179217709Y-113631206D01*
X179211679Y-113633891D01*
X179211678Y-113633891D01*
X179049275Y-113706197D01*
X179049273Y-113706198D01*
X179043245Y-113708882D01*
X178888744Y-113821134D01*
X178884326Y-113826041D01*
X178884322Y-113826045D01*
X178774910Y-113947560D01*
X178760957Y-113963056D01*
X178665470Y-114128444D01*
X178606455Y-114310072D01*
X178605765Y-114316633D01*
X178605765Y-114316635D01*
X178593408Y-114434204D01*
X178586493Y-114500000D01*
X178587183Y-114506565D01*
X178599584Y-114624550D01*
X178606455Y-114689928D01*
X178665470Y-114871556D01*
X178760957Y-115036944D01*
X178765375Y-115041851D01*
X178765376Y-115041852D01*
X178876879Y-115165689D01*
X178907597Y-115229696D01*
X178898832Y-115300150D01*
X178876883Y-115334305D01*
X178760957Y-115463053D01*
X178665470Y-115628441D01*
X178606455Y-115810069D01*
X178586493Y-115999997D01*
X164465000Y-115999997D01*
X164465000Y-109018190D01*
X164485002Y-108950069D01*
X164501905Y-108929095D01*
X165444095Y-107986905D01*
X165506407Y-107952879D01*
X165533190Y-107950000D01*
X205560810Y-107950000D01*
X205628931Y-107970002D01*
G37*
%TD.AperFunction*%
%TD*%
%TA.AperFunction,Conductor*%
%TO.N,GND*%
G36*
X164024615Y-61299562D02*
G01*
X164020243Y-62747115D01*
X164008327Y-66692747D01*
X163988120Y-66760807D01*
X163934324Y-66807137D01*
X163864020Y-66817029D01*
X163799528Y-66787341D01*
X163760621Y-66724977D01*
X163731707Y-66617067D01*
X163731706Y-66617065D01*
X163730284Y-66611757D01*
X163727961Y-66606775D01*
X163635849Y-66409238D01*
X163635846Y-66409233D01*
X163633523Y-66404251D01*
X163502198Y-66216700D01*
X163340300Y-66054802D01*
X163335792Y-66051645D01*
X163335789Y-66051643D01*
X163257611Y-65996902D01*
X163152749Y-65923477D01*
X163147767Y-65921154D01*
X163147762Y-65921151D01*
X162950225Y-65829039D01*
X162950224Y-65829039D01*
X162945243Y-65826716D01*
X162939935Y-65825294D01*
X162939933Y-65825293D01*
X162729402Y-65768881D01*
X162729400Y-65768881D01*
X162724087Y-65767457D01*
X162496000Y-65747502D01*
X162267913Y-65767457D01*
X162262600Y-65768881D01*
X162262598Y-65768881D01*
X162052067Y-65825293D01*
X162052065Y-65825294D01*
X162046757Y-65826716D01*
X162041776Y-65829039D01*
X162041775Y-65829039D01*
X161844238Y-65921151D01*
X161844233Y-65921154D01*
X161839251Y-65923477D01*
X161734389Y-65996902D01*
X161656211Y-66051643D01*
X161656208Y-66051645D01*
X161651700Y-66054802D01*
X161489802Y-66216700D01*
X161358477Y-66404251D01*
X161356154Y-66409233D01*
X161356151Y-66409238D01*
X161264039Y-66606775D01*
X161261716Y-66611757D01*
X161260294Y-66617065D01*
X161260293Y-66617067D01*
X161221778Y-66760807D01*
X161202457Y-66832913D01*
X161182502Y-67061000D01*
X161202457Y-67289087D01*
X161203881Y-67294400D01*
X161203881Y-67294402D01*
X161211333Y-67322211D01*
X161261716Y-67510243D01*
X161264039Y-67515224D01*
X161264039Y-67515225D01*
X161356151Y-67712762D01*
X161356154Y-67712767D01*
X161358477Y-67717749D01*
X161489802Y-67905300D01*
X161651700Y-68067198D01*
X161656208Y-68070355D01*
X161656211Y-68070357D01*
X161734389Y-68125098D01*
X161839251Y-68198523D01*
X161844233Y-68200846D01*
X161844238Y-68200849D01*
X161878457Y-68216805D01*
X161931742Y-68263722D01*
X161951203Y-68331999D01*
X161930661Y-68399959D01*
X161878457Y-68445195D01*
X161844238Y-68461151D01*
X161844233Y-68461154D01*
X161839251Y-68463477D01*
X161734389Y-68536902D01*
X161656211Y-68591643D01*
X161656208Y-68591645D01*
X161651700Y-68594802D01*
X161489802Y-68756700D01*
X161358477Y-68944251D01*
X161356154Y-68949233D01*
X161356151Y-68949238D01*
X161264039Y-69146775D01*
X161261716Y-69151757D01*
X161260294Y-69157065D01*
X161260293Y-69157067D01*
X161203881Y-69367598D01*
X161202457Y-69372913D01*
X161182502Y-69601000D01*
X161202457Y-69829087D01*
X161203881Y-69834400D01*
X161203881Y-69834402D01*
X161250229Y-70007372D01*
X161261716Y-70050243D01*
X161264039Y-70055224D01*
X161264039Y-70055225D01*
X161356151Y-70252762D01*
X161356154Y-70252767D01*
X161358477Y-70257749D01*
X161489802Y-70445300D01*
X161651700Y-70607198D01*
X161656208Y-70610355D01*
X161656211Y-70610357D01*
X161734389Y-70665098D01*
X161839251Y-70738523D01*
X161844233Y-70740846D01*
X161844238Y-70740849D01*
X161878457Y-70756805D01*
X161931742Y-70803722D01*
X161951203Y-70871999D01*
X161930661Y-70939959D01*
X161878457Y-70985195D01*
X161844238Y-71001151D01*
X161844233Y-71001154D01*
X161839251Y-71003477D01*
X161734389Y-71076902D01*
X161656211Y-71131643D01*
X161656208Y-71131645D01*
X161651700Y-71134802D01*
X161489802Y-71296700D01*
X161358477Y-71484251D01*
X161356154Y-71489233D01*
X161356151Y-71489238D01*
X161264039Y-71686775D01*
X161261716Y-71691757D01*
X161260294Y-71697064D01*
X161260293Y-71697067D01*
X161224534Y-71830520D01*
X161202457Y-71912913D01*
X161182502Y-72141000D01*
X161202457Y-72369087D01*
X161261716Y-72590243D01*
X161264039Y-72595224D01*
X161264039Y-72595225D01*
X161356151Y-72792762D01*
X161356154Y-72792767D01*
X161358477Y-72797749D01*
X161489802Y-72985300D01*
X161651700Y-73147198D01*
X161656208Y-73150355D01*
X161656211Y-73150357D01*
X161734389Y-73205098D01*
X161839251Y-73278523D01*
X161844233Y-73280846D01*
X161844238Y-73280849D01*
X161878457Y-73296805D01*
X161931742Y-73343722D01*
X161951203Y-73411999D01*
X161930661Y-73479959D01*
X161878457Y-73525195D01*
X161844238Y-73541151D01*
X161844233Y-73541154D01*
X161839251Y-73543477D01*
X161734389Y-73616902D01*
X161656211Y-73671643D01*
X161656208Y-73671645D01*
X161651700Y-73674802D01*
X161489802Y-73836700D01*
X161358477Y-74024251D01*
X161356154Y-74029233D01*
X161356151Y-74029238D01*
X161264039Y-74226775D01*
X161261716Y-74231757D01*
X161260294Y-74237065D01*
X161260293Y-74237067D01*
X161254135Y-74260050D01*
X161202457Y-74452913D01*
X161182502Y-74681000D01*
X161202457Y-74909087D01*
X161203881Y-74914400D01*
X161203881Y-74914402D01*
X161260292Y-75124927D01*
X161261716Y-75130243D01*
X161264039Y-75135224D01*
X161264039Y-75135225D01*
X161356151Y-75332762D01*
X161356154Y-75332767D01*
X161358477Y-75337749D01*
X161489802Y-75525300D01*
X161651700Y-75687198D01*
X161656208Y-75690355D01*
X161656211Y-75690357D01*
X161734389Y-75745098D01*
X161839251Y-75818523D01*
X161844233Y-75820846D01*
X161844238Y-75820849D01*
X161878457Y-75836805D01*
X161931742Y-75883722D01*
X161951203Y-75951999D01*
X161930661Y-76019959D01*
X161878457Y-76065195D01*
X161844238Y-76081151D01*
X161844233Y-76081154D01*
X161839251Y-76083477D01*
X161734389Y-76156902D01*
X161656211Y-76211643D01*
X161656208Y-76211645D01*
X161651700Y-76214802D01*
X161489802Y-76376700D01*
X161358477Y-76564251D01*
X161356154Y-76569233D01*
X161356151Y-76569238D01*
X161276750Y-76739516D01*
X161261716Y-76771757D01*
X161260294Y-76777065D01*
X161260293Y-76777067D01*
X161203881Y-76987598D01*
X161202457Y-76992913D01*
X161182502Y-77221000D01*
X161202457Y-77449087D01*
X161261716Y-77670243D01*
X161264039Y-77675224D01*
X161264039Y-77675225D01*
X161356151Y-77872762D01*
X161356154Y-77872767D01*
X161358477Y-77877749D01*
X161489802Y-78065300D01*
X161651700Y-78227198D01*
X161656208Y-78230355D01*
X161656211Y-78230357D01*
X161734389Y-78285098D01*
X161839251Y-78358523D01*
X161844233Y-78360846D01*
X161844238Y-78360849D01*
X161879049Y-78377081D01*
X161932334Y-78423998D01*
X161951795Y-78492275D01*
X161931253Y-78560235D01*
X161879049Y-78605471D01*
X161844489Y-78621586D01*
X161834993Y-78627069D01*
X161656533Y-78752028D01*
X161648125Y-78759084D01*
X161494084Y-78913125D01*
X161487028Y-78921533D01*
X161362069Y-79099993D01*
X161356586Y-79109489D01*
X161264510Y-79306947D01*
X161260764Y-79317239D01*
X161214606Y-79489503D01*
X161214942Y-79503599D01*
X161222884Y-79507000D01*
X162624000Y-79507000D01*
X162692121Y-79527002D01*
X162738614Y-79580658D01*
X162750000Y-79633000D01*
X162750000Y-79889000D01*
X162729998Y-79957121D01*
X162676342Y-80003614D01*
X162624000Y-80015000D01*
X161228033Y-80015000D01*
X161214502Y-80018973D01*
X161213273Y-80027522D01*
X161260764Y-80204761D01*
X161264510Y-80215053D01*
X161356586Y-80412511D01*
X161362069Y-80422007D01*
X161487028Y-80600467D01*
X161494084Y-80608875D01*
X161648125Y-80762916D01*
X161660746Y-80773507D01*
X161659892Y-80774525D01*
X161700224Y-80824984D01*
X161707532Y-80895603D01*
X161675500Y-80958963D01*
X161614298Y-80994947D01*
X161597238Y-80998000D01*
X161585684Y-80999255D01*
X161449295Y-81050385D01*
X161332739Y-81137739D01*
X161245385Y-81254295D01*
X161194255Y-81390684D01*
X161187500Y-81452866D01*
X161187500Y-83149134D01*
X161194255Y-83211316D01*
X161245385Y-83347705D01*
X161332739Y-83464261D01*
X161449295Y-83551615D01*
X161585684Y-83602745D01*
X161647866Y-83609500D01*
X163344134Y-83609500D01*
X163406316Y-83602745D01*
X163542705Y-83551615D01*
X163659261Y-83464261D01*
X163673996Y-83444600D01*
X163730912Y-83368658D01*
X163787772Y-83326143D01*
X163858590Y-83321117D01*
X163920883Y-83355177D01*
X163954873Y-83417509D01*
X163957737Y-83444600D01*
X163917343Y-96819803D01*
X163916981Y-96939787D01*
X163896774Y-97007847D01*
X163842978Y-97054177D01*
X163772674Y-97064069D01*
X163708182Y-97034381D01*
X163688550Y-97010532D01*
X163687523Y-97011251D01*
X163559357Y-96828211D01*
X163559355Y-96828208D01*
X163556198Y-96823700D01*
X163394300Y-96661802D01*
X163389792Y-96658645D01*
X163389789Y-96658643D01*
X163311611Y-96603902D01*
X163206749Y-96530477D01*
X163201767Y-96528154D01*
X163201762Y-96528151D01*
X163004225Y-96436039D01*
X163004224Y-96436039D01*
X162999243Y-96433716D01*
X162993935Y-96432294D01*
X162993933Y-96432293D01*
X162783402Y-96375881D01*
X162783400Y-96375881D01*
X162778087Y-96374457D01*
X162550000Y-96354502D01*
X162321913Y-96374457D01*
X162316600Y-96375881D01*
X162316598Y-96375881D01*
X162106067Y-96432293D01*
X162106065Y-96432294D01*
X162100757Y-96433716D01*
X162095776Y-96436039D01*
X162095775Y-96436039D01*
X161898238Y-96528151D01*
X161898233Y-96528154D01*
X161893251Y-96530477D01*
X161788389Y-96603902D01*
X161710211Y-96658643D01*
X161710208Y-96658645D01*
X161705700Y-96661802D01*
X161543802Y-96823700D01*
X161412477Y-97011251D01*
X161410154Y-97016233D01*
X161410151Y-97016238D01*
X161318039Y-97213775D01*
X161315716Y-97218757D01*
X161314294Y-97224065D01*
X161314293Y-97224067D01*
X161262759Y-97416393D01*
X161256457Y-97439913D01*
X161236502Y-97668000D01*
X161256457Y-97896087D01*
X161257881Y-97901400D01*
X161257881Y-97901402D01*
X161306523Y-98082933D01*
X161315716Y-98117243D01*
X161318039Y-98122224D01*
X161318039Y-98122225D01*
X161410151Y-98319762D01*
X161410154Y-98319767D01*
X161412477Y-98324749D01*
X161415634Y-98329257D01*
X161526225Y-98487197D01*
X161543802Y-98512300D01*
X161705700Y-98674198D01*
X161710208Y-98677355D01*
X161710211Y-98677357D01*
X161788389Y-98732098D01*
X161893251Y-98805523D01*
X161898233Y-98807846D01*
X161898238Y-98807849D01*
X161932457Y-98823805D01*
X161985742Y-98870722D01*
X162005203Y-98938999D01*
X161984661Y-99006959D01*
X161932457Y-99052195D01*
X161898230Y-99068155D01*
X161898225Y-99068158D01*
X161893243Y-99070481D01*
X161788381Y-99143906D01*
X161710203Y-99198647D01*
X161710200Y-99198649D01*
X161705692Y-99201806D01*
X161543794Y-99363704D01*
X161412469Y-99551255D01*
X161410146Y-99556237D01*
X161410143Y-99556242D01*
X161326676Y-99735239D01*
X161315708Y-99758761D01*
X161314286Y-99764069D01*
X161314285Y-99764071D01*
X161262752Y-99956393D01*
X161256449Y-99979917D01*
X161236494Y-100208004D01*
X161256449Y-100436091D01*
X161257873Y-100441404D01*
X161257873Y-100441406D01*
X161306514Y-100622933D01*
X161315708Y-100657247D01*
X161318031Y-100662228D01*
X161318031Y-100662229D01*
X161410143Y-100859766D01*
X161410146Y-100859771D01*
X161412469Y-100864753D01*
X161543794Y-101052304D01*
X161705692Y-101214202D01*
X161710200Y-101217359D01*
X161710203Y-101217361D01*
X161788381Y-101272102D01*
X161893243Y-101345527D01*
X161898225Y-101347850D01*
X161898230Y-101347853D01*
X161932449Y-101363809D01*
X161985734Y-101410726D01*
X162005195Y-101479003D01*
X161984653Y-101546963D01*
X161932449Y-101592199D01*
X161898230Y-101608155D01*
X161898225Y-101608158D01*
X161893243Y-101610481D01*
X161788381Y-101683906D01*
X161710203Y-101738647D01*
X161710200Y-101738649D01*
X161705692Y-101741806D01*
X161543794Y-101903704D01*
X161412469Y-102091255D01*
X161410146Y-102096237D01*
X161410143Y-102096242D01*
X161326676Y-102275239D01*
X161315708Y-102298761D01*
X161314286Y-102304067D01*
X161314285Y-102304071D01*
X161262752Y-102496393D01*
X161256449Y-102519917D01*
X161236494Y-102748004D01*
X161256449Y-102976091D01*
X161257872Y-102981402D01*
X161257873Y-102981406D01*
X161313769Y-103190009D01*
X161315708Y-103197247D01*
X161318031Y-103202228D01*
X161318031Y-103202229D01*
X161410143Y-103399766D01*
X161410146Y-103399771D01*
X161412469Y-103404753D01*
X161461169Y-103474303D01*
X161540633Y-103587789D01*
X161543794Y-103592304D01*
X161705692Y-103754202D01*
X161710198Y-103757357D01*
X161710203Y-103757361D01*
X161788381Y-103812102D01*
X161893243Y-103885527D01*
X161898223Y-103887849D01*
X161898230Y-103887853D01*
X161932449Y-103903809D01*
X161985734Y-103950726D01*
X162005195Y-104019003D01*
X161984653Y-104086963D01*
X161932448Y-104132199D01*
X161898242Y-104148149D01*
X161898239Y-104148151D01*
X161893251Y-104150477D01*
X161888737Y-104153638D01*
X161710211Y-104278643D01*
X161710208Y-104278645D01*
X161705700Y-104281802D01*
X161543802Y-104443700D01*
X161540645Y-104448208D01*
X161540643Y-104448211D01*
X161521738Y-104475210D01*
X161412477Y-104631251D01*
X161410154Y-104636233D01*
X161410151Y-104636238D01*
X161331562Y-104804775D01*
X161315716Y-104838757D01*
X161314294Y-104844065D01*
X161314293Y-104844067D01*
X161262759Y-105036393D01*
X161256457Y-105059913D01*
X161236502Y-105288000D01*
X161256457Y-105516087D01*
X161257881Y-105521400D01*
X161257881Y-105521402D01*
X161306523Y-105702933D01*
X161315716Y-105737243D01*
X161318039Y-105742224D01*
X161318039Y-105742225D01*
X161410151Y-105939762D01*
X161410153Y-105939766D01*
X161412477Y-105944749D01*
X161465860Y-106020987D01*
X161540498Y-106127581D01*
X161543802Y-106132300D01*
X161705700Y-106294198D01*
X161710208Y-106297355D01*
X161710217Y-106297361D01*
X161893251Y-106425523D01*
X161898233Y-106427846D01*
X161898238Y-106427849D01*
X161932457Y-106443805D01*
X161985742Y-106490722D01*
X162005203Y-106558999D01*
X161984661Y-106626959D01*
X161932457Y-106672195D01*
X161898238Y-106688151D01*
X161898233Y-106688154D01*
X161893251Y-106690477D01*
X161788389Y-106763902D01*
X161710211Y-106818643D01*
X161710208Y-106818645D01*
X161705700Y-106821802D01*
X161543802Y-106983700D01*
X161412477Y-107171251D01*
X161410154Y-107176233D01*
X161410151Y-107176238D01*
X161331562Y-107344775D01*
X161315716Y-107378757D01*
X161314294Y-107384065D01*
X161314293Y-107384067D01*
X161262760Y-107576391D01*
X161256457Y-107599913D01*
X161236502Y-107828000D01*
X161256457Y-108056087D01*
X161257881Y-108061400D01*
X161257881Y-108061402D01*
X161306523Y-108242933D01*
X161315716Y-108277243D01*
X161318039Y-108282224D01*
X161318039Y-108282225D01*
X161410151Y-108479762D01*
X161410154Y-108479767D01*
X161412477Y-108484749D01*
X161433739Y-108515114D01*
X161526225Y-108647197D01*
X161543802Y-108672300D01*
X161705700Y-108834198D01*
X161710208Y-108837355D01*
X161710211Y-108837357D01*
X161788389Y-108892098D01*
X161893251Y-108965523D01*
X161898233Y-108967846D01*
X161898238Y-108967849D01*
X161933049Y-108984081D01*
X161986334Y-109030998D01*
X162005795Y-109099275D01*
X161985253Y-109167235D01*
X161933049Y-109212471D01*
X161898489Y-109228586D01*
X161888993Y-109234069D01*
X161710533Y-109359028D01*
X161702125Y-109366084D01*
X161548084Y-109520125D01*
X161541028Y-109528533D01*
X161416069Y-109706993D01*
X161410586Y-109716489D01*
X161318510Y-109913947D01*
X161314764Y-109924239D01*
X161268606Y-110096503D01*
X161268942Y-110110599D01*
X161276884Y-110114000D01*
X162678000Y-110114000D01*
X162746121Y-110134002D01*
X162792614Y-110187658D01*
X162804000Y-110240000D01*
X162804000Y-110496000D01*
X162783998Y-110564121D01*
X162730342Y-110610614D01*
X162678000Y-110622000D01*
X161282033Y-110622000D01*
X161268502Y-110625973D01*
X161267273Y-110634522D01*
X161314764Y-110811761D01*
X161318510Y-110822053D01*
X161410586Y-111019511D01*
X161416069Y-111029007D01*
X161541028Y-111207467D01*
X161548084Y-111215875D01*
X161702125Y-111369916D01*
X161714746Y-111380507D01*
X161713892Y-111381525D01*
X161754224Y-111431984D01*
X161761532Y-111502603D01*
X161729500Y-111565963D01*
X161668298Y-111601947D01*
X161651238Y-111605000D01*
X161639684Y-111606255D01*
X161503295Y-111657385D01*
X161386739Y-111744739D01*
X161299385Y-111861295D01*
X161248255Y-111997684D01*
X161241500Y-112059866D01*
X161241500Y-113756134D01*
X161248255Y-113818316D01*
X161299385Y-113954705D01*
X161386739Y-114071261D01*
X161503295Y-114158615D01*
X161639684Y-114209745D01*
X161701866Y-114216500D01*
X163398134Y-114216500D01*
X163460316Y-114209745D01*
X163596705Y-114158615D01*
X163663261Y-114108734D01*
X163729767Y-114083886D01*
X163799150Y-114098939D01*
X163849380Y-114149113D01*
X163864825Y-114209940D01*
X163860254Y-115723397D01*
X163845777Y-120516937D01*
X163825570Y-120584997D01*
X163771774Y-120631327D01*
X163701470Y-120641219D01*
X163682418Y-120636890D01*
X163492083Y-120577790D01*
X163486796Y-120577089D01*
X163486795Y-120577089D01*
X163265455Y-120547752D01*
X163265451Y-120547752D01*
X163260171Y-120547052D01*
X163254842Y-120547252D01*
X163254840Y-120547252D01*
X163143283Y-120551440D01*
X163026396Y-120555828D01*
X162942411Y-120573450D01*
X162802668Y-120602771D01*
X162802665Y-120602772D01*
X162797441Y-120603868D01*
X162579854Y-120689797D01*
X162556714Y-120703839D01*
X162384417Y-120808391D01*
X162384414Y-120808393D01*
X162379856Y-120811159D01*
X162203166Y-120964483D01*
X162054835Y-121145386D01*
X161939104Y-121348695D01*
X161859284Y-121568596D01*
X161817656Y-121798803D01*
X161816500Y-121823316D01*
X161816500Y-122437738D01*
X161831295Y-122612102D01*
X161832633Y-122617259D01*
X161832634Y-122617262D01*
X161888605Y-122832906D01*
X161890067Y-122838540D01*
X161892259Y-122843406D01*
X161892260Y-122843409D01*
X161945367Y-122961301D01*
X161986150Y-123051837D01*
X162116798Y-123245896D01*
X162120477Y-123249753D01*
X162120479Y-123249755D01*
X162160160Y-123291351D01*
X162278276Y-123415168D01*
X162465965Y-123554813D01*
X162470716Y-123557229D01*
X162470720Y-123557231D01*
X162621218Y-123633748D01*
X162674500Y-123660838D01*
X162897917Y-123730210D01*
X162903204Y-123730911D01*
X162903205Y-123730911D01*
X163124545Y-123760248D01*
X163124549Y-123760248D01*
X163129829Y-123760948D01*
X163135158Y-123760748D01*
X163135160Y-123760748D01*
X163246717Y-123756560D01*
X163363604Y-123752172D01*
X163475813Y-123728628D01*
X163587332Y-123705229D01*
X163587335Y-123705228D01*
X163592559Y-123704132D01*
X163663602Y-123676076D01*
X163734308Y-123669658D01*
X163797259Y-123702486D01*
X163832469Y-123764136D01*
X163835882Y-123793647D01*
X163835254Y-124001422D01*
X163832839Y-124801208D01*
X163812632Y-124869268D01*
X163795964Y-124889894D01*
X163690709Y-124995216D01*
X162933099Y-125753305D01*
X162850340Y-125836116D01*
X162788038Y-125870161D01*
X162761679Y-125873048D01*
X130569401Y-125990617D01*
X130501209Y-125970864D01*
X130454520Y-125917379D01*
X130444160Y-125847142D01*
X130473417Y-125782454D01*
X130523275Y-125747185D01*
X130650424Y-125697740D01*
X130650427Y-125697739D01*
X130654777Y-125696047D01*
X130881698Y-125566351D01*
X131086957Y-125404538D01*
X131266043Y-125214163D01*
X131415024Y-124999409D01*
X131469031Y-124889894D01*
X131528560Y-124769181D01*
X131528561Y-124769178D01*
X131530625Y-124764993D01*
X131553693Y-124692930D01*
X131608880Y-124520523D01*
X131610307Y-124516065D01*
X131652321Y-124258093D01*
X131655742Y-123996745D01*
X131620496Y-123737762D01*
X131547357Y-123486833D01*
X131541417Y-123473947D01*
X131491809Y-123366340D01*
X131437932Y-123249472D01*
X131388201Y-123173620D01*
X131297190Y-123034804D01*
X131297186Y-123034799D01*
X131294624Y-123030891D01*
X131120582Y-122835894D01*
X130919630Y-122668763D01*
X130826753Y-122612404D01*
X130700178Y-122535596D01*
X130700174Y-122535594D01*
X130696181Y-122533171D01*
X130455145Y-122432097D01*
X130201817Y-122367759D01*
X130197166Y-122367291D01*
X130197162Y-122367290D01*
X129987871Y-122346216D01*
X129984733Y-122345900D01*
X129829246Y-122345900D01*
X129826921Y-122346073D01*
X129826915Y-122346073D01*
X129639600Y-122359993D01*
X129639596Y-122359994D01*
X129634948Y-122360339D01*
X129630400Y-122361368D01*
X129630394Y-122361369D01*
X129443999Y-122403547D01*
X129380023Y-122418023D01*
X129375671Y-122419715D01*
X129375669Y-122419716D01*
X129140776Y-122511060D01*
X129140773Y-122511061D01*
X129136423Y-122512753D01*
X128909502Y-122642449D01*
X128704243Y-122804262D01*
X128525157Y-122994637D01*
X128485476Y-123051837D01*
X128382159Y-123200767D01*
X128376176Y-123209391D01*
X128374110Y-123213581D01*
X128374108Y-123213584D01*
X128270034Y-123424627D01*
X128260575Y-123443807D01*
X128259151Y-123448256D01*
X128242420Y-123500523D01*
X128202603Y-123559304D01*
X128137327Y-123587226D01*
X128067319Y-123575425D01*
X128014803Y-123527648D01*
X127996418Y-123462289D01*
X127994792Y-122310738D01*
X150386500Y-122310738D01*
X150401295Y-122485102D01*
X150402633Y-122490259D01*
X150402634Y-122490262D01*
X150449741Y-122671755D01*
X150460067Y-122711540D01*
X150462259Y-122716406D01*
X150462260Y-122716409D01*
X150514738Y-122832906D01*
X150556150Y-122924837D01*
X150559134Y-122929270D01*
X150559135Y-122929271D01*
X150572537Y-122949178D01*
X150686798Y-123118896D01*
X150848276Y-123288168D01*
X151035965Y-123427813D01*
X151040716Y-123430229D01*
X151040720Y-123430231D01*
X151178974Y-123500523D01*
X151244500Y-123533838D01*
X151467917Y-123603210D01*
X151473204Y-123603911D01*
X151473205Y-123603911D01*
X151694545Y-123633248D01*
X151694549Y-123633248D01*
X151699829Y-123633948D01*
X151705158Y-123633748D01*
X151705160Y-123633748D01*
X151816717Y-123629560D01*
X151933604Y-123625172D01*
X152045813Y-123601628D01*
X152157332Y-123578229D01*
X152157335Y-123578228D01*
X152162559Y-123577132D01*
X152380146Y-123491203D01*
X152511804Y-123411311D01*
X152575583Y-123372609D01*
X152575586Y-123372607D01*
X152580144Y-123369841D01*
X152756834Y-123216517D01*
X152905165Y-123035614D01*
X152907801Y-123030984D01*
X152907804Y-123030979D01*
X152926301Y-122998484D01*
X152977384Y-122949178D01*
X153047015Y-122935317D01*
X153113085Y-122961301D01*
X153140323Y-122990450D01*
X153143142Y-122994637D01*
X153226798Y-123118896D01*
X153388276Y-123288168D01*
X153575965Y-123427813D01*
X153580716Y-123430229D01*
X153580720Y-123430231D01*
X153718974Y-123500523D01*
X153784500Y-123533838D01*
X154007917Y-123603210D01*
X154013204Y-123603911D01*
X154013205Y-123603911D01*
X154234545Y-123633248D01*
X154234549Y-123633248D01*
X154239829Y-123633948D01*
X154245158Y-123633748D01*
X154245160Y-123633748D01*
X154356717Y-123629560D01*
X154473604Y-123625172D01*
X154585813Y-123601628D01*
X154697332Y-123578229D01*
X154697335Y-123578228D01*
X154702559Y-123577132D01*
X154920146Y-123491203D01*
X155051804Y-123411311D01*
X155115583Y-123372609D01*
X155115586Y-123372607D01*
X155120144Y-123369841D01*
X155296834Y-123216517D01*
X155327758Y-123178802D01*
X155386417Y-123138808D01*
X155457387Y-123136876D01*
X155518136Y-123173620D01*
X155533220Y-123196167D01*
X155533906Y-123195742D01*
X155623063Y-123339817D01*
X155632099Y-123351218D01*
X155746829Y-123465749D01*
X155758240Y-123474761D01*
X155896243Y-123559826D01*
X155909424Y-123565973D01*
X156063710Y-123617148D01*
X156077086Y-123620015D01*
X156171438Y-123629682D01*
X156177854Y-123630010D01*
X156572885Y-123630010D01*
X156588124Y-123625535D01*
X156589329Y-123624145D01*
X156591000Y-123616462D01*
X156591000Y-123611894D01*
X157099000Y-123611894D01*
X157103475Y-123627133D01*
X157104865Y-123628338D01*
X157112548Y-123630009D01*
X157512095Y-123630009D01*
X157518614Y-123629672D01*
X157614206Y-123619753D01*
X157627600Y-123616861D01*
X157781784Y-123565422D01*
X157794962Y-123559249D01*
X157932807Y-123473947D01*
X157944208Y-123464911D01*
X158058739Y-123350181D01*
X158067751Y-123338770D01*
X158152816Y-123200767D01*
X158158963Y-123187586D01*
X158210138Y-123033300D01*
X158213005Y-123019924D01*
X158222672Y-122925572D01*
X158223000Y-122919156D01*
X158223000Y-122299125D01*
X158218525Y-122283886D01*
X158217135Y-122282681D01*
X158209452Y-122281010D01*
X157117115Y-122281010D01*
X157101876Y-122285485D01*
X157100671Y-122286875D01*
X157099000Y-122294558D01*
X157099000Y-123611894D01*
X156591000Y-123611894D01*
X156591000Y-121754895D01*
X157099000Y-121754895D01*
X157103475Y-121770134D01*
X157104865Y-121771339D01*
X157112548Y-121773010D01*
X158204884Y-121773010D01*
X158220123Y-121768535D01*
X158221328Y-121767145D01*
X158222999Y-121759462D01*
X158222999Y-121134915D01*
X158222662Y-121128396D01*
X158212743Y-121032804D01*
X158209851Y-121019410D01*
X158158412Y-120865226D01*
X158152239Y-120852048D01*
X158066937Y-120714203D01*
X158057901Y-120702802D01*
X157943171Y-120588271D01*
X157931760Y-120579259D01*
X157793757Y-120494194D01*
X157780576Y-120488047D01*
X157626290Y-120436872D01*
X157612914Y-120434005D01*
X157518562Y-120424338D01*
X157512145Y-120424010D01*
X157117115Y-120424010D01*
X157101876Y-120428485D01*
X157100671Y-120429875D01*
X157099000Y-120437558D01*
X157099000Y-121754895D01*
X156591000Y-121754895D01*
X156591000Y-120442126D01*
X156586525Y-120426887D01*
X156585135Y-120425682D01*
X156577452Y-120424011D01*
X156177905Y-120424011D01*
X156171386Y-120424348D01*
X156075794Y-120434267D01*
X156062400Y-120437159D01*
X155908216Y-120488598D01*
X155895038Y-120494771D01*
X155757193Y-120580073D01*
X155745792Y-120589109D01*
X155631261Y-120703839D01*
X155622249Y-120715250D01*
X155533342Y-120859485D01*
X155531240Y-120858189D01*
X155492071Y-120902681D01*
X155423795Y-120922147D01*
X155355834Y-120901611D01*
X155333616Y-120883123D01*
X155225410Y-120769694D01*
X155225398Y-120769684D01*
X155221724Y-120765832D01*
X155034035Y-120626187D01*
X155029284Y-120623771D01*
X155029280Y-120623769D01*
X154830256Y-120522580D01*
X154830255Y-120522580D01*
X154825500Y-120520162D01*
X154602083Y-120450790D01*
X154596796Y-120450089D01*
X154596795Y-120450089D01*
X154375455Y-120420752D01*
X154375451Y-120420752D01*
X154370171Y-120420052D01*
X154364842Y-120420252D01*
X154364840Y-120420252D01*
X154255734Y-120424348D01*
X154136396Y-120428828D01*
X154073019Y-120442126D01*
X153912668Y-120475771D01*
X153912665Y-120475772D01*
X153907441Y-120476868D01*
X153689854Y-120562797D01*
X153685290Y-120565566D01*
X153685291Y-120565566D01*
X153494417Y-120681391D01*
X153494414Y-120681393D01*
X153489856Y-120684159D01*
X153313166Y-120837483D01*
X153164835Y-121018386D01*
X153162199Y-121023016D01*
X153162196Y-121023021D01*
X153143699Y-121055516D01*
X153092616Y-121104822D01*
X153022985Y-121118683D01*
X152956915Y-121092699D01*
X152929677Y-121063550D01*
X152846182Y-120939531D01*
X152843202Y-120935104D01*
X152802877Y-120892832D01*
X152746733Y-120833979D01*
X152681724Y-120765832D01*
X152494035Y-120626187D01*
X152489284Y-120623771D01*
X152489280Y-120623769D01*
X152290256Y-120522580D01*
X152290255Y-120522580D01*
X152285500Y-120520162D01*
X152062083Y-120450790D01*
X152056796Y-120450089D01*
X152056795Y-120450089D01*
X151835455Y-120420752D01*
X151835451Y-120420752D01*
X151830171Y-120420052D01*
X151824842Y-120420252D01*
X151824840Y-120420252D01*
X151715734Y-120424348D01*
X151596396Y-120428828D01*
X151533019Y-120442126D01*
X151372668Y-120475771D01*
X151372665Y-120475772D01*
X151367441Y-120476868D01*
X151149854Y-120562797D01*
X151145290Y-120565566D01*
X151145291Y-120565566D01*
X150954417Y-120681391D01*
X150954414Y-120681393D01*
X150949856Y-120684159D01*
X150773166Y-120837483D01*
X150624835Y-121018386D01*
X150509104Y-121221695D01*
X150429284Y-121441596D01*
X150387656Y-121671803D01*
X150386500Y-121696316D01*
X150386500Y-122310738D01*
X127994792Y-122310738D01*
X127992403Y-120617950D01*
X135168493Y-120617950D01*
X135177789Y-120629965D01*
X135228994Y-120665819D01*
X135238489Y-120671302D01*
X135435947Y-120763378D01*
X135446239Y-120767124D01*
X135656688Y-120823513D01*
X135667481Y-120825416D01*
X135884525Y-120844405D01*
X135895475Y-120844405D01*
X136112519Y-120825416D01*
X136123312Y-120823513D01*
X136333761Y-120767124D01*
X136344053Y-120763378D01*
X136541511Y-120671302D01*
X136551006Y-120665819D01*
X136603048Y-120629379D01*
X136611424Y-120618900D01*
X136604356Y-120605454D01*
X135902812Y-119903910D01*
X135888868Y-119896296D01*
X135887035Y-119896427D01*
X135880420Y-119900678D01*
X135174923Y-120606175D01*
X135168493Y-120617950D01*
X127992403Y-120617950D01*
X127991103Y-119697191D01*
X128011009Y-119629042D01*
X128064599Y-119582473D01*
X128134859Y-119572270D01*
X128199481Y-119601672D01*
X128217928Y-119621447D01*
X128286739Y-119713261D01*
X128403295Y-119800615D01*
X128539684Y-119851745D01*
X128601866Y-119858500D01*
X130398134Y-119858500D01*
X130460316Y-119851745D01*
X130596705Y-119800615D01*
X130713261Y-119713261D01*
X130800615Y-119596705D01*
X130822861Y-119537363D01*
X134577483Y-119537363D01*
X134596472Y-119754407D01*
X134598375Y-119765200D01*
X134654764Y-119975649D01*
X134658510Y-119985941D01*
X134750586Y-120183399D01*
X134756069Y-120192894D01*
X134792509Y-120244936D01*
X134802988Y-120253312D01*
X134816434Y-120246244D01*
X135517978Y-119544700D01*
X135524356Y-119533020D01*
X136254408Y-119533020D01*
X136254539Y-119534853D01*
X136258790Y-119541468D01*
X136964287Y-120246965D01*
X136976062Y-120253395D01*
X136988077Y-120244099D01*
X137023931Y-120192894D01*
X137029414Y-120183399D01*
X137121490Y-119985941D01*
X137125236Y-119975649D01*
X137181625Y-119765200D01*
X137183528Y-119754407D01*
X137202517Y-119537363D01*
X137202517Y-119526413D01*
X137183528Y-119309369D01*
X137181625Y-119298576D01*
X137125236Y-119088127D01*
X137121490Y-119077835D01*
X137029414Y-118880377D01*
X137023931Y-118870882D01*
X136987491Y-118818840D01*
X136977012Y-118810464D01*
X136963566Y-118817532D01*
X136262022Y-119519076D01*
X136254408Y-119533020D01*
X135524356Y-119533020D01*
X135525592Y-119530756D01*
X135525461Y-119528923D01*
X135521210Y-119522308D01*
X134815713Y-118816811D01*
X134803938Y-118810381D01*
X134791923Y-118819677D01*
X134756069Y-118870882D01*
X134750586Y-118880377D01*
X134658510Y-119077835D01*
X134654764Y-119088127D01*
X134598375Y-119298576D01*
X134596472Y-119309369D01*
X134577483Y-119526413D01*
X134577483Y-119537363D01*
X130822861Y-119537363D01*
X130851745Y-119460316D01*
X130858500Y-119398134D01*
X130858500Y-117880031D01*
X134581500Y-117880031D01*
X134588255Y-117942213D01*
X134639385Y-118078602D01*
X134726739Y-118195158D01*
X134843295Y-118282512D01*
X134979684Y-118333642D01*
X135023252Y-118338375D01*
X135038486Y-118340030D01*
X135038489Y-118340030D01*
X135041866Y-118340397D01*
X135045184Y-118340397D01*
X135112109Y-118364050D01*
X135147798Y-118410047D01*
X135149734Y-118409029D01*
X135155460Y-118419923D01*
X135155631Y-118420143D01*
X135155650Y-118420285D01*
X135175644Y-118458322D01*
X135877188Y-119159866D01*
X135891132Y-119167480D01*
X135892965Y-119167349D01*
X135899580Y-119163098D01*
X136605077Y-118457601D01*
X136627869Y-118415862D01*
X136630040Y-118405881D01*
X136680240Y-118355677D01*
X136733814Y-118340446D01*
X136734719Y-118340397D01*
X136738134Y-118340397D01*
X136741530Y-118340028D01*
X136741532Y-118340028D01*
X136753879Y-118338687D01*
X136800316Y-118333642D01*
X136936705Y-118282512D01*
X137053261Y-118195158D01*
X137140615Y-118078602D01*
X137191745Y-117942213D01*
X137198500Y-117880031D01*
X137198500Y-116183763D01*
X137191745Y-116121581D01*
X137140615Y-115985192D01*
X137053261Y-115868636D01*
X136936705Y-115781282D01*
X136800316Y-115730152D01*
X136738134Y-115723397D01*
X135041866Y-115723397D01*
X134979684Y-115730152D01*
X134843295Y-115781282D01*
X134726739Y-115868636D01*
X134639385Y-115985192D01*
X134588255Y-116121581D01*
X134581500Y-116183763D01*
X134581500Y-117880031D01*
X130858500Y-117880031D01*
X130858500Y-117601866D01*
X130851745Y-117539684D01*
X130800615Y-117403295D01*
X130713261Y-117286739D01*
X130596705Y-117199385D01*
X130460316Y-117148255D01*
X130398134Y-117141500D01*
X130259500Y-117141500D01*
X130191379Y-117121498D01*
X130144886Y-117067842D01*
X130133500Y-117015500D01*
X130133500Y-112945180D01*
X130153502Y-112877059D01*
X130207158Y-112830566D01*
X130277432Y-112820462D01*
X130342012Y-112849956D01*
X130380123Y-112909257D01*
X130380238Y-112909222D01*
X130380359Y-112909624D01*
X130380396Y-112909682D01*
X130380499Y-112910091D01*
X130381771Y-112914330D01*
X130382868Y-112919559D01*
X130468797Y-113137146D01*
X130471566Y-113141709D01*
X130584914Y-113328500D01*
X130590159Y-113337144D01*
X130743483Y-113513834D01*
X130924386Y-113662165D01*
X131044487Y-113730531D01*
X131095433Y-113759531D01*
X131127695Y-113777896D01*
X131347596Y-113857716D01*
X131352845Y-113858665D01*
X131352848Y-113858666D01*
X131434040Y-113873348D01*
X131577803Y-113899344D01*
X131581942Y-113899539D01*
X131581949Y-113899540D01*
X131600828Y-113900430D01*
X131600835Y-113900430D01*
X131602316Y-113900500D01*
X132053206Y-113900500D01*
X132121327Y-113920502D01*
X132142301Y-113937405D01*
X133151148Y-114946253D01*
X133158688Y-114954539D01*
X133162800Y-114961018D01*
X133168577Y-114966443D01*
X133212451Y-115007643D01*
X133215293Y-115010398D01*
X133235030Y-115030135D01*
X133238227Y-115032615D01*
X133247247Y-115040318D01*
X133279479Y-115070586D01*
X133286425Y-115074405D01*
X133286428Y-115074407D01*
X133297234Y-115080348D01*
X133313753Y-115091199D01*
X133329759Y-115103614D01*
X133337028Y-115106759D01*
X133337032Y-115106762D01*
X133370337Y-115121174D01*
X133380987Y-115126391D01*
X133419740Y-115147695D01*
X133427415Y-115149666D01*
X133427416Y-115149666D01*
X133439362Y-115152733D01*
X133458067Y-115159137D01*
X133476655Y-115167181D01*
X133484478Y-115168420D01*
X133484488Y-115168423D01*
X133520324Y-115174099D01*
X133531944Y-115176505D01*
X133563759Y-115184673D01*
X133574770Y-115187500D01*
X133595024Y-115187500D01*
X133614734Y-115189051D01*
X133634743Y-115192220D01*
X133642635Y-115191474D01*
X133661380Y-115189702D01*
X133678762Y-115188059D01*
X133690619Y-115187500D01*
X146064233Y-115187500D01*
X146075416Y-115188027D01*
X146082909Y-115189702D01*
X146090835Y-115189453D01*
X146090836Y-115189453D01*
X146150986Y-115187562D01*
X146154945Y-115187500D01*
X146182856Y-115187500D01*
X146186791Y-115187003D01*
X146186856Y-115186995D01*
X146198693Y-115186062D01*
X146230951Y-115185048D01*
X146234970Y-115184922D01*
X146242889Y-115184673D01*
X146262343Y-115179021D01*
X146281700Y-115175013D01*
X146293930Y-115173468D01*
X146293931Y-115173468D01*
X146301797Y-115172474D01*
X146309168Y-115169555D01*
X146309170Y-115169555D01*
X146342912Y-115156196D01*
X146354142Y-115152351D01*
X146388983Y-115142229D01*
X146388984Y-115142229D01*
X146396593Y-115140018D01*
X146403412Y-115135985D01*
X146403417Y-115135983D01*
X146414028Y-115129707D01*
X146431776Y-115121012D01*
X146450617Y-115113552D01*
X146486387Y-115087564D01*
X146496307Y-115081048D01*
X146527535Y-115062580D01*
X146527538Y-115062578D01*
X146534362Y-115058542D01*
X146548683Y-115044221D01*
X146563717Y-115031380D01*
X146573694Y-115024131D01*
X146580107Y-115019472D01*
X146608298Y-114985395D01*
X146616288Y-114976616D01*
X147368499Y-114224405D01*
X147430811Y-114190379D01*
X147457594Y-114187500D01*
X148666134Y-114187500D01*
X148728316Y-114180745D01*
X148864705Y-114129615D01*
X148981261Y-114042261D01*
X149068615Y-113925705D01*
X149119745Y-113789316D01*
X149126500Y-113727134D01*
X149126500Y-112030866D01*
X149119745Y-111968684D01*
X149068615Y-111832295D01*
X148981261Y-111715739D01*
X148864705Y-111628385D01*
X148728316Y-111577255D01*
X148717526Y-111576083D01*
X148715394Y-111575197D01*
X148712778Y-111574575D01*
X148712879Y-111574152D01*
X148651965Y-111548845D01*
X148611537Y-111490483D01*
X148609078Y-111419529D01*
X148645371Y-111358510D01*
X148654031Y-111351511D01*
X148657793Y-111348354D01*
X148662300Y-111345198D01*
X148824198Y-111183300D01*
X148852067Y-111143500D01*
X148913244Y-111056129D01*
X148955523Y-110995749D01*
X148957846Y-110990767D01*
X148957849Y-110990762D01*
X149049961Y-110793225D01*
X149049961Y-110793224D01*
X149052284Y-110788243D01*
X149095765Y-110625973D01*
X149110119Y-110572402D01*
X149110119Y-110572400D01*
X149111543Y-110567087D01*
X149131498Y-110339000D01*
X149111543Y-110110913D01*
X149107682Y-110096503D01*
X149053707Y-109895067D01*
X149053706Y-109895065D01*
X149052284Y-109889757D01*
X149036050Y-109854943D01*
X148957849Y-109687238D01*
X148957846Y-109687233D01*
X148955523Y-109682251D01*
X148858508Y-109543699D01*
X148827357Y-109499211D01*
X148827355Y-109499208D01*
X148824198Y-109494700D01*
X148662300Y-109332802D01*
X148657792Y-109329645D01*
X148657789Y-109329643D01*
X148521295Y-109234069D01*
X148474749Y-109201477D01*
X148469767Y-109199154D01*
X148469762Y-109199151D01*
X148435543Y-109183195D01*
X148382258Y-109136278D01*
X148362797Y-109068001D01*
X148383339Y-109000041D01*
X148435543Y-108954805D01*
X148469762Y-108938849D01*
X148469767Y-108938846D01*
X148474749Y-108936523D01*
X148579611Y-108863098D01*
X148657789Y-108808357D01*
X148657792Y-108808355D01*
X148662300Y-108805198D01*
X148824198Y-108643300D01*
X148955523Y-108455749D01*
X148957846Y-108450767D01*
X148957849Y-108450762D01*
X149049961Y-108253225D01*
X149049961Y-108253224D01*
X149052284Y-108248243D01*
X149085525Y-108124189D01*
X149110119Y-108032402D01*
X149110119Y-108032400D01*
X149111543Y-108027087D01*
X149131498Y-107799000D01*
X149111543Y-107570913D01*
X149083592Y-107466599D01*
X149085282Y-107395624D01*
X149125076Y-107336828D01*
X149190340Y-107308880D01*
X149205299Y-107307989D01*
X153461895Y-107307989D01*
X153530016Y-107327991D01*
X153550990Y-107344894D01*
X153620848Y-107414752D01*
X153654874Y-107477064D01*
X153653459Y-107536459D01*
X153637882Y-107594591D01*
X153637881Y-107594598D01*
X153636457Y-107599913D01*
X153616502Y-107828000D01*
X153636457Y-108056087D01*
X153637881Y-108061400D01*
X153637881Y-108061402D01*
X153686523Y-108242933D01*
X153695716Y-108277243D01*
X153698039Y-108282224D01*
X153698039Y-108282225D01*
X153790151Y-108479762D01*
X153790154Y-108479767D01*
X153792477Y-108484749D01*
X153813739Y-108515114D01*
X153906225Y-108647197D01*
X153923802Y-108672300D01*
X154085700Y-108834198D01*
X154090208Y-108837355D01*
X154090211Y-108837357D01*
X154168389Y-108892098D01*
X154273251Y-108965523D01*
X154278233Y-108967846D01*
X154278238Y-108967849D01*
X154312457Y-108983805D01*
X154365742Y-109030722D01*
X154385203Y-109098999D01*
X154364661Y-109166959D01*
X154312457Y-109212195D01*
X154278238Y-109228151D01*
X154278233Y-109228154D01*
X154273251Y-109230477D01*
X154168389Y-109303902D01*
X154090211Y-109358643D01*
X154090208Y-109358645D01*
X154085700Y-109361802D01*
X153923802Y-109523700D01*
X153920645Y-109528208D01*
X153920643Y-109528211D01*
X153880150Y-109586041D01*
X153792477Y-109711251D01*
X153790154Y-109716233D01*
X153790151Y-109716238D01*
X153698039Y-109913775D01*
X153695716Y-109918757D01*
X153694294Y-109924065D01*
X153694293Y-109924067D01*
X153643400Y-110114000D01*
X153636457Y-110139913D01*
X153616502Y-110368000D01*
X153636457Y-110596087D01*
X153637881Y-110601400D01*
X153637881Y-110601402D01*
X153689867Y-110795413D01*
X153695716Y-110817243D01*
X153698039Y-110822224D01*
X153698039Y-110822225D01*
X153790151Y-111019762D01*
X153790154Y-111019767D01*
X153792477Y-111024749D01*
X153814450Y-111056129D01*
X153911036Y-111194068D01*
X153923802Y-111212300D01*
X154085700Y-111374198D01*
X154090208Y-111377355D01*
X154090211Y-111377357D01*
X154104594Y-111387428D01*
X154273251Y-111505523D01*
X154278233Y-111507846D01*
X154278238Y-111507849D01*
X154312457Y-111523805D01*
X154365742Y-111570722D01*
X154385203Y-111638999D01*
X154364661Y-111706959D01*
X154312457Y-111752195D01*
X154278238Y-111768151D01*
X154278233Y-111768154D01*
X154273251Y-111770477D01*
X154195229Y-111825109D01*
X154090211Y-111898643D01*
X154090208Y-111898645D01*
X154085700Y-111901802D01*
X153923802Y-112063700D01*
X153920645Y-112068208D01*
X153920643Y-112068211D01*
X153877611Y-112129668D01*
X153792477Y-112251251D01*
X153790154Y-112256233D01*
X153790151Y-112256238D01*
X153747279Y-112348178D01*
X153695716Y-112458757D01*
X153694294Y-112464065D01*
X153694293Y-112464067D01*
X153642759Y-112656393D01*
X153636457Y-112679913D01*
X153616502Y-112908000D01*
X153636457Y-113136087D01*
X153637881Y-113141400D01*
X153637881Y-113141402D01*
X153686523Y-113322933D01*
X153695716Y-113357243D01*
X153698039Y-113362224D01*
X153698039Y-113362225D01*
X153790151Y-113559762D01*
X153790154Y-113559767D01*
X153792477Y-113564749D01*
X153795634Y-113569257D01*
X153906181Y-113727134D01*
X153923802Y-113752300D01*
X154085700Y-113914198D01*
X154090208Y-113917355D01*
X154090211Y-113917357D01*
X154112396Y-113932891D01*
X154273251Y-114045523D01*
X154278233Y-114047846D01*
X154278238Y-114047849D01*
X154475775Y-114139961D01*
X154480757Y-114142284D01*
X154486065Y-114143706D01*
X154486067Y-114143707D01*
X154696598Y-114200119D01*
X154696600Y-114200119D01*
X154701913Y-114201543D01*
X154930000Y-114221498D01*
X155158087Y-114201543D01*
X155163400Y-114200119D01*
X155163402Y-114200119D01*
X155373933Y-114143707D01*
X155373935Y-114143706D01*
X155379243Y-114142284D01*
X155384225Y-114139961D01*
X155581762Y-114047849D01*
X155581767Y-114047846D01*
X155586749Y-114045523D01*
X155747604Y-113932891D01*
X155769789Y-113917357D01*
X155769792Y-113917355D01*
X155774300Y-113914198D01*
X155936198Y-113752300D01*
X155953820Y-113727134D01*
X156064366Y-113569257D01*
X156067523Y-113564749D01*
X156069846Y-113559767D01*
X156069849Y-113559762D01*
X156161961Y-113362225D01*
X156161961Y-113362224D01*
X156164284Y-113357243D01*
X156173478Y-113322933D01*
X156222119Y-113141402D01*
X156222119Y-113141400D01*
X156223543Y-113136087D01*
X156243498Y-112908000D01*
X156223543Y-112679913D01*
X156217241Y-112656393D01*
X156165707Y-112464067D01*
X156165706Y-112464065D01*
X156164284Y-112458757D01*
X156112721Y-112348178D01*
X156069849Y-112256238D01*
X156069846Y-112256233D01*
X156067523Y-112251251D01*
X155982389Y-112129668D01*
X155939357Y-112068211D01*
X155939355Y-112068208D01*
X155936198Y-112063700D01*
X155774300Y-111901802D01*
X155769792Y-111898645D01*
X155769789Y-111898643D01*
X155664771Y-111825109D01*
X155586749Y-111770477D01*
X155581767Y-111768154D01*
X155581762Y-111768151D01*
X155547543Y-111752195D01*
X155494258Y-111705278D01*
X155474797Y-111637001D01*
X155495339Y-111569041D01*
X155547543Y-111523805D01*
X155581762Y-111507849D01*
X155581767Y-111507846D01*
X155586749Y-111505523D01*
X155755406Y-111387428D01*
X155769789Y-111377357D01*
X155769792Y-111377355D01*
X155774300Y-111374198D01*
X155936198Y-111212300D01*
X155948965Y-111194068D01*
X156045550Y-111056129D01*
X156067523Y-111024749D01*
X156069846Y-111019767D01*
X156069849Y-111019762D01*
X156161961Y-110822225D01*
X156161961Y-110822224D01*
X156164284Y-110817243D01*
X156170134Y-110795413D01*
X156222119Y-110601402D01*
X156222119Y-110601400D01*
X156223543Y-110596087D01*
X156243498Y-110368000D01*
X156223543Y-110139913D01*
X156216600Y-110114000D01*
X156165707Y-109924067D01*
X156165706Y-109924065D01*
X156164284Y-109918757D01*
X156161961Y-109913775D01*
X156069849Y-109716238D01*
X156069846Y-109716233D01*
X156067523Y-109711251D01*
X155979850Y-109586041D01*
X155939357Y-109528211D01*
X155939355Y-109528208D01*
X155936198Y-109523700D01*
X155774300Y-109361802D01*
X155769792Y-109358645D01*
X155769789Y-109358643D01*
X155691611Y-109303902D01*
X155586749Y-109230477D01*
X155581767Y-109228154D01*
X155581762Y-109228151D01*
X155547543Y-109212195D01*
X155494258Y-109165278D01*
X155474797Y-109097001D01*
X155495339Y-109029041D01*
X155547543Y-108983805D01*
X155581762Y-108967849D01*
X155581767Y-108967846D01*
X155586749Y-108965523D01*
X155691611Y-108892098D01*
X155769789Y-108837357D01*
X155769792Y-108837355D01*
X155774300Y-108834198D01*
X155936198Y-108672300D01*
X155953776Y-108647197D01*
X156046261Y-108515114D01*
X156067523Y-108484749D01*
X156069846Y-108479767D01*
X156069849Y-108479762D01*
X156161961Y-108282225D01*
X156161961Y-108282224D01*
X156164284Y-108277243D01*
X156173478Y-108242933D01*
X156222119Y-108061402D01*
X156222119Y-108061400D01*
X156223543Y-108056087D01*
X156243498Y-107828000D01*
X156223543Y-107599913D01*
X156217240Y-107576391D01*
X156165707Y-107384067D01*
X156165706Y-107384065D01*
X156164284Y-107378757D01*
X156148438Y-107344775D01*
X156069849Y-107176238D01*
X156069846Y-107176233D01*
X156067523Y-107171251D01*
X155936198Y-106983700D01*
X155774300Y-106821802D01*
X155769792Y-106818645D01*
X155769789Y-106818643D01*
X155691611Y-106763902D01*
X155586749Y-106690477D01*
X155581767Y-106688154D01*
X155581762Y-106688151D01*
X155547543Y-106672195D01*
X155494258Y-106625278D01*
X155474797Y-106557001D01*
X155495339Y-106489041D01*
X155547544Y-106443805D01*
X155581750Y-106427855D01*
X155581756Y-106427851D01*
X155586741Y-106425527D01*
X155703863Y-106343517D01*
X155769781Y-106297361D01*
X155769786Y-106297357D01*
X155774292Y-106294202D01*
X155936190Y-106132304D01*
X155939352Y-106127789D01*
X156040231Y-105983718D01*
X156067515Y-105944753D01*
X156069838Y-105939771D01*
X156069841Y-105939766D01*
X156161953Y-105742229D01*
X156161953Y-105742228D01*
X156164276Y-105737247D01*
X156173471Y-105702933D01*
X156222111Y-105521406D01*
X156222112Y-105521402D01*
X156223535Y-105516091D01*
X156243490Y-105288004D01*
X156223535Y-105059917D01*
X156217232Y-105036393D01*
X156165699Y-104844071D01*
X156165698Y-104844067D01*
X156164276Y-104838761D01*
X156161951Y-104833775D01*
X156069841Y-104636242D01*
X156069838Y-104636237D01*
X156067515Y-104631255D01*
X155990493Y-104521256D01*
X155939349Y-104448215D01*
X155939346Y-104448211D01*
X155936190Y-104443704D01*
X155774292Y-104281806D01*
X155769784Y-104278649D01*
X155769781Y-104278647D01*
X155691603Y-104223906D01*
X155586741Y-104150481D01*
X155581759Y-104148158D01*
X155581754Y-104148155D01*
X155547535Y-104132199D01*
X155494250Y-104085282D01*
X155474789Y-104017005D01*
X155495331Y-103949045D01*
X155547535Y-103903809D01*
X155581762Y-103887849D01*
X155581767Y-103887846D01*
X155586749Y-103885523D01*
X155769783Y-103757361D01*
X155769792Y-103757355D01*
X155774300Y-103754198D01*
X155936198Y-103592300D01*
X155953776Y-103567197D01*
X155997076Y-103505358D01*
X156067523Y-103404749D01*
X156069847Y-103399766D01*
X156069849Y-103399762D01*
X156161961Y-103202225D01*
X156161961Y-103202224D01*
X156164284Y-103197243D01*
X156166223Y-103190009D01*
X156222119Y-102981402D01*
X156222119Y-102981400D01*
X156223543Y-102976087D01*
X156243498Y-102748000D01*
X156223543Y-102519913D01*
X156217241Y-102496393D01*
X156165707Y-102304067D01*
X156165706Y-102304065D01*
X156164284Y-102298757D01*
X156161961Y-102293775D01*
X156069849Y-102096238D01*
X156069846Y-102096233D01*
X156067523Y-102091251D01*
X155994098Y-101986389D01*
X155939357Y-101908211D01*
X155939355Y-101908208D01*
X155936198Y-101903700D01*
X155774300Y-101741802D01*
X155769792Y-101738645D01*
X155769789Y-101738643D01*
X155591263Y-101613638D01*
X155586749Y-101610477D01*
X155581767Y-101608154D01*
X155581762Y-101608151D01*
X155547543Y-101592195D01*
X155494258Y-101545278D01*
X155474797Y-101477001D01*
X155495339Y-101409041D01*
X155547544Y-101363805D01*
X155581750Y-101347855D01*
X155581756Y-101347851D01*
X155586741Y-101345527D01*
X155691603Y-101272102D01*
X155769781Y-101217361D01*
X155769784Y-101217359D01*
X155774292Y-101214202D01*
X155936190Y-101052304D01*
X156067515Y-100864753D01*
X156069838Y-100859771D01*
X156069841Y-100859766D01*
X156161953Y-100662229D01*
X156161953Y-100662228D01*
X156164276Y-100657247D01*
X156173471Y-100622933D01*
X156222111Y-100441406D01*
X156222111Y-100441404D01*
X156223535Y-100436091D01*
X156243490Y-100208004D01*
X156223535Y-99979917D01*
X156217232Y-99956393D01*
X156165699Y-99764071D01*
X156165698Y-99764069D01*
X156164276Y-99758761D01*
X156153308Y-99735239D01*
X156069841Y-99556242D01*
X156069838Y-99556237D01*
X156067515Y-99551255D01*
X155936190Y-99363704D01*
X155774292Y-99201806D01*
X155769784Y-99198649D01*
X155769781Y-99198647D01*
X155691603Y-99143906D01*
X155586741Y-99070481D01*
X155581759Y-99068158D01*
X155581754Y-99068155D01*
X155547535Y-99052199D01*
X155494250Y-99005282D01*
X155474789Y-98937005D01*
X155495331Y-98869045D01*
X155547535Y-98823809D01*
X155581762Y-98807849D01*
X155581767Y-98807846D01*
X155586749Y-98805523D01*
X155691611Y-98732098D01*
X155769789Y-98677357D01*
X155769792Y-98677355D01*
X155774300Y-98674198D01*
X155936198Y-98512300D01*
X155953776Y-98487197D01*
X156064366Y-98329257D01*
X156067523Y-98324749D01*
X156069846Y-98319767D01*
X156069849Y-98319762D01*
X156161961Y-98122225D01*
X156161961Y-98122224D01*
X156164284Y-98117243D01*
X156173478Y-98082933D01*
X156222119Y-97901402D01*
X156222119Y-97901400D01*
X156223543Y-97896087D01*
X156243498Y-97668000D01*
X156223543Y-97439913D01*
X156217241Y-97416393D01*
X156165707Y-97224067D01*
X156165706Y-97224065D01*
X156164284Y-97218757D01*
X156161961Y-97213775D01*
X156069849Y-97016238D01*
X156069846Y-97016233D01*
X156067523Y-97011251D01*
X155936198Y-96823700D01*
X155774300Y-96661802D01*
X155769792Y-96658645D01*
X155769789Y-96658643D01*
X155691611Y-96603902D01*
X155586749Y-96530477D01*
X155581767Y-96528154D01*
X155581762Y-96528151D01*
X155384225Y-96436039D01*
X155384224Y-96436039D01*
X155379243Y-96433716D01*
X155373935Y-96432294D01*
X155373933Y-96432293D01*
X155163402Y-96375881D01*
X155163400Y-96375881D01*
X155158087Y-96374457D01*
X154930000Y-96354502D01*
X154701913Y-96374457D01*
X154696600Y-96375881D01*
X154696598Y-96375881D01*
X154486067Y-96432293D01*
X154486065Y-96432294D01*
X154480757Y-96433716D01*
X154475776Y-96436039D01*
X154475775Y-96436039D01*
X154278238Y-96528151D01*
X154278233Y-96528154D01*
X154273251Y-96530477D01*
X154168389Y-96603902D01*
X154090211Y-96658643D01*
X154090208Y-96658645D01*
X154085700Y-96661802D01*
X153923802Y-96823700D01*
X153792477Y-97011251D01*
X153790154Y-97016233D01*
X153790151Y-97016238D01*
X153698039Y-97213775D01*
X153695716Y-97218757D01*
X153694294Y-97224065D01*
X153694293Y-97224067D01*
X153642759Y-97416393D01*
X153636457Y-97439913D01*
X153616502Y-97668000D01*
X153636457Y-97896087D01*
X153637881Y-97901400D01*
X153637881Y-97901402D01*
X153686523Y-98082933D01*
X153695716Y-98117243D01*
X153698039Y-98122224D01*
X153698039Y-98122225D01*
X153790151Y-98319762D01*
X153790154Y-98319767D01*
X153792477Y-98324749D01*
X153795634Y-98329257D01*
X153906225Y-98487197D01*
X153923802Y-98512300D01*
X154085700Y-98674198D01*
X154090208Y-98677355D01*
X154090211Y-98677357D01*
X154168389Y-98732098D01*
X154273251Y-98805523D01*
X154278233Y-98807846D01*
X154278238Y-98807849D01*
X154312457Y-98823805D01*
X154365742Y-98870722D01*
X154385203Y-98938999D01*
X154364661Y-99006959D01*
X154312457Y-99052195D01*
X154278230Y-99068155D01*
X154278225Y-99068158D01*
X154273243Y-99070481D01*
X154168381Y-99143906D01*
X154090203Y-99198647D01*
X154090200Y-99198649D01*
X154085692Y-99201806D01*
X153923794Y-99363704D01*
X153792469Y-99551255D01*
X153790146Y-99556237D01*
X153790143Y-99556242D01*
X153706676Y-99735239D01*
X153695708Y-99758761D01*
X153694286Y-99764069D01*
X153694285Y-99764071D01*
X153642752Y-99956393D01*
X153636449Y-99979917D01*
X153616494Y-100208004D01*
X153636449Y-100436091D01*
X153637873Y-100441404D01*
X153637873Y-100441406D01*
X153686514Y-100622933D01*
X153695708Y-100657247D01*
X153698031Y-100662228D01*
X153698031Y-100662229D01*
X153790143Y-100859766D01*
X153790146Y-100859771D01*
X153792469Y-100864753D01*
X153923794Y-101052304D01*
X154085692Y-101214202D01*
X154090200Y-101217359D01*
X154090203Y-101217361D01*
X154168381Y-101272102D01*
X154273243Y-101345527D01*
X154278225Y-101347850D01*
X154278230Y-101347853D01*
X154312449Y-101363809D01*
X154365734Y-101410726D01*
X154385195Y-101479003D01*
X154364653Y-101546963D01*
X154312448Y-101592199D01*
X154278242Y-101608149D01*
X154278239Y-101608151D01*
X154273251Y-101610477D01*
X154268737Y-101613638D01*
X154090211Y-101738643D01*
X154090208Y-101738645D01*
X154085700Y-101741802D01*
X153923802Y-101903700D01*
X153920645Y-101908208D01*
X153920643Y-101908211D01*
X153865902Y-101986389D01*
X153792477Y-102091251D01*
X153790154Y-102096233D01*
X153790151Y-102096238D01*
X153698039Y-102293775D01*
X153695716Y-102298757D01*
X153694294Y-102304065D01*
X153694293Y-102304067D01*
X153642759Y-102496393D01*
X153636457Y-102519913D01*
X153616502Y-102748000D01*
X153636457Y-102976087D01*
X153637881Y-102981400D01*
X153637881Y-102981402D01*
X153653459Y-103039541D01*
X153651769Y-103110518D01*
X153620847Y-103161247D01*
X153608988Y-103173106D01*
X153546676Y-103207132D01*
X153519893Y-103210011D01*
X149204782Y-103210011D01*
X149136661Y-103190009D01*
X149090168Y-103136353D01*
X149080064Y-103066079D01*
X149083075Y-103051400D01*
X149099394Y-102990497D01*
X149099058Y-102976401D01*
X149091116Y-102973000D01*
X146550033Y-102973000D01*
X146536502Y-102976973D01*
X146535273Y-102985522D01*
X146552925Y-103051400D01*
X146551235Y-103122377D01*
X146511441Y-103181172D01*
X146446176Y-103209120D01*
X146431218Y-103210011D01*
X141637105Y-103210011D01*
X141568984Y-103190009D01*
X141548010Y-103173106D01*
X141507152Y-103132248D01*
X141473126Y-103069936D01*
X141474541Y-103010541D01*
X141490118Y-102952409D01*
X141490120Y-102952398D01*
X141491543Y-102947087D01*
X141511498Y-102719000D01*
X141491543Y-102490913D01*
X141479911Y-102447503D01*
X141433707Y-102275067D01*
X141433706Y-102275065D01*
X141432284Y-102269757D01*
X141358862Y-102112302D01*
X141337849Y-102067238D01*
X141337846Y-102067233D01*
X141335523Y-102062251D01*
X141221778Y-101899807D01*
X141207357Y-101879211D01*
X141207355Y-101879208D01*
X141204198Y-101874700D01*
X141042300Y-101712802D01*
X141037792Y-101709645D01*
X141037789Y-101709643D01*
X140959611Y-101654902D01*
X140854749Y-101581477D01*
X140849767Y-101579154D01*
X140849762Y-101579151D01*
X140814951Y-101562919D01*
X140761666Y-101516002D01*
X140742205Y-101447725D01*
X140762747Y-101379765D01*
X140814951Y-101334529D01*
X140849511Y-101318414D01*
X140859007Y-101312931D01*
X141037467Y-101187972D01*
X141045875Y-101180916D01*
X141199916Y-101026875D01*
X141206972Y-101018467D01*
X141331931Y-100840007D01*
X141337414Y-100830511D01*
X141429490Y-100633053D01*
X141433236Y-100622761D01*
X141479394Y-100450497D01*
X141479058Y-100436401D01*
X141471116Y-100433000D01*
X138930033Y-100433000D01*
X138916502Y-100436973D01*
X138915273Y-100445522D01*
X138962764Y-100622761D01*
X138966510Y-100633053D01*
X139058586Y-100830511D01*
X139064069Y-100840007D01*
X139189028Y-101018467D01*
X139196084Y-101026875D01*
X139350125Y-101180916D01*
X139358533Y-101187972D01*
X139536993Y-101312931D01*
X139546489Y-101318414D01*
X139581049Y-101334529D01*
X139634334Y-101381446D01*
X139653795Y-101449723D01*
X139633253Y-101517683D01*
X139581049Y-101562919D01*
X139546238Y-101579151D01*
X139546233Y-101579154D01*
X139541251Y-101581477D01*
X139436389Y-101654902D01*
X139358211Y-101709643D01*
X139358208Y-101709645D01*
X139353700Y-101712802D01*
X139191802Y-101874700D01*
X139188645Y-101879208D01*
X139188643Y-101879211D01*
X139174222Y-101899807D01*
X139060477Y-102062251D01*
X139058154Y-102067233D01*
X139058151Y-102067238D01*
X139037138Y-102112302D01*
X138963716Y-102269757D01*
X138962294Y-102275065D01*
X138962293Y-102275067D01*
X138916089Y-102447503D01*
X138904457Y-102490913D01*
X138884502Y-102719000D01*
X138904457Y-102947087D01*
X138905881Y-102952400D01*
X138905881Y-102952402D01*
X138948249Y-103110518D01*
X138963716Y-103168243D01*
X138966039Y-103173224D01*
X138966039Y-103173225D01*
X139058151Y-103370762D01*
X139058154Y-103370767D01*
X139060477Y-103375749D01*
X139191802Y-103563300D01*
X139353700Y-103725198D01*
X139358208Y-103728355D01*
X139358211Y-103728357D01*
X139399633Y-103757361D01*
X139541251Y-103856523D01*
X139546233Y-103858846D01*
X139546238Y-103858849D01*
X139580457Y-103874805D01*
X139633742Y-103921722D01*
X139653203Y-103989999D01*
X139632661Y-104057959D01*
X139580457Y-104103195D01*
X139546238Y-104119151D01*
X139546233Y-104119154D01*
X139541251Y-104121477D01*
X139436389Y-104194902D01*
X139358211Y-104249643D01*
X139358208Y-104249645D01*
X139353700Y-104252802D01*
X139191802Y-104414700D01*
X139188645Y-104419208D01*
X139188643Y-104419211D01*
X139174222Y-104439807D01*
X139060477Y-104602251D01*
X139058154Y-104607233D01*
X139058151Y-104607238D01*
X138966039Y-104804775D01*
X138963716Y-104809757D01*
X138962294Y-104815065D01*
X138962293Y-104815067D01*
X138905881Y-105025598D01*
X138904457Y-105030913D01*
X138884502Y-105259000D01*
X138904457Y-105487087D01*
X138905881Y-105492400D01*
X138905881Y-105492402D01*
X138912229Y-105516091D01*
X138963716Y-105708243D01*
X138966039Y-105713224D01*
X138966039Y-105713225D01*
X139058151Y-105910762D01*
X139058154Y-105910767D01*
X139060477Y-105915749D01*
X139133902Y-106020611D01*
X139164170Y-106063837D01*
X139191802Y-106103300D01*
X139353700Y-106265198D01*
X139358208Y-106268355D01*
X139358211Y-106268357D01*
X139510771Y-106375181D01*
X139555099Y-106430638D01*
X139564500Y-106478394D01*
X139564500Y-106579606D01*
X139544498Y-106647727D01*
X139510771Y-106682819D01*
X139358211Y-106789643D01*
X139358208Y-106789645D01*
X139353700Y-106792802D01*
X139191802Y-106954700D01*
X139188645Y-106959208D01*
X139188643Y-106959211D01*
X139171496Y-106983700D01*
X139060477Y-107142251D01*
X139058154Y-107147233D01*
X139058151Y-107147238D01*
X138969745Y-107336828D01*
X138963716Y-107349757D01*
X138962294Y-107355065D01*
X138962293Y-107355067D01*
X138913689Y-107536459D01*
X138904457Y-107570913D01*
X138884502Y-107799000D01*
X138904457Y-108027087D01*
X138905881Y-108032400D01*
X138905881Y-108032402D01*
X138930476Y-108124189D01*
X138963716Y-108248243D01*
X138966039Y-108253224D01*
X138966039Y-108253225D01*
X139058151Y-108450762D01*
X139058154Y-108450767D01*
X139060477Y-108455749D01*
X139191802Y-108643300D01*
X139353700Y-108805198D01*
X139358208Y-108808355D01*
X139358211Y-108808357D01*
X139436389Y-108863098D01*
X139541251Y-108936523D01*
X139546233Y-108938846D01*
X139546238Y-108938849D01*
X139580457Y-108954805D01*
X139633742Y-109001722D01*
X139653203Y-109069999D01*
X139632661Y-109137959D01*
X139580457Y-109183195D01*
X139546238Y-109199151D01*
X139546233Y-109199154D01*
X139541251Y-109201477D01*
X139494705Y-109234069D01*
X139358211Y-109329643D01*
X139358208Y-109329645D01*
X139353700Y-109332802D01*
X139191802Y-109494700D01*
X139188645Y-109499208D01*
X139188643Y-109499211D01*
X139081819Y-109651771D01*
X139026362Y-109696099D01*
X138978606Y-109705500D01*
X135144594Y-109705500D01*
X135076473Y-109685498D01*
X135055499Y-109668595D01*
X133573405Y-108186501D01*
X133539379Y-108124189D01*
X133536500Y-108097406D01*
X133536500Y-106771600D01*
X133536163Y-106768350D01*
X133526238Y-106672692D01*
X133526237Y-106672688D01*
X133525526Y-106665834D01*
X133511996Y-106625278D01*
X133471868Y-106505002D01*
X133469550Y-106498054D01*
X133376478Y-106347652D01*
X133251303Y-106222695D01*
X133245072Y-106218854D01*
X133106968Y-106133725D01*
X133106966Y-106133724D01*
X133100738Y-106129885D01*
X132940254Y-106076655D01*
X132939389Y-106076368D01*
X132939387Y-106076368D01*
X132932861Y-106074203D01*
X132926025Y-106073503D01*
X132926022Y-106073502D01*
X132882969Y-106069091D01*
X132828400Y-106063500D01*
X131037600Y-106063500D01*
X131034354Y-106063837D01*
X131034350Y-106063837D01*
X130938692Y-106073762D01*
X130938688Y-106073763D01*
X130931834Y-106074474D01*
X130925298Y-106076655D01*
X130925296Y-106076655D01*
X130793194Y-106120728D01*
X130764054Y-106130450D01*
X130613652Y-106223522D01*
X130488695Y-106348697D01*
X130484855Y-106354927D01*
X130484854Y-106354928D01*
X130438186Y-106430638D01*
X130395885Y-106499262D01*
X130393581Y-106506209D01*
X130346642Y-106647727D01*
X130340203Y-106667139D01*
X130329500Y-106771600D01*
X130329500Y-108097406D01*
X130309498Y-108165527D01*
X130292595Y-108186501D01*
X129107747Y-109371348D01*
X129099461Y-109378888D01*
X129092982Y-109383000D01*
X129087557Y-109388777D01*
X129046357Y-109432651D01*
X129043602Y-109435493D01*
X129023865Y-109455230D01*
X129021385Y-109458427D01*
X129013682Y-109467447D01*
X128983414Y-109499679D01*
X128979595Y-109506625D01*
X128979593Y-109506628D01*
X128973652Y-109517434D01*
X128962801Y-109533953D01*
X128950386Y-109549959D01*
X128947241Y-109557228D01*
X128947238Y-109557232D01*
X128932826Y-109590537D01*
X128927609Y-109601187D01*
X128906305Y-109639940D01*
X128904334Y-109647615D01*
X128904334Y-109647616D01*
X128901267Y-109659562D01*
X128894863Y-109678266D01*
X128890981Y-109687238D01*
X128886819Y-109696855D01*
X128885580Y-109704678D01*
X128885577Y-109704688D01*
X128879901Y-109740524D01*
X128877495Y-109752144D01*
X128866500Y-109794970D01*
X128866500Y-109815224D01*
X128864949Y-109834934D01*
X128861780Y-109854943D01*
X128862526Y-109862835D01*
X128865941Y-109898961D01*
X128866500Y-109910819D01*
X128866500Y-117015500D01*
X128846498Y-117083621D01*
X128792842Y-117130114D01*
X128740500Y-117141500D01*
X128601866Y-117141500D01*
X128539684Y-117148255D01*
X128403295Y-117199385D01*
X128286739Y-117286739D01*
X128281358Y-117293919D01*
X128281357Y-117293920D01*
X128214555Y-117383053D01*
X128157695Y-117425568D01*
X128086877Y-117430593D01*
X128024584Y-117396534D01*
X127990594Y-117334202D01*
X127987729Y-117307666D01*
X127987495Y-117141500D01*
X127963549Y-100179000D01*
X146504502Y-100179000D01*
X146524457Y-100407087D01*
X146525881Y-100412400D01*
X146525881Y-100412402D01*
X146532229Y-100436091D01*
X146583716Y-100628243D01*
X146586039Y-100633224D01*
X146586039Y-100633225D01*
X146678151Y-100830762D01*
X146678154Y-100830767D01*
X146680477Y-100835749D01*
X146811802Y-101023300D01*
X146973700Y-101185198D01*
X146978208Y-101188355D01*
X146978211Y-101188357D01*
X147009556Y-101210305D01*
X147161251Y-101316523D01*
X147166233Y-101318846D01*
X147166238Y-101318849D01*
X147201049Y-101335081D01*
X147254334Y-101381998D01*
X147273795Y-101450275D01*
X147253253Y-101518235D01*
X147201049Y-101563471D01*
X147166489Y-101579586D01*
X147156993Y-101585069D01*
X146978533Y-101710028D01*
X146970125Y-101717084D01*
X146816084Y-101871125D01*
X146809028Y-101879533D01*
X146684069Y-102057993D01*
X146678586Y-102067489D01*
X146586510Y-102264947D01*
X146582764Y-102275239D01*
X146536606Y-102447503D01*
X146536942Y-102461599D01*
X146544884Y-102465000D01*
X149085967Y-102465000D01*
X149099498Y-102461027D01*
X149100727Y-102452478D01*
X149053236Y-102275239D01*
X149049490Y-102264947D01*
X148957414Y-102067489D01*
X148951931Y-102057993D01*
X148826972Y-101879533D01*
X148819916Y-101871125D01*
X148665875Y-101717084D01*
X148657467Y-101710028D01*
X148479007Y-101585069D01*
X148469511Y-101579586D01*
X148434951Y-101563471D01*
X148381666Y-101516554D01*
X148362205Y-101448277D01*
X148382747Y-101380317D01*
X148434951Y-101335081D01*
X148469762Y-101318849D01*
X148469767Y-101318846D01*
X148474749Y-101316523D01*
X148626444Y-101210305D01*
X148657789Y-101188357D01*
X148657792Y-101188355D01*
X148662300Y-101185198D01*
X148824198Y-101023300D01*
X148955523Y-100835749D01*
X148957846Y-100830767D01*
X148957849Y-100830762D01*
X149049961Y-100633225D01*
X149049961Y-100633224D01*
X149052284Y-100628243D01*
X149103772Y-100436091D01*
X149110119Y-100412402D01*
X149110119Y-100412400D01*
X149111543Y-100407087D01*
X149131498Y-100179000D01*
X149111543Y-99950913D01*
X149099911Y-99907503D01*
X149053707Y-99735067D01*
X149053706Y-99735065D01*
X149052284Y-99729757D01*
X149049961Y-99724775D01*
X148957849Y-99527238D01*
X148957846Y-99527233D01*
X148955523Y-99522251D01*
X148824198Y-99334700D01*
X148662300Y-99172802D01*
X148657792Y-99169645D01*
X148657789Y-99169643D01*
X148579611Y-99114902D01*
X148474749Y-99041477D01*
X148469767Y-99039154D01*
X148469762Y-99039151D01*
X148434951Y-99022919D01*
X148381666Y-98976002D01*
X148362205Y-98907725D01*
X148382747Y-98839765D01*
X148434951Y-98794529D01*
X148469511Y-98778414D01*
X148479007Y-98772931D01*
X148657467Y-98647972D01*
X148665875Y-98640916D01*
X148819916Y-98486875D01*
X148826972Y-98478467D01*
X148951931Y-98300007D01*
X148957414Y-98290511D01*
X149049490Y-98093053D01*
X149053236Y-98082761D01*
X149099394Y-97910497D01*
X149099058Y-97896401D01*
X149091116Y-97893000D01*
X146550033Y-97893000D01*
X146536502Y-97896973D01*
X146535273Y-97905522D01*
X146582764Y-98082761D01*
X146586510Y-98093053D01*
X146678586Y-98290511D01*
X146684069Y-98300007D01*
X146809028Y-98478467D01*
X146816084Y-98486875D01*
X146970125Y-98640916D01*
X146978533Y-98647972D01*
X147156993Y-98772931D01*
X147166489Y-98778414D01*
X147201049Y-98794529D01*
X147254334Y-98841446D01*
X147273795Y-98909723D01*
X147253253Y-98977683D01*
X147201049Y-99022919D01*
X147166238Y-99039151D01*
X147166233Y-99039154D01*
X147161251Y-99041477D01*
X147056389Y-99114902D01*
X146978211Y-99169643D01*
X146978208Y-99169645D01*
X146973700Y-99172802D01*
X146811802Y-99334700D01*
X146680477Y-99522251D01*
X146678154Y-99527233D01*
X146678151Y-99527238D01*
X146586039Y-99724775D01*
X146583716Y-99729757D01*
X146582294Y-99735065D01*
X146582293Y-99735067D01*
X146536089Y-99907503D01*
X146524457Y-99950913D01*
X146504502Y-100179000D01*
X127963549Y-100179000D01*
X127959963Y-97639000D01*
X138884502Y-97639000D01*
X138904457Y-97867087D01*
X138905881Y-97872400D01*
X138905881Y-97872402D01*
X138912228Y-97896087D01*
X138963716Y-98088243D01*
X138966039Y-98093224D01*
X138966039Y-98093225D01*
X139058151Y-98290762D01*
X139058154Y-98290767D01*
X139060477Y-98295749D01*
X139191802Y-98483300D01*
X139353700Y-98645198D01*
X139358208Y-98648355D01*
X139358211Y-98648357D01*
X139436389Y-98703098D01*
X139541251Y-98776523D01*
X139546233Y-98778846D01*
X139546238Y-98778849D01*
X139581049Y-98795081D01*
X139634334Y-98841998D01*
X139653795Y-98910275D01*
X139633253Y-98978235D01*
X139581049Y-99023471D01*
X139546489Y-99039586D01*
X139536993Y-99045069D01*
X139358533Y-99170028D01*
X139350125Y-99177084D01*
X139196084Y-99331125D01*
X139189028Y-99339533D01*
X139064069Y-99517993D01*
X139058586Y-99527489D01*
X138966510Y-99724947D01*
X138962764Y-99735239D01*
X138916606Y-99907503D01*
X138916942Y-99921599D01*
X138924884Y-99925000D01*
X141465967Y-99925000D01*
X141479498Y-99921027D01*
X141480727Y-99912478D01*
X141433236Y-99735239D01*
X141429490Y-99724947D01*
X141337414Y-99527489D01*
X141331931Y-99517993D01*
X141206972Y-99339533D01*
X141199916Y-99331125D01*
X141045875Y-99177084D01*
X141037467Y-99170028D01*
X140859007Y-99045069D01*
X140849511Y-99039586D01*
X140814951Y-99023471D01*
X140761666Y-98976554D01*
X140742205Y-98908277D01*
X140762747Y-98840317D01*
X140814951Y-98795081D01*
X140849762Y-98778849D01*
X140849767Y-98778846D01*
X140854749Y-98776523D01*
X140959611Y-98703098D01*
X141037789Y-98648357D01*
X141037792Y-98648355D01*
X141042300Y-98645198D01*
X141204198Y-98483300D01*
X141335523Y-98295749D01*
X141337846Y-98290767D01*
X141337849Y-98290762D01*
X141429961Y-98093225D01*
X141429961Y-98093224D01*
X141432284Y-98088243D01*
X141483773Y-97896087D01*
X141490119Y-97872402D01*
X141490119Y-97872400D01*
X141491543Y-97867087D01*
X141511498Y-97639000D01*
X141491543Y-97410913D01*
X141481244Y-97372478D01*
X141479911Y-97367503D01*
X146536606Y-97367503D01*
X146536942Y-97381599D01*
X146544884Y-97385000D01*
X147545885Y-97385000D01*
X147561124Y-97380525D01*
X147562329Y-97379135D01*
X147564000Y-97371452D01*
X147564000Y-97366885D01*
X148072000Y-97366885D01*
X148076475Y-97382124D01*
X148077865Y-97383329D01*
X148085548Y-97385000D01*
X149085967Y-97385000D01*
X149099498Y-97381027D01*
X149100727Y-97372478D01*
X149053236Y-97195239D01*
X149049490Y-97184947D01*
X148957414Y-96987489D01*
X148951931Y-96977993D01*
X148826972Y-96799533D01*
X148819916Y-96791125D01*
X148665875Y-96637084D01*
X148657467Y-96630028D01*
X148479007Y-96505069D01*
X148469511Y-96499586D01*
X148272053Y-96407510D01*
X148261761Y-96403764D01*
X148089497Y-96357606D01*
X148075401Y-96357942D01*
X148072000Y-96365884D01*
X148072000Y-97366885D01*
X147564000Y-97366885D01*
X147564000Y-96371033D01*
X147560027Y-96357502D01*
X147551478Y-96356273D01*
X147374239Y-96403764D01*
X147363947Y-96407510D01*
X147166489Y-96499586D01*
X147156993Y-96505069D01*
X146978533Y-96630028D01*
X146970125Y-96637084D01*
X146816084Y-96791125D01*
X146809028Y-96799533D01*
X146684069Y-96977993D01*
X146678586Y-96987489D01*
X146586510Y-97184947D01*
X146582764Y-97195239D01*
X146536606Y-97367503D01*
X141479911Y-97367503D01*
X141433707Y-97195067D01*
X141433706Y-97195065D01*
X141432284Y-97189757D01*
X141373675Y-97064069D01*
X141337849Y-96987238D01*
X141337846Y-96987233D01*
X141335523Y-96982251D01*
X141224504Y-96823700D01*
X141207357Y-96799211D01*
X141207355Y-96799208D01*
X141204198Y-96794700D01*
X141042300Y-96632802D01*
X141037792Y-96629645D01*
X141037789Y-96629643D01*
X140959611Y-96574902D01*
X140854749Y-96501477D01*
X140849767Y-96499154D01*
X140849762Y-96499151D01*
X140652225Y-96407039D01*
X140652224Y-96407039D01*
X140647243Y-96404716D01*
X140641935Y-96403294D01*
X140641933Y-96403293D01*
X140431402Y-96346881D01*
X140431400Y-96346881D01*
X140426087Y-96345457D01*
X140198000Y-96325502D01*
X139969913Y-96345457D01*
X139964600Y-96346881D01*
X139964598Y-96346881D01*
X139754067Y-96403293D01*
X139754065Y-96403294D01*
X139748757Y-96404716D01*
X139743776Y-96407039D01*
X139743775Y-96407039D01*
X139546238Y-96499151D01*
X139546233Y-96499154D01*
X139541251Y-96501477D01*
X139436389Y-96574902D01*
X139358211Y-96629643D01*
X139358208Y-96629645D01*
X139353700Y-96632802D01*
X139191802Y-96794700D01*
X139188645Y-96799208D01*
X139188643Y-96799211D01*
X139171496Y-96823700D01*
X139060477Y-96982251D01*
X139058154Y-96987233D01*
X139058151Y-96987238D01*
X139022325Y-97064069D01*
X138963716Y-97189757D01*
X138962294Y-97195065D01*
X138962293Y-97195067D01*
X138914756Y-97372478D01*
X138904457Y-97410913D01*
X138884502Y-97639000D01*
X127959963Y-97639000D01*
X127947492Y-88805134D01*
X130997823Y-88805134D01*
X131004578Y-88867316D01*
X131055708Y-89003705D01*
X131143062Y-89120261D01*
X131259618Y-89207615D01*
X131396007Y-89258745D01*
X131458189Y-89265500D01*
X133554457Y-89265500D01*
X133616639Y-89258745D01*
X133753028Y-89207615D01*
X133869584Y-89120261D01*
X133956938Y-89003705D01*
X133962199Y-88989670D01*
X136638483Y-88989670D01*
X136644210Y-88997320D01*
X136815365Y-89102205D01*
X136824160Y-89106687D01*
X137034311Y-89193734D01*
X137043696Y-89196783D01*
X137264877Y-89249885D01*
X137274624Y-89251428D01*
X137501393Y-89269275D01*
X137511253Y-89269275D01*
X137738022Y-89251428D01*
X137747769Y-89249885D01*
X137968950Y-89196783D01*
X137978335Y-89193734D01*
X138188486Y-89106687D01*
X138197281Y-89102205D01*
X138364768Y-88999568D01*
X138374230Y-88989110D01*
X138370447Y-88980334D01*
X138360175Y-88970062D01*
X143804493Y-88970062D01*
X143813789Y-88982077D01*
X143864994Y-89017931D01*
X143874489Y-89023414D01*
X144071947Y-89115490D01*
X144082239Y-89119236D01*
X144292688Y-89175625D01*
X144303481Y-89177528D01*
X144520525Y-89196517D01*
X144531475Y-89196517D01*
X144748519Y-89177528D01*
X144759312Y-89175625D01*
X144969761Y-89119236D01*
X144980053Y-89115490D01*
X145177511Y-89023414D01*
X145187006Y-89017931D01*
X145239048Y-88981491D01*
X145247424Y-88971012D01*
X145240356Y-88957566D01*
X144538812Y-88256022D01*
X144524868Y-88248408D01*
X144523035Y-88248539D01*
X144516420Y-88252790D01*
X143810923Y-88958287D01*
X143804493Y-88970062D01*
X138360175Y-88970062D01*
X137519135Y-88129022D01*
X137505191Y-88121408D01*
X137503358Y-88121539D01*
X137496743Y-88125790D01*
X136645243Y-88977290D01*
X136638483Y-88989670D01*
X133962199Y-88989670D01*
X134008068Y-88867316D01*
X134014823Y-88805134D01*
X134014823Y-87761930D01*
X135994048Y-87761930D01*
X136011895Y-87988699D01*
X136013438Y-87998446D01*
X136066540Y-88219627D01*
X136069589Y-88229012D01*
X136156636Y-88439163D01*
X136161118Y-88447958D01*
X136263755Y-88615445D01*
X136274213Y-88624907D01*
X136282989Y-88621124D01*
X137134301Y-87769812D01*
X137140679Y-87758132D01*
X137870731Y-87758132D01*
X137870862Y-87759965D01*
X137875113Y-87766580D01*
X138726613Y-88618080D01*
X138738993Y-88624840D01*
X138746643Y-88619113D01*
X138851528Y-88447958D01*
X138856010Y-88439163D01*
X138943057Y-88229012D01*
X138946106Y-88219627D01*
X138999208Y-87998446D01*
X139000751Y-87988699D01*
X139008560Y-87889475D01*
X143213483Y-87889475D01*
X143232472Y-88106519D01*
X143234375Y-88117312D01*
X143290764Y-88327761D01*
X143294510Y-88338053D01*
X143386586Y-88535511D01*
X143392069Y-88545006D01*
X143428509Y-88597048D01*
X143438988Y-88605424D01*
X143452434Y-88598356D01*
X144153978Y-87896812D01*
X144160356Y-87885132D01*
X144890408Y-87885132D01*
X144890539Y-87886965D01*
X144894790Y-87893580D01*
X145600287Y-88599077D01*
X145642027Y-88621870D01*
X145652017Y-88624043D01*
X145702218Y-88674246D01*
X145717446Y-88727814D01*
X145717495Y-88728717D01*
X145717495Y-88732134D01*
X145724250Y-88794316D01*
X145775380Y-88930705D01*
X145862734Y-89047261D01*
X145979290Y-89134615D01*
X146115679Y-89185745D01*
X146177861Y-89192500D01*
X147874129Y-89192500D01*
X147936311Y-89185745D01*
X148072700Y-89134615D01*
X148189256Y-89047261D01*
X148276610Y-88930705D01*
X148327740Y-88794316D01*
X148334495Y-88732134D01*
X148334495Y-87035866D01*
X148327740Y-86973684D01*
X148276610Y-86837295D01*
X148189256Y-86720739D01*
X148072700Y-86633385D01*
X147936311Y-86582255D01*
X147874129Y-86575500D01*
X146177861Y-86575500D01*
X146115679Y-86582255D01*
X145979290Y-86633385D01*
X145862734Y-86720739D01*
X145775380Y-86837295D01*
X145724250Y-86973684D01*
X145717495Y-87035866D01*
X145717495Y-87039184D01*
X145693842Y-87106109D01*
X145647842Y-87141800D01*
X145648859Y-87143734D01*
X145637978Y-87149454D01*
X145637749Y-87149631D01*
X145637602Y-87149651D01*
X145599566Y-87169644D01*
X144898022Y-87871188D01*
X144890408Y-87885132D01*
X144160356Y-87885132D01*
X144161592Y-87882868D01*
X144161461Y-87881035D01*
X144157210Y-87874420D01*
X143451713Y-87168923D01*
X143439938Y-87162493D01*
X143427923Y-87171789D01*
X143392069Y-87222994D01*
X143386586Y-87232489D01*
X143294510Y-87429947D01*
X143290764Y-87440239D01*
X143234375Y-87650688D01*
X143232472Y-87661481D01*
X143213483Y-87878525D01*
X143213483Y-87889475D01*
X139008560Y-87889475D01*
X139018598Y-87761930D01*
X139018598Y-87752070D01*
X139000751Y-87525301D01*
X138999208Y-87515554D01*
X138946106Y-87294373D01*
X138943057Y-87284988D01*
X138856010Y-87074837D01*
X138851528Y-87066042D01*
X138748891Y-86898555D01*
X138738433Y-86889093D01*
X138729657Y-86892876D01*
X137878345Y-87744188D01*
X137870731Y-87758132D01*
X137140679Y-87758132D01*
X137141915Y-87755868D01*
X137141784Y-87754035D01*
X137137533Y-87747420D01*
X136286033Y-86895920D01*
X136273653Y-86889160D01*
X136266003Y-86894887D01*
X136161118Y-87066042D01*
X136156636Y-87074837D01*
X136069589Y-87284988D01*
X136066540Y-87294373D01*
X136013438Y-87515554D01*
X136011895Y-87525301D01*
X135994048Y-87752070D01*
X135994048Y-87761930D01*
X134014823Y-87761930D01*
X134014823Y-86708866D01*
X134008068Y-86646684D01*
X133962409Y-86524890D01*
X136638416Y-86524890D01*
X136642199Y-86533666D01*
X137493511Y-87384978D01*
X137507455Y-87392592D01*
X137509288Y-87392461D01*
X137515903Y-87388210D01*
X138107125Y-86796988D01*
X143804576Y-86796988D01*
X143811644Y-86810434D01*
X144513188Y-87511978D01*
X144527132Y-87519592D01*
X144528965Y-87519461D01*
X144535580Y-87515210D01*
X145241077Y-86809713D01*
X145247507Y-86797938D01*
X145238211Y-86785923D01*
X145187006Y-86750069D01*
X145177511Y-86744586D01*
X144980053Y-86652510D01*
X144969761Y-86648764D01*
X144759312Y-86592375D01*
X144748519Y-86590472D01*
X144531475Y-86571483D01*
X144520525Y-86571483D01*
X144303481Y-86590472D01*
X144292688Y-86592375D01*
X144082239Y-86648764D01*
X144071947Y-86652510D01*
X143874489Y-86744586D01*
X143864994Y-86750069D01*
X143812952Y-86786509D01*
X143804576Y-86796988D01*
X138107125Y-86796988D01*
X138367403Y-86536710D01*
X138374163Y-86524330D01*
X138368436Y-86516680D01*
X138197281Y-86411795D01*
X138188486Y-86407313D01*
X137978335Y-86320266D01*
X137968950Y-86317217D01*
X137747769Y-86264115D01*
X137738022Y-86262572D01*
X137511253Y-86244725D01*
X137501393Y-86244725D01*
X137274624Y-86262572D01*
X137264877Y-86264115D01*
X137043696Y-86317217D01*
X137034311Y-86320266D01*
X136824160Y-86407313D01*
X136815365Y-86411795D01*
X136647878Y-86514432D01*
X136638416Y-86524890D01*
X133962409Y-86524890D01*
X133956938Y-86510295D01*
X133869584Y-86393739D01*
X133753028Y-86306385D01*
X133616639Y-86255255D01*
X133554457Y-86248500D01*
X131458189Y-86248500D01*
X131396007Y-86255255D01*
X131259618Y-86306385D01*
X131143062Y-86393739D01*
X131055708Y-86510295D01*
X131004578Y-86646684D01*
X130997823Y-86708866D01*
X130997823Y-88805134D01*
X127947492Y-88805134D01*
X127938310Y-82301000D01*
X153562502Y-82301000D01*
X153582457Y-82529087D01*
X153641716Y-82750243D01*
X153644039Y-82755224D01*
X153644039Y-82755225D01*
X153736151Y-82952762D01*
X153736154Y-82952767D01*
X153738477Y-82957749D01*
X153869802Y-83145300D01*
X154031700Y-83307198D01*
X154036208Y-83310355D01*
X154036211Y-83310357D01*
X154051578Y-83321117D01*
X154219251Y-83438523D01*
X154224233Y-83440846D01*
X154224238Y-83440849D01*
X154421775Y-83532961D01*
X154426757Y-83535284D01*
X154432065Y-83536706D01*
X154432067Y-83536707D01*
X154642598Y-83593119D01*
X154642600Y-83593119D01*
X154647913Y-83594543D01*
X154876000Y-83614498D01*
X155104087Y-83594543D01*
X155109400Y-83593119D01*
X155109402Y-83593119D01*
X155319933Y-83536707D01*
X155319935Y-83536706D01*
X155325243Y-83535284D01*
X155330225Y-83532961D01*
X155527762Y-83440849D01*
X155527767Y-83440846D01*
X155532749Y-83438523D01*
X155700422Y-83321117D01*
X155715789Y-83310357D01*
X155715792Y-83310355D01*
X155720300Y-83307198D01*
X155882198Y-83145300D01*
X156013523Y-82957749D01*
X156015846Y-82952767D01*
X156015849Y-82952762D01*
X156107961Y-82755225D01*
X156107961Y-82755224D01*
X156110284Y-82750243D01*
X156169543Y-82529087D01*
X156189498Y-82301000D01*
X156169543Y-82072913D01*
X156110284Y-81851757D01*
X156107961Y-81846775D01*
X156015849Y-81649238D01*
X156015846Y-81649233D01*
X156013523Y-81644251D01*
X155882198Y-81456700D01*
X155720300Y-81294802D01*
X155715792Y-81291645D01*
X155715789Y-81291643D01*
X155538257Y-81167334D01*
X155532749Y-81163477D01*
X155527767Y-81161154D01*
X155527762Y-81161151D01*
X155493543Y-81145195D01*
X155440258Y-81098278D01*
X155420797Y-81030001D01*
X155441339Y-80962041D01*
X155493543Y-80916805D01*
X155527762Y-80900849D01*
X155527767Y-80900846D01*
X155532749Y-80898523D01*
X155713652Y-80771853D01*
X155715789Y-80770357D01*
X155715792Y-80770355D01*
X155720300Y-80767198D01*
X155882198Y-80605300D01*
X156013523Y-80417749D01*
X156015846Y-80412767D01*
X156015849Y-80412762D01*
X156107961Y-80215225D01*
X156107961Y-80215224D01*
X156110284Y-80210243D01*
X156122778Y-80163617D01*
X156168119Y-79994402D01*
X156168119Y-79994400D01*
X156169543Y-79989087D01*
X156189498Y-79761000D01*
X156169543Y-79532913D01*
X156157911Y-79489503D01*
X156111707Y-79317067D01*
X156111706Y-79317065D01*
X156110284Y-79311757D01*
X156015966Y-79109489D01*
X156015849Y-79109238D01*
X156015846Y-79109233D01*
X156013523Y-79104251D01*
X155882198Y-78916700D01*
X155720300Y-78754802D01*
X155715792Y-78751645D01*
X155715789Y-78751643D01*
X155637611Y-78696902D01*
X155532749Y-78623477D01*
X155527767Y-78621154D01*
X155527762Y-78621151D01*
X155493543Y-78605195D01*
X155440258Y-78558278D01*
X155420797Y-78490001D01*
X155441339Y-78422041D01*
X155493543Y-78376805D01*
X155527762Y-78360849D01*
X155527767Y-78360846D01*
X155532749Y-78358523D01*
X155637611Y-78285098D01*
X155715789Y-78230357D01*
X155715792Y-78230355D01*
X155720300Y-78227198D01*
X155882198Y-78065300D01*
X156013523Y-77877749D01*
X156015846Y-77872767D01*
X156015849Y-77872762D01*
X156107961Y-77675225D01*
X156107961Y-77675224D01*
X156110284Y-77670243D01*
X156169543Y-77449087D01*
X156189498Y-77221000D01*
X156169543Y-76992913D01*
X156168119Y-76987598D01*
X156111707Y-76777067D01*
X156111706Y-76777065D01*
X156110284Y-76771757D01*
X156095250Y-76739516D01*
X156015849Y-76569238D01*
X156015846Y-76569233D01*
X156013523Y-76564251D01*
X155882198Y-76376700D01*
X155720300Y-76214802D01*
X155715792Y-76211645D01*
X155715789Y-76211643D01*
X155637611Y-76156902D01*
X155532749Y-76083477D01*
X155527767Y-76081154D01*
X155527762Y-76081151D01*
X155493543Y-76065195D01*
X155440258Y-76018278D01*
X155420797Y-75950001D01*
X155441339Y-75882041D01*
X155493543Y-75836805D01*
X155527762Y-75820849D01*
X155527767Y-75820846D01*
X155532749Y-75818523D01*
X155637611Y-75745098D01*
X155715789Y-75690357D01*
X155715792Y-75690355D01*
X155720300Y-75687198D01*
X155882198Y-75525300D01*
X156013523Y-75337749D01*
X156015846Y-75332767D01*
X156015849Y-75332762D01*
X156107961Y-75135225D01*
X156107961Y-75135224D01*
X156110284Y-75130243D01*
X156111709Y-75124927D01*
X156168119Y-74914402D01*
X156168119Y-74914400D01*
X156169543Y-74909087D01*
X156189498Y-74681000D01*
X156169543Y-74452913D01*
X156117865Y-74260050D01*
X156111707Y-74237067D01*
X156111706Y-74237065D01*
X156110284Y-74231757D01*
X156107961Y-74226775D01*
X156015849Y-74029238D01*
X156015846Y-74029233D01*
X156013523Y-74024251D01*
X155882198Y-73836700D01*
X155720300Y-73674802D01*
X155715792Y-73671645D01*
X155715789Y-73671643D01*
X155637611Y-73616902D01*
X155532749Y-73543477D01*
X155527767Y-73541154D01*
X155527762Y-73541151D01*
X155493543Y-73525195D01*
X155440258Y-73478278D01*
X155420797Y-73410001D01*
X155441339Y-73342041D01*
X155493543Y-73296805D01*
X155527762Y-73280849D01*
X155527767Y-73280846D01*
X155532749Y-73278523D01*
X155637611Y-73205098D01*
X155715789Y-73150357D01*
X155715792Y-73150355D01*
X155720300Y-73147198D01*
X155882198Y-72985300D01*
X156013523Y-72797749D01*
X156015846Y-72792767D01*
X156015849Y-72792762D01*
X156107961Y-72595225D01*
X156107961Y-72595224D01*
X156110284Y-72590243D01*
X156169543Y-72369087D01*
X156189498Y-72141000D01*
X156169543Y-71912913D01*
X156147466Y-71830520D01*
X156111707Y-71697067D01*
X156111706Y-71697064D01*
X156110284Y-71691757D01*
X156107961Y-71686775D01*
X156015849Y-71489238D01*
X156015846Y-71489233D01*
X156013523Y-71484251D01*
X155882198Y-71296700D01*
X155720300Y-71134802D01*
X155715792Y-71131645D01*
X155715789Y-71131643D01*
X155637611Y-71076902D01*
X155532749Y-71003477D01*
X155527767Y-71001154D01*
X155527762Y-71001151D01*
X155493543Y-70985195D01*
X155440258Y-70938278D01*
X155420797Y-70870001D01*
X155441339Y-70802041D01*
X155493543Y-70756805D01*
X155527762Y-70740849D01*
X155527767Y-70740846D01*
X155532749Y-70738523D01*
X155637611Y-70665098D01*
X155715789Y-70610357D01*
X155715792Y-70610355D01*
X155720300Y-70607198D01*
X155882198Y-70445300D01*
X156013523Y-70257749D01*
X156015846Y-70252767D01*
X156015849Y-70252762D01*
X156107961Y-70055225D01*
X156107961Y-70055224D01*
X156110284Y-70050243D01*
X156121772Y-70007372D01*
X156168119Y-69834402D01*
X156168119Y-69834400D01*
X156169543Y-69829087D01*
X156189498Y-69601000D01*
X156169543Y-69372913D01*
X156168119Y-69367598D01*
X156111707Y-69157067D01*
X156111706Y-69157065D01*
X156110284Y-69151757D01*
X156107961Y-69146775D01*
X156015849Y-68949238D01*
X156015846Y-68949233D01*
X156013523Y-68944251D01*
X155882198Y-68756700D01*
X155720300Y-68594802D01*
X155715792Y-68591645D01*
X155715789Y-68591643D01*
X155637611Y-68536902D01*
X155532749Y-68463477D01*
X155527767Y-68461154D01*
X155527762Y-68461151D01*
X155493543Y-68445195D01*
X155440258Y-68398278D01*
X155420797Y-68330001D01*
X155441339Y-68262041D01*
X155493543Y-68216805D01*
X155527762Y-68200849D01*
X155527767Y-68200846D01*
X155532749Y-68198523D01*
X155637611Y-68125098D01*
X155715789Y-68070357D01*
X155715792Y-68070355D01*
X155720300Y-68067198D01*
X155882198Y-67905300D01*
X156013523Y-67717749D01*
X156015846Y-67712767D01*
X156015849Y-67712762D01*
X156107961Y-67515225D01*
X156107961Y-67515224D01*
X156110284Y-67510243D01*
X156160668Y-67322211D01*
X156168119Y-67294402D01*
X156168119Y-67294400D01*
X156169543Y-67289087D01*
X156189498Y-67061000D01*
X156169543Y-66832913D01*
X156150222Y-66760807D01*
X156111707Y-66617067D01*
X156111706Y-66617065D01*
X156110284Y-66611757D01*
X156107961Y-66606775D01*
X156015849Y-66409238D01*
X156015846Y-66409233D01*
X156013523Y-66404251D01*
X155882198Y-66216700D01*
X155720300Y-66054802D01*
X155715792Y-66051645D01*
X155715789Y-66051643D01*
X155637611Y-65996902D01*
X155532749Y-65923477D01*
X155527767Y-65921154D01*
X155527762Y-65921151D01*
X155330225Y-65829039D01*
X155330224Y-65829039D01*
X155325243Y-65826716D01*
X155319935Y-65825294D01*
X155319933Y-65825293D01*
X155109402Y-65768881D01*
X155109400Y-65768881D01*
X155104087Y-65767457D01*
X154876000Y-65747502D01*
X154647913Y-65767457D01*
X154642600Y-65768881D01*
X154642598Y-65768881D01*
X154432067Y-65825293D01*
X154432065Y-65825294D01*
X154426757Y-65826716D01*
X154421776Y-65829039D01*
X154421775Y-65829039D01*
X154224238Y-65921151D01*
X154224233Y-65921154D01*
X154219251Y-65923477D01*
X154114389Y-65996902D01*
X154036211Y-66051643D01*
X154036208Y-66051645D01*
X154031700Y-66054802D01*
X153869802Y-66216700D01*
X153738477Y-66404251D01*
X153736154Y-66409233D01*
X153736151Y-66409238D01*
X153644039Y-66606775D01*
X153641716Y-66611757D01*
X153640294Y-66617065D01*
X153640293Y-66617067D01*
X153601778Y-66760807D01*
X153582457Y-66832913D01*
X153562502Y-67061000D01*
X153582457Y-67289087D01*
X153583881Y-67294400D01*
X153583881Y-67294402D01*
X153591333Y-67322211D01*
X153641716Y-67510243D01*
X153644039Y-67515224D01*
X153644039Y-67515225D01*
X153736151Y-67712762D01*
X153736154Y-67712767D01*
X153738477Y-67717749D01*
X153869802Y-67905300D01*
X154031700Y-68067198D01*
X154036208Y-68070355D01*
X154036211Y-68070357D01*
X154114389Y-68125098D01*
X154219251Y-68198523D01*
X154224233Y-68200846D01*
X154224238Y-68200849D01*
X154258457Y-68216805D01*
X154311742Y-68263722D01*
X154331203Y-68331999D01*
X154310661Y-68399959D01*
X154258457Y-68445195D01*
X154224238Y-68461151D01*
X154224233Y-68461154D01*
X154219251Y-68463477D01*
X154114389Y-68536902D01*
X154036211Y-68591643D01*
X154036208Y-68591645D01*
X154031700Y-68594802D01*
X153869802Y-68756700D01*
X153738477Y-68944251D01*
X153736154Y-68949233D01*
X153736151Y-68949238D01*
X153644039Y-69146775D01*
X153641716Y-69151757D01*
X153640294Y-69157065D01*
X153640293Y-69157067D01*
X153583881Y-69367598D01*
X153582457Y-69372913D01*
X153562502Y-69601000D01*
X153582457Y-69829087D01*
X153583881Y-69834400D01*
X153583881Y-69834402D01*
X153630229Y-70007372D01*
X153641716Y-70050243D01*
X153644039Y-70055224D01*
X153644039Y-70055225D01*
X153736151Y-70252762D01*
X153736154Y-70252767D01*
X153738477Y-70257749D01*
X153869802Y-70445300D01*
X154031700Y-70607198D01*
X154036208Y-70610355D01*
X154036211Y-70610357D01*
X154114389Y-70665098D01*
X154219251Y-70738523D01*
X154224233Y-70740846D01*
X154224238Y-70740849D01*
X154258457Y-70756805D01*
X154311742Y-70803722D01*
X154331203Y-70871999D01*
X154310661Y-70939959D01*
X154258457Y-70985195D01*
X154224238Y-71001151D01*
X154224233Y-71001154D01*
X154219251Y-71003477D01*
X154114389Y-71076902D01*
X154036211Y-71131643D01*
X154036208Y-71131645D01*
X154031700Y-71134802D01*
X153869802Y-71296700D01*
X153738477Y-71484251D01*
X153736154Y-71489233D01*
X153736151Y-71489238D01*
X153644039Y-71686775D01*
X153641716Y-71691757D01*
X153640294Y-71697064D01*
X153640293Y-71697067D01*
X153604534Y-71830520D01*
X153582457Y-71912913D01*
X153562502Y-72141000D01*
X153582457Y-72369087D01*
X153641716Y-72590243D01*
X153644039Y-72595224D01*
X153644039Y-72595225D01*
X153736151Y-72792762D01*
X153736154Y-72792767D01*
X153738477Y-72797749D01*
X153869802Y-72985300D01*
X154031700Y-73147198D01*
X154036208Y-73150355D01*
X154036211Y-73150357D01*
X154114389Y-73205098D01*
X154219251Y-73278523D01*
X154224233Y-73280846D01*
X154224238Y-73280849D01*
X154258457Y-73296805D01*
X154311742Y-73343722D01*
X154331203Y-73411999D01*
X154310661Y-73479959D01*
X154258457Y-73525195D01*
X154224238Y-73541151D01*
X154224233Y-73541154D01*
X154219251Y-73543477D01*
X154114389Y-73616902D01*
X154036211Y-73671643D01*
X154036208Y-73671645D01*
X154031700Y-73674802D01*
X153869802Y-73836700D01*
X153738477Y-74024251D01*
X153736154Y-74029233D01*
X153736151Y-74029238D01*
X153644039Y-74226775D01*
X153641716Y-74231757D01*
X153640294Y-74237065D01*
X153640293Y-74237067D01*
X153634135Y-74260050D01*
X153582457Y-74452913D01*
X153562502Y-74681000D01*
X153582457Y-74909087D01*
X153583881Y-74914400D01*
X153583881Y-74914402D01*
X153640292Y-75124927D01*
X153641716Y-75130243D01*
X153644039Y-75135224D01*
X153644039Y-75135225D01*
X153736151Y-75332762D01*
X153736154Y-75332767D01*
X153738477Y-75337749D01*
X153869802Y-75525300D01*
X154031700Y-75687198D01*
X154036208Y-75690355D01*
X154036211Y-75690357D01*
X154114389Y-75745098D01*
X154219251Y-75818523D01*
X154224233Y-75820846D01*
X154224238Y-75820849D01*
X154258457Y-75836805D01*
X154311742Y-75883722D01*
X154331203Y-75951999D01*
X154310661Y-76019959D01*
X154258457Y-76065195D01*
X154224238Y-76081151D01*
X154224233Y-76081154D01*
X154219251Y-76083477D01*
X154114389Y-76156902D01*
X154036211Y-76211643D01*
X154036208Y-76211645D01*
X154031700Y-76214802D01*
X153869802Y-76376700D01*
X153738477Y-76564251D01*
X153736154Y-76569233D01*
X153736151Y-76569238D01*
X153656750Y-76739516D01*
X153641716Y-76771757D01*
X153640294Y-76777065D01*
X153640293Y-76777067D01*
X153583881Y-76987598D01*
X153582457Y-76992913D01*
X153562502Y-77221000D01*
X153582457Y-77449087D01*
X153641716Y-77670243D01*
X153644039Y-77675224D01*
X153644039Y-77675225D01*
X153736151Y-77872762D01*
X153736154Y-77872767D01*
X153738477Y-77877749D01*
X153869802Y-78065300D01*
X154031700Y-78227198D01*
X154036208Y-78230355D01*
X154036211Y-78230357D01*
X154114389Y-78285098D01*
X154219251Y-78358523D01*
X154224233Y-78360846D01*
X154224238Y-78360849D01*
X154258457Y-78376805D01*
X154311742Y-78423722D01*
X154331203Y-78491999D01*
X154310661Y-78559959D01*
X154258457Y-78605195D01*
X154224238Y-78621151D01*
X154224233Y-78621154D01*
X154219251Y-78623477D01*
X154114389Y-78696902D01*
X154036211Y-78751643D01*
X154036208Y-78751645D01*
X154031700Y-78754802D01*
X153869802Y-78916700D01*
X153738477Y-79104251D01*
X153736154Y-79109233D01*
X153736151Y-79109238D01*
X153736034Y-79109489D01*
X153641716Y-79311757D01*
X153640294Y-79317065D01*
X153640293Y-79317067D01*
X153594089Y-79489503D01*
X153582457Y-79532913D01*
X153562502Y-79761000D01*
X153582457Y-79989087D01*
X153583881Y-79994400D01*
X153583881Y-79994402D01*
X153629223Y-80163617D01*
X153641716Y-80210243D01*
X153644039Y-80215224D01*
X153644039Y-80215225D01*
X153736151Y-80412762D01*
X153736154Y-80412767D01*
X153738477Y-80417749D01*
X153869802Y-80605300D01*
X154031700Y-80767198D01*
X154036208Y-80770355D01*
X154036211Y-80770357D01*
X154038348Y-80771853D01*
X154219251Y-80898523D01*
X154224233Y-80900846D01*
X154224238Y-80900849D01*
X154258457Y-80916805D01*
X154311742Y-80963722D01*
X154331203Y-81031999D01*
X154310661Y-81099959D01*
X154258457Y-81145195D01*
X154224238Y-81161151D01*
X154224233Y-81161154D01*
X154219251Y-81163477D01*
X154213743Y-81167334D01*
X154036211Y-81291643D01*
X154036208Y-81291645D01*
X154031700Y-81294802D01*
X153869802Y-81456700D01*
X153738477Y-81644251D01*
X153736154Y-81649233D01*
X153736151Y-81649238D01*
X153644039Y-81846775D01*
X153641716Y-81851757D01*
X153582457Y-82072913D01*
X153562502Y-82301000D01*
X127938310Y-82301000D01*
X127932336Y-78069197D01*
X127910500Y-62601687D01*
X149265493Y-62601687D01*
X149274789Y-62613702D01*
X149325994Y-62649556D01*
X149335489Y-62655039D01*
X149532947Y-62747115D01*
X149543239Y-62750861D01*
X149753688Y-62807250D01*
X149764481Y-62809153D01*
X149981525Y-62828142D01*
X149992475Y-62828142D01*
X150209519Y-62809153D01*
X150220312Y-62807250D01*
X150430761Y-62750861D01*
X150441053Y-62747115D01*
X150638511Y-62655039D01*
X150648006Y-62649556D01*
X150700048Y-62613116D01*
X150708424Y-62602637D01*
X150701356Y-62589191D01*
X149999812Y-61887647D01*
X149985868Y-61880033D01*
X149984035Y-61880164D01*
X149977420Y-61884415D01*
X149271923Y-62589912D01*
X149265493Y-62601687D01*
X127910500Y-62601687D01*
X127908975Y-61521100D01*
X148674483Y-61521100D01*
X148693472Y-61738144D01*
X148695375Y-61748937D01*
X148751764Y-61959386D01*
X148755510Y-61969678D01*
X148847586Y-62167136D01*
X148853069Y-62176631D01*
X148889509Y-62228673D01*
X148899988Y-62237049D01*
X148913434Y-62229981D01*
X149614978Y-61528437D01*
X149621356Y-61516757D01*
X150351408Y-61516757D01*
X150351539Y-61518590D01*
X150355790Y-61525205D01*
X151061287Y-62230702D01*
X151073062Y-62237132D01*
X151085077Y-62227836D01*
X151120931Y-62176631D01*
X151126414Y-62167136D01*
X151218490Y-61969678D01*
X151222236Y-61959386D01*
X151278625Y-61748937D01*
X151280528Y-61738144D01*
X151299517Y-61521100D01*
X151299517Y-61510150D01*
X151280528Y-61293106D01*
X151278625Y-61282313D01*
X151222236Y-61071864D01*
X151218490Y-61061572D01*
X151126414Y-60864114D01*
X151120931Y-60854619D01*
X151084491Y-60802577D01*
X151074012Y-60794201D01*
X151060566Y-60801269D01*
X150359022Y-61502813D01*
X150351408Y-61516757D01*
X149621356Y-61516757D01*
X149622592Y-61514493D01*
X149622461Y-61512660D01*
X149618210Y-61506045D01*
X148912713Y-60800548D01*
X148900938Y-60794118D01*
X148888923Y-60803414D01*
X148853069Y-60854619D01*
X148847586Y-60864114D01*
X148755510Y-61061572D01*
X148751764Y-61071864D01*
X148695375Y-61282313D01*
X148693472Y-61293106D01*
X148674483Y-61510150D01*
X148674483Y-61521100D01*
X127908975Y-61521100D01*
X127906635Y-59863755D01*
X148678500Y-59863755D01*
X148685255Y-59925937D01*
X148736385Y-60062326D01*
X148823739Y-60178882D01*
X148940295Y-60266236D01*
X149076684Y-60317366D01*
X149120252Y-60322099D01*
X149135486Y-60323754D01*
X149135489Y-60323754D01*
X149138866Y-60324121D01*
X149142185Y-60324121D01*
X149209110Y-60347774D01*
X149244806Y-60393779D01*
X149246734Y-60392766D01*
X149252435Y-60403612D01*
X149252632Y-60403866D01*
X149252654Y-60404029D01*
X149272644Y-60442059D01*
X149974188Y-61143603D01*
X149988132Y-61151217D01*
X149989965Y-61151086D01*
X149996580Y-61146835D01*
X150702077Y-60441338D01*
X150724862Y-60399611D01*
X150727038Y-60389607D01*
X150777238Y-60339402D01*
X150830813Y-60324170D01*
X150831718Y-60324121D01*
X150835134Y-60324121D01*
X150838530Y-60323752D01*
X150838532Y-60323752D01*
X150850879Y-60322411D01*
X150897316Y-60317366D01*
X151033705Y-60266236D01*
X151150261Y-60178882D01*
X151237615Y-60062326D01*
X151288745Y-59925937D01*
X151295500Y-59863755D01*
X151295500Y-58167487D01*
X151288745Y-58105305D01*
X151237615Y-57968916D01*
X151150261Y-57852360D01*
X151047957Y-57775687D01*
X156377493Y-57775687D01*
X156386789Y-57787702D01*
X156437994Y-57823556D01*
X156447489Y-57829039D01*
X156644947Y-57921115D01*
X156655239Y-57924861D01*
X156865688Y-57981250D01*
X156876481Y-57983153D01*
X157093525Y-58002142D01*
X157104475Y-58002142D01*
X157321519Y-57983153D01*
X157332312Y-57981250D01*
X157542761Y-57924861D01*
X157553053Y-57921115D01*
X157750511Y-57829039D01*
X157760006Y-57823556D01*
X157812048Y-57787116D01*
X157820424Y-57776637D01*
X157813356Y-57763191D01*
X157111812Y-57061647D01*
X157097868Y-57054033D01*
X157096035Y-57054164D01*
X157089420Y-57058415D01*
X156383923Y-57763912D01*
X156377493Y-57775687D01*
X151047957Y-57775687D01*
X151033705Y-57765006D01*
X150897316Y-57713876D01*
X150835134Y-57707121D01*
X149138866Y-57707121D01*
X149076684Y-57713876D01*
X148940295Y-57765006D01*
X148823739Y-57852360D01*
X148736385Y-57968916D01*
X148685255Y-58105305D01*
X148678500Y-58167487D01*
X148678500Y-59863755D01*
X127906635Y-59863755D01*
X127902958Y-57258773D01*
X131924094Y-57258773D01*
X131924294Y-57264102D01*
X131924294Y-57264104D01*
X131928419Y-57373965D01*
X131932743Y-57489157D01*
X131980085Y-57714790D01*
X131982043Y-57719749D01*
X131982044Y-57719751D01*
X132047388Y-57885210D01*
X132064768Y-57929220D01*
X132067535Y-57933779D01*
X132067536Y-57933782D01*
X132097495Y-57983153D01*
X132184369Y-58126316D01*
X132187866Y-58130346D01*
X132330445Y-58294654D01*
X132335469Y-58300444D01*
X132364906Y-58324581D01*
X132509619Y-58443239D01*
X132509625Y-58443243D01*
X132513747Y-58446623D01*
X132518383Y-58449262D01*
X132518386Y-58449264D01*
X132570683Y-58479033D01*
X132714106Y-58560674D01*
X132930817Y-58639336D01*
X132936066Y-58640285D01*
X132936069Y-58640286D01*
X133153600Y-58679622D01*
X133153607Y-58679623D01*
X133157684Y-58680360D01*
X133175406Y-58681196D01*
X133180348Y-58681429D01*
X133180355Y-58681429D01*
X133181836Y-58681499D01*
X133343882Y-58681499D01*
X133410801Y-58675821D01*
X133510401Y-58667370D01*
X133510405Y-58667369D01*
X133515712Y-58666919D01*
X133520867Y-58665581D01*
X133520873Y-58665580D01*
X133733695Y-58610342D01*
X133733699Y-58610341D01*
X133738864Y-58609000D01*
X133743730Y-58606808D01*
X133743733Y-58606807D01*
X133944194Y-58516506D01*
X133949067Y-58514311D01*
X134140311Y-58385558D01*
X134307127Y-58226423D01*
X134444746Y-58041457D01*
X134549232Y-57835948D01*
X134551378Y-57829039D01*
X134616016Y-57620870D01*
X134617599Y-57615772D01*
X134618300Y-57610483D01*
X134642872Y-57425088D01*
X136326058Y-57425088D01*
X136362335Y-57662162D01*
X136436846Y-57890128D01*
X136480576Y-57974132D01*
X136545009Y-58097906D01*
X136547589Y-58102863D01*
X136550692Y-58106996D01*
X136550694Y-58106999D01*
X136643123Y-58230102D01*
X136691590Y-58294654D01*
X136864982Y-58460351D01*
X136869254Y-58463265D01*
X136869255Y-58463266D01*
X136944084Y-58514311D01*
X137063109Y-58595504D01*
X137280648Y-58696483D01*
X137511760Y-58760575D01*
X137615471Y-58771659D01*
X137704214Y-58781143D01*
X137704222Y-58781143D01*
X137707549Y-58781499D01*
X137846795Y-58781499D01*
X137849368Y-58781287D01*
X137849379Y-58781287D01*
X138019868Y-58767270D01*
X138019874Y-58767269D01*
X138025019Y-58766846D01*
X138141324Y-58737632D01*
X138252617Y-58709678D01*
X138252621Y-58709677D01*
X138257628Y-58708419D01*
X138262358Y-58706363D01*
X138262365Y-58706360D01*
X138472833Y-58614846D01*
X138472836Y-58614844D01*
X138477570Y-58612786D01*
X138481904Y-58609982D01*
X138481908Y-58609980D01*
X138674596Y-58485324D01*
X138674599Y-58485322D01*
X138678939Y-58482514D01*
X138700093Y-58463266D01*
X138852505Y-58324581D01*
X138852506Y-58324579D01*
X138856327Y-58321103D01*
X138859526Y-58317052D01*
X138859530Y-58317048D01*
X139001766Y-58136945D01*
X139004971Y-58132887D01*
X139120879Y-57922921D01*
X139192825Y-57719751D01*
X139199211Y-57701719D01*
X139199212Y-57701715D01*
X139200937Y-57696844D01*
X139201845Y-57691748D01*
X139242090Y-57465815D01*
X139242091Y-57465809D01*
X139242996Y-57460726D01*
X139245398Y-57264104D01*
X139245863Y-57226080D01*
X139245863Y-57226078D01*
X139245926Y-57220910D01*
X139209649Y-56983836D01*
X139135138Y-56755870D01*
X139103503Y-56695100D01*
X155786483Y-56695100D01*
X155805472Y-56912144D01*
X155807375Y-56922937D01*
X155863764Y-57133386D01*
X155867510Y-57143678D01*
X155959586Y-57341136D01*
X155965069Y-57350631D01*
X156001509Y-57402673D01*
X156011988Y-57411049D01*
X156025434Y-57403981D01*
X156726978Y-56702437D01*
X156733356Y-56690757D01*
X157463408Y-56690757D01*
X157463539Y-56692590D01*
X157467790Y-56699205D01*
X158173287Y-57404702D01*
X158185062Y-57411132D01*
X158197077Y-57401836D01*
X158232931Y-57350631D01*
X158238414Y-57341136D01*
X158330490Y-57143678D01*
X158334236Y-57133386D01*
X158390625Y-56922937D01*
X158392528Y-56912144D01*
X158411517Y-56695100D01*
X158411517Y-56684150D01*
X158392528Y-56467106D01*
X158390625Y-56456313D01*
X158334236Y-56245864D01*
X158330490Y-56235572D01*
X158238414Y-56038114D01*
X158232931Y-56028619D01*
X158196491Y-55976577D01*
X158186012Y-55968201D01*
X158172566Y-55975269D01*
X157471022Y-56676813D01*
X157463408Y-56690757D01*
X156733356Y-56690757D01*
X156734592Y-56688493D01*
X156734461Y-56686660D01*
X156730210Y-56680045D01*
X156024713Y-55974548D01*
X156012938Y-55968118D01*
X156000923Y-55977414D01*
X155965069Y-56028619D01*
X155959586Y-56038114D01*
X155867510Y-56235572D01*
X155863764Y-56245864D01*
X155807375Y-56456313D01*
X155805472Y-56467106D01*
X155786483Y-56684150D01*
X155786483Y-56695100D01*
X139103503Y-56695100D01*
X139024395Y-56543135D01*
X139003761Y-56515652D01*
X138883499Y-56355479D01*
X138883497Y-56355476D01*
X138880394Y-56351344D01*
X138782150Y-56257460D01*
X138710739Y-56189218D01*
X138710738Y-56189217D01*
X138707002Y-56185647D01*
X138632276Y-56134672D01*
X138513154Y-56053413D01*
X138513155Y-56053413D01*
X138508875Y-56050494D01*
X138331591Y-55968201D01*
X138296022Y-55951690D01*
X138296020Y-55951689D01*
X138291336Y-55949515D01*
X138060224Y-55885423D01*
X137956513Y-55874339D01*
X137867770Y-55864855D01*
X137867762Y-55864855D01*
X137864435Y-55864499D01*
X137725189Y-55864499D01*
X137722616Y-55864711D01*
X137722605Y-55864711D01*
X137552116Y-55878728D01*
X137552110Y-55878729D01*
X137546965Y-55879152D01*
X137430661Y-55908365D01*
X137319367Y-55936320D01*
X137319363Y-55936321D01*
X137314356Y-55937579D01*
X137309626Y-55939635D01*
X137309619Y-55939638D01*
X137099151Y-56031152D01*
X137099148Y-56031154D01*
X137094414Y-56033212D01*
X137090080Y-56036016D01*
X137090076Y-56036018D01*
X136897388Y-56160674D01*
X136897385Y-56160676D01*
X136893045Y-56163484D01*
X136889222Y-56166963D01*
X136889219Y-56166965D01*
X136723671Y-56317603D01*
X136715657Y-56324895D01*
X136712458Y-56328946D01*
X136712454Y-56328950D01*
X136691503Y-56355479D01*
X136567013Y-56513111D01*
X136451105Y-56723077D01*
X136371047Y-56949154D01*
X136370140Y-56954247D01*
X136370139Y-56954250D01*
X136333103Y-57162172D01*
X136328988Y-57185272D01*
X136328925Y-57190436D01*
X136326229Y-57411132D01*
X136326058Y-57425088D01*
X134642872Y-57425088D01*
X134647190Y-57392510D01*
X134647190Y-57392505D01*
X134647890Y-57387225D01*
X134639241Y-57156841D01*
X134591899Y-56931208D01*
X134542173Y-56805295D01*
X134509177Y-56721743D01*
X134509176Y-56721741D01*
X134507216Y-56716778D01*
X134496553Y-56699205D01*
X134390382Y-56524242D01*
X134387615Y-56519682D01*
X134341992Y-56467106D01*
X134240015Y-56349587D01*
X134240013Y-56349585D01*
X134236515Y-56345554D01*
X134194962Y-56311483D01*
X134062365Y-56202759D01*
X134062359Y-56202755D01*
X134058237Y-56199375D01*
X134053601Y-56196736D01*
X134053598Y-56196734D01*
X133862521Y-56087967D01*
X133857878Y-56085324D01*
X133641167Y-56006662D01*
X133635918Y-56005713D01*
X133635915Y-56005712D01*
X133418384Y-55966376D01*
X133418377Y-55966375D01*
X133414300Y-55965638D01*
X133396578Y-55964802D01*
X133391636Y-55964569D01*
X133391629Y-55964569D01*
X133390148Y-55964499D01*
X133228102Y-55964499D01*
X133161183Y-55970177D01*
X133061583Y-55978628D01*
X133061579Y-55978629D01*
X133056272Y-55979079D01*
X133051117Y-55980417D01*
X133051111Y-55980418D01*
X132838289Y-56035656D01*
X132838285Y-56035657D01*
X132833120Y-56036998D01*
X132828254Y-56039190D01*
X132828251Y-56039191D01*
X132719972Y-56087967D01*
X132622917Y-56131687D01*
X132431673Y-56260440D01*
X132264857Y-56419575D01*
X132127238Y-56604541D01*
X132124822Y-56609292D01*
X132124820Y-56609296D01*
X132079108Y-56699205D01*
X132022752Y-56810050D01*
X132021170Y-56815144D01*
X132021169Y-56815147D01*
X131981072Y-56944279D01*
X131954385Y-57030226D01*
X131953684Y-57035515D01*
X131933836Y-57185272D01*
X131924094Y-57258773D01*
X127902958Y-57258773D01*
X127899823Y-55037755D01*
X155790500Y-55037755D01*
X155797255Y-55099937D01*
X155848385Y-55236326D01*
X155935739Y-55352882D01*
X156052295Y-55440236D01*
X156188684Y-55491366D01*
X156232252Y-55496099D01*
X156247486Y-55497754D01*
X156247489Y-55497754D01*
X156250866Y-55498121D01*
X156254185Y-55498121D01*
X156321110Y-55521774D01*
X156356806Y-55567779D01*
X156358734Y-55566766D01*
X156364435Y-55577612D01*
X156364632Y-55577866D01*
X156364654Y-55578029D01*
X156384644Y-55616059D01*
X157086188Y-56317603D01*
X157100132Y-56325217D01*
X157101965Y-56325086D01*
X157108580Y-56320835D01*
X157814077Y-55615338D01*
X157836862Y-55573611D01*
X157839038Y-55563607D01*
X157889238Y-55513402D01*
X157942813Y-55498170D01*
X157943718Y-55498121D01*
X157947134Y-55498121D01*
X157950530Y-55497752D01*
X157950532Y-55497752D01*
X157962879Y-55496411D01*
X158009316Y-55491366D01*
X158145705Y-55440236D01*
X158262261Y-55352882D01*
X158349615Y-55236326D01*
X158400745Y-55099937D01*
X158407500Y-55037755D01*
X158407500Y-53341487D01*
X158400745Y-53279305D01*
X158349615Y-53142916D01*
X158262261Y-53026360D01*
X158145705Y-52939006D01*
X158009316Y-52887876D01*
X157947134Y-52881121D01*
X156250866Y-52881121D01*
X156188684Y-52887876D01*
X156052295Y-52939006D01*
X155935739Y-53026360D01*
X155848385Y-53142916D01*
X155797255Y-53279305D01*
X155790500Y-53341487D01*
X155790500Y-55037755D01*
X127899823Y-55037755D01*
X127892343Y-49739255D01*
X152468658Y-49739255D01*
X152503904Y-49998238D01*
X152505212Y-50002724D01*
X152505212Y-50002726D01*
X152524898Y-50070264D01*
X152577043Y-50249167D01*
X152686468Y-50486528D01*
X152689031Y-50490437D01*
X152827210Y-50701196D01*
X152827214Y-50701201D01*
X152829776Y-50705109D01*
X153003818Y-50900106D01*
X153204770Y-51067237D01*
X153208773Y-51069666D01*
X153424222Y-51200404D01*
X153424226Y-51200406D01*
X153428219Y-51202829D01*
X153669255Y-51303903D01*
X153922583Y-51368241D01*
X153927234Y-51368709D01*
X153927238Y-51368710D01*
X154120108Y-51388131D01*
X154139667Y-51390100D01*
X154295154Y-51390100D01*
X154297479Y-51389927D01*
X154297485Y-51389927D01*
X154484800Y-51376007D01*
X154484804Y-51376006D01*
X154489452Y-51375661D01*
X154494000Y-51374632D01*
X154494006Y-51374631D01*
X154680401Y-51332453D01*
X154744377Y-51317977D01*
X154780569Y-51303903D01*
X154983624Y-51224940D01*
X154983627Y-51224939D01*
X154987977Y-51223247D01*
X155214898Y-51093551D01*
X155420157Y-50931738D01*
X155599243Y-50741363D01*
X155748224Y-50526609D01*
X155863825Y-50292193D01*
X155943507Y-50043265D01*
X155985521Y-49785293D01*
X155988942Y-49523945D01*
X155953696Y-49264962D01*
X155939273Y-49215477D01*
X155881868Y-49018532D01*
X155880557Y-49014033D01*
X155771132Y-48776672D01*
X155738319Y-48726624D01*
X155630390Y-48562004D01*
X155630386Y-48561999D01*
X155627824Y-48558091D01*
X155453782Y-48363094D01*
X155252830Y-48195963D01*
X155205644Y-48167330D01*
X155033378Y-48062796D01*
X155033374Y-48062794D01*
X155029381Y-48060371D01*
X154788345Y-47959297D01*
X154535017Y-47894959D01*
X154530366Y-47894491D01*
X154530362Y-47894490D01*
X154321071Y-47873416D01*
X154317933Y-47873100D01*
X154162446Y-47873100D01*
X154160121Y-47873273D01*
X154160115Y-47873273D01*
X153972800Y-47887193D01*
X153972796Y-47887194D01*
X153968148Y-47887539D01*
X153963600Y-47888568D01*
X153963594Y-47888569D01*
X153777199Y-47930747D01*
X153713223Y-47945223D01*
X153708871Y-47946915D01*
X153708869Y-47946916D01*
X153473976Y-48038260D01*
X153473973Y-48038261D01*
X153469623Y-48039953D01*
X153242702Y-48169649D01*
X153037443Y-48331462D01*
X152858357Y-48521837D01*
X152709376Y-48736591D01*
X152593775Y-48971007D01*
X152514093Y-49219935D01*
X152472079Y-49477907D01*
X152468658Y-49739255D01*
X127892343Y-49739255D01*
X127890508Y-48439221D01*
X127910414Y-48371072D01*
X127927324Y-48350036D01*
X128868110Y-47407378D01*
X128930388Y-47373291D01*
X128957221Y-47370385D01*
X130269495Y-47369629D01*
X164066742Y-47350173D01*
X164024615Y-61299562D01*
G37*
%TD.AperFunction*%
%TD*%
%TA.AperFunction,Conductor*%
%TO.N,GND*%
G36*
X200657204Y-47264002D02*
G01*
X200703697Y-47317658D01*
X200715083Y-47369968D01*
X200718296Y-60110265D01*
X200698311Y-60178391D01*
X200644667Y-60224897D01*
X200592460Y-60236297D01*
X177518494Y-60266126D01*
X177450349Y-60246213D01*
X177403787Y-60192617D01*
X177393592Y-60122357D01*
X177409214Y-60077127D01*
X177488223Y-59940279D01*
X177488224Y-59940278D01*
X177491527Y-59934556D01*
X177550542Y-59752928D01*
X177570504Y-59563000D01*
X177550542Y-59373072D01*
X177491527Y-59191444D01*
X177396040Y-59026056D01*
X177268253Y-58884134D01*
X177113752Y-58771882D01*
X177107724Y-58769198D01*
X177107722Y-58769197D01*
X177009816Y-58725607D01*
X176955721Y-58679627D01*
X176935071Y-58611700D01*
X176954423Y-58543392D01*
X177009816Y-58495393D01*
X177107722Y-58451803D01*
X177107724Y-58451802D01*
X177113752Y-58449118D01*
X177268253Y-58336866D01*
X177396040Y-58194944D01*
X177491527Y-58029556D01*
X177550542Y-57847928D01*
X177565303Y-57707490D01*
X177569814Y-57664565D01*
X177570504Y-57658000D01*
X177550542Y-57468072D01*
X177491527Y-57286444D01*
X177396040Y-57121056D01*
X177268253Y-56979134D01*
X177113752Y-56866882D01*
X177107724Y-56864198D01*
X177107722Y-56864197D01*
X177009816Y-56820607D01*
X176955721Y-56774627D01*
X176935071Y-56706700D01*
X176954423Y-56638392D01*
X177009816Y-56590393D01*
X177107722Y-56546803D01*
X177107724Y-56546802D01*
X177113752Y-56544118D01*
X177268253Y-56431866D01*
X177396040Y-56289944D01*
X177491527Y-56124556D01*
X177550542Y-55942928D01*
X177570504Y-55753000D01*
X177550542Y-55563072D01*
X177491527Y-55381444D01*
X177478144Y-55358263D01*
X177473451Y-55350134D01*
X185714285Y-55350134D01*
X185721040Y-55412316D01*
X185772170Y-55548705D01*
X185859524Y-55665261D01*
X185976080Y-55752615D01*
X186112469Y-55803745D01*
X186174651Y-55810500D01*
X188670919Y-55810500D01*
X188733101Y-55803745D01*
X188869490Y-55752615D01*
X188986046Y-55665261D01*
X189073400Y-55548705D01*
X189100896Y-55475359D01*
X191414171Y-55475359D01*
X191422884Y-55486879D01*
X191511371Y-55551760D01*
X191519290Y-55556708D01*
X191735662Y-55670547D01*
X191744236Y-55674275D01*
X191975067Y-55754885D01*
X191984076Y-55757299D01*
X192224303Y-55802908D01*
X192233560Y-55803962D01*
X192477892Y-55813563D01*
X192487205Y-55813237D01*
X192730263Y-55786618D01*
X192739440Y-55784917D01*
X192975892Y-55722665D01*
X192984711Y-55719628D01*
X193209369Y-55623107D01*
X193217641Y-55618800D01*
X193425562Y-55490135D01*
X193427405Y-55488796D01*
X193434823Y-55477541D01*
X193428759Y-55467184D01*
X192435597Y-54474022D01*
X192421653Y-54466408D01*
X192419820Y-54466539D01*
X192413205Y-54470790D01*
X191420829Y-55463166D01*
X191414171Y-55475359D01*
X189100896Y-55475359D01*
X189124530Y-55412316D01*
X189131285Y-55350134D01*
X189131285Y-54061835D01*
X190710807Y-54061835D01*
X190722539Y-54306064D01*
X190723676Y-54315324D01*
X190771378Y-54555143D01*
X190773867Y-54564118D01*
X190856493Y-54794250D01*
X190860290Y-54802778D01*
X190976019Y-55018160D01*
X190981030Y-55026027D01*
X191037958Y-55102263D01*
X191049216Y-55110712D01*
X191061635Y-55103940D01*
X192050763Y-54114812D01*
X192057141Y-54103132D01*
X192787193Y-54103132D01*
X192787324Y-54104965D01*
X192791575Y-54111580D01*
X193786517Y-55106522D01*
X193798897Y-55113282D01*
X193807238Y-55107038D01*
X193925485Y-54923202D01*
X193929932Y-54915011D01*
X194030357Y-54692076D01*
X194033552Y-54683298D01*
X194099920Y-54447973D01*
X194101778Y-54438844D01*
X194132829Y-54194770D01*
X194133310Y-54188483D01*
X194135491Y-54105160D01*
X194135340Y-54098851D01*
X194117106Y-53853486D01*
X194115729Y-53844280D01*
X194061764Y-53605786D01*
X194059040Y-53596875D01*
X193970418Y-53368983D01*
X193966404Y-53360567D01*
X193845069Y-53148276D01*
X193839859Y-53140553D01*
X193808572Y-53100865D01*
X193796648Y-53092395D01*
X193785113Y-53098882D01*
X192794807Y-54089188D01*
X192787193Y-54103132D01*
X192057141Y-54103132D01*
X192058377Y-54100868D01*
X192058246Y-54099035D01*
X192053995Y-54092420D01*
X191059613Y-53098038D01*
X191046305Y-53090771D01*
X191036266Y-53097893D01*
X191031366Y-53103784D01*
X191025953Y-53111373D01*
X190899107Y-53320409D01*
X190894869Y-53328726D01*
X190800314Y-53554214D01*
X190797357Y-53563052D01*
X190737169Y-53800042D01*
X190735548Y-53809232D01*
X190711052Y-54052510D01*
X190710807Y-54061835D01*
X189131285Y-54061835D01*
X189131285Y-52853866D01*
X189124530Y-52791684D01*
X189100250Y-52726917D01*
X191412115Y-52726917D01*
X191416688Y-52736693D01*
X192409973Y-53729978D01*
X192423917Y-53737592D01*
X192425750Y-53737461D01*
X192432365Y-53733210D01*
X193425273Y-52740302D01*
X193431657Y-52728612D01*
X193422245Y-52716502D01*
X193295929Y-52628873D01*
X193287901Y-52624145D01*
X193068595Y-52515995D01*
X193059962Y-52512507D01*
X192827073Y-52437958D01*
X192818023Y-52435785D01*
X192576676Y-52396480D01*
X192567387Y-52395668D01*
X192322899Y-52392467D01*
X192313588Y-52393037D01*
X192071307Y-52426010D01*
X192062188Y-52427948D01*
X191827453Y-52496367D01*
X191818700Y-52499639D01*
X191596654Y-52602004D01*
X191588499Y-52606524D01*
X191421253Y-52716175D01*
X191412115Y-52726917D01*
X189100250Y-52726917D01*
X189073400Y-52655295D01*
X188986046Y-52538739D01*
X188869490Y-52451385D01*
X188733101Y-52400255D01*
X188670919Y-52393500D01*
X186174651Y-52393500D01*
X186112469Y-52400255D01*
X185976080Y-52451385D01*
X185859524Y-52538739D01*
X185772170Y-52655295D01*
X185721040Y-52791684D01*
X185714285Y-52853866D01*
X185714285Y-55350134D01*
X177473451Y-55350134D01*
X177407743Y-55236326D01*
X177396040Y-55216056D01*
X177295091Y-55103940D01*
X177272675Y-55079045D01*
X177272674Y-55079044D01*
X177268253Y-55074134D01*
X177113752Y-54961882D01*
X177107724Y-54959198D01*
X177107722Y-54959197D01*
X177009816Y-54915607D01*
X176955721Y-54869627D01*
X176935071Y-54801700D01*
X176954423Y-54733392D01*
X177009816Y-54685393D01*
X177107722Y-54641803D01*
X177107724Y-54641802D01*
X177113752Y-54639118D01*
X177268253Y-54526866D01*
X177322690Y-54466408D01*
X177391621Y-54389852D01*
X177391622Y-54389851D01*
X177396040Y-54384944D01*
X177491527Y-54219556D01*
X177550542Y-54037928D01*
X177570504Y-53848000D01*
X177566429Y-53809232D01*
X177551232Y-53664635D01*
X177551232Y-53664633D01*
X177550542Y-53658072D01*
X177491527Y-53476444D01*
X177396040Y-53311056D01*
X177268253Y-53169134D01*
X177119332Y-53060936D01*
X177075978Y-53004713D01*
X177069903Y-52933977D01*
X177103035Y-52871186D01*
X177119332Y-52857064D01*
X177154204Y-52831728D01*
X177268253Y-52748866D01*
X177396040Y-52606944D01*
X177491527Y-52441556D01*
X177550542Y-52259928D01*
X177570504Y-52070000D01*
X177550542Y-51880072D01*
X177491527Y-51698444D01*
X177396040Y-51533056D01*
X177268253Y-51391134D01*
X177113752Y-51278882D01*
X177107724Y-51276198D01*
X177107722Y-51276197D01*
X176945319Y-51203891D01*
X176945318Y-51203891D01*
X176939288Y-51201206D01*
X176845888Y-51181353D01*
X176758944Y-51162872D01*
X176758939Y-51162872D01*
X176752487Y-51161500D01*
X176561513Y-51161500D01*
X176555061Y-51162872D01*
X176555056Y-51162872D01*
X176468112Y-51181353D01*
X176374712Y-51201206D01*
X176368682Y-51203891D01*
X176368681Y-51203891D01*
X176206278Y-51276197D01*
X176206276Y-51276198D01*
X176200248Y-51278882D01*
X176045747Y-51391134D01*
X175917960Y-51533056D01*
X175822473Y-51698444D01*
X175763458Y-51880072D01*
X175743496Y-52070000D01*
X175763458Y-52259928D01*
X175822473Y-52441556D01*
X175917960Y-52606944D01*
X176045747Y-52748866D01*
X176159796Y-52831728D01*
X176194668Y-52857064D01*
X176238022Y-52913287D01*
X176244097Y-52984023D01*
X176210965Y-53046814D01*
X176194668Y-53060936D01*
X176045747Y-53169134D01*
X175917960Y-53311056D01*
X175822473Y-53476444D01*
X175763458Y-53658072D01*
X175762768Y-53664633D01*
X175762768Y-53664635D01*
X175747571Y-53809232D01*
X175743496Y-53848000D01*
X175763458Y-54037928D01*
X175822473Y-54219556D01*
X175917960Y-54384944D01*
X175922378Y-54389851D01*
X175922379Y-54389852D01*
X175991310Y-54466408D01*
X176045747Y-54526866D01*
X176200248Y-54639118D01*
X176206276Y-54641802D01*
X176206278Y-54641803D01*
X176304184Y-54685393D01*
X176358279Y-54731373D01*
X176378929Y-54799300D01*
X176359577Y-54867608D01*
X176304184Y-54915607D01*
X176206278Y-54959197D01*
X176206276Y-54959198D01*
X176200248Y-54961882D01*
X176045747Y-55074134D01*
X176041326Y-55079044D01*
X176041325Y-55079045D01*
X176018910Y-55103940D01*
X175917960Y-55216056D01*
X175906257Y-55236326D01*
X175835857Y-55358263D01*
X175822473Y-55381444D01*
X175763458Y-55563072D01*
X175743496Y-55753000D01*
X175763458Y-55942928D01*
X175822473Y-56124556D01*
X175917960Y-56289944D01*
X176045747Y-56431866D01*
X176200248Y-56544118D01*
X176206276Y-56546802D01*
X176206278Y-56546803D01*
X176304184Y-56590393D01*
X176358279Y-56636373D01*
X176378929Y-56704300D01*
X176359577Y-56772608D01*
X176304184Y-56820607D01*
X176206278Y-56864197D01*
X176206276Y-56864198D01*
X176200248Y-56866882D01*
X176045747Y-56979134D01*
X175917960Y-57121056D01*
X175822473Y-57286444D01*
X175763458Y-57468072D01*
X175743496Y-57658000D01*
X175744186Y-57664565D01*
X175748698Y-57707490D01*
X175763458Y-57847928D01*
X175822473Y-58029556D01*
X175917960Y-58194944D01*
X176045747Y-58336866D01*
X176200248Y-58449118D01*
X176206276Y-58451802D01*
X176206278Y-58451803D01*
X176304184Y-58495393D01*
X176358279Y-58541373D01*
X176378929Y-58609300D01*
X176359577Y-58677608D01*
X176304184Y-58725607D01*
X176206278Y-58769197D01*
X176206276Y-58769198D01*
X176200248Y-58771882D01*
X176045747Y-58884134D01*
X175917960Y-59026056D01*
X175822473Y-59191444D01*
X175763458Y-59373072D01*
X175743496Y-59563000D01*
X175763458Y-59752928D01*
X175822473Y-59934556D01*
X175825776Y-59940278D01*
X175825777Y-59940279D01*
X175906071Y-60079352D01*
X175922809Y-60148347D01*
X175899589Y-60215439D01*
X175843781Y-60259326D01*
X175797117Y-60268352D01*
X150942351Y-60300483D01*
X151033705Y-60266236D01*
X151150261Y-60178882D01*
X151237615Y-60062326D01*
X151288745Y-59925937D01*
X151295500Y-59863755D01*
X151295500Y-58167487D01*
X151288745Y-58105305D01*
X151237615Y-57968916D01*
X151150261Y-57852360D01*
X151047957Y-57775687D01*
X156377493Y-57775687D01*
X156386789Y-57787702D01*
X156437994Y-57823556D01*
X156447489Y-57829039D01*
X156644947Y-57921115D01*
X156655239Y-57924861D01*
X156865688Y-57981250D01*
X156876481Y-57983153D01*
X157093525Y-58002142D01*
X157104475Y-58002142D01*
X157321519Y-57983153D01*
X157332312Y-57981250D01*
X157542761Y-57924861D01*
X157553053Y-57921115D01*
X157750511Y-57829039D01*
X157760006Y-57823556D01*
X157812048Y-57787116D01*
X157820424Y-57776637D01*
X157813356Y-57763191D01*
X157111812Y-57061647D01*
X157097868Y-57054033D01*
X157096035Y-57054164D01*
X157089420Y-57058415D01*
X156383923Y-57763912D01*
X156377493Y-57775687D01*
X151047957Y-57775687D01*
X151033705Y-57765006D01*
X150897316Y-57713876D01*
X150835134Y-57707121D01*
X149138866Y-57707121D01*
X149076684Y-57713876D01*
X148940295Y-57765006D01*
X148823739Y-57852360D01*
X148736385Y-57968916D01*
X148685255Y-58105305D01*
X148678500Y-58167487D01*
X148678500Y-59863755D01*
X148685255Y-59925937D01*
X148736385Y-60062326D01*
X148823739Y-60178882D01*
X148940295Y-60266236D01*
X148948703Y-60269388D01*
X149038216Y-60302945D01*
X143932932Y-60309545D01*
X143935753Y-56695100D01*
X155786483Y-56695100D01*
X155805472Y-56912144D01*
X155807375Y-56922937D01*
X155863764Y-57133386D01*
X155867510Y-57143678D01*
X155959586Y-57341136D01*
X155965069Y-57350631D01*
X156001509Y-57402673D01*
X156011988Y-57411049D01*
X156025434Y-57403981D01*
X156726978Y-56702437D01*
X156733356Y-56690757D01*
X157463408Y-56690757D01*
X157463539Y-56692590D01*
X157467790Y-56699205D01*
X158173287Y-57404702D01*
X158185062Y-57411132D01*
X158197077Y-57401836D01*
X158232931Y-57350631D01*
X158238414Y-57341136D01*
X158330490Y-57143678D01*
X158334236Y-57133386D01*
X158390625Y-56922937D01*
X158392528Y-56912144D01*
X158411517Y-56695100D01*
X158411517Y-56684150D01*
X158392528Y-56467106D01*
X158390625Y-56456313D01*
X158334236Y-56245864D01*
X158330490Y-56235572D01*
X158238414Y-56038114D01*
X158232931Y-56028619D01*
X158196491Y-55976577D01*
X158186012Y-55968201D01*
X158172566Y-55975269D01*
X157471022Y-56676813D01*
X157463408Y-56690757D01*
X156733356Y-56690757D01*
X156734592Y-56688493D01*
X156734461Y-56686660D01*
X156730210Y-56680045D01*
X156024713Y-55974548D01*
X156012938Y-55968118D01*
X156000923Y-55977414D01*
X155965069Y-56028619D01*
X155959586Y-56038114D01*
X155867510Y-56235572D01*
X155863764Y-56245864D01*
X155807375Y-56456313D01*
X155805472Y-56467106D01*
X155786483Y-56684150D01*
X155786483Y-56695100D01*
X143935753Y-56695100D01*
X143936875Y-55257624D01*
X144018000Y-55245000D01*
X144021238Y-55037755D01*
X155790500Y-55037755D01*
X155797255Y-55099937D01*
X155848385Y-55236326D01*
X155935739Y-55352882D01*
X156052295Y-55440236D01*
X156188684Y-55491366D01*
X156232252Y-55496099D01*
X156247486Y-55497754D01*
X156247489Y-55497754D01*
X156250866Y-55498121D01*
X156254185Y-55498121D01*
X156321110Y-55521774D01*
X156356806Y-55567779D01*
X156358734Y-55566766D01*
X156364435Y-55577612D01*
X156364632Y-55577866D01*
X156364654Y-55578029D01*
X156384644Y-55616059D01*
X157086188Y-56317603D01*
X157100132Y-56325217D01*
X157101965Y-56325086D01*
X157108580Y-56320835D01*
X157814077Y-55615338D01*
X157836862Y-55573611D01*
X157839038Y-55563607D01*
X157889238Y-55513402D01*
X157942813Y-55498170D01*
X157943718Y-55498121D01*
X157947134Y-55498121D01*
X157950530Y-55497752D01*
X157950532Y-55497752D01*
X157962879Y-55496411D01*
X158009316Y-55491366D01*
X158145705Y-55440236D01*
X158262261Y-55352882D01*
X158349615Y-55236326D01*
X158400745Y-55099937D01*
X158407500Y-55037755D01*
X158407500Y-53341487D01*
X158400745Y-53279305D01*
X158349615Y-53142916D01*
X158262261Y-53026360D01*
X158145705Y-52939006D01*
X158009316Y-52887876D01*
X157947134Y-52881121D01*
X156250866Y-52881121D01*
X156188684Y-52887876D01*
X156052295Y-52939006D01*
X155935739Y-53026360D01*
X155848385Y-53142916D01*
X155797255Y-53279305D01*
X155790500Y-53341487D01*
X155790500Y-55037755D01*
X144021238Y-55037755D01*
X144104027Y-49739255D01*
X152468658Y-49739255D01*
X152503904Y-49998238D01*
X152505212Y-50002724D01*
X152505212Y-50002726D01*
X152524898Y-50070264D01*
X152577043Y-50249167D01*
X152686468Y-50486528D01*
X152689031Y-50490437D01*
X152827210Y-50701196D01*
X152827214Y-50701201D01*
X152829776Y-50705109D01*
X153003818Y-50900106D01*
X153204770Y-51067237D01*
X153208773Y-51069666D01*
X153424222Y-51200404D01*
X153424226Y-51200406D01*
X153428219Y-51202829D01*
X153669255Y-51303903D01*
X153922583Y-51368241D01*
X153927234Y-51368709D01*
X153927238Y-51368710D01*
X154111373Y-51387251D01*
X154139667Y-51390100D01*
X154295154Y-51390100D01*
X154297479Y-51389927D01*
X154297485Y-51389927D01*
X154484800Y-51376007D01*
X154484804Y-51376006D01*
X154489452Y-51375661D01*
X154494000Y-51374632D01*
X154494006Y-51374631D01*
X154680401Y-51332453D01*
X154744377Y-51317977D01*
X154780569Y-51303903D01*
X154983624Y-51224940D01*
X154983627Y-51224939D01*
X154987977Y-51223247D01*
X155214898Y-51093551D01*
X155420157Y-50931738D01*
X155599243Y-50741363D01*
X155748224Y-50526609D01*
X155863825Y-50292193D01*
X155943507Y-50043265D01*
X155985521Y-49785293D01*
X155988942Y-49523945D01*
X155953696Y-49264962D01*
X155939273Y-49215477D01*
X155881868Y-49018532D01*
X155880557Y-49014033D01*
X155771132Y-48776672D01*
X155738319Y-48726624D01*
X155630390Y-48562004D01*
X155630386Y-48561999D01*
X155627824Y-48558091D01*
X155453782Y-48363094D01*
X155252830Y-48195963D01*
X155205644Y-48167330D01*
X155033378Y-48062796D01*
X155033374Y-48062794D01*
X155029381Y-48060371D01*
X154788345Y-47959297D01*
X154535017Y-47894959D01*
X154530366Y-47894491D01*
X154530362Y-47894490D01*
X154321071Y-47873416D01*
X154317933Y-47873100D01*
X154162446Y-47873100D01*
X154160121Y-47873273D01*
X154160115Y-47873273D01*
X153972800Y-47887193D01*
X153972796Y-47887194D01*
X153968148Y-47887539D01*
X153963600Y-47888568D01*
X153963594Y-47888569D01*
X153777199Y-47930747D01*
X153713223Y-47945223D01*
X153708871Y-47946915D01*
X153708869Y-47946916D01*
X153473976Y-48038260D01*
X153473973Y-48038261D01*
X153469623Y-48039953D01*
X153242702Y-48169649D01*
X153037443Y-48331462D01*
X152858357Y-48521837D01*
X152709376Y-48736591D01*
X152593775Y-48971007D01*
X152514093Y-49219935D01*
X152472079Y-49477907D01*
X152468658Y-49739255D01*
X144104027Y-49739255D01*
X144141381Y-47348617D01*
X144142807Y-47342291D01*
X144177300Y-47280236D01*
X144239866Y-47246681D01*
X144265722Y-47244000D01*
X200589083Y-47244000D01*
X200657204Y-47264002D01*
G37*
%TD.AperFunction*%
%TD*%
%TA.AperFunction,Conductor*%
%TO.N,/+12_FIL*%
G36*
X205882931Y-60853002D02*
G01*
X205903905Y-60869905D01*
X206719095Y-61685095D01*
X206753121Y-61747407D01*
X206756000Y-61774190D01*
X206756000Y-75766810D01*
X206735998Y-75834931D01*
X206719095Y-75855905D01*
X205903905Y-76671095D01*
X205841593Y-76705121D01*
X205814810Y-76708000D01*
X169582370Y-76708000D01*
X169514249Y-76687998D01*
X169467756Y-76634342D01*
X169457652Y-76564068D01*
X169479155Y-76509732D01*
X169482365Y-76505148D01*
X169482368Y-76505143D01*
X169485523Y-76500637D01*
X169487846Y-76495655D01*
X169487849Y-76495650D01*
X169579961Y-76298113D01*
X169579961Y-76298112D01*
X169582284Y-76293131D01*
X169641543Y-76071975D01*
X169661498Y-75843888D01*
X169641543Y-75615801D01*
X169582284Y-75394645D01*
X169579961Y-75389663D01*
X169487849Y-75192126D01*
X169487846Y-75192121D01*
X169485523Y-75187139D01*
X169354198Y-74999588D01*
X169208505Y-74853895D01*
X169174479Y-74791583D01*
X169179544Y-74720768D01*
X169222091Y-74663932D01*
X169258738Y-74646768D01*
X169258316Y-74645642D01*
X169386297Y-74597664D01*
X169394705Y-74594512D01*
X169511261Y-74507158D01*
X169598615Y-74390602D01*
X169649745Y-74254213D01*
X169656500Y-74192031D01*
X169656500Y-72495763D01*
X169649745Y-72433581D01*
X169598615Y-72297192D01*
X169511261Y-72180636D01*
X169394705Y-72093282D01*
X169258316Y-72042152D01*
X169196134Y-72035397D01*
X167499866Y-72035397D01*
X167437684Y-72042152D01*
X167301295Y-72093282D01*
X167184739Y-72180636D01*
X167097385Y-72297192D01*
X167046255Y-72433581D01*
X167039500Y-72495763D01*
X167039500Y-74192031D01*
X167046255Y-74254213D01*
X167097385Y-74390602D01*
X167184739Y-74507158D01*
X167301295Y-74594512D01*
X167309703Y-74597664D01*
X167437684Y-74645642D01*
X167436953Y-74647591D01*
X167489193Y-74677435D01*
X167522013Y-74740390D01*
X167515587Y-74811095D01*
X167487495Y-74853895D01*
X167341802Y-74999588D01*
X167210477Y-75187139D01*
X167208154Y-75192121D01*
X167208151Y-75192126D01*
X167116039Y-75389663D01*
X167113716Y-75394645D01*
X167054457Y-75615801D01*
X167034502Y-75843888D01*
X167054457Y-76071975D01*
X167113716Y-76293131D01*
X167116039Y-76298112D01*
X167116039Y-76298113D01*
X167208151Y-76495650D01*
X167208154Y-76495655D01*
X167210477Y-76500637D01*
X167213632Y-76505143D01*
X167213635Y-76505148D01*
X167216845Y-76509732D01*
X167239531Y-76577006D01*
X167222245Y-76645866D01*
X167170474Y-76694449D01*
X167113630Y-76708000D01*
X165660190Y-76708000D01*
X165592069Y-76687998D01*
X165571095Y-76671095D01*
X164628905Y-75728905D01*
X164594879Y-75666593D01*
X164592000Y-75639810D01*
X164592000Y-61901190D01*
X164612002Y-61833069D01*
X164628905Y-61812095D01*
X165571095Y-60869905D01*
X165633407Y-60835879D01*
X165660190Y-60833000D01*
X205814810Y-60833000D01*
X205882931Y-60853002D01*
G37*
%TD.AperFunction*%
%TD*%
%TA.AperFunction,Conductor*%
%TO.N,Net-(C1-Pad2)*%
G36*
X205882931Y-77490002D02*
G01*
X205903905Y-77506905D01*
X206719095Y-78322095D01*
X206753121Y-78384407D01*
X206756000Y-78411190D01*
X206756000Y-89863810D01*
X206735998Y-89931931D01*
X206719095Y-89952905D01*
X205903905Y-90768095D01*
X205841593Y-90802121D01*
X205814810Y-90805000D01*
X182563063Y-90805000D01*
X182494942Y-90784998D01*
X182448449Y-90731342D01*
X182438345Y-90661068D01*
X182467839Y-90596488D01*
X182527565Y-90558104D01*
X182536866Y-90555753D01*
X182546097Y-90553791D01*
X182654288Y-90530794D01*
X182660319Y-90528109D01*
X182822722Y-90455803D01*
X182822724Y-90455802D01*
X182828752Y-90453118D01*
X182983253Y-90340866D01*
X183111040Y-90198944D01*
X183206527Y-90033556D01*
X183265542Y-89851928D01*
X183270027Y-89809261D01*
X183284814Y-89668565D01*
X183285504Y-89662000D01*
X183268981Y-89504795D01*
X183266232Y-89478635D01*
X183266232Y-89478633D01*
X183265542Y-89472072D01*
X183206527Y-89290444D01*
X183111040Y-89125056D01*
X183098662Y-89111309D01*
X183067946Y-89047303D01*
X183076710Y-88976850D01*
X183098661Y-88942693D01*
X183111040Y-88928944D01*
X183206527Y-88763556D01*
X183265542Y-88581928D01*
X183285504Y-88392000D01*
X183275577Y-88297549D01*
X183266232Y-88208635D01*
X183266232Y-88208633D01*
X183265542Y-88202072D01*
X183206527Y-88020444D01*
X183111040Y-87855056D01*
X183102331Y-87845383D01*
X182987675Y-87718045D01*
X182987674Y-87718044D01*
X182983253Y-87713134D01*
X182855272Y-87620150D01*
X182834094Y-87604763D01*
X182834093Y-87604762D01*
X182828752Y-87600882D01*
X182822724Y-87598198D01*
X182822722Y-87598197D01*
X182660319Y-87525891D01*
X182660318Y-87525891D01*
X182654288Y-87523206D01*
X182560887Y-87503353D01*
X182473944Y-87484872D01*
X182473939Y-87484872D01*
X182467487Y-87483500D01*
X182276513Y-87483500D01*
X182270061Y-87484872D01*
X182270056Y-87484872D01*
X182183113Y-87503353D01*
X182089712Y-87523206D01*
X182083682Y-87525891D01*
X182083681Y-87525891D01*
X181921278Y-87598197D01*
X181921276Y-87598198D01*
X181915248Y-87600882D01*
X181909907Y-87604762D01*
X181909906Y-87604763D01*
X181853705Y-87645596D01*
X181760747Y-87713134D01*
X181757317Y-87716944D01*
X181693804Y-87747424D01*
X181623351Y-87738661D01*
X181589855Y-87717135D01*
X181586253Y-87713134D01*
X181493296Y-87645596D01*
X181437094Y-87604763D01*
X181437093Y-87604762D01*
X181431752Y-87600882D01*
X181425724Y-87598198D01*
X181425722Y-87598197D01*
X181263319Y-87525891D01*
X181263318Y-87525891D01*
X181257288Y-87523206D01*
X181163887Y-87503353D01*
X181076944Y-87484872D01*
X181076939Y-87484872D01*
X181070487Y-87483500D01*
X180879513Y-87483500D01*
X180873061Y-87484872D01*
X180873056Y-87484872D01*
X180786113Y-87503353D01*
X180692712Y-87523206D01*
X180686682Y-87525891D01*
X180686681Y-87525891D01*
X180524278Y-87598197D01*
X180524276Y-87598198D01*
X180518248Y-87600882D01*
X180512907Y-87604762D01*
X180512906Y-87604763D01*
X180456705Y-87645596D01*
X180363747Y-87713134D01*
X180360317Y-87716944D01*
X180296804Y-87747424D01*
X180226351Y-87738661D01*
X180192855Y-87717135D01*
X180189253Y-87713134D01*
X180096296Y-87645596D01*
X180040094Y-87604763D01*
X180040093Y-87604762D01*
X180034752Y-87600882D01*
X180028724Y-87598198D01*
X180028722Y-87598197D01*
X179866319Y-87525891D01*
X179866318Y-87525891D01*
X179860288Y-87523206D01*
X179766887Y-87503353D01*
X179679944Y-87484872D01*
X179679939Y-87484872D01*
X179673487Y-87483500D01*
X179482513Y-87483500D01*
X179476061Y-87484872D01*
X179476056Y-87484872D01*
X179389113Y-87503353D01*
X179295712Y-87523206D01*
X179289682Y-87525891D01*
X179289681Y-87525891D01*
X179127278Y-87598197D01*
X179127276Y-87598198D01*
X179121248Y-87600882D01*
X179115907Y-87604762D01*
X179115906Y-87604763D01*
X179094728Y-87620150D01*
X178966747Y-87713134D01*
X178962326Y-87718044D01*
X178962325Y-87718045D01*
X178847670Y-87845383D01*
X178838960Y-87855056D01*
X178743473Y-88020444D01*
X178684458Y-88202072D01*
X178683768Y-88208633D01*
X178683768Y-88208635D01*
X178674423Y-88297549D01*
X178664496Y-88392000D01*
X178684458Y-88581928D01*
X178743473Y-88763556D01*
X178838960Y-88928944D01*
X178851338Y-88942691D01*
X178882054Y-89006697D01*
X178873290Y-89077150D01*
X178851339Y-89111307D01*
X178838960Y-89125056D01*
X178743473Y-89290444D01*
X178684458Y-89472072D01*
X178683768Y-89478633D01*
X178683768Y-89478635D01*
X178681019Y-89504795D01*
X178664496Y-89662000D01*
X178665186Y-89668565D01*
X178679974Y-89809261D01*
X178684458Y-89851928D01*
X178743473Y-90033556D01*
X178838960Y-90198944D01*
X178966747Y-90340866D01*
X179121248Y-90453118D01*
X179127276Y-90455802D01*
X179127278Y-90455803D01*
X179289681Y-90528109D01*
X179295712Y-90530794D01*
X179403903Y-90553791D01*
X179413134Y-90555753D01*
X179475607Y-90589482D01*
X179509929Y-90651631D01*
X179505201Y-90722470D01*
X179462925Y-90779508D01*
X179396524Y-90804635D01*
X179386937Y-90805000D01*
X165660190Y-90805000D01*
X165592069Y-90784998D01*
X165571095Y-90768095D01*
X164972595Y-90169595D01*
X164938569Y-90107283D01*
X164943634Y-90036468D01*
X164986181Y-89979632D01*
X165052701Y-89954821D01*
X165061690Y-89954500D01*
X166583134Y-89954500D01*
X166645316Y-89947745D01*
X166781705Y-89896615D01*
X166898261Y-89809261D01*
X166985615Y-89692705D01*
X167036745Y-89556316D01*
X167038691Y-89557046D01*
X167068545Y-89504795D01*
X167131503Y-89471979D01*
X167202207Y-89478409D01*
X167245000Y-89506498D01*
X167390700Y-89652198D01*
X167395208Y-89655355D01*
X167395211Y-89655357D01*
X167414074Y-89668565D01*
X167578251Y-89783523D01*
X167583233Y-89785846D01*
X167583238Y-89785849D01*
X167738410Y-89858206D01*
X167785757Y-89880284D01*
X167791065Y-89881706D01*
X167791067Y-89881707D01*
X168001598Y-89938119D01*
X168001600Y-89938119D01*
X168006913Y-89939543D01*
X168235000Y-89959498D01*
X168463087Y-89939543D01*
X168468400Y-89938119D01*
X168468402Y-89938119D01*
X168678933Y-89881707D01*
X168678935Y-89881706D01*
X168684243Y-89880284D01*
X168731590Y-89858206D01*
X168886762Y-89785849D01*
X168886767Y-89785846D01*
X168891749Y-89783523D01*
X169055926Y-89668565D01*
X169074789Y-89655357D01*
X169074792Y-89655355D01*
X169079300Y-89652198D01*
X169241198Y-89490300D01*
X169249525Y-89478409D01*
X169369366Y-89307257D01*
X169372523Y-89302749D01*
X169374846Y-89297767D01*
X169374849Y-89297762D01*
X169466961Y-89100225D01*
X169466961Y-89100224D01*
X169469284Y-89095243D01*
X169528543Y-88874087D01*
X169548498Y-88646000D01*
X169528543Y-88417913D01*
X169527119Y-88412598D01*
X169470707Y-88202067D01*
X169470706Y-88202065D01*
X169469284Y-88196757D01*
X169432161Y-88117146D01*
X169374849Y-87994238D01*
X169374846Y-87994233D01*
X169372523Y-87989251D01*
X169282562Y-87860774D01*
X169244357Y-87806211D01*
X169244355Y-87806208D01*
X169241198Y-87801700D01*
X169079300Y-87639802D01*
X169051224Y-87620143D01*
X169006896Y-87564686D01*
X168997495Y-87516930D01*
X168997495Y-86945911D01*
X199002477Y-86945911D01*
X199011445Y-87184774D01*
X199012540Y-87189992D01*
X199055636Y-87395385D01*
X199060530Y-87418711D01*
X199148329Y-87641033D01*
X199272332Y-87845383D01*
X199275829Y-87849413D01*
X199401502Y-87994238D01*
X199428993Y-88025919D01*
X199433119Y-88029302D01*
X199433123Y-88029306D01*
X199525447Y-88105006D01*
X199613833Y-88177478D01*
X199618469Y-88180117D01*
X199618472Y-88180119D01*
X199731886Y-88244678D01*
X199821566Y-88295727D01*
X200046253Y-88377284D01*
X200051502Y-88378233D01*
X200051505Y-88378234D01*
X200277385Y-88419080D01*
X200277393Y-88419081D01*
X200281469Y-88419818D01*
X200299859Y-88420685D01*
X200305044Y-88420930D01*
X200305051Y-88420930D01*
X200306532Y-88421000D01*
X202274512Y-88421000D01*
X202452675Y-88405883D01*
X202457839Y-88404543D01*
X202457843Y-88404542D01*
X202678875Y-88347173D01*
X202678880Y-88347171D01*
X202684040Y-88345832D01*
X202801136Y-88293084D01*
X202897119Y-88249847D01*
X202897122Y-88249846D01*
X202901980Y-88247657D01*
X203100262Y-88114166D01*
X203273218Y-87949174D01*
X203415902Y-87757400D01*
X203425430Y-87738661D01*
X203521814Y-87549086D01*
X203521814Y-87549085D01*
X203524233Y-87544328D01*
X203579088Y-87367668D01*
X203593532Y-87321151D01*
X203593533Y-87321145D01*
X203595116Y-87316048D01*
X203626523Y-87079089D01*
X203617555Y-86840226D01*
X203568470Y-86606289D01*
X203480671Y-86383967D01*
X203356668Y-86179617D01*
X203266603Y-86075826D01*
X203203507Y-86003114D01*
X203203505Y-86003112D01*
X203200007Y-85999081D01*
X203195881Y-85995698D01*
X203195877Y-85995694D01*
X203055928Y-85880944D01*
X203015167Y-85847522D01*
X203010531Y-85844883D01*
X203010528Y-85844881D01*
X202812077Y-85731916D01*
X202807434Y-85729273D01*
X202582747Y-85647716D01*
X202577498Y-85646767D01*
X202577495Y-85646766D01*
X202351615Y-85605920D01*
X202351607Y-85605919D01*
X202347531Y-85605182D01*
X202329141Y-85604315D01*
X202323956Y-85604070D01*
X202323949Y-85604070D01*
X202322468Y-85604000D01*
X200354488Y-85604000D01*
X200176325Y-85619117D01*
X200171161Y-85620457D01*
X200171157Y-85620458D01*
X199950125Y-85677827D01*
X199950120Y-85677829D01*
X199944960Y-85679168D01*
X199940094Y-85681360D01*
X199731881Y-85775153D01*
X199731878Y-85775154D01*
X199727020Y-85777343D01*
X199528738Y-85910834D01*
X199355782Y-86075826D01*
X199213098Y-86267600D01*
X199104767Y-86480672D01*
X199069326Y-86594812D01*
X199035468Y-86703849D01*
X199035467Y-86703855D01*
X199033884Y-86708952D01*
X199002477Y-86945911D01*
X168997495Y-86945911D01*
X168997495Y-85567383D01*
X168998928Y-85548433D01*
X169001119Y-85534034D01*
X169001119Y-85534028D01*
X169002219Y-85526799D01*
X168997910Y-85473824D01*
X168997495Y-85463609D01*
X168997495Y-85455482D01*
X168994184Y-85427083D01*
X168993755Y-85422743D01*
X168988397Y-85356874D01*
X168987804Y-85349581D01*
X168985996Y-85344000D01*
X178664496Y-85344000D01*
X178684458Y-85533928D01*
X178743473Y-85715556D01*
X178746776Y-85721278D01*
X178746777Y-85721279D01*
X178752918Y-85731916D01*
X178838960Y-85880944D01*
X178966747Y-86022866D01*
X179121248Y-86135118D01*
X179127276Y-86137802D01*
X179127278Y-86137803D01*
X179289681Y-86210109D01*
X179295712Y-86212794D01*
X179389113Y-86232647D01*
X179476056Y-86251128D01*
X179476061Y-86251128D01*
X179482513Y-86252500D01*
X179673487Y-86252500D01*
X179679939Y-86251128D01*
X179679944Y-86251128D01*
X179766887Y-86232647D01*
X179860288Y-86212794D01*
X179866319Y-86210109D01*
X180028722Y-86137803D01*
X180028724Y-86137802D01*
X180034752Y-86135118D01*
X180189253Y-86022866D01*
X180192683Y-86019056D01*
X180256196Y-85988576D01*
X180326649Y-85997339D01*
X180360145Y-86018865D01*
X180363747Y-86022866D01*
X180518248Y-86135118D01*
X180524276Y-86137802D01*
X180524278Y-86137803D01*
X180686681Y-86210109D01*
X180692712Y-86212794D01*
X180786113Y-86232647D01*
X180873056Y-86251128D01*
X180873061Y-86251128D01*
X180879513Y-86252500D01*
X181070487Y-86252500D01*
X181076939Y-86251128D01*
X181076944Y-86251128D01*
X181163887Y-86232647D01*
X181257288Y-86212794D01*
X181263319Y-86210109D01*
X181425722Y-86137803D01*
X181425724Y-86137802D01*
X181431752Y-86135118D01*
X181586253Y-86022866D01*
X181589683Y-86019056D01*
X181653196Y-85988576D01*
X181723649Y-85997339D01*
X181757145Y-86018865D01*
X181760747Y-86022866D01*
X181915248Y-86135118D01*
X181921276Y-86137802D01*
X181921278Y-86137803D01*
X182083681Y-86210109D01*
X182089712Y-86212794D01*
X182183113Y-86232647D01*
X182270056Y-86251128D01*
X182270061Y-86251128D01*
X182276513Y-86252500D01*
X182467487Y-86252500D01*
X182473939Y-86251128D01*
X182473944Y-86251128D01*
X182560887Y-86232647D01*
X182654288Y-86212794D01*
X182660319Y-86210109D01*
X182822722Y-86137803D01*
X182822724Y-86137802D01*
X182828752Y-86135118D01*
X182983253Y-86022866D01*
X183111040Y-85880944D01*
X183197082Y-85731916D01*
X183203223Y-85721279D01*
X183203224Y-85721278D01*
X183206527Y-85715556D01*
X183265542Y-85533928D01*
X183285504Y-85344000D01*
X183265542Y-85154072D01*
X183206527Y-84972444D01*
X183127462Y-84835499D01*
X183110724Y-84766505D01*
X183127462Y-84709500D01*
X183203223Y-84578279D01*
X183203224Y-84578278D01*
X183206527Y-84572556D01*
X183265542Y-84390928D01*
X183285504Y-84201000D01*
X183265542Y-84011072D01*
X183206527Y-83829444D01*
X183111040Y-83664056D01*
X182983253Y-83522134D01*
X182828752Y-83409882D01*
X182822724Y-83407198D01*
X182822722Y-83407197D01*
X182660319Y-83334891D01*
X182660318Y-83334891D01*
X182654288Y-83332206D01*
X182560888Y-83312353D01*
X182473944Y-83293872D01*
X182473939Y-83293872D01*
X182467487Y-83292500D01*
X182276513Y-83292500D01*
X182270061Y-83293872D01*
X182270056Y-83293872D01*
X182183113Y-83312353D01*
X182089712Y-83332206D01*
X182083682Y-83334891D01*
X182083681Y-83334891D01*
X181921278Y-83407197D01*
X181921276Y-83407198D01*
X181915248Y-83409882D01*
X181760747Y-83522134D01*
X181757317Y-83525944D01*
X181693804Y-83556424D01*
X181623351Y-83547661D01*
X181589855Y-83526135D01*
X181586253Y-83522134D01*
X181431752Y-83409882D01*
X181425724Y-83407198D01*
X181425722Y-83407197D01*
X181263319Y-83334891D01*
X181263318Y-83334891D01*
X181257288Y-83332206D01*
X181163888Y-83312353D01*
X181076944Y-83293872D01*
X181076939Y-83293872D01*
X181070487Y-83292500D01*
X180879513Y-83292500D01*
X180873061Y-83293872D01*
X180873056Y-83293872D01*
X180786113Y-83312353D01*
X180692712Y-83332206D01*
X180686682Y-83334891D01*
X180686681Y-83334891D01*
X180524278Y-83407197D01*
X180524276Y-83407198D01*
X180518248Y-83409882D01*
X180363747Y-83522134D01*
X180360317Y-83525944D01*
X180296804Y-83556424D01*
X180226351Y-83547661D01*
X180192855Y-83526135D01*
X180189253Y-83522134D01*
X180034752Y-83409882D01*
X180028724Y-83407198D01*
X180028722Y-83407197D01*
X179866319Y-83334891D01*
X179866318Y-83334891D01*
X179860288Y-83332206D01*
X179766888Y-83312353D01*
X179679944Y-83293872D01*
X179679939Y-83293872D01*
X179673487Y-83292500D01*
X179482513Y-83292500D01*
X179476061Y-83293872D01*
X179476056Y-83293872D01*
X179389113Y-83312353D01*
X179295712Y-83332206D01*
X179289682Y-83334891D01*
X179289681Y-83334891D01*
X179127278Y-83407197D01*
X179127276Y-83407198D01*
X179121248Y-83409882D01*
X178966747Y-83522134D01*
X178838960Y-83664056D01*
X178743473Y-83829444D01*
X178684458Y-84011072D01*
X178664496Y-84201000D01*
X178684458Y-84390928D01*
X178743473Y-84572556D01*
X178746776Y-84578278D01*
X178746777Y-84578279D01*
X178822538Y-84709500D01*
X178839276Y-84778495D01*
X178822538Y-84835499D01*
X178743473Y-84972444D01*
X178684458Y-85154072D01*
X178664496Y-85344000D01*
X168985996Y-85344000D01*
X168985548Y-85342619D01*
X168984352Y-85336631D01*
X168982944Y-85330674D01*
X168982096Y-85323400D01*
X168979598Y-85316518D01*
X168979597Y-85316514D01*
X168957050Y-85254400D01*
X168955640Y-85250296D01*
X168933008Y-85180432D01*
X168929208Y-85174169D01*
X168926670Y-85168627D01*
X168923928Y-85163151D01*
X168921429Y-85156266D01*
X168881180Y-85094875D01*
X168878865Y-85091207D01*
X168840768Y-85028426D01*
X168833328Y-85020002D01*
X168833357Y-85019976D01*
X168830757Y-85017045D01*
X168827953Y-85013691D01*
X168823941Y-85007572D01*
X168767408Y-84954018D01*
X168764967Y-84951641D01*
X166442921Y-82629595D01*
X199006501Y-82629595D01*
X199006838Y-82636114D01*
X199016757Y-82731706D01*
X199019649Y-82745100D01*
X199071088Y-82899284D01*
X199077261Y-82912462D01*
X199162563Y-83050307D01*
X199171599Y-83061708D01*
X199286329Y-83176239D01*
X199297740Y-83185251D01*
X199435743Y-83270316D01*
X199448924Y-83276463D01*
X199603210Y-83327638D01*
X199616586Y-83330505D01*
X199710938Y-83340172D01*
X199717354Y-83340500D01*
X201042385Y-83340500D01*
X201057624Y-83336025D01*
X201058829Y-83334635D01*
X201060500Y-83326952D01*
X201060500Y-83322384D01*
X201568500Y-83322384D01*
X201572975Y-83337623D01*
X201574365Y-83338828D01*
X201582048Y-83340499D01*
X202911595Y-83340499D01*
X202918114Y-83340162D01*
X203013706Y-83330243D01*
X203027100Y-83327351D01*
X203181284Y-83275912D01*
X203194462Y-83269739D01*
X203332307Y-83184437D01*
X203343708Y-83175401D01*
X203458239Y-83060671D01*
X203467251Y-83049260D01*
X203552316Y-82911257D01*
X203558463Y-82898076D01*
X203609638Y-82743790D01*
X203612505Y-82730414D01*
X203622172Y-82636062D01*
X203622500Y-82629646D01*
X203622500Y-82204615D01*
X203618025Y-82189376D01*
X203616635Y-82188171D01*
X203608952Y-82186500D01*
X201586615Y-82186500D01*
X201571376Y-82190975D01*
X201570171Y-82192365D01*
X201568500Y-82200048D01*
X201568500Y-83322384D01*
X201060500Y-83322384D01*
X201060500Y-82204615D01*
X201056025Y-82189376D01*
X201054635Y-82188171D01*
X201046952Y-82186500D01*
X199024616Y-82186500D01*
X199009377Y-82190975D01*
X199008172Y-82192365D01*
X199006501Y-82200048D01*
X199006501Y-82629595D01*
X166442921Y-82629595D01*
X165473711Y-81660385D01*
X199006500Y-81660385D01*
X199010975Y-81675624D01*
X199012365Y-81676829D01*
X199020048Y-81678500D01*
X201042385Y-81678500D01*
X201057624Y-81674025D01*
X201058829Y-81672635D01*
X201060500Y-81664952D01*
X201060500Y-81660385D01*
X201568500Y-81660385D01*
X201572975Y-81675624D01*
X201574365Y-81676829D01*
X201582048Y-81678500D01*
X203604384Y-81678500D01*
X203619623Y-81674025D01*
X203620828Y-81672635D01*
X203622499Y-81664952D01*
X203622499Y-81235405D01*
X203622162Y-81228886D01*
X203612243Y-81133294D01*
X203609351Y-81119900D01*
X203557912Y-80965716D01*
X203551739Y-80952538D01*
X203466437Y-80814693D01*
X203457401Y-80803292D01*
X203342671Y-80688761D01*
X203331260Y-80679749D01*
X203193257Y-80594684D01*
X203180076Y-80588537D01*
X203025790Y-80537362D01*
X203012414Y-80534495D01*
X202918062Y-80524828D01*
X202911645Y-80524500D01*
X201586615Y-80524500D01*
X201571376Y-80528975D01*
X201570171Y-80530365D01*
X201568500Y-80538048D01*
X201568500Y-81660385D01*
X201060500Y-81660385D01*
X201060500Y-80542616D01*
X201056025Y-80527377D01*
X201054635Y-80526172D01*
X201046952Y-80524501D01*
X199717405Y-80524501D01*
X199710886Y-80524838D01*
X199615294Y-80534757D01*
X199601900Y-80537649D01*
X199447716Y-80589088D01*
X199434538Y-80595261D01*
X199296693Y-80680563D01*
X199285292Y-80689599D01*
X199170761Y-80804329D01*
X199161749Y-80815740D01*
X199076684Y-80953743D01*
X199070537Y-80966924D01*
X199019362Y-81121210D01*
X199016495Y-81134586D01*
X199006828Y-81228938D01*
X199006500Y-81235355D01*
X199006500Y-81660385D01*
X165473711Y-81660385D01*
X164628905Y-80815579D01*
X164594879Y-80753267D01*
X164592000Y-80726484D01*
X164592000Y-78538190D01*
X164612002Y-78470069D01*
X164628905Y-78449095D01*
X165571095Y-77506905D01*
X165633407Y-77472879D01*
X165660190Y-77470000D01*
X205814810Y-77470000D01*
X205882931Y-77490002D01*
G37*
%TD.AperFunction*%
%TD*%
M02*
