M48
; DRILL file {KiCad (6.0.1)} date Fri Nov  4 14:47:43 2022
; FORMAT={-:-/ absolute / inch / decimal}
; #@! TF.CreationDate,2022-11-04T14:47:43-07:00
; #@! TF.GenerationSoftware,Kicad,Pcbnew,(6.0.1)
; #@! TF.FileFunction,Plated,1,4,PTH
FMAT,2
INCH
; #@! TA.AperFunction,Plated,PTH,ViaDrill
T1C0.0157
; #@! TA.AperFunction,Plated,PTH,ComponentDrill
T2C0.0315
; #@! TA.AperFunction,Plated,PTH,ComponentDrill
T3C0.0394
; #@! TA.AperFunction,Plated,PTH,ComponentDrill
T4C0.0469
; #@! TA.AperFunction,Plated,PTH,ComponentDrill
T5C0.0472
; #@! TA.AperFunction,Plated,PTH,ViaDrill
T6C0.0591
%
G90
G05
T1
X5.075Y-2.465
X5.075Y-2.51
X5.12Y-2.465
X5.12Y-2.51
X5.14Y-2.835
X5.16Y-2.465
X5.16Y-2.51
X5.265Y-2.835
X5.345Y-2.465
X5.345Y-2.51
X5.395Y-2.465
X5.395Y-2.51
X5.42Y-3.02
X5.43Y-2.66
X5.43Y-2.835
X5.49Y-2.66
X5.495Y-2.835
X5.495Y-3.02
X5.55Y-2.66
X5.555Y-2.835
X5.56Y-3.02
X5.58Y-2.465
X5.58Y-2.51
X5.61Y-2.66
X5.61Y-2.835
X5.62Y-3.02
X5.625Y-2.465
X5.625Y-2.51
X5.675Y-2.66
X5.675Y-2.835
X5.68Y-3.02
X5.735Y-2.66
X5.735Y-2.835
X5.74Y-3.02
X6.955Y-2.05
X6.955Y-2.12
X6.955Y-2.195
X6.955Y-2.27
X6.955Y-2.345
X7.0669Y-4.5079
X7.0669Y-4.5669
X7.0669Y-4.685
X7.0669Y-4.7244
X7.07Y-3.315
X7.07Y-3.36
X7.07Y-3.48
X7.07Y-3.53
X7.125Y-3.315
X7.125Y-3.36
X7.125Y-3.48
X7.125Y-3.53
X7.126Y-4.5079
X7.126Y-4.5669
X7.126Y-4.685
X7.126Y-4.7244
X7.18Y-3.315
X7.18Y-3.36
X7.18Y-3.48
X7.18Y-3.53
X7.185Y-4.5079
X7.185Y-4.5669
X7.185Y-4.685
X7.185Y-4.7244
X7.33Y-3.665
X7.33Y-4.35
X7.33Y-4.44
X7.33Y-4.53
X7.33Y-4.62
X7.33Y-4.71
X7.35Y-2.55
X7.35Y-2.64
X7.35Y-3.15
X7.35Y-3.24
X7.35Y-3.33
X7.35Y-3.42
X7.35Y-3.51
X7.3549Y-2.9049
X7.355Y-2.73
X7.355Y-2.82
X7.36Y-3.75
X7.365Y-3.805
X7.365Y-3.865
X7.365Y-3.93
X7.365Y-3.99
X7.365Y-4.05
X7.365Y-4.105
X7.38Y-4.395
X7.38Y-4.485
X7.38Y-4.575
X7.38Y-4.665
X7.39Y-3.665
X7.395Y-2.595
X7.395Y-2.685
X7.395Y-2.775
X7.4Y-2.865
X7.4Y-3.195
X7.4Y-3.285
X7.4Y-3.375
X7.4Y-3.465
X7.43Y-4.35
X7.43Y-4.44
X7.43Y-4.53
X7.43Y-4.62
X7.43Y-4.71
X7.4396Y-2.9049
X7.44Y-2.55
X7.44Y-2.64
X7.44Y-2.73
X7.44Y-2.82
X7.445Y-3.665
X7.45Y-3.15
X7.45Y-3.24
X7.45Y-3.33
X7.45Y-3.42
X7.45Y-3.51
X7.475Y-3.75
X7.48Y-3.805
X7.48Y-3.865
X7.48Y-3.93
X7.48Y-3.99
X7.48Y-4.05
X7.48Y-4.105
X7.48Y-4.395
X7.48Y-4.485
X7.48Y-4.575
X7.48Y-4.665
X7.49Y-2.595
X7.49Y-2.685
X7.49Y-2.775
X7.49Y-2.865
X7.5Y-3.195
X7.5Y-3.285
X7.5Y-3.375
X7.5Y-3.465
X7.505Y-3.665
X7.53Y-4.35
X7.53Y-4.44
X7.53Y-4.53
X7.53Y-4.62
X7.53Y-4.71
X7.5347Y-2.9049
X7.535Y-2.55
X7.535Y-2.64
X7.535Y-2.73
X7.535Y-2.82
X7.55Y-3.15
X7.55Y-3.24
X7.55Y-3.33
X7.55Y-3.42
X7.55Y-3.51
X7.565Y-3.6644
X7.58Y-2.595
X7.58Y-2.685
X7.58Y-2.775
X7.58Y-2.865
X7.58Y-4.395
X7.58Y-4.485
X7.58Y-4.575
X7.58Y-4.665
X7.59Y-3.75
X7.595Y-3.805
X7.595Y-3.865
X7.595Y-3.93
X7.595Y-3.99
X7.595Y-4.05
X7.595Y-4.105
X7.6Y-3.195
X7.6Y-3.285
X7.6Y-3.375
X7.6Y-3.465
X7.625Y-2.55
X7.625Y-2.64
X7.625Y-2.73
X7.625Y-2.82
X7.625Y-2.905
X7.625Y-3.665
X7.63Y-4.35
X7.63Y-4.44
X7.63Y-4.53
X7.63Y-4.62
X7.63Y-4.71
X7.65Y-3.15
X7.65Y-3.24
X7.65Y-3.33
X7.65Y-3.42
X7.65Y-3.51
X7.685Y-3.665
X7.685Y-3.75
X7.685Y-3.805
X7.685Y-3.855
X7.685Y-3.92
X7.685Y-3.98
X7.685Y-4.045
X7.685Y-4.11
X7.71Y-4.01
X7.71Y-4.08
X7.715Y-3.78
X7.715Y-3.83
X7.715Y-3.89
X7.715Y-3.95
X7.842Y-3.626
T2
X5.35Y-4.6076
X5.35Y-4.706
X5.5196Y-3.8441
X5.5196Y-3.9441
X5.5196Y-4.0441
X5.5196Y-4.1441
X5.5196Y-4.2441
X5.5196Y-4.3441
X5.5196Y-4.4441
X5.69Y-3.46
X5.7884Y-3.46
X5.8196Y-3.8441
X5.8196Y-3.9441
X5.8196Y-4.0441
X5.8196Y-4.1441
X5.8196Y-4.2441
X5.8196Y-4.3441
X5.8196Y-4.4441
X5.905Y-2.3234
X5.905Y-2.4219
X6.0975Y-2.6402
X6.0975Y-2.7402
X6.0975Y-2.8402
X6.0975Y-2.9402
X6.0975Y-3.0402
X6.0975Y-3.1402
X6.0975Y-3.2402
X6.0996Y-3.9452
X6.0996Y-4.1452
X6.0996Y-3.8452
X6.0996Y-4.0452
X6.0996Y-4.2452
X6.0996Y-4.3452
X6.0996Y-4.4452
X6.185Y-2.1334
X6.185Y-2.2319
X6.3975Y-2.6402
X6.3975Y-2.7402
X6.3975Y-2.8402
X6.3975Y-2.9402
X6.3975Y-3.0402
X6.3975Y-3.1402
X6.3975Y-3.2402
X6.3996Y-3.9452
X6.3996Y-4.0452
X6.3996Y-3.8452
X6.3996Y-4.1452
X6.3996Y-4.2452
X6.3996Y-4.3452
X6.3996Y-4.4452
X6.525Y-3.49
X6.6234Y-3.49
X6.6279Y-2.8876
X6.6279Y-2.986
X6.6329Y-3.9426
X6.6329Y-4.041
T3
X5.0984Y-4.6654
X5.2168Y-3.455
X5.4136Y-3.455
X7.83Y-4.805
T4
X5.1942Y-4.23
X5.1942Y-4.43
X5.1942Y-4.33
X5.975Y-4.8042
X6.075Y-4.8042
X6.175Y-4.8042
X6.425Y-4.8092
X6.525Y-4.8092
T5
X7.3788Y-2.13
X7.5757Y-2.13
X7.9258Y-3.2257
X7.9258Y-3.4257
T6
X6.294Y-4.614
X6.3Y-1.918
X7.844Y-2.032
T0
M30
