%TF.GenerationSoftware,KiCad,Pcbnew,(6.0.1)*%
%TF.CreationDate,2022-11-04T14:47:35-07:00*%
%TF.ProjectId,TxRev3a,54785265-7633-4612-9e6b-696361645f70,rev?*%
%TF.SameCoordinates,Original*%
%TF.FileFunction,Copper,L3,Inr*%
%TF.FilePolarity,Positive*%
%FSLAX46Y46*%
G04 Gerber Fmt 4.6, Leading zero omitted, Abs format (unit mm)*
G04 Created by KiCad (PCBNEW (6.0.1)) date 2022-11-04 14:47:35*
%MOMM*%
%LPD*%
G01*
G04 APERTURE LIST*
G04 Aperture macros list*
%AMRoundRect*
0 Rectangle with rounded corners*
0 $1 Rounding radius*
0 $2 $3 $4 $5 $6 $7 $8 $9 X,Y pos of 4 corners*
0 Add a 4 corners polygon primitive as box body*
4,1,4,$2,$3,$4,$5,$6,$7,$8,$9,$2,$3,0*
0 Add four circle primitives for the rounded corners*
1,1,$1+$1,$2,$3*
1,1,$1+$1,$4,$5*
1,1,$1+$1,$6,$7*
1,1,$1+$1,$8,$9*
0 Add four rect primitives between the rounded corners*
20,1,$1+$1,$2,$3,$4,$5,0*
20,1,$1+$1,$4,$5,$6,$7,0*
20,1,$1+$1,$6,$7,$8,$9,0*
20,1,$1+$1,$8,$9,$2,$3,0*%
G04 Aperture macros list end*
%TA.AperFunction,ComponentPad*%
%ADD10R,2.400000X2.400000*%
%TD*%
%TA.AperFunction,ComponentPad*%
%ADD11C,2.400000*%
%TD*%
%TA.AperFunction,ComponentPad*%
%ADD12R,1.600000X1.600000*%
%TD*%
%TA.AperFunction,ComponentPad*%
%ADD13C,1.600000*%
%TD*%
%TA.AperFunction,ComponentPad*%
%ADD14RoundRect,0.250000X0.620000X0.845000X-0.620000X0.845000X-0.620000X-0.845000X0.620000X-0.845000X0*%
%TD*%
%TA.AperFunction,ComponentPad*%
%ADD15O,1.740000X2.190000*%
%TD*%
%TA.AperFunction,ComponentPad*%
%ADD16R,2.000000X2.000000*%
%TD*%
%TA.AperFunction,ComponentPad*%
%ADD17C,2.000000*%
%TD*%
%TA.AperFunction,ComponentPad*%
%ADD18O,1.600000X1.600000*%
%TD*%
%TA.AperFunction,ComponentPad*%
%ADD19RoundRect,0.250000X-1.550000X0.650000X-1.550000X-0.650000X1.550000X-0.650000X1.550000X0.650000X0*%
%TD*%
%TA.AperFunction,ComponentPad*%
%ADD20O,3.600000X1.800000*%
%TD*%
%TA.AperFunction,ComponentPad*%
%ADD21RoundRect,0.250000X-0.845000X0.620000X-0.845000X-0.620000X0.845000X-0.620000X0.845000X0.620000X0*%
%TD*%
%TA.AperFunction,ComponentPad*%
%ADD22O,2.190000X1.740000*%
%TD*%
%TA.AperFunction,ComponentPad*%
%ADD23R,1.700000X1.700000*%
%TD*%
%TA.AperFunction,ViaPad*%
%ADD24C,0.800000*%
%TD*%
%TA.AperFunction,ViaPad*%
%ADD25C,2.500000*%
%TD*%
G04 APERTURE END LIST*
D10*
%TO.N,/+12_FIL*%
%TO.C,C52*%
X187422785Y-54102000D03*
D11*
%TO.N,GND*%
X192422785Y-54102000D03*
%TD*%
D12*
%TO.N,Net-(C11-Pad1)*%
%TO.C,C9*%
X168475000Y-100140888D03*
D13*
%TO.N,Net-(C11-Pad2)*%
X168475000Y-102640888D03*
%TD*%
D14*
%TO.N,GND*%
%TO.C,SW1*%
X165735000Y-122154000D03*
D15*
%TO.N,Net-(D7-Pad1)*%
X163195000Y-122154000D03*
%TD*%
D16*
%TO.N,VCCIN*%
%TO.C,C12*%
X132506323Y-87757000D03*
D17*
%TO.N,GND*%
X137506323Y-87757000D03*
%TD*%
D12*
%TO.N,VCCIN*%
%TO.C,C13*%
X149987000Y-59015621D03*
D13*
%TO.N,GND*%
X149987000Y-61515625D03*
%TD*%
D12*
%TO.N,Net-(C1-Pad1)*%
%TO.C,C1*%
X168348000Y-73343897D03*
D13*
%TO.N,Net-(C1-Pad2)*%
X168348000Y-75843888D03*
%TD*%
D12*
%TO.N,+5V*%
%TO.C,C17*%
X135890000Y-117031897D03*
D13*
%TO.N,GND*%
X135890000Y-119531888D03*
%TD*%
D12*
%TO.N,Net-(D7-Pad1)*%
%TO.C,U2*%
X147818000Y-112879000D03*
D18*
%TO.N,Net-(U2-Pad2)*%
X147818000Y-110339000D03*
X147818000Y-107799000D03*
%TO.N,Net-(U1-Pad11)*%
X147818000Y-105259000D03*
%TO.N,GND*%
X147818000Y-102719000D03*
%TO.N,unconnected-(U2-Pad6)*%
X147818000Y-100179000D03*
%TO.N,GND*%
X147818000Y-97639000D03*
%TO.N,unconnected-(U2-Pad8)*%
X140198000Y-97639000D03*
%TO.N,GND*%
X140198000Y-100179000D03*
%TO.N,Net-(U1-Pad12)*%
X140198000Y-102719000D03*
%TO.N,Net-(U1-Pad10)*%
X140198000Y-105259000D03*
X140198000Y-107799000D03*
%TO.N,Net-(J3-Pad1)*%
X140198000Y-110339000D03*
%TO.N,+5V*%
X140198000Y-112879000D03*
%TD*%
D12*
%TO.N,Net-(D2-Pad1)*%
%TO.C,U1*%
X162496000Y-82301000D03*
D18*
%TO.N,GND*%
X162496000Y-79761000D03*
%TO.N,VCCIN*%
X162496000Y-77221000D03*
%TO.N,N/C*%
X162496000Y-74681000D03*
%TO.N,Net-(C1-Pad2)*%
X162496000Y-72141000D03*
%TO.N,Net-(C1-Pad1)*%
X162496000Y-69601000D03*
%TO.N,Net-(D1-Pad1)*%
X162496000Y-67061000D03*
%TO.N,N/C*%
X154876000Y-67061000D03*
%TO.N,+5V*%
X154876000Y-69601000D03*
%TO.N,Net-(U1-Pad10)*%
X154876000Y-72141000D03*
%TO.N,Net-(U1-Pad11)*%
X154876000Y-74681000D03*
%TO.N,Net-(U1-Pad12)*%
X154876000Y-77221000D03*
%TO.N,N/C*%
X154876000Y-79761000D03*
X154876000Y-82301000D03*
%TD*%
D19*
%TO.N,Net-(C1-Pad2)*%
%TO.C,J2*%
X201314500Y-81932500D03*
D20*
%TO.N,Net-(C4-Pad1)*%
X201314500Y-87012500D03*
%TD*%
D21*
%TO.N,Net-(J3-Pad1)*%
%TO.C,J3*%
X131933000Y-107442000D03*
D22*
%TO.N,GND*%
X131933010Y-109982000D03*
%TO.N,Net-(D7-Pad1)*%
X131933000Y-112522000D03*
%TD*%
D12*
%TO.N,+5V*%
%TO.C,C50*%
X147025995Y-87884000D03*
D13*
%TO.N,GND*%
X144526000Y-87884000D03*
%TD*%
D23*
%TO.N,Net-(J3-Pad1)*%
%TO.C,TP1*%
X129500000Y-118500000D03*
%TD*%
D12*
%TO.N,VCCIN*%
%TO.C,C2*%
X157099000Y-54189621D03*
D13*
%TO.N,GND*%
X157099000Y-56689625D03*
%TD*%
D12*
%TO.N,Net-(D4-Pad1)*%
%TO.C,U3*%
X162550000Y-112908000D03*
D18*
%TO.N,GND*%
X162550000Y-110368000D03*
%TO.N,VCCIN*%
X162550000Y-107828000D03*
%TO.N,N/C*%
X162550000Y-105288000D03*
%TO.N,Net-(C11-Pad2)*%
X162549992Y-102748004D03*
%TO.N,Net-(C11-Pad1)*%
X162549992Y-100208004D03*
%TO.N,Net-(D5-Pad1)*%
X162550000Y-97668000D03*
%TO.N,N/C*%
X154930000Y-97668000D03*
%TO.N,+5V*%
X154929992Y-100208004D03*
%TO.N,Net-(U1-Pad12)*%
X154930000Y-102748000D03*
%TO.N,Net-(U1-Pad11)*%
X154929992Y-105288004D03*
%TO.N,Net-(U1-Pad10)*%
X154930000Y-107828000D03*
%TO.N,N/C*%
X154930000Y-110368000D03*
X154930000Y-112908000D03*
%TD*%
D15*
%TO.N,Net-(J5-Pad2)*%
%TO.C,J5*%
X154305000Y-122027000D03*
%TO.N,Net-(J5-Pad3)*%
X151765000Y-122027000D03*
%TD*%
D12*
%TO.N,VCCIN*%
%TO.C,C16*%
X165735000Y-88646000D03*
D13*
%TO.N,GND*%
X168235000Y-88646000D03*
%TD*%
D24*
%TO.N,GND*%
X179499997Y-118999991D03*
X179499997Y-114500000D03*
X180975000Y-89662000D03*
D25*
X199237600Y-51612800D03*
D24*
X182499991Y-119999989D03*
X144272000Y-76708000D03*
X139446000Y-67564000D03*
X137922000Y-72009000D03*
X180999994Y-115999997D03*
X180999994Y-119999989D03*
X180999994Y-114500000D03*
X182499991Y-115999997D03*
X139573000Y-72009000D03*
X128905000Y-62611000D03*
X182372000Y-89662000D03*
X199186800Y-92100400D03*
X140970000Y-67564000D03*
X180975000Y-84201000D03*
X179578000Y-85344000D03*
X180999994Y-118999991D03*
X180975000Y-85344000D03*
X141224000Y-76708000D03*
X145796000Y-76708000D03*
X139573000Y-76708000D03*
X142494000Y-67564000D03*
X182372000Y-85344000D03*
X142748000Y-76708000D03*
X179578000Y-89662000D03*
X145669000Y-67564000D03*
D25*
X160020000Y-48717200D03*
D24*
X145669000Y-72009000D03*
X144145000Y-72009000D03*
X179578000Y-84201000D03*
X137922000Y-67564000D03*
X179578000Y-88392000D03*
X182499991Y-118999991D03*
X142494000Y-72009000D03*
X179499997Y-115999997D03*
X180975000Y-88392000D03*
X141097000Y-72009000D03*
X130556000Y-72009000D03*
X182499991Y-114500000D03*
X182372000Y-88392000D03*
X179499997Y-119999989D03*
X182372000Y-84201000D03*
D25*
X159867600Y-117195600D03*
D24*
X133731000Y-72009000D03*
X144145000Y-67564000D03*
X137668000Y-76708000D03*
%TO.N,/+12_FIL*%
X188976000Y-67056000D03*
X192532000Y-68199000D03*
X193675000Y-67056000D03*
X187071000Y-99822000D03*
X195199000Y-102743000D03*
X190627000Y-93091000D03*
X189103000Y-93091000D03*
X191389000Y-67056000D03*
X190246000Y-65913000D03*
X193675000Y-69342000D03*
X195961000Y-100330000D03*
X187833000Y-70485000D03*
X187071000Y-98171000D03*
X188976000Y-71628000D03*
X189992000Y-104267000D03*
X176657000Y-59563000D03*
X188976000Y-64770000D03*
X193675000Y-71628000D03*
X176657000Y-57658000D03*
X187960000Y-72771000D03*
X191389000Y-69342000D03*
X192532000Y-65913000D03*
X192913000Y-99822000D03*
X186690000Y-67056000D03*
X189992000Y-98171000D03*
X187706000Y-93091000D03*
X190246000Y-68199000D03*
X192913000Y-101346000D03*
X176657000Y-52070000D03*
X189992000Y-99822000D03*
X192913000Y-96647000D03*
X193675000Y-93091000D03*
X189992000Y-101346000D03*
X187071000Y-96647000D03*
X195199000Y-99568000D03*
X195199000Y-95250000D03*
X189865000Y-95250000D03*
X192786000Y-95250000D03*
X186815400Y-73783495D03*
X187833000Y-65913000D03*
X190246000Y-70485000D03*
X187071000Y-101346000D03*
X191382294Y-73783495D03*
X187071000Y-102870000D03*
X189992000Y-96647000D03*
X192532000Y-72771000D03*
X186944000Y-95250000D03*
X192913000Y-102870000D03*
X176657000Y-55753000D03*
X195199000Y-97917000D03*
X186817000Y-71628000D03*
X195199000Y-93091000D03*
X192913000Y-98171000D03*
X188976000Y-69342000D03*
X186690000Y-64770000D03*
X186817000Y-69342000D03*
X193675000Y-73787000D03*
X187071000Y-104267000D03*
X195961000Y-96012000D03*
X187833000Y-68199000D03*
X192913000Y-104267000D03*
X195199000Y-96647000D03*
X195834000Y-101854000D03*
X186182000Y-93091000D03*
X192532000Y-70485000D03*
X176657000Y-53848000D03*
X195961000Y-98806000D03*
X195199000Y-104394000D03*
X192151000Y-93076547D03*
X191389000Y-71628000D03*
X188966526Y-73783495D03*
X195834000Y-103632000D03*
X195199000Y-101092000D03*
X193675000Y-64770000D03*
X190246000Y-72771000D03*
X189992000Y-102870000D03*
X191389000Y-64770000D03*
X195961000Y-97282000D03*
%TD*%
%TA.AperFunction,Conductor*%
%TO.N,/+12_FIL*%
G36*
X188880930Y-51646880D02*
G01*
X188901904Y-51663782D01*
X189336097Y-52097973D01*
X189370122Y-52160285D01*
X189373002Y-52187068D01*
X189373005Y-52768532D01*
X189353003Y-52836653D01*
X189299348Y-52883146D01*
X189229074Y-52893251D01*
X189164493Y-52863758D01*
X189124422Y-52797679D01*
X189121263Y-52784394D01*
X189076109Y-52663946D01*
X189067571Y-52648351D01*
X188991070Y-52546276D01*
X188978509Y-52533715D01*
X188876434Y-52457214D01*
X188860839Y-52448676D01*
X188740391Y-52403522D01*
X188725136Y-52399895D01*
X188674271Y-52394369D01*
X188667457Y-52394000D01*
X187694900Y-52394000D01*
X187679661Y-52398475D01*
X187678456Y-52399865D01*
X187676785Y-52407548D01*
X187676785Y-55791884D01*
X187681260Y-55807123D01*
X187682650Y-55808328D01*
X187690333Y-55809999D01*
X188667454Y-55809999D01*
X188674275Y-55809629D01*
X188725137Y-55804105D01*
X188740389Y-55800479D01*
X188860839Y-55755324D01*
X188876434Y-55746786D01*
X188978509Y-55670285D01*
X188991070Y-55657724D01*
X189067571Y-55555649D01*
X189076109Y-55540054D01*
X189121264Y-55419605D01*
X189124432Y-55406279D01*
X189159649Y-55344632D01*
X189222603Y-55311811D01*
X189293309Y-55318237D01*
X189349316Y-55361868D01*
X189373015Y-55435423D01*
X189373016Y-55555649D01*
X189373021Y-56904144D01*
X189881021Y-56904124D01*
X189891671Y-56904124D01*
X195386345Y-56903903D01*
X196556715Y-56903856D01*
X196624836Y-56923855D01*
X196645707Y-56940653D01*
X197081141Y-57375033D01*
X197115242Y-57437304D01*
X197118154Y-57463936D01*
X197234463Y-106246670D01*
X197214623Y-106314838D01*
X197198120Y-106335500D01*
X196764291Y-106774849D01*
X196702195Y-106809268D01*
X196675927Y-106812312D01*
X193608545Y-106843784D01*
X190947422Y-106871088D01*
X185219485Y-106929859D01*
X185151163Y-106910557D01*
X185129678Y-106893538D01*
X184695000Y-106464471D01*
X184660571Y-106402381D01*
X184657515Y-106375143D01*
X184610434Y-89143764D01*
X185956961Y-89143764D01*
X185972910Y-89306422D01*
X185975134Y-89313107D01*
X185975134Y-89313108D01*
X185998704Y-89383963D01*
X186024499Y-89461505D01*
X186109165Y-89601304D01*
X186222698Y-89718871D01*
X186228590Y-89722726D01*
X186228594Y-89722730D01*
X186312553Y-89777671D01*
X186359457Y-89808364D01*
X186395132Y-89821631D01*
X186506048Y-89862880D01*
X186506051Y-89862881D01*
X186512645Y-89865333D01*
X186519622Y-89866264D01*
X186667666Y-89886018D01*
X186667670Y-89886018D01*
X186674647Y-89886949D01*
X186681658Y-89886311D01*
X186681662Y-89886311D01*
X186830391Y-89872775D01*
X186837412Y-89872136D01*
X186844114Y-89869958D01*
X186844116Y-89869958D01*
X186986152Y-89823808D01*
X186986155Y-89823807D01*
X186992851Y-89821631D01*
X187021575Y-89804508D01*
X187127186Y-89741552D01*
X187127188Y-89741551D01*
X187133238Y-89737944D01*
X187251595Y-89625234D01*
X187342040Y-89489103D01*
X187355470Y-89453747D01*
X187397578Y-89342900D01*
X187397579Y-89342895D01*
X187400078Y-89336317D01*
X187403340Y-89313108D01*
X187422273Y-89178393D01*
X187422273Y-89178388D01*
X187422824Y-89174470D01*
X187423110Y-89154000D01*
X187421962Y-89143764D01*
X188496961Y-89143764D01*
X188512910Y-89306422D01*
X188515134Y-89313107D01*
X188515134Y-89313108D01*
X188538704Y-89383963D01*
X188564499Y-89461505D01*
X188649165Y-89601304D01*
X188762698Y-89718871D01*
X188768590Y-89722726D01*
X188768594Y-89722730D01*
X188852553Y-89777671D01*
X188899457Y-89808364D01*
X188935132Y-89821631D01*
X189046048Y-89862880D01*
X189046051Y-89862881D01*
X189052645Y-89865333D01*
X189059622Y-89866264D01*
X189207666Y-89886018D01*
X189207670Y-89886018D01*
X189214647Y-89886949D01*
X189221658Y-89886311D01*
X189221662Y-89886311D01*
X189370391Y-89872775D01*
X189377412Y-89872136D01*
X189384114Y-89869958D01*
X189384116Y-89869958D01*
X189526152Y-89823808D01*
X189526155Y-89823807D01*
X189532851Y-89821631D01*
X189561575Y-89804508D01*
X189667186Y-89741552D01*
X189667188Y-89741551D01*
X189673238Y-89737944D01*
X189791595Y-89625234D01*
X189882040Y-89489103D01*
X189895470Y-89453747D01*
X189937578Y-89342900D01*
X189937579Y-89342895D01*
X189940078Y-89336317D01*
X189943340Y-89313108D01*
X189962273Y-89178393D01*
X189962273Y-89178388D01*
X189962824Y-89174470D01*
X189963110Y-89154000D01*
X189961962Y-89143764D01*
X191036961Y-89143764D01*
X191052910Y-89306422D01*
X191055134Y-89313107D01*
X191055134Y-89313108D01*
X191078704Y-89383963D01*
X191104499Y-89461505D01*
X191189165Y-89601304D01*
X191302698Y-89718871D01*
X191308590Y-89722726D01*
X191308594Y-89722730D01*
X191392553Y-89777671D01*
X191439457Y-89808364D01*
X191475132Y-89821631D01*
X191586048Y-89862880D01*
X191586051Y-89862881D01*
X191592645Y-89865333D01*
X191599622Y-89866264D01*
X191747666Y-89886018D01*
X191747670Y-89886018D01*
X191754647Y-89886949D01*
X191761658Y-89886311D01*
X191761662Y-89886311D01*
X191910391Y-89872775D01*
X191917412Y-89872136D01*
X191924114Y-89869958D01*
X191924116Y-89869958D01*
X192066152Y-89823808D01*
X192066155Y-89823807D01*
X192072851Y-89821631D01*
X192101575Y-89804508D01*
X192207186Y-89741552D01*
X192207188Y-89741551D01*
X192213238Y-89737944D01*
X192331595Y-89625234D01*
X192422040Y-89489103D01*
X192435470Y-89453747D01*
X192477578Y-89342900D01*
X192477579Y-89342895D01*
X192480078Y-89336317D01*
X192483340Y-89313108D01*
X192502273Y-89178393D01*
X192502273Y-89178388D01*
X192502824Y-89174470D01*
X192503110Y-89154000D01*
X192501962Y-89143764D01*
X193576961Y-89143764D01*
X193592910Y-89306422D01*
X193595134Y-89313107D01*
X193595134Y-89313108D01*
X193618704Y-89383963D01*
X193644499Y-89461505D01*
X193729165Y-89601304D01*
X193842698Y-89718871D01*
X193848590Y-89722726D01*
X193848594Y-89722730D01*
X193932553Y-89777671D01*
X193979457Y-89808364D01*
X194015132Y-89821631D01*
X194126048Y-89862880D01*
X194126051Y-89862881D01*
X194132645Y-89865333D01*
X194139622Y-89866264D01*
X194287666Y-89886018D01*
X194287670Y-89886018D01*
X194294647Y-89886949D01*
X194301658Y-89886311D01*
X194301662Y-89886311D01*
X194450391Y-89872775D01*
X194457412Y-89872136D01*
X194464114Y-89869958D01*
X194464116Y-89869958D01*
X194606152Y-89823808D01*
X194606155Y-89823807D01*
X194612851Y-89821631D01*
X194641575Y-89804508D01*
X194747186Y-89741552D01*
X194747188Y-89741551D01*
X194753238Y-89737944D01*
X194871595Y-89625234D01*
X194962040Y-89489103D01*
X194975470Y-89453747D01*
X195017578Y-89342900D01*
X195017579Y-89342895D01*
X195020078Y-89336317D01*
X195023340Y-89313108D01*
X195042273Y-89178393D01*
X195042273Y-89178388D01*
X195042824Y-89174470D01*
X195043110Y-89154000D01*
X195024892Y-88991581D01*
X194971142Y-88837234D01*
X194884534Y-88698630D01*
X194879428Y-88693488D01*
X194774333Y-88587657D01*
X194774329Y-88587654D01*
X194769370Y-88582660D01*
X194758673Y-88575871D01*
X194707002Y-88543080D01*
X194631374Y-88495085D01*
X194570708Y-88473483D01*
X194484041Y-88442622D01*
X194484036Y-88442621D01*
X194477406Y-88440260D01*
X194470418Y-88439427D01*
X194470415Y-88439426D01*
X194359476Y-88426197D01*
X194315118Y-88420908D01*
X194308115Y-88421644D01*
X194308114Y-88421644D01*
X194159575Y-88437256D01*
X194159573Y-88437257D01*
X194152575Y-88437992D01*
X194092909Y-88458304D01*
X194004527Y-88488391D01*
X194004524Y-88488392D01*
X193997857Y-88490662D01*
X193858652Y-88576301D01*
X193800513Y-88633235D01*
X193748861Y-88660741D01*
X193740053Y-88693488D01*
X193653345Y-88828034D01*
X193650936Y-88834654D01*
X193650935Y-88834655D01*
X193625395Y-88904825D01*
X193597446Y-88981615D01*
X193576961Y-89143764D01*
X192501962Y-89143764D01*
X192484892Y-88991581D01*
X192431142Y-88837234D01*
X192344534Y-88698630D01*
X192346905Y-88697148D01*
X192329561Y-88654303D01*
X192288039Y-88639458D01*
X192272759Y-88626353D01*
X192245152Y-88598552D01*
X192229370Y-88582660D01*
X192218673Y-88575871D01*
X192167002Y-88543080D01*
X192091374Y-88495085D01*
X192030708Y-88473483D01*
X191944041Y-88442622D01*
X191944036Y-88442621D01*
X191937406Y-88440260D01*
X191930418Y-88439427D01*
X191930415Y-88439426D01*
X191819476Y-88426197D01*
X191775118Y-88420908D01*
X191768115Y-88421644D01*
X191768114Y-88421644D01*
X191619575Y-88437256D01*
X191619573Y-88437257D01*
X191612575Y-88437992D01*
X191552909Y-88458304D01*
X191464527Y-88488391D01*
X191464524Y-88488392D01*
X191457857Y-88490662D01*
X191318652Y-88576301D01*
X191260513Y-88633235D01*
X191208861Y-88660741D01*
X191200053Y-88693488D01*
X191113345Y-88828034D01*
X191110936Y-88834654D01*
X191110935Y-88834655D01*
X191085395Y-88904825D01*
X191057446Y-88981615D01*
X191036961Y-89143764D01*
X189961962Y-89143764D01*
X189944892Y-88991581D01*
X189891142Y-88837234D01*
X189804534Y-88698630D01*
X189806905Y-88697148D01*
X189789561Y-88654303D01*
X189748039Y-88639458D01*
X189732759Y-88626353D01*
X189705152Y-88598552D01*
X189689370Y-88582660D01*
X189678673Y-88575871D01*
X189627002Y-88543080D01*
X189551374Y-88495085D01*
X189490708Y-88473483D01*
X189404041Y-88442622D01*
X189404036Y-88442621D01*
X189397406Y-88440260D01*
X189390418Y-88439427D01*
X189390415Y-88439426D01*
X189279476Y-88426197D01*
X189235118Y-88420908D01*
X189228115Y-88421644D01*
X189228114Y-88421644D01*
X189079575Y-88437256D01*
X189079573Y-88437257D01*
X189072575Y-88437992D01*
X189012909Y-88458304D01*
X188924527Y-88488391D01*
X188924524Y-88488392D01*
X188917857Y-88490662D01*
X188778652Y-88576301D01*
X188720513Y-88633235D01*
X188668861Y-88660741D01*
X188660053Y-88693488D01*
X188573345Y-88828034D01*
X188570936Y-88834654D01*
X188570935Y-88834655D01*
X188545395Y-88904825D01*
X188517446Y-88981615D01*
X188496961Y-89143764D01*
X187421962Y-89143764D01*
X187404892Y-88991581D01*
X187351142Y-88837234D01*
X187264534Y-88698630D01*
X187266905Y-88697148D01*
X187249561Y-88654303D01*
X187208039Y-88639458D01*
X187192759Y-88626353D01*
X187165152Y-88598552D01*
X187149370Y-88582660D01*
X187138673Y-88575871D01*
X187087002Y-88543080D01*
X187011374Y-88495085D01*
X186950708Y-88473483D01*
X186864041Y-88442622D01*
X186864036Y-88442621D01*
X186857406Y-88440260D01*
X186850418Y-88439427D01*
X186850415Y-88439426D01*
X186739476Y-88426197D01*
X186695118Y-88420908D01*
X186688115Y-88421644D01*
X186688114Y-88421644D01*
X186539575Y-88437256D01*
X186539573Y-88437257D01*
X186532575Y-88437992D01*
X186472909Y-88458304D01*
X186384527Y-88488391D01*
X186384524Y-88488392D01*
X186377857Y-88490662D01*
X186238652Y-88576301D01*
X186121880Y-88690653D01*
X186033345Y-88828034D01*
X186030936Y-88834654D01*
X186030935Y-88834655D01*
X186005395Y-88904825D01*
X185977446Y-88981615D01*
X185956961Y-89143764D01*
X184610434Y-89143764D01*
X184607311Y-88000764D01*
X187226961Y-88000764D01*
X187242910Y-88163422D01*
X187245134Y-88170107D01*
X187245134Y-88170108D01*
X187255767Y-88202072D01*
X187294499Y-88318505D01*
X187379165Y-88458304D01*
X187382347Y-88461599D01*
X187402660Y-88513873D01*
X187443086Y-88527690D01*
X187461032Y-88543080D01*
X187492698Y-88575871D01*
X187498590Y-88579726D01*
X187498594Y-88579730D01*
X187569842Y-88626353D01*
X187629457Y-88665364D01*
X187665132Y-88678631D01*
X187776048Y-88719880D01*
X187776051Y-88719881D01*
X187782645Y-88722333D01*
X187789622Y-88723264D01*
X187937666Y-88743018D01*
X187937670Y-88743018D01*
X187944647Y-88743949D01*
X187951658Y-88743311D01*
X187951662Y-88743311D01*
X188100391Y-88729775D01*
X188107412Y-88729136D01*
X188114114Y-88726958D01*
X188114116Y-88726958D01*
X188256152Y-88680808D01*
X188256155Y-88680807D01*
X188262851Y-88678631D01*
X188350549Y-88626353D01*
X188397186Y-88598552D01*
X188397188Y-88598551D01*
X188403238Y-88594944D01*
X188467249Y-88533987D01*
X188516211Y-88508785D01*
X188522408Y-88481670D01*
X188527409Y-88473483D01*
X188551478Y-88437256D01*
X188612040Y-88346103D01*
X188625470Y-88310747D01*
X188667578Y-88199900D01*
X188667579Y-88199895D01*
X188670078Y-88193317D01*
X188673340Y-88170108D01*
X188692273Y-88035393D01*
X188692273Y-88035388D01*
X188692824Y-88031470D01*
X188693110Y-88011000D01*
X188691962Y-88000764D01*
X189766961Y-88000764D01*
X189782910Y-88163422D01*
X189785134Y-88170107D01*
X189785134Y-88170108D01*
X189795767Y-88202072D01*
X189834499Y-88318505D01*
X189919165Y-88458304D01*
X189922347Y-88461599D01*
X189942660Y-88513873D01*
X189983086Y-88527690D01*
X190001032Y-88543080D01*
X190032698Y-88575871D01*
X190038590Y-88579726D01*
X190038594Y-88579730D01*
X190109842Y-88626353D01*
X190169457Y-88665364D01*
X190205132Y-88678631D01*
X190316048Y-88719880D01*
X190316051Y-88719881D01*
X190322645Y-88722333D01*
X190329622Y-88723264D01*
X190477666Y-88743018D01*
X190477670Y-88743018D01*
X190484647Y-88743949D01*
X190491658Y-88743311D01*
X190491662Y-88743311D01*
X190640391Y-88729775D01*
X190647412Y-88729136D01*
X190654114Y-88726958D01*
X190654116Y-88726958D01*
X190796152Y-88680808D01*
X190796155Y-88680807D01*
X190802851Y-88678631D01*
X190890549Y-88626353D01*
X190937186Y-88598552D01*
X190937188Y-88598551D01*
X190943238Y-88594944D01*
X191007249Y-88533987D01*
X191056211Y-88508785D01*
X191062408Y-88481670D01*
X191067409Y-88473483D01*
X191091478Y-88437256D01*
X191152040Y-88346103D01*
X191165470Y-88310747D01*
X191207578Y-88199900D01*
X191207579Y-88199895D01*
X191210078Y-88193317D01*
X191213340Y-88170108D01*
X191232273Y-88035393D01*
X191232273Y-88035388D01*
X191232824Y-88031470D01*
X191233110Y-88011000D01*
X191231962Y-88000764D01*
X192306961Y-88000764D01*
X192322910Y-88163422D01*
X192325134Y-88170107D01*
X192325134Y-88170108D01*
X192335767Y-88202072D01*
X192374499Y-88318505D01*
X192459165Y-88458304D01*
X192462347Y-88461599D01*
X192482660Y-88513873D01*
X192523086Y-88527690D01*
X192541032Y-88543080D01*
X192572698Y-88575871D01*
X192578590Y-88579726D01*
X192578594Y-88579730D01*
X192649842Y-88626353D01*
X192709457Y-88665364D01*
X192745132Y-88678631D01*
X192856048Y-88719880D01*
X192856051Y-88719881D01*
X192862645Y-88722333D01*
X192869622Y-88723264D01*
X193017666Y-88743018D01*
X193017670Y-88743018D01*
X193024647Y-88743949D01*
X193031658Y-88743311D01*
X193031662Y-88743311D01*
X193180391Y-88729775D01*
X193187412Y-88729136D01*
X193194114Y-88726958D01*
X193194116Y-88726958D01*
X193336152Y-88680808D01*
X193336155Y-88680807D01*
X193342851Y-88678631D01*
X193430549Y-88626353D01*
X193477186Y-88598552D01*
X193477188Y-88598551D01*
X193483238Y-88594944D01*
X193547249Y-88533987D01*
X193596211Y-88508785D01*
X193602408Y-88481670D01*
X193607409Y-88473483D01*
X193631478Y-88437256D01*
X193692040Y-88346103D01*
X193705470Y-88310747D01*
X193747578Y-88199900D01*
X193747579Y-88199895D01*
X193750078Y-88193317D01*
X193753340Y-88170108D01*
X193772273Y-88035393D01*
X193772273Y-88035388D01*
X193772824Y-88031470D01*
X193773110Y-88011000D01*
X193754892Y-87848581D01*
X193701142Y-87694234D01*
X193614534Y-87555630D01*
X193616905Y-87554148D01*
X193599561Y-87511303D01*
X193558039Y-87496458D01*
X193542759Y-87483353D01*
X193515152Y-87455552D01*
X193499370Y-87439660D01*
X193488673Y-87432871D01*
X193437002Y-87400080D01*
X193361374Y-87352085D01*
X193300708Y-87330483D01*
X193214041Y-87299622D01*
X193214036Y-87299621D01*
X193207406Y-87297260D01*
X193200418Y-87296427D01*
X193200415Y-87296426D01*
X193089476Y-87283197D01*
X193045118Y-87277908D01*
X193038115Y-87278644D01*
X193038114Y-87278644D01*
X192889575Y-87294256D01*
X192889573Y-87294257D01*
X192882575Y-87294992D01*
X192822909Y-87315304D01*
X192734527Y-87345391D01*
X192734524Y-87345392D01*
X192727857Y-87347662D01*
X192588652Y-87433301D01*
X192530513Y-87490235D01*
X192478861Y-87517741D01*
X192470053Y-87550488D01*
X192383345Y-87685034D01*
X192380936Y-87691654D01*
X192380935Y-87691655D01*
X192373117Y-87713134D01*
X192327446Y-87838615D01*
X192306961Y-88000764D01*
X191231962Y-88000764D01*
X191214892Y-87848581D01*
X191161142Y-87694234D01*
X191074534Y-87555630D01*
X191076905Y-87554148D01*
X191059561Y-87511303D01*
X191018039Y-87496458D01*
X191002759Y-87483353D01*
X190975152Y-87455552D01*
X190959370Y-87439660D01*
X190948673Y-87432871D01*
X190897002Y-87400080D01*
X190821374Y-87352085D01*
X190760708Y-87330483D01*
X190674041Y-87299622D01*
X190674036Y-87299621D01*
X190667406Y-87297260D01*
X190660418Y-87296427D01*
X190660415Y-87296426D01*
X190549476Y-87283197D01*
X190505118Y-87277908D01*
X190498115Y-87278644D01*
X190498114Y-87278644D01*
X190349575Y-87294256D01*
X190349573Y-87294257D01*
X190342575Y-87294992D01*
X190282909Y-87315304D01*
X190194527Y-87345391D01*
X190194524Y-87345392D01*
X190187857Y-87347662D01*
X190048652Y-87433301D01*
X189990513Y-87490235D01*
X189938861Y-87517741D01*
X189930053Y-87550488D01*
X189843345Y-87685034D01*
X189840936Y-87691654D01*
X189840935Y-87691655D01*
X189833117Y-87713134D01*
X189787446Y-87838615D01*
X189766961Y-88000764D01*
X188691962Y-88000764D01*
X188674892Y-87848581D01*
X188621142Y-87694234D01*
X188534534Y-87555630D01*
X188536905Y-87554148D01*
X188519561Y-87511303D01*
X188478039Y-87496458D01*
X188462759Y-87483353D01*
X188435152Y-87455552D01*
X188419370Y-87439660D01*
X188408673Y-87432871D01*
X188357002Y-87400080D01*
X188281374Y-87352085D01*
X188220708Y-87330483D01*
X188134041Y-87299622D01*
X188134036Y-87299621D01*
X188127406Y-87297260D01*
X188120418Y-87296427D01*
X188120415Y-87296426D01*
X188009476Y-87283197D01*
X187965118Y-87277908D01*
X187958115Y-87278644D01*
X187958114Y-87278644D01*
X187809575Y-87294256D01*
X187809573Y-87294257D01*
X187802575Y-87294992D01*
X187742909Y-87315304D01*
X187654527Y-87345391D01*
X187654524Y-87345392D01*
X187647857Y-87347662D01*
X187508652Y-87433301D01*
X187450513Y-87490235D01*
X187398861Y-87517741D01*
X187390053Y-87550488D01*
X187303345Y-87685034D01*
X187300936Y-87691654D01*
X187300935Y-87691655D01*
X187293117Y-87713134D01*
X187247446Y-87838615D01*
X187226961Y-88000764D01*
X184607311Y-88000764D01*
X184604188Y-86857764D01*
X185956961Y-86857764D01*
X185972910Y-87020422D01*
X185975134Y-87027107D01*
X185975134Y-87027108D01*
X185998705Y-87097964D01*
X186024499Y-87175505D01*
X186028148Y-87181530D01*
X186105517Y-87309280D01*
X186109165Y-87315304D01*
X186222698Y-87432871D01*
X186228590Y-87436726D01*
X186228594Y-87436730D01*
X186299842Y-87483353D01*
X186359457Y-87522364D01*
X186395132Y-87535631D01*
X186506048Y-87576880D01*
X186506051Y-87576881D01*
X186512645Y-87579333D01*
X186519622Y-87580264D01*
X186667666Y-87600018D01*
X186667670Y-87600018D01*
X186674647Y-87600949D01*
X186681658Y-87600311D01*
X186681662Y-87600311D01*
X186830391Y-87586775D01*
X186837412Y-87586136D01*
X186844114Y-87583958D01*
X186844116Y-87583958D01*
X186986152Y-87537808D01*
X186986155Y-87537807D01*
X186992851Y-87535631D01*
X187080549Y-87483353D01*
X187127186Y-87455552D01*
X187127188Y-87455551D01*
X187133238Y-87451944D01*
X187197249Y-87390987D01*
X187246211Y-87365785D01*
X187252408Y-87338670D01*
X187257409Y-87330483D01*
X187281478Y-87294256D01*
X187342040Y-87203103D01*
X187355470Y-87167747D01*
X187397578Y-87056900D01*
X187397579Y-87056895D01*
X187400078Y-87050317D01*
X187403340Y-87027108D01*
X187422273Y-86892393D01*
X187422273Y-86892388D01*
X187422824Y-86888470D01*
X187423110Y-86868000D01*
X187421962Y-86857764D01*
X188496961Y-86857764D01*
X188512910Y-87020422D01*
X188515134Y-87027107D01*
X188515134Y-87027108D01*
X188538705Y-87097964D01*
X188564499Y-87175505D01*
X188649165Y-87315304D01*
X188652347Y-87318599D01*
X188672660Y-87370873D01*
X188713086Y-87384690D01*
X188731032Y-87400080D01*
X188762698Y-87432871D01*
X188768590Y-87436726D01*
X188768594Y-87436730D01*
X188839842Y-87483353D01*
X188899457Y-87522364D01*
X188935132Y-87535631D01*
X189046048Y-87576880D01*
X189046051Y-87576881D01*
X189052645Y-87579333D01*
X189059622Y-87580264D01*
X189207666Y-87600018D01*
X189207670Y-87600018D01*
X189214647Y-87600949D01*
X189221658Y-87600311D01*
X189221662Y-87600311D01*
X189370391Y-87586775D01*
X189377412Y-87586136D01*
X189384114Y-87583958D01*
X189384116Y-87583958D01*
X189526152Y-87537808D01*
X189526155Y-87537807D01*
X189532851Y-87535631D01*
X189620549Y-87483353D01*
X189667186Y-87455552D01*
X189667188Y-87455551D01*
X189673238Y-87451944D01*
X189737249Y-87390987D01*
X189786211Y-87365785D01*
X189792408Y-87338670D01*
X189797409Y-87330483D01*
X189821478Y-87294256D01*
X189882040Y-87203103D01*
X189895470Y-87167747D01*
X189937578Y-87056900D01*
X189937579Y-87056895D01*
X189940078Y-87050317D01*
X189943340Y-87027108D01*
X189962273Y-86892393D01*
X189962273Y-86892388D01*
X189962824Y-86888470D01*
X189963110Y-86868000D01*
X189961962Y-86857764D01*
X191036961Y-86857764D01*
X191052910Y-87020422D01*
X191055134Y-87027107D01*
X191055134Y-87027108D01*
X191078705Y-87097964D01*
X191104499Y-87175505D01*
X191189165Y-87315304D01*
X191192347Y-87318599D01*
X191212660Y-87370873D01*
X191253086Y-87384690D01*
X191271032Y-87400080D01*
X191302698Y-87432871D01*
X191308590Y-87436726D01*
X191308594Y-87436730D01*
X191379842Y-87483353D01*
X191439457Y-87522364D01*
X191475132Y-87535631D01*
X191586048Y-87576880D01*
X191586051Y-87576881D01*
X191592645Y-87579333D01*
X191599622Y-87580264D01*
X191747666Y-87600018D01*
X191747670Y-87600018D01*
X191754647Y-87600949D01*
X191761658Y-87600311D01*
X191761662Y-87600311D01*
X191910391Y-87586775D01*
X191917412Y-87586136D01*
X191924114Y-87583958D01*
X191924116Y-87583958D01*
X192066152Y-87537808D01*
X192066155Y-87537807D01*
X192072851Y-87535631D01*
X192160549Y-87483353D01*
X192207186Y-87455552D01*
X192207188Y-87455551D01*
X192213238Y-87451944D01*
X192277249Y-87390987D01*
X192326211Y-87365785D01*
X192332408Y-87338670D01*
X192337409Y-87330483D01*
X192361478Y-87294256D01*
X192422040Y-87203103D01*
X192435470Y-87167747D01*
X192477578Y-87056900D01*
X192477579Y-87056895D01*
X192480078Y-87050317D01*
X192483340Y-87027108D01*
X192502273Y-86892393D01*
X192502273Y-86892388D01*
X192502824Y-86888470D01*
X192503110Y-86868000D01*
X192501962Y-86857764D01*
X193576961Y-86857764D01*
X193592910Y-87020422D01*
X193595134Y-87027107D01*
X193595134Y-87027108D01*
X193618705Y-87097964D01*
X193644499Y-87175505D01*
X193729165Y-87315304D01*
X193732347Y-87318599D01*
X193752660Y-87370873D01*
X193793086Y-87384690D01*
X193811032Y-87400080D01*
X193842698Y-87432871D01*
X193848590Y-87436726D01*
X193848594Y-87436730D01*
X193919842Y-87483353D01*
X193979457Y-87522364D01*
X194015132Y-87535631D01*
X194126048Y-87576880D01*
X194126051Y-87576881D01*
X194132645Y-87579333D01*
X194139622Y-87580264D01*
X194287666Y-87600018D01*
X194287670Y-87600018D01*
X194294647Y-87600949D01*
X194301658Y-87600311D01*
X194301662Y-87600311D01*
X194450391Y-87586775D01*
X194457412Y-87586136D01*
X194464114Y-87583958D01*
X194464116Y-87583958D01*
X194606152Y-87537808D01*
X194606155Y-87537807D01*
X194612851Y-87535631D01*
X194700549Y-87483353D01*
X194747186Y-87455552D01*
X194747188Y-87455551D01*
X194753238Y-87451944D01*
X194871595Y-87339234D01*
X194962040Y-87203103D01*
X194975470Y-87167747D01*
X195017578Y-87056900D01*
X195017579Y-87056895D01*
X195020078Y-87050317D01*
X195023340Y-87027108D01*
X195042273Y-86892393D01*
X195042273Y-86892388D01*
X195042824Y-86888470D01*
X195043110Y-86868000D01*
X195024892Y-86705581D01*
X194971142Y-86551234D01*
X194884534Y-86412630D01*
X194879428Y-86407488D01*
X194774333Y-86301657D01*
X194774329Y-86301654D01*
X194769370Y-86296660D01*
X194758673Y-86289871D01*
X194699785Y-86252500D01*
X194631374Y-86209085D01*
X194570708Y-86187483D01*
X194484041Y-86156622D01*
X194484036Y-86156621D01*
X194477406Y-86154260D01*
X194470418Y-86153427D01*
X194470415Y-86153426D01*
X194359476Y-86140197D01*
X194315118Y-86134908D01*
X194308115Y-86135644D01*
X194308114Y-86135644D01*
X194159575Y-86151256D01*
X194159573Y-86151257D01*
X194152575Y-86151992D01*
X194092909Y-86172304D01*
X194004527Y-86202391D01*
X194004524Y-86202392D01*
X193997857Y-86204662D01*
X193991858Y-86208352D01*
X193991857Y-86208353D01*
X193984525Y-86212864D01*
X193858652Y-86290301D01*
X193800513Y-86347235D01*
X193748861Y-86374741D01*
X193740053Y-86407488D01*
X193653345Y-86542034D01*
X193650936Y-86548654D01*
X193650935Y-86548655D01*
X193625396Y-86618824D01*
X193597446Y-86695615D01*
X193576961Y-86857764D01*
X192501962Y-86857764D01*
X192484892Y-86705581D01*
X192431142Y-86551234D01*
X192344534Y-86412630D01*
X192346905Y-86411148D01*
X192329561Y-86368303D01*
X192288039Y-86353458D01*
X192272759Y-86340353D01*
X192245152Y-86312552D01*
X192229370Y-86296660D01*
X192218673Y-86289871D01*
X192159785Y-86252500D01*
X192091374Y-86209085D01*
X192030708Y-86187483D01*
X191944041Y-86156622D01*
X191944036Y-86156621D01*
X191937406Y-86154260D01*
X191930418Y-86153427D01*
X191930415Y-86153426D01*
X191819476Y-86140197D01*
X191775118Y-86134908D01*
X191768115Y-86135644D01*
X191768114Y-86135644D01*
X191619575Y-86151256D01*
X191619573Y-86151257D01*
X191612575Y-86151992D01*
X191552909Y-86172304D01*
X191464527Y-86202391D01*
X191464524Y-86202392D01*
X191457857Y-86204662D01*
X191451858Y-86208352D01*
X191451857Y-86208353D01*
X191444525Y-86212864D01*
X191318652Y-86290301D01*
X191260513Y-86347235D01*
X191208861Y-86374741D01*
X191200053Y-86407488D01*
X191113345Y-86542034D01*
X191110936Y-86548654D01*
X191110935Y-86548655D01*
X191085396Y-86618824D01*
X191057446Y-86695615D01*
X191036961Y-86857764D01*
X189961962Y-86857764D01*
X189944892Y-86705581D01*
X189891142Y-86551234D01*
X189804534Y-86412630D01*
X189806905Y-86411148D01*
X189789561Y-86368303D01*
X189748039Y-86353458D01*
X189732759Y-86340353D01*
X189705152Y-86312552D01*
X189689370Y-86296660D01*
X189678673Y-86289871D01*
X189619785Y-86252500D01*
X189551374Y-86209085D01*
X189490708Y-86187483D01*
X189404041Y-86156622D01*
X189404036Y-86156621D01*
X189397406Y-86154260D01*
X189390418Y-86153427D01*
X189390415Y-86153426D01*
X189279476Y-86140197D01*
X189235118Y-86134908D01*
X189228115Y-86135644D01*
X189228114Y-86135644D01*
X189079575Y-86151256D01*
X189079573Y-86151257D01*
X189072575Y-86151992D01*
X189012909Y-86172304D01*
X188924527Y-86202391D01*
X188924524Y-86202392D01*
X188917857Y-86204662D01*
X188911858Y-86208352D01*
X188911857Y-86208353D01*
X188904525Y-86212864D01*
X188778652Y-86290301D01*
X188720513Y-86347235D01*
X188668861Y-86374741D01*
X188660053Y-86407488D01*
X188573345Y-86542034D01*
X188570936Y-86548654D01*
X188570935Y-86548655D01*
X188545396Y-86618824D01*
X188517446Y-86695615D01*
X188496961Y-86857764D01*
X187421962Y-86857764D01*
X187404892Y-86705581D01*
X187351142Y-86551234D01*
X187264534Y-86412630D01*
X187266905Y-86411148D01*
X187249561Y-86368303D01*
X187208039Y-86353458D01*
X187192759Y-86340353D01*
X187165152Y-86312552D01*
X187149370Y-86296660D01*
X187138673Y-86289871D01*
X187079785Y-86252500D01*
X187011374Y-86209085D01*
X186950708Y-86187483D01*
X186864041Y-86156622D01*
X186864036Y-86156621D01*
X186857406Y-86154260D01*
X186850418Y-86153427D01*
X186850415Y-86153426D01*
X186739476Y-86140197D01*
X186695118Y-86134908D01*
X186688115Y-86135644D01*
X186688114Y-86135644D01*
X186539575Y-86151256D01*
X186539573Y-86151257D01*
X186532575Y-86151992D01*
X186472909Y-86172304D01*
X186384527Y-86202391D01*
X186384524Y-86202392D01*
X186377857Y-86204662D01*
X186371858Y-86208352D01*
X186371857Y-86208353D01*
X186364525Y-86212864D01*
X186238652Y-86290301D01*
X186121880Y-86404653D01*
X186033345Y-86542034D01*
X186030936Y-86548654D01*
X186030935Y-86548655D01*
X186005396Y-86618824D01*
X185977446Y-86695615D01*
X185956961Y-86857764D01*
X184604188Y-86857764D01*
X184602669Y-86301657D01*
X184601066Y-85714764D01*
X187226961Y-85714764D01*
X187242910Y-85877422D01*
X187245134Y-85884107D01*
X187245134Y-85884108D01*
X187259059Y-85925968D01*
X187294499Y-86032505D01*
X187379165Y-86172304D01*
X187382347Y-86175599D01*
X187402660Y-86227873D01*
X187443086Y-86241690D01*
X187461032Y-86257080D01*
X187492698Y-86289871D01*
X187498590Y-86293726D01*
X187498594Y-86293730D01*
X187569842Y-86340353D01*
X187629457Y-86379364D01*
X187665132Y-86392631D01*
X187776048Y-86433880D01*
X187776051Y-86433881D01*
X187782645Y-86436333D01*
X187789622Y-86437264D01*
X187937666Y-86457018D01*
X187937670Y-86457018D01*
X187944647Y-86457949D01*
X187951658Y-86457311D01*
X187951662Y-86457311D01*
X188100391Y-86443775D01*
X188107412Y-86443136D01*
X188114114Y-86440958D01*
X188114116Y-86440958D01*
X188256152Y-86394808D01*
X188256155Y-86394807D01*
X188262851Y-86392631D01*
X188350549Y-86340353D01*
X188397186Y-86312552D01*
X188397188Y-86312551D01*
X188403238Y-86308944D01*
X188467249Y-86247987D01*
X188516211Y-86222785D01*
X188522408Y-86195670D01*
X188527409Y-86187483D01*
X188551478Y-86151256D01*
X188612040Y-86060103D01*
X188626185Y-86022866D01*
X188667578Y-85913900D01*
X188667579Y-85913895D01*
X188670078Y-85907317D01*
X188673340Y-85884108D01*
X188692273Y-85749393D01*
X188692273Y-85749388D01*
X188692824Y-85745470D01*
X188693110Y-85725000D01*
X188691962Y-85714764D01*
X189766961Y-85714764D01*
X189782910Y-85877422D01*
X189785134Y-85884107D01*
X189785134Y-85884108D01*
X189799059Y-85925968D01*
X189834499Y-86032505D01*
X189919165Y-86172304D01*
X189922347Y-86175599D01*
X189942660Y-86227873D01*
X189983086Y-86241690D01*
X190001032Y-86257080D01*
X190032698Y-86289871D01*
X190038590Y-86293726D01*
X190038594Y-86293730D01*
X190109842Y-86340353D01*
X190169457Y-86379364D01*
X190205132Y-86392631D01*
X190316048Y-86433880D01*
X190316051Y-86433881D01*
X190322645Y-86436333D01*
X190329622Y-86437264D01*
X190477666Y-86457018D01*
X190477670Y-86457018D01*
X190484647Y-86457949D01*
X190491658Y-86457311D01*
X190491662Y-86457311D01*
X190640391Y-86443775D01*
X190647412Y-86443136D01*
X190654114Y-86440958D01*
X190654116Y-86440958D01*
X190796152Y-86394808D01*
X190796155Y-86394807D01*
X190802851Y-86392631D01*
X190890549Y-86340353D01*
X190937186Y-86312552D01*
X190937188Y-86312551D01*
X190943238Y-86308944D01*
X191007249Y-86247987D01*
X191056211Y-86222785D01*
X191062408Y-86195670D01*
X191067409Y-86187483D01*
X191091478Y-86151256D01*
X191152040Y-86060103D01*
X191166185Y-86022866D01*
X191207578Y-85913900D01*
X191207579Y-85913895D01*
X191210078Y-85907317D01*
X191213340Y-85884108D01*
X191232273Y-85749393D01*
X191232273Y-85749388D01*
X191232824Y-85745470D01*
X191233110Y-85725000D01*
X191231962Y-85714764D01*
X192306961Y-85714764D01*
X192322910Y-85877422D01*
X192325134Y-85884107D01*
X192325134Y-85884108D01*
X192339059Y-85925968D01*
X192374499Y-86032505D01*
X192459165Y-86172304D01*
X192462347Y-86175599D01*
X192482660Y-86227873D01*
X192523086Y-86241690D01*
X192541032Y-86257080D01*
X192572698Y-86289871D01*
X192578590Y-86293726D01*
X192578594Y-86293730D01*
X192649842Y-86340353D01*
X192709457Y-86379364D01*
X192745132Y-86392631D01*
X192856048Y-86433880D01*
X192856051Y-86433881D01*
X192862645Y-86436333D01*
X192869622Y-86437264D01*
X193017666Y-86457018D01*
X193017670Y-86457018D01*
X193024647Y-86457949D01*
X193031658Y-86457311D01*
X193031662Y-86457311D01*
X193180391Y-86443775D01*
X193187412Y-86443136D01*
X193194114Y-86440958D01*
X193194116Y-86440958D01*
X193336152Y-86394808D01*
X193336155Y-86394807D01*
X193342851Y-86392631D01*
X193430549Y-86340353D01*
X193477186Y-86312552D01*
X193477188Y-86312551D01*
X193483238Y-86308944D01*
X193547249Y-86247987D01*
X193596211Y-86222785D01*
X193602408Y-86195670D01*
X193607409Y-86187483D01*
X193631478Y-86151256D01*
X193692040Y-86060103D01*
X193706185Y-86022866D01*
X193747578Y-85913900D01*
X193747579Y-85913895D01*
X193750078Y-85907317D01*
X193753340Y-85884108D01*
X193772273Y-85749393D01*
X193772273Y-85749388D01*
X193772824Y-85745470D01*
X193773110Y-85725000D01*
X193754892Y-85562581D01*
X193701142Y-85408234D01*
X193614534Y-85269630D01*
X193616905Y-85268148D01*
X193599561Y-85225303D01*
X193558039Y-85210458D01*
X193542759Y-85197353D01*
X193515152Y-85169552D01*
X193499370Y-85153660D01*
X193488673Y-85146871D01*
X193437002Y-85114080D01*
X193361374Y-85066085D01*
X193300708Y-85044483D01*
X193214041Y-85013622D01*
X193214036Y-85013621D01*
X193207406Y-85011260D01*
X193200418Y-85010427D01*
X193200415Y-85010426D01*
X193089476Y-84997197D01*
X193045118Y-84991908D01*
X193038115Y-84992644D01*
X193038114Y-84992644D01*
X192889575Y-85008256D01*
X192889573Y-85008257D01*
X192882575Y-85008992D01*
X192822909Y-85029304D01*
X192734527Y-85059391D01*
X192734524Y-85059392D01*
X192727857Y-85061662D01*
X192588652Y-85147301D01*
X192530513Y-85204235D01*
X192478861Y-85231741D01*
X192470053Y-85264488D01*
X192383345Y-85399034D01*
X192380936Y-85405654D01*
X192380935Y-85405655D01*
X192355396Y-85475824D01*
X192327446Y-85552615D01*
X192306961Y-85714764D01*
X191231962Y-85714764D01*
X191214892Y-85562581D01*
X191161142Y-85408234D01*
X191074534Y-85269630D01*
X191076905Y-85268148D01*
X191059561Y-85225303D01*
X191018039Y-85210458D01*
X191002759Y-85197353D01*
X190975152Y-85169552D01*
X190959370Y-85153660D01*
X190948673Y-85146871D01*
X190897002Y-85114080D01*
X190821374Y-85066085D01*
X190760708Y-85044483D01*
X190674041Y-85013622D01*
X190674036Y-85013621D01*
X190667406Y-85011260D01*
X190660418Y-85010427D01*
X190660415Y-85010426D01*
X190549476Y-84997197D01*
X190505118Y-84991908D01*
X190498115Y-84992644D01*
X190498114Y-84992644D01*
X190349575Y-85008256D01*
X190349573Y-85008257D01*
X190342575Y-85008992D01*
X190282909Y-85029304D01*
X190194527Y-85059391D01*
X190194524Y-85059392D01*
X190187857Y-85061662D01*
X190048652Y-85147301D01*
X189990513Y-85204235D01*
X189938861Y-85231741D01*
X189930053Y-85264488D01*
X189843345Y-85399034D01*
X189840936Y-85405654D01*
X189840935Y-85405655D01*
X189815396Y-85475824D01*
X189787446Y-85552615D01*
X189766961Y-85714764D01*
X188691962Y-85714764D01*
X188674892Y-85562581D01*
X188621142Y-85408234D01*
X188534534Y-85269630D01*
X188536905Y-85268148D01*
X188519561Y-85225303D01*
X188478039Y-85210458D01*
X188462759Y-85197353D01*
X188435152Y-85169552D01*
X188419370Y-85153660D01*
X188408673Y-85146871D01*
X188357002Y-85114080D01*
X188281374Y-85066085D01*
X188220708Y-85044483D01*
X188134041Y-85013622D01*
X188134036Y-85013621D01*
X188127406Y-85011260D01*
X188120418Y-85010427D01*
X188120415Y-85010426D01*
X188009476Y-84997197D01*
X187965118Y-84991908D01*
X187958115Y-84992644D01*
X187958114Y-84992644D01*
X187809575Y-85008256D01*
X187809573Y-85008257D01*
X187802575Y-85008992D01*
X187742909Y-85029304D01*
X187654527Y-85059391D01*
X187654524Y-85059392D01*
X187647857Y-85061662D01*
X187508652Y-85147301D01*
X187450513Y-85204235D01*
X187398861Y-85231741D01*
X187390053Y-85264488D01*
X187303345Y-85399034D01*
X187300936Y-85405654D01*
X187300935Y-85405655D01*
X187275396Y-85475824D01*
X187247446Y-85552615D01*
X187226961Y-85714764D01*
X184601066Y-85714764D01*
X184597943Y-84571764D01*
X185956961Y-84571764D01*
X185972910Y-84734422D01*
X185975134Y-84741107D01*
X185975134Y-84741108D01*
X185985577Y-84772500D01*
X186024499Y-84889505D01*
X186028148Y-84895530D01*
X186105517Y-85023280D01*
X186109165Y-85029304D01*
X186222698Y-85146871D01*
X186228590Y-85150726D01*
X186228594Y-85150730D01*
X186299842Y-85197353D01*
X186359457Y-85236364D01*
X186395132Y-85249631D01*
X186506048Y-85290880D01*
X186506051Y-85290881D01*
X186512645Y-85293333D01*
X186519622Y-85294264D01*
X186667666Y-85314018D01*
X186667670Y-85314018D01*
X186674647Y-85314949D01*
X186681658Y-85314311D01*
X186681662Y-85314311D01*
X186830391Y-85300775D01*
X186837412Y-85300136D01*
X186844114Y-85297958D01*
X186844116Y-85297958D01*
X186986152Y-85251808D01*
X186986155Y-85251807D01*
X186992851Y-85249631D01*
X187080549Y-85197353D01*
X187127186Y-85169552D01*
X187127188Y-85169551D01*
X187133238Y-85165944D01*
X187197249Y-85104987D01*
X187246211Y-85079785D01*
X187252408Y-85052670D01*
X187257409Y-85044483D01*
X187281478Y-85008256D01*
X187342040Y-84917103D01*
X187396970Y-84772500D01*
X187397578Y-84770900D01*
X187397579Y-84770895D01*
X187400078Y-84764317D01*
X187403340Y-84741108D01*
X187422273Y-84606393D01*
X187422273Y-84606388D01*
X187422824Y-84602470D01*
X187423110Y-84582000D01*
X187421962Y-84571764D01*
X188496961Y-84571764D01*
X188512910Y-84734422D01*
X188515134Y-84741107D01*
X188515134Y-84741108D01*
X188525577Y-84772500D01*
X188564499Y-84889505D01*
X188649165Y-85029304D01*
X188652347Y-85032599D01*
X188672660Y-85084873D01*
X188713086Y-85098690D01*
X188731032Y-85114080D01*
X188762698Y-85146871D01*
X188768590Y-85150726D01*
X188768594Y-85150730D01*
X188839842Y-85197353D01*
X188899457Y-85236364D01*
X188935132Y-85249631D01*
X189046048Y-85290880D01*
X189046051Y-85290881D01*
X189052645Y-85293333D01*
X189059622Y-85294264D01*
X189207666Y-85314018D01*
X189207670Y-85314018D01*
X189214647Y-85314949D01*
X189221658Y-85314311D01*
X189221662Y-85314311D01*
X189370391Y-85300775D01*
X189377412Y-85300136D01*
X189384114Y-85297958D01*
X189384116Y-85297958D01*
X189526152Y-85251808D01*
X189526155Y-85251807D01*
X189532851Y-85249631D01*
X189620549Y-85197353D01*
X189667186Y-85169552D01*
X189667188Y-85169551D01*
X189673238Y-85165944D01*
X189737249Y-85104987D01*
X189786211Y-85079785D01*
X189792408Y-85052670D01*
X189797409Y-85044483D01*
X189821478Y-85008256D01*
X189882040Y-84917103D01*
X189936970Y-84772500D01*
X189937578Y-84770900D01*
X189937579Y-84770895D01*
X189940078Y-84764317D01*
X189943340Y-84741108D01*
X189962273Y-84606393D01*
X189962273Y-84606388D01*
X189962824Y-84602470D01*
X189963110Y-84582000D01*
X189961962Y-84571764D01*
X191036961Y-84571764D01*
X191052910Y-84734422D01*
X191055134Y-84741107D01*
X191055134Y-84741108D01*
X191065577Y-84772500D01*
X191104499Y-84889505D01*
X191189165Y-85029304D01*
X191192347Y-85032599D01*
X191212660Y-85084873D01*
X191253086Y-85098690D01*
X191271032Y-85114080D01*
X191302698Y-85146871D01*
X191308590Y-85150726D01*
X191308594Y-85150730D01*
X191379842Y-85197353D01*
X191439457Y-85236364D01*
X191475132Y-85249631D01*
X191586048Y-85290880D01*
X191586051Y-85290881D01*
X191592645Y-85293333D01*
X191599622Y-85294264D01*
X191747666Y-85314018D01*
X191747670Y-85314018D01*
X191754647Y-85314949D01*
X191761658Y-85314311D01*
X191761662Y-85314311D01*
X191910391Y-85300775D01*
X191917412Y-85300136D01*
X191924114Y-85297958D01*
X191924116Y-85297958D01*
X192066152Y-85251808D01*
X192066155Y-85251807D01*
X192072851Y-85249631D01*
X192160549Y-85197353D01*
X192207186Y-85169552D01*
X192207188Y-85169551D01*
X192213238Y-85165944D01*
X192277249Y-85104987D01*
X192326211Y-85079785D01*
X192332408Y-85052670D01*
X192337409Y-85044483D01*
X192361478Y-85008256D01*
X192422040Y-84917103D01*
X192476970Y-84772500D01*
X192477578Y-84770900D01*
X192477579Y-84770895D01*
X192480078Y-84764317D01*
X192483340Y-84741108D01*
X192502273Y-84606393D01*
X192502273Y-84606388D01*
X192502824Y-84602470D01*
X192503110Y-84582000D01*
X192501962Y-84571764D01*
X193576961Y-84571764D01*
X193592910Y-84734422D01*
X193595134Y-84741107D01*
X193595134Y-84741108D01*
X193605577Y-84772500D01*
X193644499Y-84889505D01*
X193729165Y-85029304D01*
X193732347Y-85032599D01*
X193752660Y-85084873D01*
X193793086Y-85098690D01*
X193811032Y-85114080D01*
X193842698Y-85146871D01*
X193848590Y-85150726D01*
X193848594Y-85150730D01*
X193919842Y-85197353D01*
X193979457Y-85236364D01*
X194015132Y-85249631D01*
X194126048Y-85290880D01*
X194126051Y-85290881D01*
X194132645Y-85293333D01*
X194139622Y-85294264D01*
X194287666Y-85314018D01*
X194287670Y-85314018D01*
X194294647Y-85314949D01*
X194301658Y-85314311D01*
X194301662Y-85314311D01*
X194450391Y-85300775D01*
X194457412Y-85300136D01*
X194464114Y-85297958D01*
X194464116Y-85297958D01*
X194606152Y-85251808D01*
X194606155Y-85251807D01*
X194612851Y-85249631D01*
X194700549Y-85197353D01*
X194747186Y-85169552D01*
X194747188Y-85169551D01*
X194753238Y-85165944D01*
X194871595Y-85053234D01*
X194962040Y-84917103D01*
X195016970Y-84772500D01*
X195017578Y-84770900D01*
X195017579Y-84770895D01*
X195020078Y-84764317D01*
X195023340Y-84741108D01*
X195042273Y-84606393D01*
X195042273Y-84606388D01*
X195042824Y-84602470D01*
X195043110Y-84582000D01*
X195024892Y-84419581D01*
X194971142Y-84265234D01*
X194884534Y-84126630D01*
X194879428Y-84121488D01*
X194774333Y-84015657D01*
X194774329Y-84015654D01*
X194769370Y-84010660D01*
X194758673Y-84003871D01*
X194707002Y-83971080D01*
X194631374Y-83923085D01*
X194570708Y-83901483D01*
X194484041Y-83870622D01*
X194484036Y-83870621D01*
X194477406Y-83868260D01*
X194470418Y-83867427D01*
X194470415Y-83867426D01*
X194359476Y-83854197D01*
X194315118Y-83848908D01*
X194308115Y-83849644D01*
X194308114Y-83849644D01*
X194159575Y-83865256D01*
X194159573Y-83865257D01*
X194152575Y-83865992D01*
X194092909Y-83886304D01*
X194004527Y-83916391D01*
X194004524Y-83916392D01*
X193997857Y-83918662D01*
X193858652Y-84004301D01*
X193800513Y-84061235D01*
X193748861Y-84088741D01*
X193740053Y-84121488D01*
X193653345Y-84256034D01*
X193650936Y-84262654D01*
X193650935Y-84262655D01*
X193625395Y-84332825D01*
X193597446Y-84409615D01*
X193576961Y-84571764D01*
X192501962Y-84571764D01*
X192484892Y-84419581D01*
X192431142Y-84265234D01*
X192344534Y-84126630D01*
X192346905Y-84125148D01*
X192329561Y-84082303D01*
X192288039Y-84067458D01*
X192272759Y-84054353D01*
X192245152Y-84026552D01*
X192229370Y-84010660D01*
X192218673Y-84003871D01*
X192167002Y-83971080D01*
X192091374Y-83923085D01*
X192030708Y-83901483D01*
X191944041Y-83870622D01*
X191944036Y-83870621D01*
X191937406Y-83868260D01*
X191930418Y-83867427D01*
X191930415Y-83867426D01*
X191819476Y-83854197D01*
X191775118Y-83848908D01*
X191768115Y-83849644D01*
X191768114Y-83849644D01*
X191619575Y-83865256D01*
X191619573Y-83865257D01*
X191612575Y-83865992D01*
X191552909Y-83886304D01*
X191464527Y-83916391D01*
X191464524Y-83916392D01*
X191457857Y-83918662D01*
X191318652Y-84004301D01*
X191260513Y-84061235D01*
X191208861Y-84088741D01*
X191200053Y-84121488D01*
X191113345Y-84256034D01*
X191110936Y-84262654D01*
X191110935Y-84262655D01*
X191085395Y-84332825D01*
X191057446Y-84409615D01*
X191036961Y-84571764D01*
X189961962Y-84571764D01*
X189944892Y-84419581D01*
X189891142Y-84265234D01*
X189804534Y-84126630D01*
X189806905Y-84125148D01*
X189789561Y-84082303D01*
X189748039Y-84067458D01*
X189732759Y-84054353D01*
X189705152Y-84026552D01*
X189689370Y-84010660D01*
X189678673Y-84003871D01*
X189627002Y-83971080D01*
X189551374Y-83923085D01*
X189490708Y-83901483D01*
X189404041Y-83870622D01*
X189404036Y-83870621D01*
X189397406Y-83868260D01*
X189390418Y-83867427D01*
X189390415Y-83867426D01*
X189279476Y-83854197D01*
X189235118Y-83848908D01*
X189228115Y-83849644D01*
X189228114Y-83849644D01*
X189079575Y-83865256D01*
X189079573Y-83865257D01*
X189072575Y-83865992D01*
X189012909Y-83886304D01*
X188924527Y-83916391D01*
X188924524Y-83916392D01*
X188917857Y-83918662D01*
X188778652Y-84004301D01*
X188720513Y-84061235D01*
X188668861Y-84088741D01*
X188660053Y-84121488D01*
X188573345Y-84256034D01*
X188570936Y-84262654D01*
X188570935Y-84262655D01*
X188545395Y-84332825D01*
X188517446Y-84409615D01*
X188496961Y-84571764D01*
X187421962Y-84571764D01*
X187404892Y-84419581D01*
X187351142Y-84265234D01*
X187264534Y-84126630D01*
X187266905Y-84125148D01*
X187249561Y-84082303D01*
X187208039Y-84067458D01*
X187192759Y-84054353D01*
X187165152Y-84026552D01*
X187149370Y-84010660D01*
X187138673Y-84003871D01*
X187087002Y-83971080D01*
X187011374Y-83923085D01*
X186950708Y-83901483D01*
X186864041Y-83870622D01*
X186864036Y-83870621D01*
X186857406Y-83868260D01*
X186850418Y-83867427D01*
X186850415Y-83867426D01*
X186739476Y-83854197D01*
X186695118Y-83848908D01*
X186688115Y-83849644D01*
X186688114Y-83849644D01*
X186539575Y-83865256D01*
X186539573Y-83865257D01*
X186532575Y-83865992D01*
X186472909Y-83886304D01*
X186384527Y-83916391D01*
X186384524Y-83916392D01*
X186377857Y-83918662D01*
X186238652Y-84004301D01*
X186121880Y-84118653D01*
X186033345Y-84256034D01*
X186030936Y-84262654D01*
X186030935Y-84262655D01*
X186005395Y-84332825D01*
X185977446Y-84409615D01*
X185956961Y-84571764D01*
X184597943Y-84571764D01*
X184594820Y-83428764D01*
X187226961Y-83428764D01*
X187242910Y-83591422D01*
X187245134Y-83598107D01*
X187245134Y-83598108D01*
X187267072Y-83664056D01*
X187294499Y-83746505D01*
X187379165Y-83886304D01*
X187382347Y-83889599D01*
X187402660Y-83941873D01*
X187443086Y-83955690D01*
X187461032Y-83971080D01*
X187492698Y-84003871D01*
X187498590Y-84007726D01*
X187498594Y-84007730D01*
X187569842Y-84054353D01*
X187629457Y-84093364D01*
X187665132Y-84106631D01*
X187776048Y-84147880D01*
X187776051Y-84147881D01*
X187782645Y-84150333D01*
X187789622Y-84151264D01*
X187937666Y-84171018D01*
X187937670Y-84171018D01*
X187944647Y-84171949D01*
X187951658Y-84171311D01*
X187951662Y-84171311D01*
X188100391Y-84157775D01*
X188107412Y-84157136D01*
X188114114Y-84154958D01*
X188114116Y-84154958D01*
X188256152Y-84108808D01*
X188256155Y-84108807D01*
X188262851Y-84106631D01*
X188350549Y-84054353D01*
X188397186Y-84026552D01*
X188397188Y-84026551D01*
X188403238Y-84022944D01*
X188467249Y-83961987D01*
X188516211Y-83936785D01*
X188522408Y-83909670D01*
X188527409Y-83901483D01*
X188551478Y-83865256D01*
X188612040Y-83774103D01*
X188653843Y-83664056D01*
X188667578Y-83627900D01*
X188667579Y-83627895D01*
X188670078Y-83621317D01*
X188673340Y-83598108D01*
X188692273Y-83463393D01*
X188692273Y-83463388D01*
X188692824Y-83459470D01*
X188693110Y-83439000D01*
X188691962Y-83428764D01*
X189766961Y-83428764D01*
X189782910Y-83591422D01*
X189785134Y-83598107D01*
X189785134Y-83598108D01*
X189807072Y-83664056D01*
X189834499Y-83746505D01*
X189919165Y-83886304D01*
X189922347Y-83889599D01*
X189942660Y-83941873D01*
X189983086Y-83955690D01*
X190001032Y-83971080D01*
X190032698Y-84003871D01*
X190038590Y-84007726D01*
X190038594Y-84007730D01*
X190109842Y-84054353D01*
X190169457Y-84093364D01*
X190205132Y-84106631D01*
X190316048Y-84147880D01*
X190316051Y-84147881D01*
X190322645Y-84150333D01*
X190329622Y-84151264D01*
X190477666Y-84171018D01*
X190477670Y-84171018D01*
X190484647Y-84171949D01*
X190491658Y-84171311D01*
X190491662Y-84171311D01*
X190640391Y-84157775D01*
X190647412Y-84157136D01*
X190654114Y-84154958D01*
X190654116Y-84154958D01*
X190796152Y-84108808D01*
X190796155Y-84108807D01*
X190802851Y-84106631D01*
X190890549Y-84054353D01*
X190937186Y-84026552D01*
X190937188Y-84026551D01*
X190943238Y-84022944D01*
X191007249Y-83961987D01*
X191056211Y-83936785D01*
X191062408Y-83909670D01*
X191067409Y-83901483D01*
X191091478Y-83865256D01*
X191152040Y-83774103D01*
X191193843Y-83664056D01*
X191207578Y-83627900D01*
X191207579Y-83627895D01*
X191210078Y-83621317D01*
X191213340Y-83598108D01*
X191232273Y-83463393D01*
X191232273Y-83463388D01*
X191232824Y-83459470D01*
X191233110Y-83439000D01*
X191231962Y-83428764D01*
X192306961Y-83428764D01*
X192322910Y-83591422D01*
X192325134Y-83598107D01*
X192325134Y-83598108D01*
X192347072Y-83664056D01*
X192374499Y-83746505D01*
X192459165Y-83886304D01*
X192462347Y-83889599D01*
X192482660Y-83941873D01*
X192523086Y-83955690D01*
X192541032Y-83971080D01*
X192572698Y-84003871D01*
X192578590Y-84007726D01*
X192578594Y-84007730D01*
X192649842Y-84054353D01*
X192709457Y-84093364D01*
X192745132Y-84106631D01*
X192856048Y-84147880D01*
X192856051Y-84147881D01*
X192862645Y-84150333D01*
X192869622Y-84151264D01*
X193017666Y-84171018D01*
X193017670Y-84171018D01*
X193024647Y-84171949D01*
X193031658Y-84171311D01*
X193031662Y-84171311D01*
X193180391Y-84157775D01*
X193187412Y-84157136D01*
X193194114Y-84154958D01*
X193194116Y-84154958D01*
X193336152Y-84108808D01*
X193336155Y-84108807D01*
X193342851Y-84106631D01*
X193430549Y-84054353D01*
X193477186Y-84026552D01*
X193477188Y-84026551D01*
X193483238Y-84022944D01*
X193547249Y-83961987D01*
X193596211Y-83936785D01*
X193602408Y-83909670D01*
X193607409Y-83901483D01*
X193631478Y-83865256D01*
X193692040Y-83774103D01*
X193733843Y-83664056D01*
X193747578Y-83627900D01*
X193747579Y-83627895D01*
X193750078Y-83621317D01*
X193753340Y-83598108D01*
X193772273Y-83463393D01*
X193772273Y-83463388D01*
X193772824Y-83459470D01*
X193773110Y-83439000D01*
X193754892Y-83276581D01*
X193701142Y-83122234D01*
X193614534Y-82983630D01*
X193616905Y-82982148D01*
X193599561Y-82939303D01*
X193558039Y-82924458D01*
X193542759Y-82911353D01*
X193515152Y-82883552D01*
X193499370Y-82867660D01*
X193488673Y-82860871D01*
X193437002Y-82828080D01*
X193361374Y-82780085D01*
X193300708Y-82758483D01*
X193214041Y-82727622D01*
X193214036Y-82727621D01*
X193207406Y-82725260D01*
X193200418Y-82724427D01*
X193200415Y-82724426D01*
X193089476Y-82711197D01*
X193045118Y-82705908D01*
X193038115Y-82706644D01*
X193038114Y-82706644D01*
X192889575Y-82722256D01*
X192889573Y-82722257D01*
X192882575Y-82722992D01*
X192822909Y-82743304D01*
X192734527Y-82773391D01*
X192734524Y-82773392D01*
X192727857Y-82775662D01*
X192588652Y-82861301D01*
X192530513Y-82918235D01*
X192478861Y-82945741D01*
X192470053Y-82978488D01*
X192383345Y-83113034D01*
X192380936Y-83119654D01*
X192380935Y-83119655D01*
X192355395Y-83189825D01*
X192327446Y-83266615D01*
X192306961Y-83428764D01*
X191231962Y-83428764D01*
X191214892Y-83276581D01*
X191161142Y-83122234D01*
X191074534Y-82983630D01*
X191076905Y-82982148D01*
X191059561Y-82939303D01*
X191018039Y-82924458D01*
X191002759Y-82911353D01*
X190975152Y-82883552D01*
X190959370Y-82867660D01*
X190948673Y-82860871D01*
X190897002Y-82828080D01*
X190821374Y-82780085D01*
X190760708Y-82758483D01*
X190674041Y-82727622D01*
X190674036Y-82727621D01*
X190667406Y-82725260D01*
X190660418Y-82724427D01*
X190660415Y-82724426D01*
X190549476Y-82711197D01*
X190505118Y-82705908D01*
X190498115Y-82706644D01*
X190498114Y-82706644D01*
X190349575Y-82722256D01*
X190349573Y-82722257D01*
X190342575Y-82722992D01*
X190282909Y-82743304D01*
X190194527Y-82773391D01*
X190194524Y-82773392D01*
X190187857Y-82775662D01*
X190048652Y-82861301D01*
X189990513Y-82918235D01*
X189938861Y-82945741D01*
X189930053Y-82978488D01*
X189843345Y-83113034D01*
X189840936Y-83119654D01*
X189840935Y-83119655D01*
X189815395Y-83189825D01*
X189787446Y-83266615D01*
X189766961Y-83428764D01*
X188691962Y-83428764D01*
X188674892Y-83276581D01*
X188621142Y-83122234D01*
X188534534Y-82983630D01*
X188536905Y-82982148D01*
X188519561Y-82939303D01*
X188478039Y-82924458D01*
X188462759Y-82911353D01*
X188435152Y-82883552D01*
X188419370Y-82867660D01*
X188408673Y-82860871D01*
X188357002Y-82828080D01*
X188281374Y-82780085D01*
X188220708Y-82758483D01*
X188134041Y-82727622D01*
X188134036Y-82727621D01*
X188127406Y-82725260D01*
X188120418Y-82724427D01*
X188120415Y-82724426D01*
X188009476Y-82711197D01*
X187965118Y-82705908D01*
X187958115Y-82706644D01*
X187958114Y-82706644D01*
X187809575Y-82722256D01*
X187809573Y-82722257D01*
X187802575Y-82722992D01*
X187742909Y-82743304D01*
X187654527Y-82773391D01*
X187654524Y-82773392D01*
X187647857Y-82775662D01*
X187508652Y-82861301D01*
X187450513Y-82918235D01*
X187398861Y-82945741D01*
X187390053Y-82978488D01*
X187303345Y-83113034D01*
X187300936Y-83119654D01*
X187300935Y-83119655D01*
X187275395Y-83189825D01*
X187247446Y-83266615D01*
X187226961Y-83428764D01*
X184594820Y-83428764D01*
X184591697Y-82285764D01*
X185956961Y-82285764D01*
X185972910Y-82448422D01*
X185975134Y-82455107D01*
X185975134Y-82455108D01*
X185998704Y-82525963D01*
X186024499Y-82603505D01*
X186028148Y-82609530D01*
X186105517Y-82737280D01*
X186109165Y-82743304D01*
X186222698Y-82860871D01*
X186228590Y-82864726D01*
X186228594Y-82864730D01*
X186299842Y-82911353D01*
X186359457Y-82950364D01*
X186395132Y-82963631D01*
X186506048Y-83004880D01*
X186506051Y-83004881D01*
X186512645Y-83007333D01*
X186519622Y-83008264D01*
X186667666Y-83028018D01*
X186667670Y-83028018D01*
X186674647Y-83028949D01*
X186681658Y-83028311D01*
X186681662Y-83028311D01*
X186830391Y-83014775D01*
X186837412Y-83014136D01*
X186844114Y-83011958D01*
X186844116Y-83011958D01*
X186986152Y-82965808D01*
X186986155Y-82965807D01*
X186992851Y-82963631D01*
X187080549Y-82911353D01*
X187127186Y-82883552D01*
X187127188Y-82883551D01*
X187133238Y-82879944D01*
X187197249Y-82818987D01*
X187246211Y-82793785D01*
X187252408Y-82766670D01*
X187257409Y-82758483D01*
X187281478Y-82722256D01*
X187342040Y-82631103D01*
X187355470Y-82595747D01*
X187397578Y-82484900D01*
X187397579Y-82484895D01*
X187400078Y-82478317D01*
X187403340Y-82455108D01*
X187422273Y-82320393D01*
X187422273Y-82320388D01*
X187422824Y-82316470D01*
X187423110Y-82296000D01*
X187421962Y-82285764D01*
X188496961Y-82285764D01*
X188512910Y-82448422D01*
X188515134Y-82455107D01*
X188515134Y-82455108D01*
X188538704Y-82525963D01*
X188564499Y-82603505D01*
X188649165Y-82743304D01*
X188652347Y-82746599D01*
X188672660Y-82798873D01*
X188713086Y-82812690D01*
X188731032Y-82828080D01*
X188762698Y-82860871D01*
X188768590Y-82864726D01*
X188768594Y-82864730D01*
X188839842Y-82911353D01*
X188899457Y-82950364D01*
X188935132Y-82963631D01*
X189046048Y-83004880D01*
X189046051Y-83004881D01*
X189052645Y-83007333D01*
X189059622Y-83008264D01*
X189207666Y-83028018D01*
X189207670Y-83028018D01*
X189214647Y-83028949D01*
X189221658Y-83028311D01*
X189221662Y-83028311D01*
X189370391Y-83014775D01*
X189377412Y-83014136D01*
X189384114Y-83011958D01*
X189384116Y-83011958D01*
X189526152Y-82965808D01*
X189526155Y-82965807D01*
X189532851Y-82963631D01*
X189620549Y-82911353D01*
X189667186Y-82883552D01*
X189667188Y-82883551D01*
X189673238Y-82879944D01*
X189737249Y-82818987D01*
X189786211Y-82793785D01*
X189792408Y-82766670D01*
X189797409Y-82758483D01*
X189821478Y-82722256D01*
X189882040Y-82631103D01*
X189895470Y-82595747D01*
X189937578Y-82484900D01*
X189937579Y-82484895D01*
X189940078Y-82478317D01*
X189943340Y-82455108D01*
X189962273Y-82320393D01*
X189962273Y-82320388D01*
X189962824Y-82316470D01*
X189963110Y-82296000D01*
X189961962Y-82285764D01*
X191036961Y-82285764D01*
X191052910Y-82448422D01*
X191055134Y-82455107D01*
X191055134Y-82455108D01*
X191078704Y-82525963D01*
X191104499Y-82603505D01*
X191189165Y-82743304D01*
X191192347Y-82746599D01*
X191212660Y-82798873D01*
X191253086Y-82812690D01*
X191271032Y-82828080D01*
X191302698Y-82860871D01*
X191308590Y-82864726D01*
X191308594Y-82864730D01*
X191379842Y-82911353D01*
X191439457Y-82950364D01*
X191475132Y-82963631D01*
X191586048Y-83004880D01*
X191586051Y-83004881D01*
X191592645Y-83007333D01*
X191599622Y-83008264D01*
X191747666Y-83028018D01*
X191747670Y-83028018D01*
X191754647Y-83028949D01*
X191761658Y-83028311D01*
X191761662Y-83028311D01*
X191910391Y-83014775D01*
X191917412Y-83014136D01*
X191924114Y-83011958D01*
X191924116Y-83011958D01*
X192066152Y-82965808D01*
X192066155Y-82965807D01*
X192072851Y-82963631D01*
X192160549Y-82911353D01*
X192207186Y-82883552D01*
X192207188Y-82883551D01*
X192213238Y-82879944D01*
X192277249Y-82818987D01*
X192326211Y-82793785D01*
X192332408Y-82766670D01*
X192337409Y-82758483D01*
X192361478Y-82722256D01*
X192422040Y-82631103D01*
X192435470Y-82595747D01*
X192477578Y-82484900D01*
X192477579Y-82484895D01*
X192480078Y-82478317D01*
X192483340Y-82455108D01*
X192502273Y-82320393D01*
X192502273Y-82320388D01*
X192502824Y-82316470D01*
X192503110Y-82296000D01*
X192501962Y-82285764D01*
X193576961Y-82285764D01*
X193592910Y-82448422D01*
X193595134Y-82455107D01*
X193595134Y-82455108D01*
X193618704Y-82525963D01*
X193644499Y-82603505D01*
X193729165Y-82743304D01*
X193732347Y-82746599D01*
X193752660Y-82798873D01*
X193793086Y-82812690D01*
X193811032Y-82828080D01*
X193842698Y-82860871D01*
X193848590Y-82864726D01*
X193848594Y-82864730D01*
X193919842Y-82911353D01*
X193979457Y-82950364D01*
X194015132Y-82963631D01*
X194126048Y-83004880D01*
X194126051Y-83004881D01*
X194132645Y-83007333D01*
X194139622Y-83008264D01*
X194287666Y-83028018D01*
X194287670Y-83028018D01*
X194294647Y-83028949D01*
X194301658Y-83028311D01*
X194301662Y-83028311D01*
X194450391Y-83014775D01*
X194457412Y-83014136D01*
X194464114Y-83011958D01*
X194464116Y-83011958D01*
X194606152Y-82965808D01*
X194606155Y-82965807D01*
X194612851Y-82963631D01*
X194700549Y-82911353D01*
X194747186Y-82883552D01*
X194747188Y-82883551D01*
X194753238Y-82879944D01*
X194871595Y-82767234D01*
X194962040Y-82631103D01*
X194975470Y-82595747D01*
X195017578Y-82484900D01*
X195017579Y-82484895D01*
X195020078Y-82478317D01*
X195023340Y-82455108D01*
X195042273Y-82320393D01*
X195042273Y-82320388D01*
X195042824Y-82316470D01*
X195043110Y-82296000D01*
X195024892Y-82133581D01*
X194971142Y-81979234D01*
X194884534Y-81840630D01*
X194879428Y-81835488D01*
X194774333Y-81729657D01*
X194774329Y-81729654D01*
X194769370Y-81724660D01*
X194758673Y-81717871D01*
X194707002Y-81685080D01*
X194631374Y-81637085D01*
X194570708Y-81615483D01*
X194484041Y-81584622D01*
X194484036Y-81584621D01*
X194477406Y-81582260D01*
X194470418Y-81581427D01*
X194470415Y-81581426D01*
X194359476Y-81568197D01*
X194315118Y-81562908D01*
X194308115Y-81563644D01*
X194308114Y-81563644D01*
X194159575Y-81579256D01*
X194159573Y-81579257D01*
X194152575Y-81579992D01*
X194092909Y-81600304D01*
X194004527Y-81630391D01*
X194004524Y-81630392D01*
X193997857Y-81632662D01*
X193858652Y-81718301D01*
X193800513Y-81775235D01*
X193748861Y-81802741D01*
X193740053Y-81835488D01*
X193653345Y-81970034D01*
X193650936Y-81976654D01*
X193650935Y-81976655D01*
X193625395Y-82046825D01*
X193597446Y-82123615D01*
X193576961Y-82285764D01*
X192501962Y-82285764D01*
X192484892Y-82133581D01*
X192431142Y-81979234D01*
X192344534Y-81840630D01*
X192346905Y-81839148D01*
X192329561Y-81796303D01*
X192288039Y-81781458D01*
X192272759Y-81768353D01*
X192245152Y-81740552D01*
X192229370Y-81724660D01*
X192218673Y-81717871D01*
X192167002Y-81685080D01*
X192091374Y-81637085D01*
X192030708Y-81615483D01*
X191944041Y-81584622D01*
X191944036Y-81584621D01*
X191937406Y-81582260D01*
X191930418Y-81581427D01*
X191930415Y-81581426D01*
X191819476Y-81568197D01*
X191775118Y-81562908D01*
X191768115Y-81563644D01*
X191768114Y-81563644D01*
X191619575Y-81579256D01*
X191619573Y-81579257D01*
X191612575Y-81579992D01*
X191552909Y-81600304D01*
X191464527Y-81630391D01*
X191464524Y-81630392D01*
X191457857Y-81632662D01*
X191318652Y-81718301D01*
X191260513Y-81775235D01*
X191208861Y-81802741D01*
X191200053Y-81835488D01*
X191113345Y-81970034D01*
X191110936Y-81976654D01*
X191110935Y-81976655D01*
X191085395Y-82046825D01*
X191057446Y-82123615D01*
X191036961Y-82285764D01*
X189961962Y-82285764D01*
X189944892Y-82133581D01*
X189891142Y-81979234D01*
X189804534Y-81840630D01*
X189806905Y-81839148D01*
X189789561Y-81796303D01*
X189748039Y-81781458D01*
X189732759Y-81768353D01*
X189705152Y-81740552D01*
X189689370Y-81724660D01*
X189678673Y-81717871D01*
X189627002Y-81685080D01*
X189551374Y-81637085D01*
X189490708Y-81615483D01*
X189404041Y-81584622D01*
X189404036Y-81584621D01*
X189397406Y-81582260D01*
X189390418Y-81581427D01*
X189390415Y-81581426D01*
X189279476Y-81568197D01*
X189235118Y-81562908D01*
X189228115Y-81563644D01*
X189228114Y-81563644D01*
X189079575Y-81579256D01*
X189079573Y-81579257D01*
X189072575Y-81579992D01*
X189012909Y-81600304D01*
X188924527Y-81630391D01*
X188924524Y-81630392D01*
X188917857Y-81632662D01*
X188778652Y-81718301D01*
X188720513Y-81775235D01*
X188668861Y-81802741D01*
X188660053Y-81835488D01*
X188573345Y-81970034D01*
X188570936Y-81976654D01*
X188570935Y-81976655D01*
X188545395Y-82046825D01*
X188517446Y-82123615D01*
X188496961Y-82285764D01*
X187421962Y-82285764D01*
X187404892Y-82133581D01*
X187351142Y-81979234D01*
X187264534Y-81840630D01*
X187266905Y-81839148D01*
X187249561Y-81796303D01*
X187208039Y-81781458D01*
X187192759Y-81768353D01*
X187165152Y-81740552D01*
X187149370Y-81724660D01*
X187138673Y-81717871D01*
X187087002Y-81685080D01*
X187011374Y-81637085D01*
X186950708Y-81615483D01*
X186864041Y-81584622D01*
X186864036Y-81584621D01*
X186857406Y-81582260D01*
X186850418Y-81581427D01*
X186850415Y-81581426D01*
X186739476Y-81568197D01*
X186695118Y-81562908D01*
X186688115Y-81563644D01*
X186688114Y-81563644D01*
X186539575Y-81579256D01*
X186539573Y-81579257D01*
X186532575Y-81579992D01*
X186472909Y-81600304D01*
X186384527Y-81630391D01*
X186384524Y-81630392D01*
X186377857Y-81632662D01*
X186238652Y-81718301D01*
X186121880Y-81832653D01*
X186033345Y-81970034D01*
X186030936Y-81976654D01*
X186030935Y-81976655D01*
X186005395Y-82046825D01*
X185977446Y-82123615D01*
X185956961Y-82285764D01*
X184591697Y-82285764D01*
X184588574Y-81142764D01*
X187226961Y-81142764D01*
X187242910Y-81305422D01*
X187245134Y-81312107D01*
X187245134Y-81312108D01*
X187268705Y-81382964D01*
X187294499Y-81460505D01*
X187379165Y-81600304D01*
X187382347Y-81603599D01*
X187402660Y-81655873D01*
X187443086Y-81669690D01*
X187461032Y-81685080D01*
X187492698Y-81717871D01*
X187498590Y-81721726D01*
X187498594Y-81721730D01*
X187569842Y-81768353D01*
X187629457Y-81807364D01*
X187665132Y-81820631D01*
X187776048Y-81861880D01*
X187776051Y-81861881D01*
X187782645Y-81864333D01*
X187789622Y-81865264D01*
X187937666Y-81885018D01*
X187937670Y-81885018D01*
X187944647Y-81885949D01*
X187951658Y-81885311D01*
X187951662Y-81885311D01*
X188100391Y-81871775D01*
X188107412Y-81871136D01*
X188114114Y-81868958D01*
X188114116Y-81868958D01*
X188256152Y-81822808D01*
X188256155Y-81822807D01*
X188262851Y-81820631D01*
X188350549Y-81768353D01*
X188397186Y-81740552D01*
X188397188Y-81740551D01*
X188403238Y-81736944D01*
X188467249Y-81675987D01*
X188516211Y-81650785D01*
X188522408Y-81623670D01*
X188527409Y-81615483D01*
X188551478Y-81579256D01*
X188612040Y-81488103D01*
X188625470Y-81452747D01*
X188667578Y-81341900D01*
X188667579Y-81341895D01*
X188670078Y-81335317D01*
X188673340Y-81312108D01*
X188692273Y-81177393D01*
X188692273Y-81177388D01*
X188692824Y-81173470D01*
X188693110Y-81153000D01*
X188691962Y-81142764D01*
X189766961Y-81142764D01*
X189782910Y-81305422D01*
X189785134Y-81312107D01*
X189785134Y-81312108D01*
X189808705Y-81382964D01*
X189834499Y-81460505D01*
X189919165Y-81600304D01*
X189922347Y-81603599D01*
X189942660Y-81655873D01*
X189983086Y-81669690D01*
X190001032Y-81685080D01*
X190032698Y-81717871D01*
X190038590Y-81721726D01*
X190038594Y-81721730D01*
X190109842Y-81768353D01*
X190169457Y-81807364D01*
X190205132Y-81820631D01*
X190316048Y-81861880D01*
X190316051Y-81861881D01*
X190322645Y-81864333D01*
X190329622Y-81865264D01*
X190477666Y-81885018D01*
X190477670Y-81885018D01*
X190484647Y-81885949D01*
X190491658Y-81885311D01*
X190491662Y-81885311D01*
X190640391Y-81871775D01*
X190647412Y-81871136D01*
X190654114Y-81868958D01*
X190654116Y-81868958D01*
X190796152Y-81822808D01*
X190796155Y-81822807D01*
X190802851Y-81820631D01*
X190890549Y-81768353D01*
X190937186Y-81740552D01*
X190937188Y-81740551D01*
X190943238Y-81736944D01*
X191007249Y-81675987D01*
X191056211Y-81650785D01*
X191062408Y-81623670D01*
X191067409Y-81615483D01*
X191091478Y-81579256D01*
X191152040Y-81488103D01*
X191165470Y-81452747D01*
X191207578Y-81341900D01*
X191207579Y-81341895D01*
X191210078Y-81335317D01*
X191213340Y-81312108D01*
X191232273Y-81177393D01*
X191232273Y-81177388D01*
X191232824Y-81173470D01*
X191233110Y-81153000D01*
X191231962Y-81142764D01*
X192306961Y-81142764D01*
X192322910Y-81305422D01*
X192325134Y-81312107D01*
X192325134Y-81312108D01*
X192348705Y-81382964D01*
X192374499Y-81460505D01*
X192459165Y-81600304D01*
X192462347Y-81603599D01*
X192482660Y-81655873D01*
X192523086Y-81669690D01*
X192541032Y-81685080D01*
X192572698Y-81717871D01*
X192578590Y-81721726D01*
X192578594Y-81721730D01*
X192649842Y-81768353D01*
X192709457Y-81807364D01*
X192745132Y-81820631D01*
X192856048Y-81861880D01*
X192856051Y-81861881D01*
X192862645Y-81864333D01*
X192869622Y-81865264D01*
X193017666Y-81885018D01*
X193017670Y-81885018D01*
X193024647Y-81885949D01*
X193031658Y-81885311D01*
X193031662Y-81885311D01*
X193180391Y-81871775D01*
X193187412Y-81871136D01*
X193194114Y-81868958D01*
X193194116Y-81868958D01*
X193336152Y-81822808D01*
X193336155Y-81822807D01*
X193342851Y-81820631D01*
X193430549Y-81768353D01*
X193477186Y-81740552D01*
X193477188Y-81740551D01*
X193483238Y-81736944D01*
X193547249Y-81675987D01*
X193596211Y-81650785D01*
X193602408Y-81623670D01*
X193607409Y-81615483D01*
X193631478Y-81579256D01*
X193692040Y-81488103D01*
X193705470Y-81452747D01*
X193747578Y-81341900D01*
X193747579Y-81341895D01*
X193750078Y-81335317D01*
X193753340Y-81312108D01*
X193772273Y-81177393D01*
X193772273Y-81177388D01*
X193772824Y-81173470D01*
X193773110Y-81153000D01*
X193754892Y-80990581D01*
X193701142Y-80836234D01*
X193614534Y-80697630D01*
X193616905Y-80696148D01*
X193599561Y-80653303D01*
X193558039Y-80638458D01*
X193542759Y-80625353D01*
X193515152Y-80597552D01*
X193499370Y-80581660D01*
X193488673Y-80574871D01*
X193437002Y-80542080D01*
X193361374Y-80494085D01*
X193300708Y-80472483D01*
X193214041Y-80441622D01*
X193214036Y-80441621D01*
X193207406Y-80439260D01*
X193200418Y-80438427D01*
X193200415Y-80438426D01*
X193089476Y-80425197D01*
X193045118Y-80419908D01*
X193038115Y-80420644D01*
X193038114Y-80420644D01*
X192889575Y-80436256D01*
X192889573Y-80436257D01*
X192882575Y-80436992D01*
X192822909Y-80457304D01*
X192734527Y-80487391D01*
X192734524Y-80487392D01*
X192727857Y-80489662D01*
X192588652Y-80575301D01*
X192530513Y-80632235D01*
X192478861Y-80659741D01*
X192470053Y-80692488D01*
X192383345Y-80827034D01*
X192380936Y-80833654D01*
X192380935Y-80833655D01*
X192355396Y-80903824D01*
X192327446Y-80980615D01*
X192306961Y-81142764D01*
X191231962Y-81142764D01*
X191214892Y-80990581D01*
X191161142Y-80836234D01*
X191074534Y-80697630D01*
X191076905Y-80696148D01*
X191059561Y-80653303D01*
X191018039Y-80638458D01*
X191002759Y-80625353D01*
X190975152Y-80597552D01*
X190959370Y-80581660D01*
X190948673Y-80574871D01*
X190897002Y-80542080D01*
X190821374Y-80494085D01*
X190760708Y-80472483D01*
X190674041Y-80441622D01*
X190674036Y-80441621D01*
X190667406Y-80439260D01*
X190660418Y-80438427D01*
X190660415Y-80438426D01*
X190549476Y-80425197D01*
X190505118Y-80419908D01*
X190498115Y-80420644D01*
X190498114Y-80420644D01*
X190349575Y-80436256D01*
X190349573Y-80436257D01*
X190342575Y-80436992D01*
X190282909Y-80457304D01*
X190194527Y-80487391D01*
X190194524Y-80487392D01*
X190187857Y-80489662D01*
X190048652Y-80575301D01*
X189990513Y-80632235D01*
X189938861Y-80659741D01*
X189930053Y-80692488D01*
X189843345Y-80827034D01*
X189840936Y-80833654D01*
X189840935Y-80833655D01*
X189815396Y-80903824D01*
X189787446Y-80980615D01*
X189766961Y-81142764D01*
X188691962Y-81142764D01*
X188674892Y-80990581D01*
X188621142Y-80836234D01*
X188534534Y-80697630D01*
X188536905Y-80696148D01*
X188519561Y-80653303D01*
X188478039Y-80638458D01*
X188462759Y-80625353D01*
X188435152Y-80597552D01*
X188419370Y-80581660D01*
X188408673Y-80574871D01*
X188357002Y-80542080D01*
X188281374Y-80494085D01*
X188220708Y-80472483D01*
X188134041Y-80441622D01*
X188134036Y-80441621D01*
X188127406Y-80439260D01*
X188120418Y-80438427D01*
X188120415Y-80438426D01*
X188009476Y-80425197D01*
X187965118Y-80419908D01*
X187958115Y-80420644D01*
X187958114Y-80420644D01*
X187809575Y-80436256D01*
X187809573Y-80436257D01*
X187802575Y-80436992D01*
X187742909Y-80457304D01*
X187654527Y-80487391D01*
X187654524Y-80487392D01*
X187647857Y-80489662D01*
X187508652Y-80575301D01*
X187450513Y-80632235D01*
X187398861Y-80659741D01*
X187390053Y-80692488D01*
X187303345Y-80827034D01*
X187300936Y-80833654D01*
X187300935Y-80833655D01*
X187275396Y-80903824D01*
X187247446Y-80980615D01*
X187226961Y-81142764D01*
X184588574Y-81142764D01*
X184585451Y-79999764D01*
X185956961Y-79999764D01*
X185972910Y-80162422D01*
X185975134Y-80169107D01*
X185975134Y-80169108D01*
X185998704Y-80239963D01*
X186024499Y-80317505D01*
X186028148Y-80323530D01*
X186105517Y-80451280D01*
X186109165Y-80457304D01*
X186222698Y-80574871D01*
X186228590Y-80578726D01*
X186228594Y-80578730D01*
X186299842Y-80625353D01*
X186359457Y-80664364D01*
X186395132Y-80677631D01*
X186506048Y-80718880D01*
X186506051Y-80718881D01*
X186512645Y-80721333D01*
X186519622Y-80722264D01*
X186667666Y-80742018D01*
X186667670Y-80742018D01*
X186674647Y-80742949D01*
X186681658Y-80742311D01*
X186681662Y-80742311D01*
X186830391Y-80728775D01*
X186837412Y-80728136D01*
X186844114Y-80725958D01*
X186844116Y-80725958D01*
X186986152Y-80679808D01*
X186986155Y-80679807D01*
X186992851Y-80677631D01*
X187080549Y-80625353D01*
X187127186Y-80597552D01*
X187127188Y-80597551D01*
X187133238Y-80593944D01*
X187197249Y-80532987D01*
X187246211Y-80507785D01*
X187252408Y-80480670D01*
X187257409Y-80472483D01*
X187281478Y-80436256D01*
X187342040Y-80345103D01*
X187355470Y-80309747D01*
X187397578Y-80198900D01*
X187397579Y-80198895D01*
X187400078Y-80192317D01*
X187403340Y-80169108D01*
X187422273Y-80034393D01*
X187422273Y-80034388D01*
X187422824Y-80030470D01*
X187423110Y-80010000D01*
X187421962Y-79999764D01*
X188496961Y-79999764D01*
X188512910Y-80162422D01*
X188515134Y-80169107D01*
X188515134Y-80169108D01*
X188538704Y-80239963D01*
X188564499Y-80317505D01*
X188649165Y-80457304D01*
X188652347Y-80460599D01*
X188672660Y-80512873D01*
X188713086Y-80526690D01*
X188731032Y-80542080D01*
X188762698Y-80574871D01*
X188768590Y-80578726D01*
X188768594Y-80578730D01*
X188839842Y-80625353D01*
X188899457Y-80664364D01*
X188935132Y-80677631D01*
X189046048Y-80718880D01*
X189046051Y-80718881D01*
X189052645Y-80721333D01*
X189059622Y-80722264D01*
X189207666Y-80742018D01*
X189207670Y-80742018D01*
X189214647Y-80742949D01*
X189221658Y-80742311D01*
X189221662Y-80742311D01*
X189370391Y-80728775D01*
X189377412Y-80728136D01*
X189384114Y-80725958D01*
X189384116Y-80725958D01*
X189526152Y-80679808D01*
X189526155Y-80679807D01*
X189532851Y-80677631D01*
X189620549Y-80625353D01*
X189667186Y-80597552D01*
X189667188Y-80597551D01*
X189673238Y-80593944D01*
X189737249Y-80532987D01*
X189786211Y-80507785D01*
X189792408Y-80480670D01*
X189797409Y-80472483D01*
X189821478Y-80436256D01*
X189882040Y-80345103D01*
X189895470Y-80309747D01*
X189937578Y-80198900D01*
X189937579Y-80198895D01*
X189940078Y-80192317D01*
X189943340Y-80169108D01*
X189962273Y-80034393D01*
X189962273Y-80034388D01*
X189962824Y-80030470D01*
X189963110Y-80010000D01*
X189961962Y-79999764D01*
X191036961Y-79999764D01*
X191052910Y-80162422D01*
X191055134Y-80169107D01*
X191055134Y-80169108D01*
X191078704Y-80239963D01*
X191104499Y-80317505D01*
X191189165Y-80457304D01*
X191192347Y-80460599D01*
X191212660Y-80512873D01*
X191253086Y-80526690D01*
X191271032Y-80542080D01*
X191302698Y-80574871D01*
X191308590Y-80578726D01*
X191308594Y-80578730D01*
X191379842Y-80625353D01*
X191439457Y-80664364D01*
X191475132Y-80677631D01*
X191586048Y-80718880D01*
X191586051Y-80718881D01*
X191592645Y-80721333D01*
X191599622Y-80722264D01*
X191747666Y-80742018D01*
X191747670Y-80742018D01*
X191754647Y-80742949D01*
X191761658Y-80742311D01*
X191761662Y-80742311D01*
X191910391Y-80728775D01*
X191917412Y-80728136D01*
X191924114Y-80725958D01*
X191924116Y-80725958D01*
X192066152Y-80679808D01*
X192066155Y-80679807D01*
X192072851Y-80677631D01*
X192160549Y-80625353D01*
X192207186Y-80597552D01*
X192207188Y-80597551D01*
X192213238Y-80593944D01*
X192277249Y-80532987D01*
X192326211Y-80507785D01*
X192332408Y-80480670D01*
X192337409Y-80472483D01*
X192361478Y-80436256D01*
X192422040Y-80345103D01*
X192435470Y-80309747D01*
X192477578Y-80198900D01*
X192477579Y-80198895D01*
X192480078Y-80192317D01*
X192483340Y-80169108D01*
X192502273Y-80034393D01*
X192502273Y-80034388D01*
X192502824Y-80030470D01*
X192503110Y-80010000D01*
X192501962Y-79999764D01*
X193576961Y-79999764D01*
X193592910Y-80162422D01*
X193595134Y-80169107D01*
X193595134Y-80169108D01*
X193618704Y-80239963D01*
X193644499Y-80317505D01*
X193729165Y-80457304D01*
X193732347Y-80460599D01*
X193752660Y-80512873D01*
X193793086Y-80526690D01*
X193811032Y-80542080D01*
X193842698Y-80574871D01*
X193848590Y-80578726D01*
X193848594Y-80578730D01*
X193919842Y-80625353D01*
X193979457Y-80664364D01*
X194015132Y-80677631D01*
X194126048Y-80718880D01*
X194126051Y-80718881D01*
X194132645Y-80721333D01*
X194139622Y-80722264D01*
X194287666Y-80742018D01*
X194287670Y-80742018D01*
X194294647Y-80742949D01*
X194301658Y-80742311D01*
X194301662Y-80742311D01*
X194450391Y-80728775D01*
X194457412Y-80728136D01*
X194464114Y-80725958D01*
X194464116Y-80725958D01*
X194606152Y-80679808D01*
X194606155Y-80679807D01*
X194612851Y-80677631D01*
X194700549Y-80625353D01*
X194747186Y-80597552D01*
X194747188Y-80597551D01*
X194753238Y-80593944D01*
X194871595Y-80481234D01*
X194962040Y-80345103D01*
X194975470Y-80309747D01*
X195017578Y-80198900D01*
X195017579Y-80198895D01*
X195020078Y-80192317D01*
X195023340Y-80169108D01*
X195042273Y-80034393D01*
X195042273Y-80034388D01*
X195042824Y-80030470D01*
X195043110Y-80010000D01*
X195024892Y-79847581D01*
X194971142Y-79693234D01*
X194884534Y-79554630D01*
X194879572Y-79549633D01*
X194774333Y-79443657D01*
X194774329Y-79443654D01*
X194769370Y-79438660D01*
X194753536Y-79428611D01*
X194716440Y-79405069D01*
X194631374Y-79351085D01*
X194606835Y-79342347D01*
X194484041Y-79298622D01*
X194484036Y-79298621D01*
X194477406Y-79296260D01*
X194470418Y-79295427D01*
X194470415Y-79295426D01*
X194359476Y-79282197D01*
X194315118Y-79276908D01*
X194308115Y-79277644D01*
X194308114Y-79277644D01*
X194159575Y-79293256D01*
X194159573Y-79293257D01*
X194152575Y-79293992D01*
X194071273Y-79321669D01*
X194004527Y-79344391D01*
X194004524Y-79344392D01*
X193997857Y-79346662D01*
X193858652Y-79432301D01*
X193741880Y-79546653D01*
X193653345Y-79684034D01*
X193650936Y-79690654D01*
X193650935Y-79690655D01*
X193625396Y-79760824D01*
X193597446Y-79837615D01*
X193576961Y-79999764D01*
X192501962Y-79999764D01*
X192484892Y-79847581D01*
X192431142Y-79693234D01*
X192344534Y-79554630D01*
X192339572Y-79549633D01*
X192234333Y-79443657D01*
X192234329Y-79443654D01*
X192229370Y-79438660D01*
X192213536Y-79428611D01*
X192176440Y-79405069D01*
X192091374Y-79351085D01*
X192066835Y-79342347D01*
X191944041Y-79298622D01*
X191944036Y-79298621D01*
X191937406Y-79296260D01*
X191930418Y-79295427D01*
X191930415Y-79295426D01*
X191819476Y-79282197D01*
X191775118Y-79276908D01*
X191768115Y-79277644D01*
X191768114Y-79277644D01*
X191619575Y-79293256D01*
X191619573Y-79293257D01*
X191612575Y-79293992D01*
X191531273Y-79321669D01*
X191464527Y-79344391D01*
X191464524Y-79344392D01*
X191457857Y-79346662D01*
X191318652Y-79432301D01*
X191201880Y-79546653D01*
X191113345Y-79684034D01*
X191110936Y-79690654D01*
X191110935Y-79690655D01*
X191085396Y-79760824D01*
X191057446Y-79837615D01*
X191036961Y-79999764D01*
X189961962Y-79999764D01*
X189944892Y-79847581D01*
X189891142Y-79693234D01*
X189804534Y-79554630D01*
X189799572Y-79549633D01*
X189694333Y-79443657D01*
X189694329Y-79443654D01*
X189689370Y-79438660D01*
X189673536Y-79428611D01*
X189636440Y-79405069D01*
X189551374Y-79351085D01*
X189526835Y-79342347D01*
X189404041Y-79298622D01*
X189404036Y-79298621D01*
X189397406Y-79296260D01*
X189390418Y-79295427D01*
X189390415Y-79295426D01*
X189279476Y-79282197D01*
X189235118Y-79276908D01*
X189228115Y-79277644D01*
X189228114Y-79277644D01*
X189079575Y-79293256D01*
X189079573Y-79293257D01*
X189072575Y-79293992D01*
X188991273Y-79321669D01*
X188924527Y-79344391D01*
X188924524Y-79344392D01*
X188917857Y-79346662D01*
X188778652Y-79432301D01*
X188661880Y-79546653D01*
X188573345Y-79684034D01*
X188570936Y-79690654D01*
X188570935Y-79690655D01*
X188545396Y-79760824D01*
X188517446Y-79837615D01*
X188496961Y-79999764D01*
X187421962Y-79999764D01*
X187404892Y-79847581D01*
X187351142Y-79693234D01*
X187264534Y-79554630D01*
X187259572Y-79549633D01*
X187154333Y-79443657D01*
X187154329Y-79443654D01*
X187149370Y-79438660D01*
X187133536Y-79428611D01*
X187096440Y-79405069D01*
X187011374Y-79351085D01*
X186986835Y-79342347D01*
X186864041Y-79298622D01*
X186864036Y-79298621D01*
X186857406Y-79296260D01*
X186850418Y-79295427D01*
X186850415Y-79295426D01*
X186739476Y-79282197D01*
X186695118Y-79276908D01*
X186688115Y-79277644D01*
X186688114Y-79277644D01*
X186539575Y-79293256D01*
X186539573Y-79293257D01*
X186532575Y-79293992D01*
X186451273Y-79321669D01*
X186384527Y-79344391D01*
X186384524Y-79344392D01*
X186377857Y-79346662D01*
X186238652Y-79432301D01*
X186121880Y-79546653D01*
X186033345Y-79684034D01*
X186030936Y-79690654D01*
X186030935Y-79690655D01*
X186005396Y-79760824D01*
X185977446Y-79837615D01*
X185956961Y-79999764D01*
X184585451Y-79999764D01*
X184533434Y-60961607D01*
X184532046Y-60453609D01*
X184024049Y-60455447D01*
X178139023Y-60476743D01*
X172306321Y-60497851D01*
X172238129Y-60478096D01*
X172216932Y-60461108D01*
X171783066Y-60028809D01*
X171748928Y-59966559D01*
X171746000Y-59939553D01*
X171746000Y-55346669D01*
X185714786Y-55346669D01*
X185715156Y-55353490D01*
X185720680Y-55404352D01*
X185724306Y-55419604D01*
X185769461Y-55540054D01*
X185777999Y-55555649D01*
X185854500Y-55657724D01*
X185867061Y-55670285D01*
X185969136Y-55746786D01*
X185984731Y-55755324D01*
X186105179Y-55800478D01*
X186120434Y-55804105D01*
X186171299Y-55809631D01*
X186178113Y-55810000D01*
X187150670Y-55810000D01*
X187165909Y-55805525D01*
X187167114Y-55804135D01*
X187168785Y-55796452D01*
X187168785Y-54374115D01*
X187164310Y-54358876D01*
X187162920Y-54357671D01*
X187155237Y-54356000D01*
X185732901Y-54356000D01*
X185717662Y-54360475D01*
X185716457Y-54361865D01*
X185714786Y-54369548D01*
X185714786Y-55346669D01*
X171746000Y-55346669D01*
X171746000Y-53829885D01*
X185714785Y-53829885D01*
X185719260Y-53845124D01*
X185720650Y-53846329D01*
X185728333Y-53848000D01*
X187150670Y-53848000D01*
X187165909Y-53843525D01*
X187167114Y-53842135D01*
X187168785Y-53834452D01*
X187168785Y-52412116D01*
X187164310Y-52396877D01*
X187162920Y-52395672D01*
X187155237Y-52394001D01*
X186178116Y-52394001D01*
X186171295Y-52394371D01*
X186120433Y-52399895D01*
X186105181Y-52403521D01*
X185984731Y-52448676D01*
X185969136Y-52457214D01*
X185867061Y-52533715D01*
X185854500Y-52546276D01*
X185777999Y-52648351D01*
X185769461Y-52663946D01*
X185724307Y-52784394D01*
X185720680Y-52799649D01*
X185715154Y-52850514D01*
X185714785Y-52857328D01*
X185714785Y-53829885D01*
X171746000Y-53829885D01*
X171746000Y-52187068D01*
X171766002Y-52118947D01*
X171782905Y-52097973D01*
X172217095Y-51663783D01*
X172279407Y-51629757D01*
X172306190Y-51626878D01*
X188812809Y-51626878D01*
X188880930Y-51646880D01*
G37*
%TD.AperFunction*%
%TD*%
%TA.AperFunction,Conductor*%
%TO.N,GND*%
G36*
X150999931Y-65520002D02*
G01*
X151020905Y-65536905D01*
X151963095Y-66479095D01*
X151997121Y-66541407D01*
X152000000Y-66568190D01*
X152000000Y-113931810D01*
X151979998Y-113999931D01*
X151963095Y-114020905D01*
X151020905Y-114963095D01*
X150958593Y-114997121D01*
X150931810Y-115000000D01*
X128568190Y-115000000D01*
X128500069Y-114979998D01*
X128479095Y-114963095D01*
X127544905Y-114028905D01*
X127510879Y-113966593D01*
X127508000Y-113939810D01*
X127508000Y-112456829D01*
X130326052Y-112456829D01*
X130334828Y-112690604D01*
X130335923Y-112695822D01*
X130375507Y-112884475D01*
X130382868Y-112919559D01*
X130468797Y-113137146D01*
X130471566Y-113141709D01*
X130584758Y-113328243D01*
X130590159Y-113337144D01*
X130743483Y-113513834D01*
X130924386Y-113662165D01*
X131127695Y-113777896D01*
X131347596Y-113857716D01*
X131352845Y-113858665D01*
X131352848Y-113858666D01*
X131434040Y-113873348D01*
X131577803Y-113899344D01*
X131581942Y-113899539D01*
X131581949Y-113899540D01*
X131600828Y-113900430D01*
X131600835Y-113900430D01*
X131602316Y-113900500D01*
X132216738Y-113900500D01*
X132284641Y-113894738D01*
X132385791Y-113886156D01*
X132385795Y-113886155D01*
X132391102Y-113885705D01*
X132396259Y-113884367D01*
X132396262Y-113884366D01*
X132612371Y-113828275D01*
X132612375Y-113828274D01*
X132617540Y-113826933D01*
X132622406Y-113824741D01*
X132622409Y-113824740D01*
X132825964Y-113733045D01*
X132830837Y-113730850D01*
X132842052Y-113723300D01*
X132937885Y-113658781D01*
X133024896Y-113600202D01*
X133194168Y-113438724D01*
X133333813Y-113251035D01*
X133389398Y-113141709D01*
X133437420Y-113047256D01*
X133437420Y-113047255D01*
X133439838Y-113042500D01*
X133490605Y-112879000D01*
X138884502Y-112879000D01*
X138904457Y-113107087D01*
X138963716Y-113328243D01*
X138966039Y-113333224D01*
X138966039Y-113333225D01*
X139058151Y-113530762D01*
X139058154Y-113530767D01*
X139060477Y-113535749D01*
X139191802Y-113723300D01*
X139353700Y-113885198D01*
X139358208Y-113888355D01*
X139358211Y-113888357D01*
X139374182Y-113899540D01*
X139541251Y-114016523D01*
X139546233Y-114018846D01*
X139546238Y-114018849D01*
X139743775Y-114110961D01*
X139748757Y-114113284D01*
X139754065Y-114114706D01*
X139754067Y-114114707D01*
X139964598Y-114171119D01*
X139964600Y-114171119D01*
X139969913Y-114172543D01*
X140198000Y-114192498D01*
X140426087Y-114172543D01*
X140431400Y-114171119D01*
X140431402Y-114171119D01*
X140641933Y-114114707D01*
X140641935Y-114114706D01*
X140647243Y-114113284D01*
X140652225Y-114110961D01*
X140849762Y-114018849D01*
X140849767Y-114018846D01*
X140854749Y-114016523D01*
X141021818Y-113899540D01*
X141037789Y-113888357D01*
X141037792Y-113888355D01*
X141042300Y-113885198D01*
X141204198Y-113723300D01*
X141335523Y-113535749D01*
X141337846Y-113530767D01*
X141337849Y-113530762D01*
X141429961Y-113333225D01*
X141429961Y-113333224D01*
X141432284Y-113328243D01*
X141491543Y-113107087D01*
X141511498Y-112879000D01*
X141491543Y-112650913D01*
X141473035Y-112581840D01*
X141433707Y-112435067D01*
X141433706Y-112435065D01*
X141432284Y-112429757D01*
X141429961Y-112424775D01*
X141337849Y-112227238D01*
X141337846Y-112227233D01*
X141335523Y-112222251D01*
X141204198Y-112034700D01*
X141042300Y-111872802D01*
X141037792Y-111869645D01*
X141037789Y-111869643D01*
X140922166Y-111788683D01*
X140854749Y-111741477D01*
X140849767Y-111739154D01*
X140849762Y-111739151D01*
X140815543Y-111723195D01*
X140762258Y-111676278D01*
X140742797Y-111608001D01*
X140763339Y-111540041D01*
X140815543Y-111494805D01*
X140849762Y-111478849D01*
X140849767Y-111478846D01*
X140854749Y-111476523D01*
X141023289Y-111358510D01*
X141037789Y-111348357D01*
X141037792Y-111348355D01*
X141042300Y-111345198D01*
X141204198Y-111183300D01*
X141230740Y-111145395D01*
X141332366Y-111000257D01*
X141335523Y-110995749D01*
X141337846Y-110990767D01*
X141337849Y-110990762D01*
X141429961Y-110793225D01*
X141429961Y-110793224D01*
X141432284Y-110788243D01*
X141491543Y-110567087D01*
X141511498Y-110339000D01*
X146504502Y-110339000D01*
X146524457Y-110567087D01*
X146583716Y-110788243D01*
X146586039Y-110793224D01*
X146586039Y-110793225D01*
X146678151Y-110990762D01*
X146678154Y-110990767D01*
X146680477Y-110995749D01*
X146683634Y-111000257D01*
X146785261Y-111145395D01*
X146811802Y-111183300D01*
X146973700Y-111345198D01*
X146978211Y-111348357D01*
X146982424Y-111351892D01*
X146981473Y-111353026D01*
X147021471Y-111403071D01*
X147028776Y-111473690D01*
X146996742Y-111537049D01*
X146935538Y-111573030D01*
X146918483Y-111576082D01*
X146907684Y-111577255D01*
X146771295Y-111628385D01*
X146654739Y-111715739D01*
X146567385Y-111832295D01*
X146516255Y-111968684D01*
X146509500Y-112030866D01*
X146509500Y-113727134D01*
X146516255Y-113789316D01*
X146567385Y-113925705D01*
X146654739Y-114042261D01*
X146771295Y-114129615D01*
X146907684Y-114180745D01*
X146969866Y-114187500D01*
X148666134Y-114187500D01*
X148728316Y-114180745D01*
X148864705Y-114129615D01*
X148981261Y-114042261D01*
X149068615Y-113925705D01*
X149119745Y-113789316D01*
X149126500Y-113727134D01*
X149126500Y-112030866D01*
X149119745Y-111968684D01*
X149068615Y-111832295D01*
X148981261Y-111715739D01*
X148864705Y-111628385D01*
X148728316Y-111577255D01*
X148717526Y-111576083D01*
X148715394Y-111575197D01*
X148712778Y-111574575D01*
X148712879Y-111574152D01*
X148651965Y-111548845D01*
X148611537Y-111490483D01*
X148609078Y-111419529D01*
X148645371Y-111358510D01*
X148654031Y-111351511D01*
X148657793Y-111348354D01*
X148662300Y-111345198D01*
X148824198Y-111183300D01*
X148850740Y-111145395D01*
X148952366Y-111000257D01*
X148955523Y-110995749D01*
X148957846Y-110990767D01*
X148957849Y-110990762D01*
X149049961Y-110793225D01*
X149049961Y-110793224D01*
X149052284Y-110788243D01*
X149111543Y-110567087D01*
X149131498Y-110339000D01*
X149111543Y-110110913D01*
X149052284Y-109889757D01*
X149049961Y-109884775D01*
X148957849Y-109687238D01*
X148957846Y-109687233D01*
X148955523Y-109682251D01*
X148824198Y-109494700D01*
X148662300Y-109332802D01*
X148657792Y-109329645D01*
X148657789Y-109329643D01*
X148579611Y-109274902D01*
X148474749Y-109201477D01*
X148469767Y-109199154D01*
X148469762Y-109199151D01*
X148435543Y-109183195D01*
X148382258Y-109136278D01*
X148362797Y-109068001D01*
X148383339Y-109000041D01*
X148435543Y-108954805D01*
X148469762Y-108938849D01*
X148469767Y-108938846D01*
X148474749Y-108936523D01*
X148654731Y-108810498D01*
X148657789Y-108808357D01*
X148657792Y-108808355D01*
X148662300Y-108805198D01*
X148824198Y-108643300D01*
X148955523Y-108455749D01*
X148957846Y-108450767D01*
X148957849Y-108450762D01*
X149049961Y-108253225D01*
X149049961Y-108253224D01*
X149052284Y-108248243D01*
X149062526Y-108210022D01*
X149110119Y-108032402D01*
X149110119Y-108032400D01*
X149111543Y-108027087D01*
X149131498Y-107799000D01*
X149111543Y-107570913D01*
X149052284Y-107349757D01*
X149049961Y-107344775D01*
X148957849Y-107147238D01*
X148957846Y-107147233D01*
X148955523Y-107142251D01*
X148824198Y-106954700D01*
X148662300Y-106792802D01*
X148657792Y-106789645D01*
X148657789Y-106789643D01*
X148492602Y-106673978D01*
X148474749Y-106661477D01*
X148469767Y-106659154D01*
X148469762Y-106659151D01*
X148435543Y-106643195D01*
X148382258Y-106596278D01*
X148362797Y-106528001D01*
X148383339Y-106460041D01*
X148435543Y-106414805D01*
X148469762Y-106398849D01*
X148469767Y-106398846D01*
X148474749Y-106396523D01*
X148579611Y-106323098D01*
X148657789Y-106268357D01*
X148657792Y-106268355D01*
X148662300Y-106265198D01*
X148824198Y-106103300D01*
X148851831Y-106063837D01*
X148952366Y-105920257D01*
X148955523Y-105915749D01*
X148957846Y-105910767D01*
X148957849Y-105910762D01*
X149049961Y-105713225D01*
X149049961Y-105713224D01*
X149052284Y-105708243D01*
X149111543Y-105487087D01*
X149131498Y-105259000D01*
X149111543Y-105030913D01*
X149052284Y-104809757D01*
X149049961Y-104804775D01*
X148957849Y-104607238D01*
X148957846Y-104607233D01*
X148955523Y-104602251D01*
X148824198Y-104414700D01*
X148662300Y-104252802D01*
X148657792Y-104249645D01*
X148657789Y-104249643D01*
X148579611Y-104194902D01*
X148474749Y-104121477D01*
X148469767Y-104119154D01*
X148469762Y-104119151D01*
X148272225Y-104027039D01*
X148272224Y-104027039D01*
X148267243Y-104024716D01*
X148261935Y-104023294D01*
X148261933Y-104023293D01*
X148051402Y-103966881D01*
X148051400Y-103966881D01*
X148046087Y-103965457D01*
X147818000Y-103945502D01*
X147589913Y-103965457D01*
X147584600Y-103966881D01*
X147584598Y-103966881D01*
X147374067Y-104023293D01*
X147374065Y-104023294D01*
X147368757Y-104024716D01*
X147363776Y-104027039D01*
X147363775Y-104027039D01*
X147166238Y-104119151D01*
X147166233Y-104119154D01*
X147161251Y-104121477D01*
X147056389Y-104194902D01*
X146978211Y-104249643D01*
X146978208Y-104249645D01*
X146973700Y-104252802D01*
X146811802Y-104414700D01*
X146680477Y-104602251D01*
X146678154Y-104607233D01*
X146678151Y-104607238D01*
X146586039Y-104804775D01*
X146583716Y-104809757D01*
X146524457Y-105030913D01*
X146504502Y-105259000D01*
X146524457Y-105487087D01*
X146583716Y-105708243D01*
X146586039Y-105713224D01*
X146586039Y-105713225D01*
X146678151Y-105910762D01*
X146678154Y-105910767D01*
X146680477Y-105915749D01*
X146683634Y-105920257D01*
X146784170Y-106063837D01*
X146811802Y-106103300D01*
X146973700Y-106265198D01*
X146978208Y-106268355D01*
X146978211Y-106268357D01*
X147056389Y-106323098D01*
X147161251Y-106396523D01*
X147166233Y-106398846D01*
X147166238Y-106398849D01*
X147200457Y-106414805D01*
X147253742Y-106461722D01*
X147273203Y-106529999D01*
X147252661Y-106597959D01*
X147200457Y-106643195D01*
X147166238Y-106659151D01*
X147166233Y-106659154D01*
X147161251Y-106661477D01*
X147143398Y-106673978D01*
X146978211Y-106789643D01*
X146978208Y-106789645D01*
X146973700Y-106792802D01*
X146811802Y-106954700D01*
X146680477Y-107142251D01*
X146678154Y-107147233D01*
X146678151Y-107147238D01*
X146586039Y-107344775D01*
X146583716Y-107349757D01*
X146524457Y-107570913D01*
X146504502Y-107799000D01*
X146524457Y-108027087D01*
X146525881Y-108032400D01*
X146525881Y-108032402D01*
X146573475Y-108210022D01*
X146583716Y-108248243D01*
X146586039Y-108253224D01*
X146586039Y-108253225D01*
X146678151Y-108450762D01*
X146678154Y-108450767D01*
X146680477Y-108455749D01*
X146811802Y-108643300D01*
X146973700Y-108805198D01*
X146978208Y-108808355D01*
X146978211Y-108808357D01*
X146981269Y-108810498D01*
X147161251Y-108936523D01*
X147166233Y-108938846D01*
X147166238Y-108938849D01*
X147200457Y-108954805D01*
X147253742Y-109001722D01*
X147273203Y-109069999D01*
X147252661Y-109137959D01*
X147200457Y-109183195D01*
X147166238Y-109199151D01*
X147166233Y-109199154D01*
X147161251Y-109201477D01*
X147056389Y-109274902D01*
X146978211Y-109329643D01*
X146978208Y-109329645D01*
X146973700Y-109332802D01*
X146811802Y-109494700D01*
X146680477Y-109682251D01*
X146678154Y-109687233D01*
X146678151Y-109687238D01*
X146586039Y-109884775D01*
X146583716Y-109889757D01*
X146524457Y-110110913D01*
X146504502Y-110339000D01*
X141511498Y-110339000D01*
X141491543Y-110110913D01*
X141432284Y-109889757D01*
X141429961Y-109884775D01*
X141337849Y-109687238D01*
X141337846Y-109687233D01*
X141335523Y-109682251D01*
X141204198Y-109494700D01*
X141042300Y-109332802D01*
X141037792Y-109329645D01*
X141037789Y-109329643D01*
X140959611Y-109274902D01*
X140854749Y-109201477D01*
X140849767Y-109199154D01*
X140849762Y-109199151D01*
X140815543Y-109183195D01*
X140762258Y-109136278D01*
X140742797Y-109068001D01*
X140763339Y-109000041D01*
X140815543Y-108954805D01*
X140849762Y-108938849D01*
X140849767Y-108938846D01*
X140854749Y-108936523D01*
X141034731Y-108810498D01*
X141037789Y-108808357D01*
X141037792Y-108808355D01*
X141042300Y-108805198D01*
X141204198Y-108643300D01*
X141335523Y-108455749D01*
X141337846Y-108450767D01*
X141337849Y-108450762D01*
X141429961Y-108253225D01*
X141429961Y-108253224D01*
X141432284Y-108248243D01*
X141442526Y-108210022D01*
X141490119Y-108032402D01*
X141490119Y-108032400D01*
X141491543Y-108027087D01*
X141511498Y-107799000D01*
X141491543Y-107570913D01*
X141432284Y-107349757D01*
X141429961Y-107344775D01*
X141337849Y-107147238D01*
X141337846Y-107147233D01*
X141335523Y-107142251D01*
X141204198Y-106954700D01*
X141042300Y-106792802D01*
X141037792Y-106789645D01*
X141037789Y-106789643D01*
X140872602Y-106673978D01*
X140854749Y-106661477D01*
X140849767Y-106659154D01*
X140849762Y-106659151D01*
X140815543Y-106643195D01*
X140762258Y-106596278D01*
X140742797Y-106528001D01*
X140763339Y-106460041D01*
X140815543Y-106414805D01*
X140849762Y-106398849D01*
X140849767Y-106398846D01*
X140854749Y-106396523D01*
X140959611Y-106323098D01*
X141037789Y-106268357D01*
X141037792Y-106268355D01*
X141042300Y-106265198D01*
X141204198Y-106103300D01*
X141231831Y-106063837D01*
X141332366Y-105920257D01*
X141335523Y-105915749D01*
X141337846Y-105910767D01*
X141337849Y-105910762D01*
X141429961Y-105713225D01*
X141429961Y-105713224D01*
X141432284Y-105708243D01*
X141491543Y-105487087D01*
X141511498Y-105259000D01*
X141491543Y-105030913D01*
X141432284Y-104809757D01*
X141429961Y-104804775D01*
X141337849Y-104607238D01*
X141337846Y-104607233D01*
X141335523Y-104602251D01*
X141204198Y-104414700D01*
X141042300Y-104252802D01*
X141037792Y-104249645D01*
X141037789Y-104249643D01*
X140959611Y-104194902D01*
X140854749Y-104121477D01*
X140849767Y-104119154D01*
X140849762Y-104119151D01*
X140815543Y-104103195D01*
X140762258Y-104056278D01*
X140742797Y-103988001D01*
X140763339Y-103920041D01*
X140815543Y-103874805D01*
X140849762Y-103858849D01*
X140849767Y-103858846D01*
X140854749Y-103856523D01*
X140959611Y-103783098D01*
X141037789Y-103728357D01*
X141037792Y-103728355D01*
X141042300Y-103725198D01*
X141204198Y-103563300D01*
X141335523Y-103375749D01*
X141337846Y-103370767D01*
X141337849Y-103370762D01*
X141429961Y-103173225D01*
X141429961Y-103173224D01*
X141432284Y-103168243D01*
X141491543Y-102947087D01*
X141511498Y-102719000D01*
X141491543Y-102490913D01*
X141432284Y-102269757D01*
X141429961Y-102264775D01*
X141337849Y-102067238D01*
X141337846Y-102067233D01*
X141335523Y-102062251D01*
X141204198Y-101874700D01*
X141042300Y-101712802D01*
X141037792Y-101709645D01*
X141037789Y-101709643D01*
X140959611Y-101654902D01*
X140854749Y-101581477D01*
X140849767Y-101579154D01*
X140849762Y-101579151D01*
X140652225Y-101487039D01*
X140652224Y-101487039D01*
X140647243Y-101484716D01*
X140641935Y-101483294D01*
X140641933Y-101483293D01*
X140431402Y-101426881D01*
X140431400Y-101426881D01*
X140426087Y-101425457D01*
X140198000Y-101405502D01*
X139969913Y-101425457D01*
X139964600Y-101426881D01*
X139964598Y-101426881D01*
X139754067Y-101483293D01*
X139754065Y-101483294D01*
X139748757Y-101484716D01*
X139743776Y-101487039D01*
X139743775Y-101487039D01*
X139546238Y-101579151D01*
X139546233Y-101579154D01*
X139541251Y-101581477D01*
X139436389Y-101654902D01*
X139358211Y-101709643D01*
X139358208Y-101709645D01*
X139353700Y-101712802D01*
X139191802Y-101874700D01*
X139060477Y-102062251D01*
X139058154Y-102067233D01*
X139058151Y-102067238D01*
X138966039Y-102264775D01*
X138963716Y-102269757D01*
X138904457Y-102490913D01*
X138884502Y-102719000D01*
X138904457Y-102947087D01*
X138963716Y-103168243D01*
X138966039Y-103173224D01*
X138966039Y-103173225D01*
X139058151Y-103370762D01*
X139058154Y-103370767D01*
X139060477Y-103375749D01*
X139191802Y-103563300D01*
X139353700Y-103725198D01*
X139358208Y-103728355D01*
X139358211Y-103728357D01*
X139436389Y-103783098D01*
X139541251Y-103856523D01*
X139546233Y-103858846D01*
X139546238Y-103858849D01*
X139580457Y-103874805D01*
X139633742Y-103921722D01*
X139653203Y-103989999D01*
X139632661Y-104057959D01*
X139580457Y-104103195D01*
X139546238Y-104119151D01*
X139546233Y-104119154D01*
X139541251Y-104121477D01*
X139436389Y-104194902D01*
X139358211Y-104249643D01*
X139358208Y-104249645D01*
X139353700Y-104252802D01*
X139191802Y-104414700D01*
X139060477Y-104602251D01*
X139058154Y-104607233D01*
X139058151Y-104607238D01*
X138966039Y-104804775D01*
X138963716Y-104809757D01*
X138904457Y-105030913D01*
X138884502Y-105259000D01*
X138904457Y-105487087D01*
X138963716Y-105708243D01*
X138966039Y-105713224D01*
X138966039Y-105713225D01*
X139058151Y-105910762D01*
X139058154Y-105910767D01*
X139060477Y-105915749D01*
X139063634Y-105920257D01*
X139164170Y-106063837D01*
X139191802Y-106103300D01*
X139353700Y-106265198D01*
X139358208Y-106268355D01*
X139358211Y-106268357D01*
X139436389Y-106323098D01*
X139541251Y-106396523D01*
X139546233Y-106398846D01*
X139546238Y-106398849D01*
X139580457Y-106414805D01*
X139633742Y-106461722D01*
X139653203Y-106529999D01*
X139632661Y-106597959D01*
X139580457Y-106643195D01*
X139546238Y-106659151D01*
X139546233Y-106659154D01*
X139541251Y-106661477D01*
X139523398Y-106673978D01*
X139358211Y-106789643D01*
X139358208Y-106789645D01*
X139353700Y-106792802D01*
X139191802Y-106954700D01*
X139060477Y-107142251D01*
X139058154Y-107147233D01*
X139058151Y-107147238D01*
X138966039Y-107344775D01*
X138963716Y-107349757D01*
X138904457Y-107570913D01*
X138884502Y-107799000D01*
X138904457Y-108027087D01*
X138905881Y-108032400D01*
X138905881Y-108032402D01*
X138953475Y-108210022D01*
X138963716Y-108248243D01*
X138966039Y-108253224D01*
X138966039Y-108253225D01*
X139058151Y-108450762D01*
X139058154Y-108450767D01*
X139060477Y-108455749D01*
X139191802Y-108643300D01*
X139353700Y-108805198D01*
X139358208Y-108808355D01*
X139358211Y-108808357D01*
X139361269Y-108810498D01*
X139541251Y-108936523D01*
X139546233Y-108938846D01*
X139546238Y-108938849D01*
X139580457Y-108954805D01*
X139633742Y-109001722D01*
X139653203Y-109069999D01*
X139632661Y-109137959D01*
X139580457Y-109183195D01*
X139546238Y-109199151D01*
X139546233Y-109199154D01*
X139541251Y-109201477D01*
X139436389Y-109274902D01*
X139358211Y-109329643D01*
X139358208Y-109329645D01*
X139353700Y-109332802D01*
X139191802Y-109494700D01*
X139060477Y-109682251D01*
X139058154Y-109687233D01*
X139058151Y-109687238D01*
X138966039Y-109884775D01*
X138963716Y-109889757D01*
X138904457Y-110110913D01*
X138884502Y-110339000D01*
X138904457Y-110567087D01*
X138963716Y-110788243D01*
X138966039Y-110793224D01*
X138966039Y-110793225D01*
X139058151Y-110990762D01*
X139058154Y-110990767D01*
X139060477Y-110995749D01*
X139063634Y-111000257D01*
X139165261Y-111145395D01*
X139191802Y-111183300D01*
X139353700Y-111345198D01*
X139358208Y-111348355D01*
X139358211Y-111348357D01*
X139372711Y-111358510D01*
X139541251Y-111476523D01*
X139546233Y-111478846D01*
X139546238Y-111478849D01*
X139580457Y-111494805D01*
X139633742Y-111541722D01*
X139653203Y-111609999D01*
X139632661Y-111677959D01*
X139580457Y-111723195D01*
X139546238Y-111739151D01*
X139546233Y-111739154D01*
X139541251Y-111741477D01*
X139473834Y-111788683D01*
X139358211Y-111869643D01*
X139358208Y-111869645D01*
X139353700Y-111872802D01*
X139191802Y-112034700D01*
X139060477Y-112222251D01*
X139058154Y-112227233D01*
X139058151Y-112227238D01*
X138966039Y-112424775D01*
X138963716Y-112429757D01*
X138962294Y-112435065D01*
X138962293Y-112435067D01*
X138922965Y-112581840D01*
X138904457Y-112650913D01*
X138884502Y-112879000D01*
X133490605Y-112879000D01*
X133509210Y-112819083D01*
X133526239Y-112690604D01*
X133539248Y-112592455D01*
X133539248Y-112592451D01*
X133539948Y-112587171D01*
X133531172Y-112353396D01*
X133483132Y-112124441D01*
X133397203Y-111906854D01*
X133325495Y-111788683D01*
X133278609Y-111711417D01*
X133278607Y-111711414D01*
X133275841Y-111706856D01*
X133122517Y-111530166D01*
X132941614Y-111381835D01*
X132738305Y-111266104D01*
X132518404Y-111186284D01*
X132513155Y-111185335D01*
X132513152Y-111185334D01*
X132431960Y-111170652D01*
X132288197Y-111144656D01*
X132284058Y-111144461D01*
X132284051Y-111144460D01*
X132265172Y-111143570D01*
X132265165Y-111143570D01*
X132263684Y-111143500D01*
X131649262Y-111143500D01*
X131581359Y-111149262D01*
X131480209Y-111157844D01*
X131480205Y-111157845D01*
X131474898Y-111158295D01*
X131469741Y-111159633D01*
X131469738Y-111159634D01*
X131253629Y-111215725D01*
X131253625Y-111215726D01*
X131248460Y-111217067D01*
X131243594Y-111219259D01*
X131243591Y-111219260D01*
X131133739Y-111268745D01*
X131035163Y-111313150D01*
X130841104Y-111443798D01*
X130671832Y-111605276D01*
X130668649Y-111609554D01*
X130654638Y-111628385D01*
X130532187Y-111792965D01*
X130529771Y-111797716D01*
X130529769Y-111797720D01*
X130438852Y-111976540D01*
X130426162Y-112001500D01*
X130356790Y-112224917D01*
X130356089Y-112230204D01*
X130356089Y-112230205D01*
X130339055Y-112358727D01*
X130326052Y-112456829D01*
X127508000Y-112456829D01*
X127508000Y-108112400D01*
X130329500Y-108112400D01*
X130340474Y-108218166D01*
X130342655Y-108224702D01*
X130342655Y-108224704D01*
X130386728Y-108356806D01*
X130396450Y-108385946D01*
X130489522Y-108536348D01*
X130614697Y-108661305D01*
X130620927Y-108665145D01*
X130620928Y-108665146D01*
X130758090Y-108749694D01*
X130765262Y-108754115D01*
X130845005Y-108780564D01*
X130926611Y-108807632D01*
X130926613Y-108807632D01*
X130933139Y-108809797D01*
X130939975Y-108810497D01*
X130939978Y-108810498D01*
X130983031Y-108814909D01*
X131037600Y-108820500D01*
X132828400Y-108820500D01*
X132831646Y-108820163D01*
X132831650Y-108820163D01*
X132927308Y-108810238D01*
X132927312Y-108810237D01*
X132934166Y-108809526D01*
X132940702Y-108807345D01*
X132940704Y-108807345D01*
X133072806Y-108763272D01*
X133101946Y-108753550D01*
X133252348Y-108660478D01*
X133377305Y-108535303D01*
X133470115Y-108384738D01*
X133515388Y-108248243D01*
X133523632Y-108223389D01*
X133523632Y-108223387D01*
X133525797Y-108216861D01*
X133536500Y-108112400D01*
X133536500Y-106771600D01*
X133525526Y-106665834D01*
X133523297Y-106659151D01*
X133471868Y-106505002D01*
X133469550Y-106498054D01*
X133376478Y-106347652D01*
X133251303Y-106222695D01*
X133245072Y-106218854D01*
X133106968Y-106133725D01*
X133106966Y-106133724D01*
X133100738Y-106129885D01*
X132940254Y-106076655D01*
X132939389Y-106076368D01*
X132939387Y-106076368D01*
X132932861Y-106074203D01*
X132926025Y-106073503D01*
X132926022Y-106073502D01*
X132882969Y-106069091D01*
X132828400Y-106063500D01*
X131037600Y-106063500D01*
X131034354Y-106063837D01*
X131034350Y-106063837D01*
X130938692Y-106073762D01*
X130938688Y-106073763D01*
X130931834Y-106074474D01*
X130925298Y-106076655D01*
X130925296Y-106076655D01*
X130793194Y-106120728D01*
X130764054Y-106130450D01*
X130613652Y-106223522D01*
X130488695Y-106348697D01*
X130484855Y-106354927D01*
X130484854Y-106354928D01*
X130459215Y-106396523D01*
X130395885Y-106499262D01*
X130340203Y-106667139D01*
X130329500Y-106771600D01*
X130329500Y-108112400D01*
X127508000Y-108112400D01*
X127508000Y-100179000D01*
X146504502Y-100179000D01*
X146524457Y-100407087D01*
X146583716Y-100628243D01*
X146586039Y-100633224D01*
X146586039Y-100633225D01*
X146678151Y-100830762D01*
X146678154Y-100830767D01*
X146680477Y-100835749D01*
X146811802Y-101023300D01*
X146973700Y-101185198D01*
X146978208Y-101188355D01*
X146978211Y-101188357D01*
X147056389Y-101243098D01*
X147161251Y-101316523D01*
X147166233Y-101318846D01*
X147166238Y-101318849D01*
X147363775Y-101410961D01*
X147368757Y-101413284D01*
X147374065Y-101414706D01*
X147374067Y-101414707D01*
X147584598Y-101471119D01*
X147584600Y-101471119D01*
X147589913Y-101472543D01*
X147818000Y-101492498D01*
X148046087Y-101472543D01*
X148051400Y-101471119D01*
X148051402Y-101471119D01*
X148261933Y-101414707D01*
X148261935Y-101414706D01*
X148267243Y-101413284D01*
X148272225Y-101410961D01*
X148469762Y-101318849D01*
X148469767Y-101318846D01*
X148474749Y-101316523D01*
X148579611Y-101243098D01*
X148657789Y-101188357D01*
X148657792Y-101188355D01*
X148662300Y-101185198D01*
X148824198Y-101023300D01*
X148955523Y-100835749D01*
X148957846Y-100830767D01*
X148957849Y-100830762D01*
X149049961Y-100633225D01*
X149049961Y-100633224D01*
X149052284Y-100628243D01*
X149111543Y-100407087D01*
X149131498Y-100179000D01*
X149111543Y-99950913D01*
X149052284Y-99729757D01*
X149049961Y-99724775D01*
X148957849Y-99527238D01*
X148957846Y-99527233D01*
X148955523Y-99522251D01*
X148824198Y-99334700D01*
X148662300Y-99172802D01*
X148657792Y-99169645D01*
X148657789Y-99169643D01*
X148579611Y-99114902D01*
X148474749Y-99041477D01*
X148469767Y-99039154D01*
X148469762Y-99039151D01*
X148272225Y-98947039D01*
X148272224Y-98947039D01*
X148267243Y-98944716D01*
X148261935Y-98943294D01*
X148261933Y-98943293D01*
X148051402Y-98886881D01*
X148051400Y-98886881D01*
X148046087Y-98885457D01*
X147818000Y-98865502D01*
X147589913Y-98885457D01*
X147584600Y-98886881D01*
X147584598Y-98886881D01*
X147374067Y-98943293D01*
X147374065Y-98943294D01*
X147368757Y-98944716D01*
X147363776Y-98947039D01*
X147363775Y-98947039D01*
X147166238Y-99039151D01*
X147166233Y-99039154D01*
X147161251Y-99041477D01*
X147056389Y-99114902D01*
X146978211Y-99169643D01*
X146978208Y-99169645D01*
X146973700Y-99172802D01*
X146811802Y-99334700D01*
X146680477Y-99522251D01*
X146678154Y-99527233D01*
X146678151Y-99527238D01*
X146586039Y-99724775D01*
X146583716Y-99729757D01*
X146524457Y-99950913D01*
X146504502Y-100179000D01*
X127508000Y-100179000D01*
X127508000Y-97639000D01*
X138884502Y-97639000D01*
X138904457Y-97867087D01*
X138963716Y-98088243D01*
X138966039Y-98093224D01*
X138966039Y-98093225D01*
X139058151Y-98290762D01*
X139058154Y-98290767D01*
X139060477Y-98295749D01*
X139191802Y-98483300D01*
X139353700Y-98645198D01*
X139358208Y-98648355D01*
X139358211Y-98648357D01*
X139436389Y-98703098D01*
X139541251Y-98776523D01*
X139546233Y-98778846D01*
X139546238Y-98778849D01*
X139743775Y-98870961D01*
X139748757Y-98873284D01*
X139754065Y-98874706D01*
X139754067Y-98874707D01*
X139964598Y-98931119D01*
X139964600Y-98931119D01*
X139969913Y-98932543D01*
X140198000Y-98952498D01*
X140426087Y-98932543D01*
X140431400Y-98931119D01*
X140431402Y-98931119D01*
X140641933Y-98874707D01*
X140641935Y-98874706D01*
X140647243Y-98873284D01*
X140652225Y-98870961D01*
X140849762Y-98778849D01*
X140849767Y-98778846D01*
X140854749Y-98776523D01*
X140959611Y-98703098D01*
X141037789Y-98648357D01*
X141037792Y-98648355D01*
X141042300Y-98645198D01*
X141204198Y-98483300D01*
X141335523Y-98295749D01*
X141337846Y-98290767D01*
X141337849Y-98290762D01*
X141429961Y-98093225D01*
X141429961Y-98093224D01*
X141432284Y-98088243D01*
X141491543Y-97867087D01*
X141511498Y-97639000D01*
X141491543Y-97410913D01*
X141432284Y-97189757D01*
X141429961Y-97184775D01*
X141337849Y-96987238D01*
X141337846Y-96987233D01*
X141335523Y-96982251D01*
X141204198Y-96794700D01*
X141042300Y-96632802D01*
X141037792Y-96629645D01*
X141037789Y-96629643D01*
X140959611Y-96574902D01*
X140854749Y-96501477D01*
X140849767Y-96499154D01*
X140849762Y-96499151D01*
X140652225Y-96407039D01*
X140652224Y-96407039D01*
X140647243Y-96404716D01*
X140641935Y-96403294D01*
X140641933Y-96403293D01*
X140431402Y-96346881D01*
X140431400Y-96346881D01*
X140426087Y-96345457D01*
X140198000Y-96325502D01*
X139969913Y-96345457D01*
X139964600Y-96346881D01*
X139964598Y-96346881D01*
X139754067Y-96403293D01*
X139754065Y-96403294D01*
X139748757Y-96404716D01*
X139743776Y-96407039D01*
X139743775Y-96407039D01*
X139546238Y-96499151D01*
X139546233Y-96499154D01*
X139541251Y-96501477D01*
X139436389Y-96574902D01*
X139358211Y-96629643D01*
X139358208Y-96629645D01*
X139353700Y-96632802D01*
X139191802Y-96794700D01*
X139060477Y-96982251D01*
X139058154Y-96987233D01*
X139058151Y-96987238D01*
X138966039Y-97184775D01*
X138963716Y-97189757D01*
X138904457Y-97410913D01*
X138884502Y-97639000D01*
X127508000Y-97639000D01*
X127508000Y-88805134D01*
X130997823Y-88805134D01*
X131004578Y-88867316D01*
X131055708Y-89003705D01*
X131143062Y-89120261D01*
X131259618Y-89207615D01*
X131396007Y-89258745D01*
X131458189Y-89265500D01*
X133554457Y-89265500D01*
X133616639Y-89258745D01*
X133753028Y-89207615D01*
X133869584Y-89120261D01*
X133956938Y-89003705D01*
X134008068Y-88867316D01*
X134014823Y-88805134D01*
X134014823Y-88732134D01*
X145717495Y-88732134D01*
X145724250Y-88794316D01*
X145775380Y-88930705D01*
X145862734Y-89047261D01*
X145979290Y-89134615D01*
X146115679Y-89185745D01*
X146177861Y-89192500D01*
X147874129Y-89192500D01*
X147936311Y-89185745D01*
X148072700Y-89134615D01*
X148189256Y-89047261D01*
X148276610Y-88930705D01*
X148327740Y-88794316D01*
X148334495Y-88732134D01*
X148334495Y-87035866D01*
X148327740Y-86973684D01*
X148276610Y-86837295D01*
X148189256Y-86720739D01*
X148072700Y-86633385D01*
X147936311Y-86582255D01*
X147874129Y-86575500D01*
X146177861Y-86575500D01*
X146115679Y-86582255D01*
X145979290Y-86633385D01*
X145862734Y-86720739D01*
X145775380Y-86837295D01*
X145724250Y-86973684D01*
X145717495Y-87035866D01*
X145717495Y-88732134D01*
X134014823Y-88732134D01*
X134014823Y-86708866D01*
X134008068Y-86646684D01*
X133956938Y-86510295D01*
X133869584Y-86393739D01*
X133753028Y-86306385D01*
X133616639Y-86255255D01*
X133554457Y-86248500D01*
X131458189Y-86248500D01*
X131396007Y-86255255D01*
X131259618Y-86306385D01*
X131143062Y-86393739D01*
X131055708Y-86510295D01*
X131004578Y-86646684D01*
X130997823Y-86708866D01*
X130997823Y-88805134D01*
X127508000Y-88805134D01*
X127508000Y-66560190D01*
X127528002Y-66492069D01*
X127544905Y-66471095D01*
X128479095Y-65536905D01*
X128541407Y-65502879D01*
X128568190Y-65500000D01*
X150931810Y-65500000D01*
X150999931Y-65520002D01*
G37*
%TD.AperFunction*%
%TD*%
%TA.AperFunction,Conductor*%
%TO.N,GND*%
G36*
X195805322Y-48413492D02*
G01*
X195827002Y-48430969D01*
X196255092Y-48862303D01*
X196288882Y-48924743D01*
X196291653Y-48952455D01*
X196216456Y-55748394D01*
X196195702Y-55816289D01*
X196141535Y-55862186D01*
X196090464Y-55873000D01*
X193240195Y-55873000D01*
X193172074Y-55852998D01*
X193125581Y-55799342D01*
X193115477Y-55729068D01*
X193144971Y-55664488D01*
X193190458Y-55631232D01*
X193209365Y-55623109D01*
X193217641Y-55618800D01*
X193425562Y-55490135D01*
X193427405Y-55488796D01*
X193434823Y-55477541D01*
X193428759Y-55467184D01*
X192435597Y-54474022D01*
X192421653Y-54466408D01*
X192419820Y-54466539D01*
X192413205Y-54470790D01*
X191420829Y-55463166D01*
X191414171Y-55475359D01*
X191422884Y-55486879D01*
X191511371Y-55551760D01*
X191519290Y-55556708D01*
X191669034Y-55635492D01*
X191720007Y-55684911D01*
X191736170Y-55754044D01*
X191712391Y-55820940D01*
X191656220Y-55864360D01*
X191610367Y-55873000D01*
X191060190Y-55873000D01*
X190992069Y-55852998D01*
X190971095Y-55836095D01*
X190536905Y-55401905D01*
X190502879Y-55339593D01*
X190500000Y-55312810D01*
X190500000Y-54470132D01*
X190520002Y-54402011D01*
X190573658Y-54355518D01*
X190643932Y-54345414D01*
X190708512Y-54374908D01*
X190746896Y-54434634D01*
X190749579Y-54445551D01*
X190771378Y-54555143D01*
X190773867Y-54564118D01*
X190856493Y-54794250D01*
X190860290Y-54802778D01*
X190976019Y-55018160D01*
X190981030Y-55026027D01*
X191037958Y-55102263D01*
X191049216Y-55110712D01*
X191061635Y-55103940D01*
X192050763Y-54114812D01*
X192057141Y-54103132D01*
X192787193Y-54103132D01*
X192787324Y-54104965D01*
X192791575Y-54111580D01*
X193786517Y-55106522D01*
X193798897Y-55113282D01*
X193807238Y-55107038D01*
X193925485Y-54923202D01*
X193929932Y-54915011D01*
X194030357Y-54692076D01*
X194033552Y-54683298D01*
X194099920Y-54447973D01*
X194101778Y-54438844D01*
X194132829Y-54194770D01*
X194133310Y-54188483D01*
X194135491Y-54105160D01*
X194135340Y-54098851D01*
X194117106Y-53853486D01*
X194115729Y-53844280D01*
X194061764Y-53605786D01*
X194059040Y-53596875D01*
X193970418Y-53368983D01*
X193966404Y-53360567D01*
X193845069Y-53148276D01*
X193839859Y-53140553D01*
X193808572Y-53100865D01*
X193796648Y-53092395D01*
X193785113Y-53098882D01*
X192794807Y-54089188D01*
X192787193Y-54103132D01*
X192057141Y-54103132D01*
X192058377Y-54100868D01*
X192058246Y-54099035D01*
X192053995Y-54092420D01*
X191059613Y-53098038D01*
X191046305Y-53090771D01*
X191036266Y-53097893D01*
X191031366Y-53103784D01*
X191025953Y-53111373D01*
X190899107Y-53320409D01*
X190894869Y-53328726D01*
X190800314Y-53554214D01*
X190797357Y-53563052D01*
X190748123Y-53756910D01*
X190711968Y-53818011D01*
X190648519Y-53849865D01*
X190577920Y-53842360D01*
X190522586Y-53797878D01*
X190500000Y-53725894D01*
X190500000Y-52726917D01*
X191412115Y-52726917D01*
X191416688Y-52736693D01*
X192409973Y-53729978D01*
X192423917Y-53737592D01*
X192425750Y-53737461D01*
X192432365Y-53733210D01*
X193425273Y-52740302D01*
X193431657Y-52728612D01*
X193422245Y-52716502D01*
X193295929Y-52628873D01*
X193287901Y-52624145D01*
X193068595Y-52515995D01*
X193059962Y-52512507D01*
X192827073Y-52437958D01*
X192818023Y-52435785D01*
X192576676Y-52396480D01*
X192567387Y-52395668D01*
X192322899Y-52392467D01*
X192313588Y-52393037D01*
X192071307Y-52426010D01*
X192062188Y-52427948D01*
X191827453Y-52496367D01*
X191818700Y-52499639D01*
X191596654Y-52602004D01*
X191588499Y-52606524D01*
X191421253Y-52716175D01*
X191412115Y-52726917D01*
X190500000Y-52726917D01*
X190500000Y-51000000D01*
X171000000Y-51000000D01*
X171000000Y-61246000D01*
X183439810Y-61246000D01*
X183507931Y-61266002D01*
X183528905Y-61282905D01*
X183963095Y-61717095D01*
X183997121Y-61779407D01*
X184000000Y-61806190D01*
X184000000Y-121740810D01*
X183979998Y-121808931D01*
X183963095Y-121829905D01*
X183528905Y-122264095D01*
X183466593Y-122298121D01*
X183439810Y-122301000D01*
X172059839Y-122301000D01*
X171991718Y-122280998D01*
X171971170Y-122264520D01*
X171531973Y-121829502D01*
X171497651Y-121767353D01*
X171494648Y-121741187D01*
X171494645Y-121740810D01*
X171004856Y-70507977D01*
X171000000Y-70000000D01*
X166060190Y-70000000D01*
X165992069Y-69979998D01*
X165971095Y-69963095D01*
X165536905Y-69528905D01*
X165502879Y-69466593D01*
X165500000Y-69439810D01*
X165500000Y-49060062D01*
X165520002Y-48991941D01*
X165536748Y-48971123D01*
X165971249Y-48535092D01*
X166033501Y-48500958D01*
X166060058Y-48498032D01*
X180898928Y-48445880D01*
X195737132Y-48393730D01*
X195805322Y-48413492D01*
G37*
%TD.AperFunction*%
%TD*%
M02*
